<svg width="2600" height="2210" xmlns="http://www.w3.org/2000/svg" xmlns:xlink="http://www.w3.org/1999/xlink" overflow="hidden"><defs><clipPath id="clip0"><rect x="893" y="41" width="2600" height="2210"/></clipPath></defs><g clip-path="url(#clip0)" transform="translate(-893 -41)"><path d="M1382.52 732.358C1611.52 285.293 2159.58 108.518 2606.64 337.519 3053.71 566.52 3230.48 1114.58 3001.48 1561.64 2772.48 2008.71 2224.42 2185.48 1777.36 1956.48 1354.69 1739.98 1169.74 1234.73 1352.74 796.521" stroke="#000000" stroke-width="9.16667" stroke-miterlimit="8" fill="none" fill-rule="evenodd"/><path d="M893 1146 3491.43 1146" stroke="#000000" stroke-width="2.29167" stroke-miterlimit="8" fill="none" fill-rule="evenodd"/><path d="M2192 2250.66 2192 41.9998" stroke="#000000" stroke-width="2.29167" stroke-miterlimit="8" fill="none" fill-rule="evenodd"/><path d="M1282.5 1471.5C1282.5 1435.6 1311.6 1406.5 1347.5 1406.5 1383.4 1406.5 1412.5 1435.6 1412.5 1471.5 1412.5 1507.4 1383.4 1536.5 1347.5 1536.5 1311.6 1536.5 1282.5 1507.4 1282.5 1471.5Z" stroke="#000000" stroke-width="20.625" stroke-miterlimit="8" fill="none" fill-rule="evenodd"/><path d="M1262.31 1641.88 1247.28 1617.51 1233.46 1592.65 1220.9 1567.34 1209.66 1541.65 1199.68 1515.59 1191.01 1489.27 1183.66 1462.57 1178.93 1441.51 1184.52 1440.26 1189.23 1461.25 1189.2 1461.11 1196.51 1487.68 1196.47 1487.54 1205.1 1513.73 1205.05 1513.6 1214.99 1539.54 1214.94 1539.41 1226.12 1564.98 1226.07 1564.85 1238.57 1590.04 1238.5 1589.92 1252.25 1614.67 1252.19 1614.56 1267.19 1638.87ZM1165.65 1485.34 1180.44 1435.13 1215.26 1474.21C1216.31 1475.39 1216.21 1477.2 1215.02 1478.26 1213.84 1479.31 1212.03 1479.2 1210.98 1478.02L1179.59 1442.79 1184.48 1441.69 1171.14 1486.96C1170.7 1488.48 1169.1 1489.34 1167.59 1488.9 1166.07 1488.45 1165.2 1486.86 1165.65 1485.34Z"/><rect x="1050.5" y="1525.5" width="239" height="334" stroke="#000000" stroke-width="3.4375" stroke-linejoin="round" stroke-miterlimit="10" stroke-opacity="0" fill="none"/><text font-family="Calibri,Calibri_MSFontService,sans-serif" font-weight="400" font-size="83" transform="matrix(1 0 0 1 1083.43 1619)">$<tspan font-size="83" x="41.8229" y="0">\</tspan><tspan font-size="83" x="73.9063" y="0">o</tspan><tspan font-size="83" x="0" y="99">meg</tspan><tspan font-size="83" x="0" y="198">a$</tspan></text><path d="M1353.5 796.5 2192.71 1146.96" stroke="#000000" stroke-width="4.58333" stroke-miterlimit="8" stroke-dasharray="18.3333 13.75" stroke-opacity="0.419608" fill="none" fill-rule="evenodd"/><rect x="1687.5" y="823.5" width="492" height="133" stroke="#000000" stroke-width="3.4375" stroke-linejoin="round" stroke-miterlimit="10" stroke-opacity="0" fill="none"/><text font-family="Calibri,Calibri_MSFontService,sans-serif" font-weight="400" font-size="83" transform="matrix(1 0 0 1 1719.87 916)">$R$</text><rect x="1716.5" y="1025.5" width="492" height="133" stroke="#000000" stroke-width="3.4375" stroke-linejoin="round" stroke-miterlimit="10" stroke-opacity="0" fill="none"/><text font-family="Calibri,Calibri_MSFontService,sans-serif" font-weight="400" font-size="83" transform="matrix(1 0 0 1 1748.83 1118)">$<tspan font-size="83" x="41.8229" y="0">\</tspan><tspan font-size="83" x="73.9063" y="0">theta$</tspan></text><path d="M1710.39 1149.15C1679.32 1085.28 1694.49 1008.62 1747.46 961.823" stroke="#000000" stroke-width="2.29167" stroke-miterlimit="8" fill="none" fill-rule="evenodd"/><path d="M2170.5 2056C2170.5 2043.02 2180.13 2032.5 2192 2032.5 2203.87 2032.5 2213.5 2043.02 2213.5 2056 2213.5 2068.98 2203.87 2079.5 2192 2079.5 2180.13 2079.5 2170.5 2068.98 2170.5 2056Z" stroke="#000000" stroke-width="4.58333" stroke-miterlimit="8" fill="#FF0000" fill-rule="evenodd"/><rect x="2192.5" y="1921.5" width="239" height="133" stroke="#000000" stroke-width="3.4375" stroke-linejoin="round" stroke-miterlimit="10" stroke-opacity="0" fill="none"/><text font-family="Calibri,Calibri_MSFontService,sans-serif" font-weight="400" font-size="83" transform="matrix(1 0 0 1 2224.82 2014)">$P$</text><path d="M3065.94 355.5 3065.94 582.887 3059.06 582.887 3059.06 355.5ZM3088.42 543.306 3062.5 589.965 3036.58 543.306C3035.66 541.646 3036.25 539.554 3037.91 538.632 3039.57 537.71 3041.67 538.308 3042.59 539.967L3065.51 581.217 3059.5 581.217 3082.41 539.967C3083.33 538.307 3085.43 537.71 3087.09 538.632 3088.75 539.554 3089.34 541.646 3088.42 543.306Z"/><rect x="3067.5" y="411.5" width="424" height="133" stroke="#000000" stroke-width="3.4375" stroke-linejoin="round" stroke-miterlimit="10" stroke-opacity="0" fill="none"/><text font-family="Calibri,Calibri_MSFontService,sans-serif" font-weight="400" font-size="83" transform="matrix(1 0 0 1 3100.24 505)">$<tspan font-size="83" x="41.823" y="0">\</tspan><tspan font-size="83" x="73.9063" y="0">vec</tspan><tspan font-size="83" x="186.542" y="0">{g}$</tspan></text></g></svg>