<svg width="606" height="483" xmlns="http://www.w3.org/2000/svg" xmlns:xlink="http://www.w3.org/1999/xlink" overflow="hidden"><defs><clipPath id="clip0"><rect x="235" y="73" width="606" height="483"/></clipPath></defs><g clip-path="url(#clip0)" transform="translate(-235 -73)"><rect x="328.5" y="316.5" width="378" height="226" stroke="#000000" stroke-width="3" stroke-miterlimit="8" fill="none"/><path d="M328.5 316.5 516.619 89.5001 706.5 316.5Z" stroke="#000000" stroke-width="3" stroke-miterlimit="8" fill="none" fill-rule="evenodd"/><path d="M1 2.05953 1.0001 224.712-0.999896 224.712-0.999999 2.05953ZM-7.54082 13.5744-2.91091e-08 0.000874139 7.54083 13.5744C7.80904 14.0571 7.6351 14.6659 7.15232 14.9342 6.66953 15.2024 6.06073 15.0284 5.79252 14.5456L-0.874156 2.54564 0.874158 2.54564-5.7925 14.5456C-6.06072 15.0284-6.66952 15.2024-7.1523 14.9342-7.63509 14.6659-7.80903 14.0571-7.54082 13.5744ZM7.54092 213.197 0.00010477 226.771-7.54073 213.197C-7.80894 212.715-7.63499 212.106-7.15221 211.837-6.66943 211.569-6.06062 211.743-5.79241 212.226L0.874261 224.226-0.874053 224.226 5.79261 212.226C6.06082 211.743 6.66962 211.569 7.15241 211.837 7.63519 212.106 7.80914 212.715 7.54092 213.197Z" transform="matrix(1 0 0 -1 726 542.772)"/><rect x="721.5" y="410.5" width="89" height="38" stroke="#000000" stroke-linejoin="round" stroke-miterlimit="10" stroke-opacity="0" fill="none"/><text font-family="Calibri,Calibri_MSFontService,sans-serif" font-weight="400" font-size="24" transform="translate(745.774 436)">$H<tspan font-size="24" x="27.1666" y="0">$</tspan></text><path d="M1 2.06234 1.0001 438.515-0.999896 438.515-0.999999 2.06234ZM-7.54082 13.5744-5.14941e-10 0.000874139 7.54083 13.5744C7.80904 14.0571 7.6351 14.6659 7.15231 14.9342 6.66953 15.2024 6.06073 15.0284 5.79251 14.5456L-0.874157 2.54564 0.874158 2.54564-5.79251 14.5456C-6.06072 15.0284-6.66952 15.2024-7.15231 14.9342-7.63509 14.6659-7.80903 14.0571-7.54082 13.5744ZM7.54093 427 0.000104882 440.573-7.54072 427C-7.80894 426.517-7.63499 425.908-7.15221 425.64-6.66942 425.372-6.06062 425.546-5.79241 426.028L0.874262 438.028-0.874053 438.028 5.79261 426.028C6.06082 425.546 6.66963 425.372 7.15241 425.64 7.63519 425.908 7.80914 426.517 7.54093 427Z" transform="matrix(1 0 0 -1 315 542.574)"/><rect x="239.5" y="296.5" width="89" height="39" stroke="#000000" stroke-linejoin="round" stroke-miterlimit="10" stroke-opacity="0" fill="none"/><text font-family="Calibri,Calibri_MSFontService,sans-serif" font-weight="400" font-size="24" transform="translate(257.712 323)">$2H<tspan font-size="24" x="39.3333" y="0">$</tspan></text><path d="M236.5 542.5 808.582 542.5" stroke="#000000" stroke-width="0.666667" stroke-miterlimit="8" fill="none" fill-rule="evenodd"/><path d="M608.966 314.6C598.177 284.446 611.22 251.805 638.099 241.694 639.291 241.245 640.501 240.846 641.726 240.497" stroke="#000000" stroke-width="0.666667" stroke-miterlimit="8" fill="none" fill-rule="evenodd"/><text font-family="Calibri,Calibri_MSFontService,sans-serif" font-weight="400" font-size="24" transform="translate(607.967 303)">$ <tspan font-size="24" x="17.6667" y="0">\</tspan><tspan font-size="24" x="27" y="0">pi/4$</tspan></text><path d="M522.5 88.5001C522.5 80.7681 529.216 74.5001 537.5 74.5001 545.784 74.5001 552.5 80.7681 552.5 88.5001 552.5 96.232 545.784 102.5 537.5 102.5 529.216 102.5 522.5 96.232 522.5 88.5001Z" stroke="#000000" stroke-width="1.33333" stroke-miterlimit="8" fill="#3B3838" fill-rule="evenodd"/><path d="M721.833 88 721.833 150.242 720.167 150.242 720.167 88ZM726.387 142.661 721 151.895 715.614 142.661C715.382 142.264 715.516 141.754 715.914 141.522 716.311 141.29 716.821 141.424 717.053 141.822L721.72 149.822 720.28 149.822 724.947 141.822C725.179 141.424 725.689 141.29 726.087 141.522 726.484 141.754 726.618 142.264 726.387 142.661Z"/><rect x="721.5" y="100.5" width="119" height="39" stroke="#000000" stroke-linejoin="round" stroke-miterlimit="10" stroke-opacity="0" fill="none"/><text font-family="Calibri,Calibri_MSFontService,sans-serif" font-weight="400" font-size="24" transform="translate(730.753 127)">$<tspan font-size="24" x="12.1667" y="0">\</tspan><tspan font-size="24" x="21.5" y="0">vec</tspan><tspan font-size="24" x="54.2667" y="0">{g}$</tspan></text></g></svg>