<svg width="547" height="236" xmlns="http://www.w3.org/2000/svg" xmlns:xlink="http://www.w3.org/1999/xlink" overflow="hidden"><defs><clipPath id="clip0"><rect x="196" y="239" width="547" height="236"/></clipPath></defs><g clip-path="url(#clip0)" transform="translate(-196 -239)"><path d="M221.5 459.5 620.5 275.5 620.5 459.5Z" stroke="#000000" stroke-width="1.33333" stroke-miterlimit="8" fill="none" fill-rule="evenodd"/><path d="M350.253 398.5C363.235 393.276 374.518 386.718 387.5 381.494 387.167 349.823 386.834 318.151 386.501 286.48L349.553 285.5C349.22 322.722 350.586 361.278 350.253 398.5Z" stroke="#000000" stroke-width="1.33333" stroke-miterlimit="8" fill="none" fill-rule="evenodd"/><path d="M307.161 420.398C315.329 431.055 317.682 445.445 313.503 459.18" stroke="#000000" stroke-width="0.666667" stroke-miterlimit="8" fill="none" fill-rule="evenodd"/><rect x="273.5" y="426.5" width="108" height="39" stroke="#000000" stroke-linejoin="round" stroke-miterlimit="10" stroke-opacity="0" fill="none"/><text font-family="Calibri,Calibri_MSFontService,sans-serif" font-weight="400" font-size="24" transform="translate(282.384 453)">$<tspan font-size="24" x="12.1667" y="0">\</tspan><tspan font-size="24" x="21.5" y="0">alpha</tspan><tspan font-size="24" x="75.3333" y="0">$</tspan></text><rect x="560.5" y="424.5" width="65" height="39" stroke="#000000" stroke-linejoin="round" stroke-miterlimit="10" stroke-opacity="0" fill="none"/><text font-family="Calibri,Calibri_MSFontService,sans-serif" font-weight="400" font-size="24" transform="translate(570.086 451)">$M$</text><rect x="342.5" y="355.5" width="63" height="39" stroke="#000000" stroke-linejoin="round" stroke-miterlimit="10" stroke-opacity="0" fill="none"/><text font-family="Calibri,Calibri_MSFontService,sans-serif" font-weight="400" font-size="24" transform="translate(351.332 382)">$m$</text><path d="M197.5 459.5 670.3 459.5" stroke="#000000" stroke-width="0.666667" stroke-miterlimit="8" fill="none" fill-rule="evenodd"/><path d="M210 325 349.61 325" stroke="#000000" stroke-width="1.66667" stroke-miterlimit="8" fill="none" fill-rule="evenodd"/><path d="M387 325 460.311 325" stroke="#000000" stroke-width="1.66667" stroke-miterlimit="8" fill="none" fill-rule="evenodd"/><path d="M0 0 0.000104987 85.0667" stroke="#000000" stroke-width="1.66667" stroke-miterlimit="8" fill="none" fill-rule="evenodd" transform="matrix(1 0 0 -1 349 325.067)"/><path d="M0 0 0.000104987 85.0667" stroke="#000000" stroke-width="1.66667" stroke-miterlimit="8" fill="none" fill-rule="evenodd" transform="matrix(1 0 0 -1 387 325.067)"/><rect x="211.5" y="352.5" width="110" height="39" stroke="#000000" stroke-linejoin="round" stroke-miterlimit="10" stroke-opacity="0" fill="none"/><text font-family="Calibri,Calibri_MSFontService,sans-serif" font-weight="400" font-size="24" transform="translate(221.01 379)">$<tspan font-size="24" x="12.1667" y="0">\</tspan><tspan font-size="24" x="21.5" y="0">mu=0$</tspan></text><rect x="628.5" y="394.5" width="110" height="39" stroke="#000000" stroke-linejoin="round" stroke-miterlimit="10" stroke-opacity="0" fill="none"/><text font-family="Calibri,Calibri_MSFontService,sans-serif" font-weight="400" font-size="24" transform="translate(637.749 421)">$<tspan font-size="24" x="12.1667" y="0">\</tspan><tspan font-size="24" x="21.5" y="0">mu=0$</tspan></text><path d="M308.719 384.87 343.905 397.085 343.467 398.345 308.281 386.13ZM335.033 387.037 344.983 398.165 330.278 400.734C329.915 400.798 329.57 400.555 329.507 400.192 329.443 399.83 329.686 399.484 330.049 399.421L343.571 397.058 343.189 398.16 334.039 387.926C333.794 387.652 333.817 387.23 334.092 386.985 334.366 386.739 334.788 386.763 335.033 387.037Z"/><path d="M0.402487-0.531459 33.6943 24.6812 32.8893 25.7442-0.402487 0.531459ZM28.3603 12.3842 34.3861 26.0414 19.6069 23.9425C19.2424 23.8908 18.9888 23.5533 19.0406 23.1888 19.0924 22.8242 19.4298 22.5707 19.7944 22.6224L33.3855 24.5526 32.6818 25.4818 27.1404 12.9224C26.9918 12.5856 27.1444 12.192 27.4812 12.0434 27.8181 11.8947 28.2117 12.0473 28.3603 12.3842Z" transform="matrix(-1 0 0 1 654.887 433.5)"/></g></svg>