<?xml version="1.0" encoding="utf-8" standalone="no"?>
<!DOCTYPE svg PUBLIC "-//W3C//DTD SVG 1.1//EN"
  "http://www.w3.org/Graphics/SVG/1.1/DTD/svg11.dtd">
<svg height="309.149375pt" version="1.1" viewBox="0 0 589.949375 309.149375" width="589.949375pt" xmlns="http://www.w3.org/2000/svg" xmlns:xlink="http://www.w3.org/1999/xlink">
 <metadata>
  <rdf:RDF xmlns:cc="http://creativecommons.org/ns#" xmlns:dc="http://purl.org/dc/elements/1.1/" xmlns:rdf="http://www.w3.org/1999/02/22-rdf-syntax-ns#">
   <cc:Work>
    <dc:type rdf:resource="http://purl.org/dc/dcmitype/StillImage"/>
    <dc:date>2021-10-19T02:21:38.384090</dc:date>
    <dc:format>image/svg+xml</dc:format>
    <dc:creator>
     <cc:Agent>
      <dc:title>Matplotlib v3.4.2, https://matplotlib.org/</dc:title>
     </cc:Agent>
    </dc:creator>
   </cc:Work>
  </rdf:RDF>
 </metadata>
 <defs>
  <style type="text/css">*{stroke-linecap:butt;stroke-linejoin:round;}</style>
 </defs>
 <g id="figure_1">
  <g id="patch_1">
   <path d="M 0 309.149375 
L 589.949375 309.149375 
L 589.949375 0 
L 0 0 
z
" style="fill:none;"/>
  </g>
  <g id="axes_1">
   <g id="patch_2">
    <path d="M 24.749375 284.4 
L 582.749375 284.4 
L 582.749375 7.2 
L 24.749375 7.2 
z
" style="fill:none;"/>
   </g>
   <g id="matplotlib.axis_1">
    <g id="text_1">
     <!-- $t$ -->
     <g transform="translate(300.949375 299.037813)scale(0.14 -0.14)">
      <defs>
       <path d="M 2706 3500 
L 2619 3053 
L 1472 3053 
L 1100 1153 
Q 1081 1047 1072 975 
Q 1063 903 1063 863 
Q 1063 663 1183 572 
Q 1303 481 1569 481 
L 2150 481 
L 2053 0 
L 1503 0 
Q 991 0 739 200 
Q 488 400 488 806 
Q 488 878 497 964 
Q 506 1050 525 1153 
L 897 3053 
L 409 3053 
L 500 3500 
L 978 3500 
L 1172 4494 
L 1747 4494 
L 1556 3500 
L 2706 3500 
z
" id="DejaVuSans-Oblique-74" transform="scale(0.015625)"/>
      </defs>
      <use transform="translate(0 0.78125)" xlink:href="#DejaVuSans-Oblique-74"/>
     </g>
    </g>
   </g>
   <g id="matplotlib.axis_2">
    <g id="text_2">
     <!-- $x(t)$ -->
     <g transform="translate(17.837812 158.19)rotate(-90)scale(0.14 -0.14)">
      <defs>
       <path d="M 3841 3500 
L 2234 1784 
L 3219 0 
L 2559 0 
L 1819 1388 
L 531 0 
L -166 0 
L 1556 1844 
L 641 3500 
L 1300 3500 
L 1972 2234 
L 3144 3500 
L 3841 3500 
z
" id="DejaVuSans-Oblique-78" transform="scale(0.015625)"/>
       <path d="M 1984 4856 
Q 1566 4138 1362 3434 
Q 1159 2731 1159 2009 
Q 1159 1288 1364 580 
Q 1569 -128 1984 -844 
L 1484 -844 
Q 1016 -109 783 600 
Q 550 1309 550 2009 
Q 550 2706 781 3412 
Q 1013 4119 1484 4856 
L 1984 4856 
z
" id="DejaVuSans-28" transform="scale(0.015625)"/>
       <path d="M 513 4856 
L 1013 4856 
Q 1481 4119 1714 3412 
Q 1947 2706 1947 2009 
Q 1947 1309 1714 600 
Q 1481 -109 1013 -844 
L 513 -844 
Q 928 -128 1133 580 
Q 1338 1288 1338 2009 
Q 1338 2731 1133 3434 
Q 928 4138 513 4856 
z
" id="DejaVuSans-29" transform="scale(0.015625)"/>
      </defs>
      <use transform="translate(0 0.125)" xlink:href="#DejaVuSans-Oblique-78"/>
      <use transform="translate(59.179688 0.125)" xlink:href="#DejaVuSans-28"/>
      <use transform="translate(98.193359 0.125)" xlink:href="#DejaVuSans-Oblique-74"/>
      <use transform="translate(137.402344 0.125)" xlink:href="#DejaVuSans-29"/>
     </g>
    </g>
   </g>
   <g id="line2d_1">
    <path clip-path="url(#pa35d08859d)" d="M 24.749375 157.122683 
L 582.749375 157.122683 
" style="fill:none;stroke:#000000;stroke-linecap:square;stroke-opacity:0.6;stroke-width:0.5;"/>
   </g>
   <g id="line2d_2">
    <path clip-path="url(#pa35d08859d)" d="M 24.749375 129.840878 
L 26.425051 83.51218 
L 27.542168 58.688727 
L 28.659285 40.438327 
L 29.217843 34.10827 
L 29.776402 29.758162 
L 30.334961 27.436071 
L 30.893519 27.157982 
L 31.452078 28.907869 
L 32.010636 32.638265 
L 32.569195 38.271316 
L 33.127753 45.700291 
L 34.24487 65.386838 
L 35.361988 90.350413 
L 37.037663 134.032277 
L 39.830456 207.871291 
L 40.947573 232.452328 
L 42.06469 251.892451 
L 42.623249 259.325842 
L 43.181807 265.09259 
L 43.740366 269.119433 
L 44.298925 271.360952 
L 44.857483 271.8 
L 45.416042 270.447687 
L 45.9746 267.342929 
L 46.533159 262.551561 
L 47.091717 256.165044 
L 48.208834 239.090102 
L 49.325952 217.289839 
L 51.001627 178.930884 
L 53.79442 113.638297 
L 54.911537 91.749774 
L 56.028654 74.333692 
L 56.587213 67.624789 
L 57.145771 62.377331 
L 57.70433 58.65853 
L 58.262889 56.51111 
L 58.821447 55.952883 
L 59.380006 56.976719 
L 59.938564 59.550907 
L 60.497123 63.619891 
L 61.055681 69.105378 
L 62.172798 83.907981 
L 63.289916 102.940222 
L 64.965591 136.617974 
L 67.758384 194.34263 
L 68.875501 213.828462 
L 69.992618 229.424912 
L 70.551177 235.475846 
L 71.109735 240.245556 
L 71.668294 243.672477 
L 72.226852 245.716582 
L 72.785411 246.359791 
L 73.34397 245.606035 
L 73.902528 243.480973 
L 74.461087 240.031378 
L 75.019645 235.324196 
L 76.136762 222.497981 
L 77.25388 205.887256 
L 78.929555 176.325565 
L 81.722348 125.301081 
L 82.839465 107.958662 
L 83.956582 93.997228 
L 84.515141 88.543261 
L 85.073699 84.212272 
L 85.632258 81.060564 
L 86.190816 79.125503 
L 86.749375 78.425126 
L 87.307934 78.958049 
L 87.866492 80.703683 
L 88.425051 83.622748 
L 88.983609 87.65807 
L 90.100726 98.765981 
L 91.217843 113.258869 
L 92.893519 139.202115 
L 95.686312 184.295826 
L 96.803429 199.7267 
L 97.920546 212.219739 
L 98.479105 217.132587 
L 99.037663 221.061383 
L 99.596222 223.954707 
L 100.15478 225.777788 
L 100.713339 226.512876 
L 101.271898 226.159352 
L 101.830456 224.733569 
L 102.389015 222.268424 
L 102.947573 218.812682 
L 104.06469 209.198084 
L 105.181807 196.556956 
L 106.857483 173.794073 
L 109.650276 133.94909 
L 110.767393 120.222479 
L 111.88451 109.047554 
L 113.001627 101.0641 
L 113.560186 98.41244 
L 114.118744 96.702057 
L 114.677303 95.95023 
L 115.235861 96.159125 
L 115.79442 97.315919 
L 116.352979 99.393145 
L 116.911537 102.349267 
L 118.028654 110.666626 
L 119.145771 121.689078 
L 120.821447 141.657192 
L 124.172798 183.196447 
L 125.289916 194.378387 
L 126.407033 203.037117 
L 126.965591 206.261339 
L 127.52415 208.687733 
L 128.082708 210.286434 
L 128.641267 211.040775 
L 129.199825 210.947411 
L 129.758384 210.01624 
L 130.316943 208.270117 
L 130.875501 205.744368 
L 131.43406 202.486116 
L 132.551177 194.01431 
L 133.668294 183.431341 
L 135.902528 158.788125 
L 138.136762 134.711017 
L 139.25388 124.744959 
L 140.370997 116.976661 
L 140.929555 114.059516 
L 141.488114 111.842468 
L 142.046672 110.353093 
L 142.605231 109.60735 
L 143.163789 109.609454 
L 143.722348 110.351924 
L 144.280907 111.815815 
L 144.839465 113.971131 
L 145.398024 116.7774 
L 146.515141 124.133082 
L 147.632258 133.380991 
L 149.307934 149.449435 
L 152.100726 176.369414 
L 153.217843 185.249324 
L 154.334961 192.215626 
L 154.893519 194.85286 
L 155.452078 196.875886 
L 156.010636 198.259299 
L 156.569195 198.987912 
L 157.127753 199.056893 
L 157.686312 198.471737 
L 158.24487 197.248077 
L 158.803429 195.411341 
L 159.361988 192.996257 
L 160.479105 186.612524 
L 161.596222 178.533506 
L 163.271898 164.419393 
L 166.06469 140.609507 
L 167.181807 132.699533 
L 168.298925 126.45515 
L 168.857483 124.07276 
L 169.416042 122.229107 
L 169.9746 120.947554 
L 170.533159 120.242474 
L 171.091717 120.119112 
L 171.650276 120.573595 
L 172.208834 121.593086 
L 172.767393 123.156073 
L 173.325952 125.232784 
L 174.443069 130.770425 
L 175.560186 137.826288 
L 177.235861 150.221249 
L 180.028654 171.27643 
L 181.145771 178.320522 
L 182.262889 183.915438 
L 182.821447 186.06607 
L 183.380006 187.744263 
L 183.938564 188.928573 
L 184.497123 189.605464 
L 185.055681 189.769443 
L 185.61424 189.423062 
L 186.172798 188.576802 
L 186.731357 187.24883 
L 187.289916 185.464637 
L 188.407033 180.663256 
L 189.52415 174.502759 
L 191.199825 163.619781 
L 193.992618 145.004054 
L 195.109735 138.73271 
L 196.226852 133.721761 
L 196.785411 131.781673 
L 197.34397 130.25579 
L 197.902528 129.163765 
L 198.461087 128.518294 
L 199.019645 128.324986 
L 199.578204 128.582351 
L 200.136762 129.281889 
L 200.695321 130.408296 
L 201.25388 131.939767 
L 202.370997 136.100706 
L 203.488114 141.477863 
L 205.163789 151.031317 
L 207.956582 167.487182 
L 209.073699 173.069106 
L 210.190816 177.555256 
L 211.307934 180.690209 
L 211.866492 181.695099 
L 212.425051 182.307075 
L 212.983609 182.520514 
L 213.542168 182.336059 
L 214.100726 181.760547 
L 214.659285 180.806842 
L 215.217843 179.493572 
L 216.334961 175.889508 
L 217.452078 171.197507 
L 219.127753 162.812909 
L 221.920546 148.268989 
L 223.037663 143.30196 
L 224.15478 139.287195 
L 225.271898 136.453842 
L 225.830456 135.530857 
L 226.389015 134.953524 
L 226.947573 134.727398 
L 227.506132 134.852504 
L 228.06469 135.323395 
L 228.623249 136.129288 
L 229.181807 137.254289 
L 230.298925 140.374336 
L 231.416042 144.467215 
L 233.091717 151.824411 
L 235.88451 164.676166 
L 237.001627 169.094932 
L 238.118744 172.686495 
L 239.235861 175.245373 
L 239.79442 176.091672 
L 240.352979 176.633953 
L 240.911537 176.866793 
L 241.470096 176.789647 
L 242.028654 176.406804 
L 242.587213 175.727275 
L 243.145771 174.764603 
L 244.262889 172.065074 
L 245.380006 168.495945 
L 247.055681 162.04164 
L 250.407033 148.64601 
L 251.52415 145.048713 
L 252.641267 142.26862 
L 253.199825 141.23603 
L 253.758384 140.461282 
L 254.316943 139.953881 
L 254.875501 139.719071 
L 255.43406 139.757795 
L 255.992618 140.066727 
L 256.551177 140.63836 
L 257.109735 141.46117 
L 258.226852 143.795508 
L 259.34397 146.906899 
L 261.019645 152.567894 
L 264.370997 164.410636 
L 265.488114 167.617042 
L 266.605231 170.111576 
L 267.163789 171.046044 
L 267.722348 171.754241 
L 268.280907 172.227385 
L 268.839465 172.460443 
L 269.398024 172.452175 
L 269.956582 172.205115 
L 270.515141 171.725489 
L 271.073699 171.023089 
L 272.190816 169.005756 
L 273.307934 166.294299 
L 274.983609 161.330194 
L 278.334961 150.862254 
L 279.452078 148.005066 
L 280.569195 145.767775 
L 281.686312 144.276311 
L 282.24487 143.836461 
L 282.803429 143.608028 
L 283.361988 143.592466 
L 283.920546 143.787897 
L 284.479105 144.189173 
L 285.037663 144.787993 
L 286.15478 146.530276 
L 287.271898 148.8924 
L 288.947573 153.24444 
L 292.298925 162.495474 
L 293.416042 165.04078 
L 294.533159 167.046472 
L 295.650276 168.399341 
L 296.208834 168.807113 
L 296.767393 169.028748 
L 297.325952 169.062647 
L 297.88451 168.91015 
L 298.443069 168.575491 
L 299.001627 168.0657 
L 300.118744 166.561952 
L 301.235861 164.504874 
L 302.911537 160.690288 
L 306.262889 152.516193 
L 307.380006 150.249338 
L 308.497123 148.452034 
L 309.61424 147.226007 
L 310.172798 146.848917 
L 310.731357 146.635676 
L 311.289916 146.587975 
L 311.848474 146.704909 
L 312.407033 146.983016 
L 312.965591 147.416356 
L 314.082708 148.713337 
L 315.199825 150.504121 
L 316.875501 153.846864 
L 320.785411 162.121427 
L 321.902528 163.948832 
L 323.019645 165.318311 
L 324.136762 166.154338 
L 324.695321 166.35806 
L 325.25388 166.41584 
L 325.812438 166.328231 
L 326.370997 166.098048 
L 327.488114 165.232077 
L 328.605231 163.88229 
L 329.722348 162.141665 
L 331.398024 159.054329 
L 334.190816 153.747245 
L 335.307934 151.950657 
L 336.425051 150.509195 
L 337.542168 149.50487 
L 338.659285 148.991063 
L 339.217843 148.926244 
L 339.776402 148.989793 
L 340.334961 149.179443 
L 341.452078 149.918338 
L 342.569195 151.087657 
L 343.686312 152.606628 
L 345.361988 155.316398 
L 348.15478 160.007124 
L 349.271898 161.605922 
L 350.389015 162.896066 
L 351.506132 163.803972 
L 352.623249 164.281127 
L 353.181807 164.35052 
L 353.740366 164.306592 
L 354.857483 163.887746 
L 355.9746 163.059272 
L 357.091717 161.88047 
L 358.767393 159.634197 
L 362.677303 153.921054 
L 363.79442 152.623213 
L 364.911537 151.629064 
L 366.028654 150.994003 
L 367.145771 150.750145 
L 368.262889 150.904802 
L 369.380006 151.44052 
L 370.497123 152.316651 
L 371.61424 153.472322 
L 373.289916 155.558512 
L 376.641267 159.878282 
L 377.758384 161.035526 
L 378.875501 161.928105 
L 379.992618 162.506125 
L 381.109735 162.740111 
L 382.226852 162.622427 
L 383.34397 162.167313 
L 384.461087 161.409575 
L 385.578204 160.402021 
L 387.25388 158.572132 
L 390.605231 154.752924 
L 391.722348 153.721343 
L 392.839465 152.920337 
L 393.956582 152.394818 
L 395.073699 152.171793 
L 396.190816 152.259043 
L 397.307934 152.645029 
L 398.425051 153.299983 
L 399.542168 154.178113 
L 401.217843 155.78284 
L 404.569195 159.158865 
L 406.24487 160.465391 
L 407.361988 161.067394 
L 408.479105 161.41377 
L 409.596222 161.488186 
L 410.713339 161.291437 
L 411.830456 160.841051 
L 412.947573 160.169879 
L 414.623249 158.852228 
L 419.650276 154.555698 
L 420.767393 153.911494 
L 421.88451 153.478438 
L 423.001627 153.2791 
L 424.118744 153.321161 
L 425.235861 153.597237 
L 426.352979 154.085635 
L 428.028654 155.138232 
L 430.821447 157.338354 
L 433.055681 159.003071 
L 434.731357 159.928604 
L 435.848474 160.32116 
L 436.965591 160.508341 
L 438.082708 160.482653 
L 439.199825 160.249904 
L 440.316943 159.828574 
L 441.992618 158.910698 
L 444.785411 156.975207 
L 447.019645 155.499216 
L 448.695321 154.67157 
L 449.812438 154.31604 
L 450.929555 154.140944 
L 452.046672 154.153524 
L 453.163789 154.349283 
L 454.839465 154.949195 
L 456.515141 155.830011 
L 462.100726 159.047903 
L 463.776402 159.58497 
L 464.893519 159.748206 
L 466.010636 159.746007 
L 467.127753 159.581789 
L 468.803429 159.063371 
L 470.479105 158.293627 
L 476.06469 155.447004 
L 477.740366 154.962969 
L 479.416042 154.790013 
L 481.091717 154.942698 
L 482.767393 155.39041 
L 485.001627 156.320463 
L 489.470096 158.382799 
L 491.145771 158.899745 
L 492.821447 159.157218 
L 494.497123 159.127515 
L 496.172798 158.823214 
L 497.848474 158.294251 
L 501.199825 156.89728 
L 503.43406 156.031341 
L 505.109735 155.568121 
L 506.785411 155.332211 
L 508.461087 155.349303 
L 510.136762 155.609564 
L 512.370997 156.256633 
L 518.515141 158.364019 
L 520.190816 158.650361 
L 521.866492 158.718319 
L 523.542168 158.565016 
L 525.776402 158.068006 
L 529.127753 156.98725 
L 531.920546 156.164694 
L 533.596222 155.847227 
L 535.271898 155.714408 
L 536.947573 155.779025 
L 539.181807 156.143205 
L 541.9746 156.89308 
L 545.88451 157.954849 
L 548.118744 158.300362 
L 549.79442 158.36577 
L 552.028654 158.187064 
L 554.262889 157.759021 
L 560.965591 156.214677 
L 563.199825 156.029664 
L 565.43406 156.115162 
L 567.668294 156.43996 
L 572.136762 157.423894 
L 574.929555 157.915937 
L 577.163789 158.085354 
L 579.398024 158.016266 
L 581.632258 157.734674 
L 582.749375 157.536526 
L 582.749375 157.536526 
" style="fill:none;stroke:#0000ff;stroke-linecap:square;stroke-width:1.5;"/>
   </g>
   <g id="line2d_3">
    <path clip-path="url(#pa35d08859d)" d="M 24.749375 19.8 
L 30.334961 26.503844 
L 35.920546 32.880418 
L 41.506132 38.9457 
L 47.650276 45.276082 
L 53.79442 51.267364 
L 59.938564 56.937712 
L 66.082708 62.304316 
L 72.226852 67.383448 
L 78.370997 72.190506 
L 85.073699 77.141374 
L 91.776402 81.803647 
L 98.479105 86.194146 
L 105.181807 90.328714 
L 112.443069 94.536301 
L 119.70433 98.478836 
L 126.965591 102.173018 
L 134.785411 105.891545 
L 142.605231 109.358433 
L 150.425051 112.590712 
L 158.803429 115.811539 
L 167.181807 118.799415 
L 176.118744 121.748681 
L 185.055681 124.470978 
L 194.551177 127.134243 
L 204.605231 129.717781 
L 215.217843 132.203777 
L 225.830456 134.464259 
L 237.001627 136.622545 
L 248.731357 138.667846 
L 261.578204 140.67456 
L 274.983609 142.536259 
L 288.947573 144.251819 
L 304.028654 145.878724 
L 320.226852 147.39782 
L 337.542168 148.795454 
L 356.533159 150.098489 
L 377.199825 151.285926 
L 399.542168 152.344907 
L 424.677303 153.308411 
L 452.605231 154.152868 
L 484.443069 154.889977 
L 521.866492 155.526079 
L 566.551177 156.052876 
L 582.749375 156.19741 
L 582.749375 156.19741 
" style="fill:none;stroke:#ff0000;stroke-dasharray:5.55,2.4;stroke-dashoffset:0;stroke-opacity:0.6;stroke-width:1.5;"/>
   </g>
   <g id="patch_3">
    <path d="M 24.749375 284.4 
L 24.749375 7.2 
" style="fill:none;stroke:#000000;stroke-linecap:square;stroke-linejoin:miter;stroke-width:0.8;"/>
   </g>
   <g id="patch_4">
    <path d="M 582.749375 284.4 
L 582.749375 7.2 
" style="fill:none;stroke:#000000;stroke-linecap:square;stroke-linejoin:miter;stroke-width:0.8;"/>
   </g>
   <g id="patch_5">
    <path d="M 24.749375 284.4 
L 582.749375 284.4 
" style="fill:none;stroke:#000000;stroke-linecap:square;stroke-linejoin:miter;stroke-width:0.8;"/>
   </g>
   <g id="patch_6">
    <path d="M 24.749375 7.2 
L 582.749375 7.2 
" style="fill:none;stroke:#000000;stroke-linecap:square;stroke-linejoin:miter;stroke-width:0.8;"/>
   </g>
   <g id="legend_1">
    <g id="patch_7">
     <path d="M 500.569375 38.949375 
L 572.949375 38.949375 
Q 575.749375 38.949375 575.749375 36.149375 
L 575.749375 17 
Q 575.749375 14.2 572.949375 14.2 
L 500.569375 14.2 
Q 497.769375 14.2 497.769375 17 
L 497.769375 36.149375 
Q 497.769375 38.949375 500.569375 38.949375 
z
" style="fill:#ffffff;opacity:0.8;stroke:#cccccc;stroke-linejoin:miter;"/>
    </g>
    <g id="line2d_4">
     <path d="M 503.369375 25.537812 
L 531.369375 25.537812 
" style="fill:none;stroke:#ff0000;stroke-dasharray:5.55,2.4;stroke-dashoffset:0;stroke-opacity:0.6;stroke-width:1.5;"/>
    </g>
    <g id="line2d_5"/>
    <g id="text_3">
     <!-- $e^{-\gamma t}$ -->
     <g transform="translate(542.569375 30.437812)scale(0.14 -0.14)">
      <defs>
       <path d="M 3078 2063 
Q 3088 2113 3092 2166 
Q 3097 2219 3097 2272 
Q 3097 2653 2873 2875 
Q 2650 3097 2266 3097 
Q 1838 3097 1509 2826 
Q 1181 2556 1013 2059 
L 3078 2063 
z
M 3578 1613 
L 903 1613 
Q 884 1494 878 1425 
Q 872 1356 872 1306 
Q 872 872 1139 634 
Q 1406 397 1894 397 
Q 2269 397 2603 481 
Q 2938 566 3225 728 
L 3116 159 
Q 2806 34 2476 -28 
Q 2147 -91 1806 -91 
Q 1078 -91 686 257 
Q 294 606 294 1247 
Q 294 1794 489 2264 
Q 684 2734 1063 3103 
Q 1306 3334 1642 3459 
Q 1978 3584 2356 3584 
Q 2950 3584 3301 3228 
Q 3653 2872 3653 2272 
Q 3653 2128 3634 1964 
Q 3616 1800 3578 1613 
z
" id="DejaVuSans-Oblique-65" transform="scale(0.015625)"/>
       <path d="M 678 2272 
L 4684 2272 
L 4684 1741 
L 678 1741 
L 678 2272 
z
" id="DejaVuSans-2212" transform="scale(0.015625)"/>
       <path d="M 1491 2950 
L 1838 788 
L 3456 3500 
L 4066 3500 
L 1972 0 
L 1713 -1331 
L 1138 -1331 
L 1397 0 
L 988 2613 
Q 925 3006 628 3006 
L 475 3006 
L 569 3500 
L 788 3500 
Q 1403 3500 1491 2950 
z
" id="DejaVuSans-Oblique-3b3" transform="scale(0.015625)"/>
      </defs>
      <use transform="translate(0 0.565625)" xlink:href="#DejaVuSans-Oblique-65"/>
      <use transform="translate(66.173333 38.846875)scale(0.7)" xlink:href="#DejaVuSans-2212"/>
      <use transform="translate(124.825677 38.846875)scale(0.7)" xlink:href="#DejaVuSans-Oblique-3b3"/>
      <use transform="translate(166.251458 38.846875)scale(0.7)" xlink:href="#DejaVuSans-Oblique-74"/>
     </g>
    </g>
   </g>
  </g>
 </g>
 <defs>
  <clipPath id="pa35d08859d">
   <rect height="277.2" width="558" x="24.749375" y="7.2"/>
  </clipPath>
 </defs>
</svg>
