<svg width="2501" height="565" xmlns="http://www.w3.org/2000/svg" xmlns:xlink="http://www.w3.org/1999/xlink" overflow="hidden"><defs><clipPath id="clip0"><rect x="573" y="832" width="2501" height="565"/></clipPath><clipPath id="clip1"><rect x="1422" y="884" width="1477" height="513"/></clipPath><clipPath id="clip2"><rect x="1422" y="884" width="1477" height="513"/></clipPath><clipPath id="clip3"><rect x="1141" y="659" width="2872" height="960"/></clipPath><clipPath id="clip4"><rect x="1141" y="267" width="10540" height="5103"/></clipPath><clipPath id="clip5"><rect x="1236" y="267" width="10540" height="5103"/></clipPath><clipPath id="clip6"><rect x="1236" y="267" width="10540" height="5103"/></clipPath><clipPath id="clip7"><rect x="1236" y="267" width="10540" height="5103"/></clipPath><clipPath id="clip8"><rect x="1236" y="267" width="10540" height="5103"/></clipPath><clipPath id="clip9"><rect x="1236" y="267" width="10540" height="5103"/></clipPath><clipPath id="clip10"><rect x="1141" y="267" width="10540" height="5103"/></clipPath><clipPath id="clip11"><rect x="1141" y="267" width="10540" height="5103"/></clipPath></defs><g clip-path="url(#clip0)" transform="translate(-573 -832)"><path d="M2152.5 902.198 2536.01 902.198 2536.01 914.802 2152.5 914.802ZM2482.35 871.481 2548.99 908.5 2482.35 945.52C2479.31 947.21 2475.47 946.114 2473.78 943.071 2472.09 940.029 2473.19 936.192 2476.23 934.502L2532.95 902.991 2532.95 914.009 2476.23 882.499C2473.19 880.809 2472.09 876.972 2473.78 873.929 2475.47 870.887 2479.31 869.791 2482.35 871.481Z"/><text font-family="Calibri,Calibri_MSFontService,sans-serif" font-weight="400" font-size="83" transform="matrix(1 0 0 1 2581.47 935)">$<tspan font-size="83" x="41.823" y="0">\</tspan><tspan font-size="83" x="73.9063" y="0">hat</tspan><tspan font-size="83" x="183.723" y="0">{x}$</tspan></text><g clip-path="url(#clip1)"><g clip-path="url(#clip2)"><g clip-path="url(#clip3)"><g clip-path="url(#clip4)"><path d="M262.58 950.192 378.683 950.192M1200.38 950.192 1084.28 950.192M1084.28 950.192 1077.15 979.357 1071.86 992.956 1065.57 1005.54 1050.23 1026.11 1045.9 1030.16 1041.46 1033.7 1032.19 1039.09 1027.41 1040.95 1022.58 1042.24 1017.69 1042.91 1012.8 1043.03 1007.86 1042.58 1003.03 1041.51 993.473 1037.63 988.865 1034.88 984.37 1031.56 975.772 1023.41 967.961 1013.41 960.937 1001.78 950.035 974.974 943.629 945.641 941.887 916.757 944.584 891.3 947.281 880.624 950.822 871.745 954.98 864.833 959.588 860.112 963.297 858.033 967.006 857.303 972.007 858.427 976.84 861.798 983.302 871.127 986.898 879.893 989.708 890.401 991.619 902.427 992.293 929.85 988.416 959.296 979.874 987.843 973.974 1000.82 967.062 1012.57 959.307 1022.74 950.765 1031 941.662 1037.24 936.942 1039.54 932.165 1041.28 922.443 1043.03 917.498 1042.97 912.609 1042.41 907.777 1041.17 903 1039.43 893.672 1034.15 889.233 1030.72 884.849 1026.79 876.757 1017.46 869.396 1006.44 863.046 993.968 853.437 966.095 848.492 936.593 848.154 908.44 852.032 884.501 855.291 874.892 859.225 867.249 861.36 864.159 866.024 859.719 869.733 857.865 873.498 857.303 878.443 858.708 883.22 862.36 887.659 868.261 891.48 876.297 894.571 886.131 898.167 910.463 897.493 938.841 892.155 968.343 882.264 995.991 875.69 1008.24 868.272 1019.03 860.011 1028.08 851.076 1035.1 846.469 1037.86 841.748 1039.99 832.026 1042.63 827.138 1043.08 822.249 1042.91 817.36 1042.18 812.527 1040.83 803.086 1036.45 798.535 1033.42 794.039 1029.88 785.666 1021.28 777.967 1010.88 765.492 985.763 760.828 971.659 757.288 957.048 753.748 927.602 754.815 900.516 756.838 888.659 759.817 878.376 763.469 869.947 765.548 866.463 767.74 863.54 772.46 859.326 777.405 857.415 782.407 857.865 787.296 860.674 791.847 865.732 795.95 872.981 799.378 882.141 801.963 893.042 804.323 918.892 802.243 947.944 795.444 977.166 784.205 1003.69 777.068 1015.04 769.145 1024.82 760.435 1032.63 755.939 1035.78 751.275 1038.42 741.666 1041.9 736.777 1042.8 731.888 1043.08 726.999 1042.8 722.11 1041.9 712.557 1038.42 707.893 1035.78 703.341 1032.63 694.687 1024.82 686.708 1015.04 679.571 1003.69 668.332 977.166 661.589 947.944 659.51 918.892 661.813 893.042 664.455 882.141 667.882 872.981 671.928 865.732 674.176 862.922 678.897 858.989 683.898 857.359 688.899 858.089 693.732 861.124 698.227 866.463 700.307 869.947 704.016 878.376 706.938 888.659 709.017 900.516 710.028 927.602 706.544 957.048 698.34 985.763 692.552 998.913 685.809 1010.88 678.166 1021.28 669.737 1029.88 660.746 1036.45 656.025 1038.92 651.26 1040.83 641.544 1042.91 636.644 1043.08 631.749 1042.63 626.889 1041.62 622.078 1039.99 612.705 1035.1 608.187 1031.84 603.81 1028.08 595.555 1019.03 588.098 1008.24 581.557 995.991 571.633 968.343 566.311 938.841 565.642 910.463 569.211 886.131 572.335 876.297 576.173 868.261 578.309 865.058 582.916 860.225 586.58 858.146 590.323 857.303 595.319 858.314 600.14 861.63 604.608 867.249 608.541 874.892 611.784 884.501 615.65 908.44 615.324 936.593 610.362 966.095 600.781 993.968 594.397 1006.44 587.069 1017.46 578.927 1026.79 570.121 1034.15 565.519 1037.07 560.81 1039.43 551.172 1042.41 546.283 1042.97 541.389 1043.03 536.5 1042.46 531.645 1041.28 522.137 1037.24 517.523 1034.43 513.033 1031 504.514 1022.74 496.737 1012.57 489.825 1000.82 483.907 987.843 475.366 959.296 471.494 929.85 472.191 902.427 474.102 890.401 476.911 879.893 480.491 871.127 484.694 864.383 489.347 859.832 493.022 857.921 496.776 857.303 501.76 858.595 506.548 862.192 512.971 871.745 516.5 880.624 519.248 891.3 521.895 916.757 520.17 945.641 513.764 974.974 502.839 1001.78 495.86 1013.41 488.021 1023.41 479.451 1031.56 470.314 1037.63 465.582 1039.88 460.778 1041.51 451.028 1043.03 446.128 1042.91 441.245 1042.24 431.624 1039.09 426.932 1036.68 422.346 1033.7 413.586 1026.11 405.505 1016.67 398.245 1005.54 386.669 979.357 382.527 964.971 379.549 950.192" stroke="#CC0033" stroke-width="14.0486" stroke-linecap="round" stroke-linejoin="round" stroke-miterlimit="10" fill="none" transform="matrix(1.01815 0 0 1 1141.28 267.013)"/></g><g clip-path="url(#clip5)"><path d="M1106.64 776.046 1571.03 776.046 1571.03 1124.34 1106.64 1124.34Z" fill="#000000" fill-opacity="0.25098" transform="matrix(1.01815 0 0 1 1236.73 267.013)"/></g><text font-family="Times New Roman,Times New Roman_MSFontService,sans-serif" font-weight="400" font-size="16" transform="matrix(8.34055 0 0 8.19185 1852.35 1016)">k</text><path d="M-109.866 1124.34 2814.03 1124.34 2814.03 1349.35-109.866 1349.35ZM262.58 1124.34 262.58-116.404-109.866-116.404-109.866 1124.34Z" fill="#CCCCCC" transform="matrix(1.01815 0 0 1 1141.28 267.013)"/><g clip-path="url(#clip6)"><path d="M1106.64 1124.34 1106.64 776.046" stroke="#000000" stroke-width="14.0486" stroke-linecap="round" stroke-linejoin="round" stroke-miterlimit="10" fill="none" transform="matrix(1.01815 0 0 1 1236.73 267.013)"/></g><g clip-path="url(#clip7)"><path d="M1571.03 1124.34 1106.64 1124.34" stroke="#000000" stroke-width="14.0486" stroke-linecap="round" stroke-linejoin="round" stroke-miterlimit="10" fill="none" transform="matrix(1.01815 0 0 1 1236.73 267.013)"/></g><g clip-path="url(#clip8)"><path d="M1571.03 776.046 1571.03 1124.34" stroke="#000000" stroke-width="14.0486" stroke-linecap="round" stroke-linejoin="round" stroke-miterlimit="10" fill="none" transform="matrix(1.01815 0 0 1 1236.73 267.013)"/></g><g clip-path="url(#clip9)"><path d="M1106.64 776.046 1571.03 776.046" stroke="#000000" stroke-width="14.0486" stroke-linecap="round" stroke-linejoin="round" stroke-miterlimit="10" fill="none" transform="matrix(1.01815 0 0 1 1236.73 267.013)"/></g><g clip-path="url(#clip10)"><path d="M262.58 1124.34 2814.03 1124.34" stroke="#000000" stroke-width="14.0486" stroke-linecap="round" stroke-linejoin="round" stroke-miterlimit="10" fill="none" transform="matrix(1.01815 0 0 1 1141.28 267.013)"/></g><g clip-path="url(#clip11)"><path d="M265.39 1127.15 265.39-25.2875" stroke="#000000" stroke-width="14.0486" stroke-linecap="round" stroke-linejoin="round" stroke-miterlimit="10" fill="none" transform="matrix(1.01815 0 0 1 1141.28 267.013)"/></g><text font-family="Times New Roman,Times New Roman_MSFontService,sans-serif" font-weight="400" font-size="16" transform="matrix(8.34055 0 0 8.19185 2536.01 1252)">m</text></g></g></g><rect x="580.5" y="884.5" width="842" height="505" stroke="#000000" stroke-width="14.8958" stroke-miterlimit="8" fill="#7F7F7F"/><rect x="745.5" y="1080.5" width="383" height="233" stroke="#000000" stroke-width="3.4375" stroke-linejoin="round" stroke-miterlimit="10" stroke-opacity="0" fill="none"/><text fill="#FFFFFF" font-family="Calibri,Calibri_MSFontService,sans-serif" font-weight="400" font-size="83" transform="matrix(1 0 0 1 789.135 1174)">máquina</text></g></svg>