<svg width="2890" height="736" xmlns="http://www.w3.org/2000/svg" xmlns:xlink="http://www.w3.org/1999/xlink" overflow="hidden"><defs><clipPath id="clip0"><rect x="322" y="882" width="2890" height="736"/></clipPath><clipPath id="clip1"><rect x="322" y="882" width="2823" height="737"/></clipPath><clipPath id="clip2"><rect x="322" y="882" width="2823" height="737"/></clipPath><clipPath id="clip3"><rect x="322" y="657" width="2823" height="962"/></clipPath><clipPath id="clip4"><rect x="415" y="263" width="10364" height="5113"/></clipPath><clipPath id="clip5"><rect x="415" y="263" width="10364" height="5113"/></clipPath><clipPath id="clip6"><rect x="415" y="263" width="10364" height="5113"/></clipPath><clipPath id="clip7"><rect x="415" y="263" width="10364" height="5113"/></clipPath><clipPath id="clip8"><rect x="415" y="263" width="10364" height="5113"/></clipPath></defs><g clip-path="url(#clip0)" transform="translate(-322 -882)"><g clip-path="url(#clip1)"><g clip-path="url(#clip2)"><g clip-path="url(#clip3)"><path d="M262.883 951.291 379.121 951.291M1201.77 951.291 1085.54 951.291M1085.54 951.291 1078.39 980.489 1073.1 994.104 1066.8 1006.71 1051.44 1027.3 1047.11 1031.35 1042.67 1034.89 1033.38 1040.29 1028.6 1042.15 1023.76 1043.44 1018.87 1044.12 1013.97 1044.23 1009.02 1043.78 1004.19 1042.71 994.622 1038.83 990.008 1036.07 985.508 1032.75 976.9 1024.6 969.08 1014.58 962.047 1002.94 951.133 976.101 944.72 946.734 942.976 917.816 945.676 892.331 948.376 881.642 951.921 872.753 956.084 865.833 960.697 861.107 964.41 859.025 968.123 858.294 973.131 859.419 977.969 862.795 984.439 872.134 988.039 880.91 990.852 891.431 992.765 903.47 993.44 930.925 989.558 960.405 981.007 988.984 975.1 1001.98 968.18 1013.74 960.416 1023.92 951.865 1032.19 942.75 1038.44 938.025 1040.74 933.243 1042.49 923.51 1044.23 918.559 1044.18 913.664 1043.61 908.826 1042.37 904.044 1040.63 894.705 1035.34 890.26 1031.91 885.872 1027.97 877.771 1018.63 870.401 1007.61 864.044 995.117 854.423 967.212 849.472 937.676 849.135 909.49 853.017 885.523 856.28 875.903 860.218 868.252 862.356 865.157 867.025 860.713 870.738 858.856 874.508 858.294 879.459 859.7 884.241 863.357 888.685 869.264 892.511 877.31 895.605 887.155 899.206 911.515 898.531 939.926 893.186 969.462 883.284 997.142 876.702 1009.41 869.276 1020.21 861.006 1029.27 852.06 1036.3 847.447 1039.06 842.721 1041.19 832.988 1043.84 828.094 1044.29 823.199 1044.12 818.305 1043.39 813.466 1042.04 804.015 1037.65 799.458 1034.61 794.957 1031.07 786.574 1022.46 778.867 1012.05 766.377 986.903 761.708 972.782 758.163 958.154 754.619 928.674 755.688 901.557 757.713 889.687 760.695 879.391 764.352 870.952 766.433 867.464 768.628 864.539 773.353 860.319 778.304 858.406 783.311 858.856 788.206 861.669 792.763 866.733 796.87 873.99 800.302 883.16 802.89 894.075 805.252 919.954 803.171 949.04 796.363 978.295 785.112 1004.85 777.967 1016.21 770.034 1026 761.314 1033.82 756.813 1036.97 752.144 1039.62 742.523 1043.11 737.629 1044.01 732.734 1044.29 727.839 1044.01 722.945 1043.11 713.381 1039.62 708.711 1036.97 704.154 1033.82 695.49 1026 687.501 1016.21 680.357 1004.85 669.105 978.295 662.354 949.04 660.272 919.954 662.579 894.075 665.223 883.16 668.655 873.99 672.705 866.733 674.956 863.92 679.681 859.982 684.688 858.35 689.696 859.081 694.534 862.12 699.035 867.464 701.116 870.952 704.829 879.391 707.755 889.687 709.836 901.557 710.849 928.674 707.361 958.154 699.147 986.903 693.352 1000.07 686.601 1012.05 678.95 1022.46 670.511 1031.07 661.51 1037.65 656.784 1040.12 652.013 1042.04 642.286 1044.12 637.38 1044.29 632.48 1043.84 627.613 1042.82 622.797 1041.19 613.413 1036.3 608.89 1033.04 604.508 1029.27 596.243 1020.21 588.777 1009.41 582.229 997.142 572.293 969.462 566.966 939.926 566.296 911.515 569.869 887.155 572.997 877.31 576.839 869.264 578.977 866.058 583.59 861.219 587.258 859.138 591.005 858.294 596.007 859.307 600.834 862.626 605.306 868.252 609.245 875.903 612.491 885.523 616.361 909.49 616.035 937.676 611.067 967.212 601.475 995.117 595.084 1007.61 587.748 1018.63 579.596 1027.97 570.78 1035.34 566.172 1038.27 561.458 1040.63 551.809 1043.61 546.915 1044.18 542.015 1044.23 537.12 1043.67 532.259 1042.49 522.74 1038.44 518.121 1035.62 513.626 1032.19 505.097 1023.92 497.311 1013.74 490.391 1001.98 484.467 988.984 475.915 960.405 472.039 930.925 472.737 903.47 474.65 891.431 477.463 880.91 481.046 872.134 485.254 865.383 489.913 860.825 493.592 858.913 497.35 858.294 502.34 859.588 507.134 863.188 513.564 872.753 517.097 881.642 519.848 892.331 522.498 917.816 520.771 946.734 514.357 976.101 503.421 1002.94 496.433 1014.58 488.585 1024.6 480.005 1032.75 470.858 1038.83 466.121 1041.08 461.31 1042.71 451.549 1044.23 446.644 1044.12 441.755 1043.44 432.123 1040.29 427.425 1037.87 422.835 1034.89 414.064 1027.3 405.974 1017.85 398.705 1006.71 387.116 980.489 382.969 966.087 379.987 951.291" stroke="#CC0033" stroke-width="14.0649" stroke-linecap="round" stroke-linejoin="round" stroke-miterlimit="10" fill="none" transform="matrix(1 0 0 1.00062 322 263.914)"/><g clip-path="url(#clip4)"><path d="M1107.92 776.943 1572.84 776.943 1572.84 1125.64 1107.92 1125.64Z" fill="#000000" fill-opacity="0.25098" transform="matrix(1 0 0 1.00062 415.852 263.914)"/></g><text font-family="Times New Roman,Times New Roman_MSFontService,sans-serif" font-weight="400" font-size="16" transform="matrix(8.20132 0 0 8.20644 1021.19 1014)">k</text><path d="M-109.993 1125.64 2817.29 1125.64 2817.29 1350.91-109.993 1350.91ZM262.883 1125.64 262.883-116.539-109.993-116.539-109.993 1125.64Z" fill="#CCCCCC" transform="matrix(1 0 0 1.00062 322 263.914)"/><g clip-path="url(#clip5)"><path d="M1107.92 1125.64 1107.92 776.943" stroke="#000000" stroke-width="14.0649" stroke-linecap="round" stroke-linejoin="round" stroke-miterlimit="10" fill="none" transform="matrix(1 0 0 1.00062 415.852 263.914)"/></g><g clip-path="url(#clip6)"><path d="M1572.84 1125.64 1107.92 1125.64" stroke="#000000" stroke-width="14.0649" stroke-linecap="round" stroke-linejoin="round" stroke-miterlimit="10" fill="none" transform="matrix(1 0 0 1.00062 415.852 263.914)"/></g><g clip-path="url(#clip7)"><path d="M1572.84 776.943 1572.84 1125.64" stroke="#000000" stroke-width="14.0649" stroke-linecap="round" stroke-linejoin="round" stroke-miterlimit="10" fill="none" transform="matrix(1 0 0 1.00062 415.852 263.914)"/></g><g clip-path="url(#clip8)"><path d="M1107.92 776.943 1572.84 776.943" stroke="#000000" stroke-width="14.0649" stroke-linecap="round" stroke-linejoin="round" stroke-miterlimit="10" fill="none" transform="matrix(1 0 0 1.00062 415.852 263.914)"/></g><path d="M262.883 1125.64 2817.29 1125.64" stroke="#000000" stroke-width="14.0649" stroke-linecap="round" stroke-linejoin="round" stroke-miterlimit="10" fill="none" transform="matrix(1 0 0 1.00062 322 263.914)"/><path d="M265.696 1128.45 265.696-25.3167" stroke="#000000" stroke-width="14.0649" stroke-linecap="round" stroke-linejoin="round" stroke-miterlimit="10" fill="none" transform="matrix(1 0 0 1.00062 322 263.914)"/><text font-family="Times New Roman,Times New Roman_MSFontService,sans-serif" font-weight="400" font-size="16" transform="matrix(8.20132 0 0 8.20644 1693.44 1251)">m</text></g></g></g><path d="M2290.5 1232.2 2674.01 1232.2 2674.01 1244.8 2290.5 1244.8ZM2620.35 1201.48 2686.99 1238.5 2620.35 1275.52C2617.31 1277.21 2613.47 1276.11 2611.78 1273.07 2610.09 1270.03 2611.19 1266.19 2614.23 1264.5L2670.95 1232.99 2670.95 1244.01 2614.23 1212.5C2611.19 1210.81 2610.09 1206.97 2611.78 1203.93 2613.47 1200.89 2617.31 1199.79 2620.35 1201.48Z"/><text font-family="Calibri,Calibri_MSFontService,sans-serif" font-weight="400" font-size="83" transform="matrix(1 0 0 1 2719.47 1264)">$<tspan font-size="83" x="41.8228" y="0">\</tspan><tspan font-size="83" x="73.9063" y="0">hat</tspan><tspan font-size="83" x="183.723" y="0">{x}$</tspan></text></g></svg>