<?xml version="1.0" encoding="utf-8" standalone="no"?>
<!DOCTYPE svg PUBLIC "-//W3C//DTD SVG 1.1//EN"
  "http://www.w3.org/Graphics/SVG/1.1/DTD/svg11.dtd">
<svg height="252.838125pt" version="1.1" viewBox="0 0 603.682813 252.838125" width="603.682813pt" xmlns="http://www.w3.org/2000/svg" xmlns:xlink="http://www.w3.org/1999/xlink">
 <metadata>
  <rdf:RDF xmlns:cc="http://creativecommons.org/ns#" xmlns:dc="http://purl.org/dc/elements/1.1/" xmlns:rdf="http://www.w3.org/1999/02/22-rdf-syntax-ns#">
   <cc:Work>
    <dc:type rdf:resource="http://purl.org/dc/dcmitype/StillImage"/>
    <dc:date>2021-10-19T00:26:36.883474</dc:date>
    <dc:format>image/svg+xml</dc:format>
    <dc:creator>
     <cc:Agent>
      <dc:title>Matplotlib v3.4.2, https://matplotlib.org/</dc:title>
     </cc:Agent>
    </dc:creator>
   </cc:Work>
  </rdf:RDF>
 </metadata>
 <defs>
  <style type="text/css">*{stroke-linecap:butt;stroke-linejoin:round;}</style>
 </defs>
 <g id="figure_1">
  <g id="patch_1">
   <path d="M 0 252.838125 
L 603.682813 252.838125 
L 603.682813 0 
L 0 0 
z
" style="fill:none;"/>
  </g>
  <g id="axes_1">
   <g id="patch_2">
    <path d="M 38.482813 228.96 
L 596.482813 228.96 
L 596.482813 7.2 
L 38.482813 7.2 
z
" style="fill:none;"/>
   </g>
   <g id="matplotlib.axis_1">
    <g id="xtick_1">
     <g id="line2d_1">
      <path clip-path="url(#p5b0d50e544)" d="M 76.790227 228.96 
L 76.790227 7.2 
" style="fill:none;stroke:#b0b0b0;stroke-linecap:square;stroke-opacity:0.1;stroke-width:0.8;"/>
     </g>
     <g id="line2d_2">
      <defs>
       <path d="M 0 0 
L 0 3.5 
" id="m84aabdc53a" style="stroke:#000000;stroke-width:0.8;"/>
      </defs>
      <g>
       <use style="stroke:#000000;stroke-width:0.8;" x="76.790227" xlink:href="#m84aabdc53a" y="228.96"/>
      </g>
     </g>
     <g id="text_1">
      <!-- $-2\pi$ -->
      <g transform="translate(66.390227 243.558437)scale(0.1 -0.1)">
       <defs>
        <path d="M 678 2272 
L 4684 2272 
L 4684 1741 
L 678 1741 
L 678 2272 
z
" id="DejaVuSans-2212" transform="scale(0.015625)"/>
        <path d="M 1228 531 
L 3431 531 
L 3431 0 
L 469 0 
L 469 531 
Q 828 903 1448 1529 
Q 2069 2156 2228 2338 
Q 2531 2678 2651 2914 
Q 2772 3150 2772 3378 
Q 2772 3750 2511 3984 
Q 2250 4219 1831 4219 
Q 1534 4219 1204 4116 
Q 875 4013 500 3803 
L 500 4441 
Q 881 4594 1212 4672 
Q 1544 4750 1819 4750 
Q 2544 4750 2975 4387 
Q 3406 4025 3406 3419 
Q 3406 3131 3298 2873 
Q 3191 2616 2906 2266 
Q 2828 2175 2409 1742 
Q 1991 1309 1228 531 
z
" id="DejaVuSans-32" transform="scale(0.015625)"/>
        <path d="M 584 3500 
L 3938 3500 
L 3825 2925 
L 3384 2925 
L 2966 775 
Q 2922 550 2981 450 
Q 3038 353 3209 353 
Q 3256 353 3325 363 
Q 3397 369 3419 372 
L 3338 -44 
Q 3222 -84 3103 -103 
Q 2981 -122 2866 -122 
Q 2491 -122 2388 81 
Q 2284 288 2391 838 
L 2797 2925 
L 1506 2925 
L 938 0 
L 350 0 
L 919 2925 
L 472 2925 
L 584 3500 
z
" id="DejaVuSans-Oblique-3c0" transform="scale(0.015625)"/>
       </defs>
       <use transform="translate(0 0.78125)" xlink:href="#DejaVuSans-2212"/>
       <use transform="translate(83.789062 0.78125)" xlink:href="#DejaVuSans-32"/>
       <use transform="translate(147.412109 0.78125)" xlink:href="#DejaVuSans-Oblique-3c0"/>
      </g>
     </g>
    </g>
    <g id="xtick_2">
     <g id="line2d_3">
      <path clip-path="url(#p5b0d50e544)" d="M 136.963374 228.96 
L 136.963374 7.2 
" style="fill:none;stroke:#b0b0b0;stroke-linecap:square;stroke-opacity:0.1;stroke-width:0.8;"/>
     </g>
     <g id="line2d_4">
      <g>
       <use style="stroke:#000000;stroke-width:0.8;" x="136.963374" xlink:href="#m84aabdc53a" y="228.96"/>
      </g>
     </g>
     <g id="text_2">
      <!-- $-3\pi/2$ -->
      <g transform="translate(121.863374 243.558437)scale(0.1 -0.1)">
       <defs>
        <path d="M 2597 2516 
Q 3050 2419 3304 2112 
Q 3559 1806 3559 1356 
Q 3559 666 3084 287 
Q 2609 -91 1734 -91 
Q 1441 -91 1130 -33 
Q 819 25 488 141 
L 488 750 
Q 750 597 1062 519 
Q 1375 441 1716 441 
Q 2309 441 2620 675 
Q 2931 909 2931 1356 
Q 2931 1769 2642 2001 
Q 2353 2234 1838 2234 
L 1294 2234 
L 1294 2753 
L 1863 2753 
Q 2328 2753 2575 2939 
Q 2822 3125 2822 3475 
Q 2822 3834 2567 4026 
Q 2313 4219 1838 4219 
Q 1578 4219 1281 4162 
Q 984 4106 628 3988 
L 628 4550 
Q 988 4650 1302 4700 
Q 1616 4750 1894 4750 
Q 2613 4750 3031 4423 
Q 3450 4097 3450 3541 
Q 3450 3153 3228 2886 
Q 3006 2619 2597 2516 
z
" id="DejaVuSans-33" transform="scale(0.015625)"/>
        <path d="M 1625 4666 
L 2156 4666 
L 531 -594 
L 0 -594 
L 1625 4666 
z
" id="DejaVuSans-2f" transform="scale(0.015625)"/>
       </defs>
       <use transform="translate(0 0.78125)" xlink:href="#DejaVuSans-2212"/>
       <use transform="translate(83.789062 0.78125)" xlink:href="#DejaVuSans-33"/>
       <use transform="translate(147.412109 0.78125)" xlink:href="#DejaVuSans-Oblique-3c0"/>
       <use transform="translate(207.617188 0.78125)" xlink:href="#DejaVuSans-2f"/>
       <use transform="translate(237.683594 0.78125)" xlink:href="#DejaVuSans-32"/>
      </g>
     </g>
    </g>
    <g id="xtick_3">
     <g id="line2d_5">
      <path clip-path="url(#p5b0d50e544)" d="M 197.13652 228.96 
L 197.13652 7.2 
" style="fill:none;stroke:#b0b0b0;stroke-linecap:square;stroke-opacity:0.1;stroke-width:0.8;"/>
     </g>
     <g id="line2d_6">
      <g>
       <use style="stroke:#000000;stroke-width:0.8;" x="197.13652" xlink:href="#m84aabdc53a" y="228.96"/>
      </g>
     </g>
     <g id="text_3">
      <!-- $-\pi$ -->
      <g transform="translate(189.93652 243.558437)scale(0.1 -0.1)">
       <use transform="translate(0 0.3125)" xlink:href="#DejaVuSans-2212"/>
       <use transform="translate(83.789062 0.3125)" xlink:href="#DejaVuSans-Oblique-3c0"/>
      </g>
     </g>
    </g>
    <g id="xtick_4">
     <g id="line2d_7">
      <path clip-path="url(#p5b0d50e544)" d="M 257.309666 228.96 
L 257.309666 7.2 
" style="fill:none;stroke:#b0b0b0;stroke-linecap:square;stroke-opacity:0.1;stroke-width:0.8;"/>
     </g>
     <g id="line2d_8">
      <g>
       <use style="stroke:#000000;stroke-width:0.8;" x="257.309666" xlink:href="#m84aabdc53a" y="228.96"/>
      </g>
     </g>
     <g id="text_4">
      <!-- $-\pi/2$ -->
      <g transform="translate(245.409666 243.558437)scale(0.1 -0.1)">
       <use transform="translate(0 0.78125)" xlink:href="#DejaVuSans-2212"/>
       <use transform="translate(83.789062 0.78125)" xlink:href="#DejaVuSans-Oblique-3c0"/>
       <use transform="translate(143.994141 0.78125)" xlink:href="#DejaVuSans-2f"/>
       <use transform="translate(174.060547 0.78125)" xlink:href="#DejaVuSans-32"/>
      </g>
     </g>
    </g>
    <g id="xtick_5">
     <g id="line2d_9">
      <path clip-path="url(#p5b0d50e544)" d="M 317.482813 228.96 
L 317.482813 7.2 
" style="fill:none;stroke:#b0b0b0;stroke-linecap:square;stroke-opacity:0.1;stroke-width:0.8;"/>
     </g>
     <g id="line2d_10">
      <g>
       <use style="stroke:#000000;stroke-width:0.8;" x="317.482813" xlink:href="#m84aabdc53a" y="228.96"/>
      </g>
     </g>
     <g id="text_5">
      <!-- 0 -->
      <g transform="translate(314.301563 243.558437)scale(0.1 -0.1)">
       <defs>
        <path d="M 2034 4250 
Q 1547 4250 1301 3770 
Q 1056 3291 1056 2328 
Q 1056 1369 1301 889 
Q 1547 409 2034 409 
Q 2525 409 2770 889 
Q 3016 1369 3016 2328 
Q 3016 3291 2770 3770 
Q 2525 4250 2034 4250 
z
M 2034 4750 
Q 2819 4750 3233 4129 
Q 3647 3509 3647 2328 
Q 3647 1150 3233 529 
Q 2819 -91 2034 -91 
Q 1250 -91 836 529 
Q 422 1150 422 2328 
Q 422 3509 836 4129 
Q 1250 4750 2034 4750 
z
" id="DejaVuSans-30" transform="scale(0.015625)"/>
       </defs>
       <use xlink:href="#DejaVuSans-30"/>
      </g>
     </g>
    </g>
    <g id="xtick_6">
     <g id="line2d_11">
      <path clip-path="url(#p5b0d50e544)" d="M 377.655959 228.96 
L 377.655959 7.2 
" style="fill:none;stroke:#b0b0b0;stroke-linecap:square;stroke-opacity:0.1;stroke-width:0.8;"/>
     </g>
     <g id="line2d_12">
      <g>
       <use style="stroke:#000000;stroke-width:0.8;" x="377.655959" xlink:href="#m84aabdc53a" y="228.96"/>
      </g>
     </g>
     <g id="text_6">
      <!-- $\pi/2$ -->
      <g transform="translate(369.955959 243.558437)scale(0.1 -0.1)">
       <use transform="translate(0 0.78125)" xlink:href="#DejaVuSans-Oblique-3c0"/>
       <use transform="translate(60.205078 0.78125)" xlink:href="#DejaVuSans-2f"/>
       <use transform="translate(90.271484 0.78125)" xlink:href="#DejaVuSans-32"/>
      </g>
     </g>
    </g>
    <g id="xtick_7">
     <g id="line2d_13">
      <path clip-path="url(#p5b0d50e544)" d="M 437.829105 228.96 
L 437.829105 7.2 
" style="fill:none;stroke:#b0b0b0;stroke-linecap:square;stroke-opacity:0.1;stroke-width:0.8;"/>
     </g>
     <g id="line2d_14">
      <g>
       <use style="stroke:#000000;stroke-width:0.8;" x="437.829105" xlink:href="#m84aabdc53a" y="228.96"/>
      </g>
     </g>
     <g id="text_7">
      <!-- $\pi$ -->
      <g transform="translate(434.779105 243.558437)scale(0.1 -0.1)">
       <use transform="translate(0 0.3125)" xlink:href="#DejaVuSans-Oblique-3c0"/>
      </g>
     </g>
    </g>
    <g id="xtick_8">
     <g id="line2d_15">
      <path clip-path="url(#p5b0d50e544)" d="M 498.002251 228.96 
L 498.002251 7.2 
" style="fill:none;stroke:#b0b0b0;stroke-linecap:square;stroke-opacity:0.1;stroke-width:0.8;"/>
     </g>
     <g id="line2d_16">
      <g>
       <use style="stroke:#000000;stroke-width:0.8;" x="498.002251" xlink:href="#m84aabdc53a" y="228.96"/>
      </g>
     </g>
     <g id="text_8">
      <!-- $3\pi/2$ -->
      <g transform="translate(487.102251 243.558437)scale(0.1 -0.1)">
       <use transform="translate(0 0.78125)" xlink:href="#DejaVuSans-33"/>
       <use transform="translate(63.623047 0.78125)" xlink:href="#DejaVuSans-Oblique-3c0"/>
       <use transform="translate(123.828125 0.78125)" xlink:href="#DejaVuSans-2f"/>
       <use transform="translate(153.894531 0.78125)" xlink:href="#DejaVuSans-32"/>
      </g>
     </g>
    </g>
    <g id="xtick_9">
     <g id="line2d_17">
      <path clip-path="url(#p5b0d50e544)" d="M 558.175398 228.96 
L 558.175398 7.2 
" style="fill:none;stroke:#b0b0b0;stroke-linecap:square;stroke-opacity:0.1;stroke-width:0.8;"/>
     </g>
     <g id="line2d_18">
      <g>
       <use style="stroke:#000000;stroke-width:0.8;" x="558.175398" xlink:href="#m84aabdc53a" y="228.96"/>
      </g>
     </g>
     <g id="text_9">
      <!-- $2\pi$ -->
      <g transform="translate(551.975398 243.558437)scale(0.1 -0.1)">
       <use transform="translate(0 0.78125)" xlink:href="#DejaVuSans-32"/>
       <use transform="translate(63.623047 0.78125)" xlink:href="#DejaVuSans-Oblique-3c0"/>
      </g>
     </g>
    </g>
   </g>
   <g id="matplotlib.axis_2">
    <g id="ytick_1">
     <g id="line2d_19">
      <path clip-path="url(#p5b0d50e544)" d="M 38.482813 224.994669 
L 596.482813 224.994669 
" style="fill:none;stroke:#b0b0b0;stroke-linecap:square;stroke-opacity:0.1;stroke-width:0.8;"/>
     </g>
     <g id="line2d_20">
      <defs>
       <path d="M 0 0 
L -3.5 0 
" id="m43dcc45065" style="stroke:#000000;stroke-width:0.8;"/>
      </defs>
      <g>
       <use style="stroke:#000000;stroke-width:0.8;" x="38.482813" xlink:href="#m43dcc45065" y="224.994669"/>
      </g>
     </g>
     <g id="text_10">
      <!-- −1.5 -->
      <g transform="translate(7.2 228.793887)scale(0.1 -0.1)">
       <defs>
        <path d="M 794 531 
L 1825 531 
L 1825 4091 
L 703 3866 
L 703 4441 
L 1819 4666 
L 2450 4666 
L 2450 531 
L 3481 531 
L 3481 0 
L 794 0 
L 794 531 
z
" id="DejaVuSans-31" transform="scale(0.015625)"/>
        <path d="M 684 794 
L 1344 794 
L 1344 0 
L 684 0 
L 684 794 
z
" id="DejaVuSans-2e" transform="scale(0.015625)"/>
        <path d="M 691 4666 
L 3169 4666 
L 3169 4134 
L 1269 4134 
L 1269 2991 
Q 1406 3038 1543 3061 
Q 1681 3084 1819 3084 
Q 2600 3084 3056 2656 
Q 3513 2228 3513 1497 
Q 3513 744 3044 326 
Q 2575 -91 1722 -91 
Q 1428 -91 1123 -41 
Q 819 9 494 109 
L 494 744 
Q 775 591 1075 516 
Q 1375 441 1709 441 
Q 2250 441 2565 725 
Q 2881 1009 2881 1497 
Q 2881 1984 2565 2268 
Q 2250 2553 1709 2553 
Q 1456 2553 1204 2497 
Q 953 2441 691 2322 
L 691 4666 
z
" id="DejaVuSans-35" transform="scale(0.015625)"/>
       </defs>
       <use xlink:href="#DejaVuSans-2212"/>
       <use x="83.789062" xlink:href="#DejaVuSans-31"/>
       <use x="147.412109" xlink:href="#DejaVuSans-2e"/>
       <use x="179.199219" xlink:href="#DejaVuSans-35"/>
      </g>
     </g>
    </g>
    <g id="ytick_2">
     <g id="line2d_21">
      <path clip-path="url(#p5b0d50e544)" d="M 38.482813 189.35632 
L 596.482813 189.35632 
" style="fill:none;stroke:#b0b0b0;stroke-linecap:square;stroke-opacity:0.1;stroke-width:0.8;"/>
     </g>
     <g id="line2d_22">
      <g>
       <use style="stroke:#000000;stroke-width:0.8;" x="38.482813" xlink:href="#m43dcc45065" y="189.35632"/>
      </g>
     </g>
     <g id="text_11">
      <!-- −1.0 -->
      <g transform="translate(7.2 193.155538)scale(0.1 -0.1)">
       <use xlink:href="#DejaVuSans-2212"/>
       <use x="83.789062" xlink:href="#DejaVuSans-31"/>
       <use x="147.412109" xlink:href="#DejaVuSans-2e"/>
       <use x="179.199219" xlink:href="#DejaVuSans-30"/>
      </g>
     </g>
    </g>
    <g id="ytick_3">
     <g id="line2d_23">
      <path clip-path="url(#p5b0d50e544)" d="M 38.482813 153.71797 
L 596.482813 153.71797 
" style="fill:none;stroke:#b0b0b0;stroke-linecap:square;stroke-opacity:0.1;stroke-width:0.8;"/>
     </g>
     <g id="line2d_24">
      <g>
       <use style="stroke:#000000;stroke-width:0.8;" x="38.482813" xlink:href="#m43dcc45065" y="153.71797"/>
      </g>
     </g>
     <g id="text_12">
      <!-- −0.5 -->
      <g transform="translate(7.2 157.517189)scale(0.1 -0.1)">
       <use xlink:href="#DejaVuSans-2212"/>
       <use x="83.789062" xlink:href="#DejaVuSans-30"/>
       <use x="147.412109" xlink:href="#DejaVuSans-2e"/>
       <use x="179.199219" xlink:href="#DejaVuSans-35"/>
      </g>
     </g>
    </g>
    <g id="ytick_4">
     <g id="line2d_25">
      <path clip-path="url(#p5b0d50e544)" d="M 38.482813 118.079621 
L 596.482813 118.079621 
" style="fill:none;stroke:#b0b0b0;stroke-linecap:square;stroke-opacity:0.1;stroke-width:0.8;"/>
     </g>
     <g id="line2d_26">
      <g>
       <use style="stroke:#000000;stroke-width:0.8;" x="38.482813" xlink:href="#m43dcc45065" y="118.079621"/>
      </g>
     </g>
     <g id="text_13">
      <!-- 0.0 -->
      <g transform="translate(15.579688 121.87884)scale(0.1 -0.1)">
       <use xlink:href="#DejaVuSans-30"/>
       <use x="63.623047" xlink:href="#DejaVuSans-2e"/>
       <use x="95.410156" xlink:href="#DejaVuSans-30"/>
      </g>
     </g>
    </g>
    <g id="ytick_5">
     <g id="line2d_27">
      <path clip-path="url(#p5b0d50e544)" d="M 38.482813 82.441272 
L 596.482813 82.441272 
" style="fill:none;stroke:#b0b0b0;stroke-linecap:square;stroke-opacity:0.1;stroke-width:0.8;"/>
     </g>
     <g id="line2d_28">
      <g>
       <use style="stroke:#000000;stroke-width:0.8;" x="38.482813" xlink:href="#m43dcc45065" y="82.441272"/>
      </g>
     </g>
     <g id="text_14">
      <!-- 0.5 -->
      <g transform="translate(15.579688 86.240491)scale(0.1 -0.1)">
       <use xlink:href="#DejaVuSans-30"/>
       <use x="63.623047" xlink:href="#DejaVuSans-2e"/>
       <use x="95.410156" xlink:href="#DejaVuSans-35"/>
      </g>
     </g>
    </g>
    <g id="ytick_6">
     <g id="line2d_29">
      <path clip-path="url(#p5b0d50e544)" d="M 38.482813 46.802923 
L 596.482813 46.802923 
" style="fill:none;stroke:#b0b0b0;stroke-linecap:square;stroke-opacity:0.1;stroke-width:0.8;"/>
     </g>
     <g id="line2d_30">
      <g>
       <use style="stroke:#000000;stroke-width:0.8;" x="38.482813" xlink:href="#m43dcc45065" y="46.802923"/>
      </g>
     </g>
     <g id="text_15">
      <!-- 1.0 -->
      <g transform="translate(15.579688 50.602142)scale(0.1 -0.1)">
       <use xlink:href="#DejaVuSans-31"/>
       <use x="63.623047" xlink:href="#DejaVuSans-2e"/>
       <use x="95.410156" xlink:href="#DejaVuSans-30"/>
      </g>
     </g>
    </g>
    <g id="ytick_7">
     <g id="line2d_31">
      <path clip-path="url(#p5b0d50e544)" d="M 38.482813 11.164574 
L 596.482813 11.164574 
" style="fill:none;stroke:#b0b0b0;stroke-linecap:square;stroke-opacity:0.1;stroke-width:0.8;"/>
     </g>
     <g id="line2d_32">
      <g>
       <use style="stroke:#000000;stroke-width:0.8;" x="38.482813" xlink:href="#m43dcc45065" y="11.164574"/>
      </g>
     </g>
     <g id="text_16">
      <!-- 1.5 -->
      <g transform="translate(15.579688 14.963792)scale(0.1 -0.1)">
       <use xlink:href="#DejaVuSans-31"/>
       <use x="63.623047" xlink:href="#DejaVuSans-2e"/>
       <use x="95.410156" xlink:href="#DejaVuSans-35"/>
      </g>
     </g>
    </g>
   </g>
   <g id="line2d_33">
    <path clip-path="url(#p5b0d50e544)" d="M 38.482813 118.079621 
L 596.482813 118.079621 
" style="fill:none;stroke:#000000;stroke-linecap:square;stroke-opacity:0.6;stroke-width:0.5;"/>
   </g>
   <g id="line2d_34">
    <path clip-path="url(#p5b0d50e544)" d="M 317.482813 228.96 
L 317.482813 7.2 
" style="fill:none;stroke:#000000;stroke-linecap:square;stroke-opacity:0.6;stroke-width:0.5;"/>
   </g>
   <g id="line2d_35">
    <path clip-path="url(#p5b0d50e544)" d="M 38.482813 46.802923 
L 596.482813 46.802923 
" style="fill:none;stroke:#000000;stroke-dasharray:5.55,2.4;stroke-dashoffset:0;stroke-opacity:0.1;stroke-width:1.5;"/>
   </g>
   <g id="line2d_36">
    <path clip-path="url(#p5b0d50e544)" d="M 38.482813 189.35632 
L 596.482813 189.35632 
" style="fill:none;stroke:#000000;stroke-dasharray:5.55,2.4;stroke-dashoffset:0;stroke-opacity:0.1;stroke-width:1.5;"/>
   </g>
   <g id="line2d_37">
    <path clip-path="url(#p5b0d50e544)" d="M 38.482813 79.568657 
L 42.392722 73.658022 
L 45.744074 68.957563 
L 49.095425 64.632832 
L 51.888218 61.339862 
L 54.681011 58.348336 
L 57.473803 55.674147 
L 60.266596 53.331503 
L 63.059389 51.33285 
L 65.293623 49.988799 
L 67.527858 48.876304 
L 69.762092 47.99915 
L 71.996326 47.360318 
L 74.23056 46.961981 
L 76.464794 46.805495 
L 78.699029 46.89139 
L 80.933263 47.219376 
L 83.167497 47.788336 
L 85.401731 48.596335 
L 87.635966 49.640627 
L 89.8702 50.91766 
L 92.104434 52.42309 
L 94.897227 54.61819 
L 97.69002 57.150445 
L 100.482812 60.006402 
L 103.275605 63.170887 
L 106.626957 67.351745 
L 109.978308 71.920614 
L 113.329659 76.842547 
L 117.239569 82.980674 
L 121.708038 90.439113 
L 126.735065 99.273642 
L 133.437767 111.528958 
L 148.518849 139.255728 
L 153.545876 147.979242 
L 158.014344 155.306314 
L 161.924254 161.305701 
L 165.275605 166.092175 
L 168.626957 170.511408 
L 171.978308 174.529597 
L 174.771101 177.549464 
L 177.563894 180.253382 
L 180.356686 182.626987 
L 183.149479 184.657667 
L 185.383713 186.027994 
L 187.617948 187.167249 
L 189.852182 188.071556 
L 192.086416 188.737843 
L 194.32065 189.163841 
L 196.554885 189.348104 
L 198.789119 189.290003 
L 201.023353 188.989738 
L 203.257587 188.448328 
L 205.491822 187.667615 
L 207.726056 186.650254 
L 209.96029 185.399704 
L 212.194524 183.920219 
L 214.428758 182.21683 
L 217.221551 179.781624 
L 220.014344 177.018611 
L 222.807137 173.942469 
L 225.59993 170.569543 
L 228.951281 166.15561 
L 232.302632 161.37395 
L 236.212542 155.379519 
L 240.681011 148.057175 
L 245.708038 139.33771 
L 251.852182 128.199775 
L 270.843173 93.419056 
L 275.8702 84.880388 
L 279.78011 78.626707 
L 283.69002 72.783674 
L 287.041371 68.148433 
L 290.392722 63.895109 
L 293.185515 60.665979 
L 295.978308 57.741873 
L 298.771101 55.138327 
L 301.563894 52.869172 
L 303.798128 51.302772 
L 306.032362 49.963461 
L 308.266596 48.855793 
L 310.500831 47.983534 
L 312.735065 47.349651 
L 314.969299 46.956299 
L 317.203533 46.804817 
L 319.437767 46.895719 
L 321.672002 47.228697 
L 323.906236 47.802617 
L 326.14047 48.615528 
L 328.374704 49.664667 
L 330.608939 50.946464 
L 332.843173 52.456561 
L 335.635966 54.657333 
L 338.428758 57.195051 
L 341.221551 60.056235 
L 344.014344 63.225681 
L 347.365695 67.412107 
L 350.717047 71.986082 
L 354.068398 76.912621 
L 357.978308 83.055441 
L 362.446776 90.518289 
L 367.473803 99.356488 
L 374.176506 111.614475 
L 388.699029 138.343503 
L 393.726056 147.111127 
L 398.194524 154.48997 
L 402.104434 160.543785 
L 405.455785 165.383249 
L 408.807137 169.860893 
L 412.158488 173.942469 
L 414.951281 177.018611 
L 417.744074 179.781624 
L 420.536867 182.21683 
L 423.329659 184.311291 
L 425.563894 185.733984 
L 427.798128 186.926604 
L 430.032362 187.885096 
L 432.266596 188.606201 
L 434.500831 189.087465 
L 436.735065 189.327253 
L 438.969299 189.324749 
L 441.203533 189.079962 
L 443.437767 188.593724 
L 445.672002 187.867688 
L 447.906236 186.904323 
L 450.14047 185.706907 
L 452.374704 184.27951 
L 454.608939 182.626987 
L 457.401731 180.253382 
L 460.194524 177.549464 
L 462.987317 174.529597 
L 465.78011 171.209826 
L 469.131461 166.855166 
L 472.482813 162.127428 
L 476.392722 156.188595 
L 480.302632 149.853103 
L 484.771101 142.211589 
L 490.356686 132.211087 
L 499.852182 114.638886 
L 508.23056 99.273642 
L 513.816146 89.48413 
L 518.284614 82.079897 
L 522.194524 75.999272 
L 526.104434 70.356644 
L 529.455785 65.91337 
L 532.807137 61.86911 
L 535.59993 58.826108 
L 538.392722 56.097906 
L 541.185515 53.698997 
L 543.978308 51.642127 
L 546.212542 50.250304 
L 548.446776 49.089148 
L 550.681011 48.162608 
L 552.915245 47.473836 
L 555.149479 47.025172 
L 557.383713 46.818144 
L 559.617948 46.853454 
L 561.852182 47.130984 
L 564.086416 47.649789 
L 566.32065 48.408104 
L 568.554885 49.403352 
L 570.789119 50.632147 
L 573.023353 52.090311 
L 575.257587 53.772885 
L 578.05038 56.182891 
L 580.843173 58.921739 
L 583.635966 61.974878 
L 586.428758 65.326087 
L 589.78011 69.715817 
L 593.131461 74.475476 
L 596.482813 79.568657 
L 596.482813 79.568657 
" style="fill:none;stroke:#008000;stroke-dasharray:1.5,2.475;stroke-dashoffset:0;stroke-opacity:0.3;stroke-width:1.5;"/>
   </g>
   <g id="line2d_38">
    <path clip-path="url(#p5b0d50e544)" d="M 38.482813 178.056895 
L 41.275605 175.092427 
L 44.068398 171.825064 
L 47.419749 167.528956 
L 50.771101 162.854617 
L 54.681011 156.971025 
L 58.590921 150.682631 
L 63.059389 143.084346 
L 68.644975 133.121146 
L 77.023353 117.645858 
L 87.077407 99.168008 
L 92.662993 89.383827 
L 97.131461 81.985399 
L 101.041371 75.910911 
L 104.951281 70.275338 
L 108.302632 65.838789 
L 111.653984 61.801823 
L 114.446776 58.765297 
L 117.239569 56.043893 
L 120.032362 53.652069 
L 122.825155 51.602532 
L 125.059389 50.21673 
L 127.293623 49.061709 
L 129.527858 48.141398 
L 131.762092 47.458925 
L 133.996326 47.016613 
L 136.23056 46.815964 
L 138.464794 46.857662 
L 140.699029 47.141565 
L 142.933263 47.666707 
L 145.167497 48.431302 
L 147.401731 49.432751 
L 149.635966 50.667647 
L 151.8702 52.131791 
L 154.104434 53.820204 
L 156.897227 56.237281 
L 159.69002 58.98291 
L 162.482813 62.042505 
L 165.275605 65.399811 
L 168.626957 69.796338 
L 171.978308 74.562177 
L 175.888218 80.540316 
L 180.356686 87.8471 
L 185.383713 96.553211 
L 191.527858 107.681107 
L 210.518849 142.476078 
L 215.545876 151.029684 
L 220.014344 158.161577 
L 223.924254 163.958246 
L 227.275605 168.5489 
L 230.626957 172.753521 
L 233.419749 175.939188 
L 236.212542 178.817462 
L 239.005335 181.373052 
L 241.798128 183.592379 
L 244.032362 185.117747 
L 246.266596 186.415138 
L 248.500831 187.48014 
L 250.735065 188.309132 
L 252.969299 188.899294 
L 255.203533 189.24862 
L 257.437767 189.355921 
L 259.672002 189.220833 
L 261.906236 188.843814 
L 264.14047 188.226148 
L 266.374704 187.369934 
L 268.608939 186.278084 
L 270.843173 184.954312 
L 273.077407 183.403119 
L 275.8702 181.152425 
L 278.662993 178.566642 
L 281.455785 175.659506 
L 284.248578 172.446462 
L 287.59993 168.211156 
L 290.951281 163.5924 
L 294.861191 157.766496 
L 298.771101 151.527509 
L 303.239569 143.974896 
L 308.825155 134.051708 
L 316.644975 119.63842 
L 327.816146 99.085224 
L 333.401731 89.30524 
L 337.8702 81.911375 
L 341.78011 75.841707 
L 345.69002 70.211676 
L 349.041371 65.780406 
L 352.392722 61.749166 
L 355.185515 58.71772 
L 357.978308 56.00165 
L 360.771101 53.615384 
L 363.563894 51.571601 
L 365.798128 50.190521 
L 368.032362 49.040311 
L 370.266596 48.124884 
L 372.500831 47.447352 
L 374.735065 47.010019 
L 376.969299 46.814373 
L 379.203533 46.861079 
L 381.437767 47.149978 
L 383.672002 47.680087 
L 385.906236 48.449604 
L 388.14047 49.455912 
L 390.374704 50.695589 
L 392.608939 52.164419 
L 394.843173 53.857407 
L 397.635966 56.280022 
L 400.428758 59.030963 
L 403.221551 62.095615 
L 406.014344 65.457696 
L 409.365695 69.859544 
L 412.717047 74.630221 
L 416.626957 80.613343 
L 421.095425 87.92489 
L 426.122452 96.635092 
L 432.266596 107.766071 
L 451.257587 142.556748 
L 456.284614 151.105808 
L 460.753083 158.232559 
L 464.662993 164.023934 
L 468.014344 168.609503 
L 471.365695 172.808576 
L 474.158488 175.989297 
L 476.951281 178.862358 
L 479.744074 181.412496 
L 482.536867 183.626162 
L 484.771101 185.14687 
L 487.005335 186.439502 
L 489.239569 187.499663 
L 491.473803 188.323747 
L 493.708038 188.908952 
L 495.942272 189.253287 
L 498.176506 189.355582 
L 500.41074 189.215489 
L 502.644975 188.833483 
L 504.879209 188.210865 
L 507.113443 187.349751 
L 509.347677 186.25307 
L 511.581912 184.924552 
L 513.816146 183.368714 
L 516.608939 181.11238 
L 519.401731 178.52117 
L 522.194524 175.608848 
L 524.987317 172.390888 
L 528.338668 168.150074 
L 531.69002 163.526278 
L 535.59993 157.695135 
L 539.50984 151.451652 
L 543.978308 143.89487 
L 549.563894 133.968005 
L 557.383713 119.552564 
L 568.554885 99.002468 
L 574.14047 89.226694 
L 578.608939 81.837403 
L 582.518849 75.772565 
L 586.428758 70.148082 
L 589.78011 65.722098 
L 593.131461 61.69659 
L 595.924254 58.67023 
L 596.482813 58.102348 
L 596.482813 58.102348 
" style="fill:none;stroke:#ff0000;stroke-dasharray:1.5,2.475;stroke-dashoffset:0;stroke-opacity:0.3;stroke-width:1.5;"/>
   </g>
   <g id="line2d_39">
    <path clip-path="url(#p5b0d50e544)" d="M 38.482813 139.54593 
L 46.861191 117.665087 
L 56.356686 92.947013 
L 61.942272 79.030592 
L 66.41074 68.480506 
L 70.32065 59.797478 
L 73.672002 52.834453 
L 77.023353 46.37048 
L 79.816146 41.400849 
L 82.608939 36.838594 
L 85.401731 32.707952 
L 88.194524 29.030868 
L 90.428758 26.428974 
L 92.662993 24.138757 
L 94.897227 22.168005 
L 97.131461 20.52342 
L 99.365695 19.210594 
L 101.041371 18.446421 
L 102.717047 17.872859 
L 104.392722 17.491006 
L 106.068398 17.301592 
L 107.744074 17.30498 
L 109.419749 17.501163 
L 111.095425 17.889766 
L 112.771101 18.470045 
L 114.446776 19.240891 
L 116.681011 20.562521 
L 118.915245 22.215777 
L 121.149479 24.195037 
L 123.383713 26.493572 
L 125.617948 29.103563 
L 127.852182 32.016135 
L 130.644975 36.06717 
L 133.437767 40.553917 
L 136.23056 45.452538 
L 139.581912 51.837769 
L 142.933263 58.729675 
L 146.843173 67.340089 
L 150.753083 76.478629 
L 155.78011 88.850588 
L 161.924254 104.632305 
L 179.798128 151.008886 
L 184.825155 163.192068 
L 188.735065 172.141829 
L 192.644975 180.528881 
L 195.996326 187.203561 
L 199.347677 193.349521 
L 202.14047 198.033225 
L 204.933263 202.292157 
L 207.726056 206.103688 
L 209.96029 208.817094 
L 212.194524 211.221929 
L 214.428758 213.310015 
L 216.662993 215.074251 
L 218.897227 216.508637 
L 221.131461 217.608295 
L 222.807137 218.21108 
L 224.482813 218.622301 
L 226.158488 218.841171 
L 227.834164 218.86727 
L 229.50984 218.700549 
L 231.185515 218.341328 
L 232.861191 217.790292 
L 234.536867 217.048496 
L 236.212542 216.11736 
L 238.446776 214.584446 
L 240.681011 212.723348 
L 242.915245 210.540395 
L 245.149479 208.043011 
L 247.383713 205.239687 
L 250.176506 201.319927 
L 252.969299 196.957931 
L 255.762092 192.176875 
L 258.554885 187.002158 
L 261.906236 180.311714 
L 265.257587 173.145265 
L 269.167497 164.256103 
L 273.635966 153.514165 
L 279.221551 139.427254 
L 287.59993 117.543642 
L 297.095425 92.82942 
L 302.681011 78.918657 
L 307.149479 68.374815 
L 311.059389 59.698432 
L 314.41074 52.741927 
L 317.762092 46.285181 
L 320.554885 41.322073 
L 323.347677 36.76676 
L 326.14047 32.643442 
L 328.933263 28.974024 
L 331.167497 26.378483 
L 333.401731 24.09479 
L 335.635966 22.130712 
L 337.8702 20.492927 
L 340.104434 19.187006 
L 341.78011 18.428065 
L 343.455785 17.85977 
L 345.131461 17.483209 
L 346.807137 17.299102 
L 348.482812 17.307802 
L 350.158488 17.509292 
L 351.834164 17.903186 
L 353.50984 18.488731 
L 355.185515 19.264806 
L 357.419749 20.593335 
L 359.653984 22.253387 
L 361.888218 24.239315 
L 364.122452 26.544365 
L 366.356686 29.1607 
L 368.590921 32.079422 
L 371.383713 36.137839 
L 374.176506 40.631593 
L 376.969299 45.536808 
L 380.32065 51.929358 
L 383.672002 58.827882 
L 387.581912 67.445065 
L 391.491822 76.58928 
L 396.518849 88.966837 
L 402.662993 104.752675 
L 420.536867 151.123646 
L 425.563894 163.30064 
L 429.473803 172.244292 
L 433.383713 180.624167 
L 436.735065 187.291904 
L 440.086416 193.430244 
L 442.879209 198.107125 
L 445.672002 202.35884 
L 448.464794 206.162801 
L 450.699029 208.869923 
L 452.933263 211.268294 
L 455.167497 213.349758 
L 457.401731 215.107237 
L 459.635966 216.534753 
L 461.8702 217.627454 
L 463.545876 218.224977 
L 465.221551 218.630908 
L 466.897227 218.844472 
L 468.572903 218.86526 
L 470.248578 218.693231 
L 471.924254 218.328715 
L 473.59993 217.772409 
L 475.275605 217.025378 
L 476.951281 216.089051 
L 479.185515 214.549301 
L 481.419749 212.681486 
L 483.653984 210.491959 
L 485.888218 207.988165 
L 488.122452 205.178619 
L 490.915245 201.251374 
L 493.708038 196.882258 
L 496.500831 192.094484 
L 499.852182 185.832488 
L 503.203533 179.05226 
L 507.113443 170.556395 
L 511.023353 161.514322 
L 515.491822 150.632653 
L 521.077407 136.426324 
L 531.131461 110.081774 
L 538.951281 89.878129 
L 543.978308 77.457376 
L 548.446776 66.996754 
L 552.356686 58.408599 
L 555.708038 51.538441 
L 559.059389 45.177247 
L 561.852182 40.300274 
L 564.644975 35.836523 
L 567.437767 31.809709 
L 569.672002 28.91731 
L 571.906236 26.328125 
L 574.14047 24.05096 
L 576.374704 22.093558 
L 578.608939 20.462576 
L 580.843173 19.163561 
L 582.518849 18.409853 
L 584.194524 17.846826 
L 585.8702 17.475558 
L 587.545876 17.296759 
L 589.221551 17.310771 
L 590.897227 17.517567 
L 592.572903 17.916751 
L 594.248578 18.507561 
L 595.924254 19.288864 
L 596.482813 19.591383 
L 596.482813 19.591383 
" style="fill:none;stroke:#0000ff;stroke-linecap:square;stroke-width:1.5;"/>
   </g>
   <g id="patch_3">
    <path d="M 38.482813 228.96 
L 38.482813 7.2 
" style="fill:none;stroke:#000000;stroke-linecap:square;stroke-linejoin:miter;stroke-width:0.8;"/>
   </g>
   <g id="patch_4">
    <path d="M 596.482813 228.96 
L 596.482813 7.2 
" style="fill:none;stroke:#000000;stroke-linecap:square;stroke-linejoin:miter;stroke-width:0.8;"/>
   </g>
   <g id="patch_5">
    <path d="M 38.482813 228.96 
L 596.482813 228.96 
" style="fill:none;stroke:#000000;stroke-linecap:square;stroke-linejoin:miter;stroke-width:0.8;"/>
   </g>
   <g id="patch_6">
    <path d="M 38.482813 7.2 
L 596.482813 7.2 
" style="fill:none;stroke:#000000;stroke-linecap:square;stroke-linejoin:miter;stroke-width:0.8;"/>
   </g>
   <g id="legend_1">
    <g id="patch_7">
     <path d="M 45.482813 223.96 
L 137.382812 223.96 
Q 139.382812 223.96 139.382812 221.96 
L 139.382812 178.925625 
Q 139.382812 176.925625 137.382812 176.925625 
L 45.482813 176.925625 
Q 43.482813 176.925625 43.482813 178.925625 
L 43.482813 221.96 
Q 43.482813 223.96 45.482813 223.96 
z
" style="fill:#ffffff;opacity:0.8;stroke:#cccccc;stroke-linejoin:miter;"/>
    </g>
    <g id="line2d_40">
     <path d="M 47.482813 185.024062 
L 67.482813 185.024062 
" style="fill:none;stroke:#008000;stroke-dasharray:1.5,2.475;stroke-dashoffset:0;stroke-opacity:0.3;stroke-width:1.5;"/>
    </g>
    <g id="line2d_41"/>
    <g id="text_17">
     <!-- $\cos{\alpha}$ -->
     <g transform="translate(75.482813 188.524062)scale(0.1 -0.1)">
      <defs>
       <path d="M 3122 3366 
L 3122 2828 
Q 2878 2963 2633 3030 
Q 2388 3097 2138 3097 
Q 1578 3097 1268 2742 
Q 959 2388 959 1747 
Q 959 1106 1268 751 
Q 1578 397 2138 397 
Q 2388 397 2633 464 
Q 2878 531 3122 666 
L 3122 134 
Q 2881 22 2623 -34 
Q 2366 -91 2075 -91 
Q 1284 -91 818 406 
Q 353 903 353 1747 
Q 353 2603 823 3093 
Q 1294 3584 2113 3584 
Q 2378 3584 2631 3529 
Q 2884 3475 3122 3366 
z
" id="DejaVuSans-63" transform="scale(0.015625)"/>
       <path d="M 1959 3097 
Q 1497 3097 1228 2736 
Q 959 2375 959 1747 
Q 959 1119 1226 758 
Q 1494 397 1959 397 
Q 2419 397 2687 759 
Q 2956 1122 2956 1747 
Q 2956 2369 2687 2733 
Q 2419 3097 1959 3097 
z
M 1959 3584 
Q 2709 3584 3137 3096 
Q 3566 2609 3566 1747 
Q 3566 888 3137 398 
Q 2709 -91 1959 -91 
Q 1206 -91 779 398 
Q 353 888 353 1747 
Q 353 2609 779 3096 
Q 1206 3584 1959 3584 
z
" id="DejaVuSans-6f" transform="scale(0.015625)"/>
       <path d="M 2834 3397 
L 2834 2853 
Q 2591 2978 2328 3040 
Q 2066 3103 1784 3103 
Q 1356 3103 1142 2972 
Q 928 2841 928 2578 
Q 928 2378 1081 2264 
Q 1234 2150 1697 2047 
L 1894 2003 
Q 2506 1872 2764 1633 
Q 3022 1394 3022 966 
Q 3022 478 2636 193 
Q 2250 -91 1575 -91 
Q 1294 -91 989 -36 
Q 684 19 347 128 
L 347 722 
Q 666 556 975 473 
Q 1284 391 1588 391 
Q 1994 391 2212 530 
Q 2431 669 2431 922 
Q 2431 1156 2273 1281 
Q 2116 1406 1581 1522 
L 1381 1569 
Q 847 1681 609 1914 
Q 372 2147 372 2553 
Q 372 3047 722 3315 
Q 1072 3584 1716 3584 
Q 2034 3584 2315 3537 
Q 2597 3491 2834 3397 
z
" id="DejaVuSans-73" transform="scale(0.015625)"/>
       <path d="M 2619 1628 
L 2622 2350 
Q 2625 3088 2069 3091 
Q 1653 3094 1394 2747 
Q 1069 2319 959 1747 
Q 825 1059 994 731 
Q 1169 397 1547 397 
Q 1966 397 2319 1063 
L 2619 1628 
z
M 2166 3578 
Q 3141 3594 3128 2584 
Q 3128 2584 3616 3500 
L 4128 3500 
L 3119 1603 
L 3109 919 
Q 3109 766 3194 638 
Q 3291 488 3391 488 
L 3669 488 
L 3575 0 
L 3228 0 
Q 2934 0 2722 263 
Q 2622 394 2619 669 
Q 2416 334 2066 50 
Q 1900 -81 1453 -78 
Q 722 -72 456 397 
Q 184 884 353 1747 
Q 534 2675 1009 3097 
Q 1544 3569 2166 3578 
z
" id="DejaVuSans-Oblique-3b1" transform="scale(0.015625)"/>
      </defs>
      <use transform="translate(0 0.84375)" xlink:href="#DejaVuSans-63"/>
      <use transform="translate(54.980469 0.84375)" xlink:href="#DejaVuSans-6f"/>
      <use transform="translate(116.162109 0.84375)" xlink:href="#DejaVuSans-73"/>
      <use transform="translate(184.497395 0.84375)" xlink:href="#DejaVuSans-Oblique-3b1"/>
     </g>
    </g>
    <g id="line2d_42">
     <path d="M 47.482813 199.702187 
L 67.482813 199.702187 
" style="fill:none;stroke:#ff0000;stroke-dasharray:1.5,2.475;stroke-dashoffset:0;stroke-opacity:0.3;stroke-width:1.5;"/>
    </g>
    <g id="line2d_43"/>
    <g id="text_18">
     <!-- $\sin{\alpha}$ -->
     <g transform="translate(75.482813 203.202187)scale(0.1 -0.1)">
      <defs>
       <path d="M 603 3500 
L 1178 3500 
L 1178 0 
L 603 0 
L 603 3500 
z
M 603 4863 
L 1178 4863 
L 1178 4134 
L 603 4134 
L 603 4863 
z
" id="DejaVuSans-69" transform="scale(0.015625)"/>
       <path d="M 3513 2113 
L 3513 0 
L 2938 0 
L 2938 2094 
Q 2938 2591 2744 2837 
Q 2550 3084 2163 3084 
Q 1697 3084 1428 2787 
Q 1159 2491 1159 1978 
L 1159 0 
L 581 0 
L 581 3500 
L 1159 3500 
L 1159 2956 
Q 1366 3272 1645 3428 
Q 1925 3584 2291 3584 
Q 2894 3584 3203 3211 
Q 3513 2838 3513 2113 
z
" id="DejaVuSans-6e" transform="scale(0.015625)"/>
      </defs>
      <use transform="translate(0 0.015625)" xlink:href="#DejaVuSans-73"/>
      <use transform="translate(52.099609 0.015625)" xlink:href="#DejaVuSans-69"/>
      <use transform="translate(79.882812 0.015625)" xlink:href="#DejaVuSans-6e"/>
      <use transform="translate(159.497395 0.015625)" xlink:href="#DejaVuSans-Oblique-3b1"/>
     </g>
    </g>
    <g id="line2d_44">
     <path d="M 47.482813 214.380312 
L 67.482813 214.380312 
" style="fill:none;stroke:#0000ff;stroke-linecap:square;stroke-width:1.5;"/>
    </g>
    <g id="line2d_45"/>
    <g id="text_19">
     <!-- $\sin{\alpha}+\cos{\alpha}$ -->
     <g transform="translate(75.482813 217.880312)scale(0.1 -0.1)">
      <defs>
       <path d="M 2944 4013 
L 2944 2272 
L 4684 2272 
L 4684 1741 
L 2944 1741 
L 2944 0 
L 2419 0 
L 2419 1741 
L 678 1741 
L 678 2272 
L 2419 2272 
L 2419 4013 
L 2944 4013 
z
" id="DejaVuSans-2b" transform="scale(0.015625)"/>
      </defs>
      <use transform="translate(0 0.015625)" xlink:href="#DejaVuSans-73"/>
      <use transform="translate(52.099609 0.015625)" xlink:href="#DejaVuSans-69"/>
      <use transform="translate(79.882812 0.015625)" xlink:href="#DejaVuSans-6e"/>
      <use transform="translate(159.497395 0.015625)" xlink:href="#DejaVuSans-Oblique-3b1"/>
      <use transform="translate(244.897786 0.015625)" xlink:href="#DejaVuSans-2b"/>
      <use transform="translate(348.16927 0.015625)" xlink:href="#DejaVuSans-63"/>
      <use transform="translate(403.149739 0.015625)" xlink:href="#DejaVuSans-6f"/>
      <use transform="translate(464.331379 0.015625)" xlink:href="#DejaVuSans-73"/>
      <use transform="translate(532.666665 0.015625)" xlink:href="#DejaVuSans-Oblique-3b1"/>
     </g>
    </g>
   </g>
  </g>
 </g>
 <defs>
  <clipPath id="p5b0d50e544">
   <rect height="221.76" width="558" x="38.482813" y="7.2"/>
  </clipPath>
 </defs>
</svg>
