<svg width="1608" height="1077" xmlns="http://www.w3.org/2000/svg" xmlns:xlink="http://www.w3.org/1999/xlink" xml:space="preserve" overflow="hidden"><defs><clipPath id="clip0"><rect x="285" y="428" width="1608" height="1077"/></clipPath><clipPath id="clip1"><rect x="471" y="644" width="1162" height="753"/></clipPath><clipPath id="clip2"><rect x="471" y="644" width="1162" height="753"/></clipPath></defs><g clip-path="url(#clip0)" transform="translate(-285 -428)"><path d="M307.869 625.399C308.977 625.399 309.922 625.547 310.706 625.844 311.246 626.061 311.787 626.419 312.327 626.918 312.867 627.418 313.347 628.114 313.766 629.006 314.185 629.897 314.549 630.897 314.86 632.005 315.171 633.112 315.515 634.706 315.893 636.787 316.542 640.272 317.17 643.94 317.778 647.79 318.386 651.64 318.906 655.213 319.338 658.509 321.959 654.727 324.181 651.025 326.005 647.405 327.829 643.785 329.139 640.637 329.936 637.962 330.733 635.287 331.132 633.112 331.132 631.437 331.132 630.167 330.862 629.303 330.321 628.843 329.781 628.384 328.862 628.114 327.565 628.033L327.971 626.047 338.629 626.047 339.724 628.073C337.67 633.693 334.887 639.705 331.375 646.108 327.917 652.376 323.958 658.618 319.5 664.832 315.232 670.749 311.679 675.031 308.842 677.679 306.869 679.489 304.965 680.786 303.127 681.57 301.668 682.164 300.115 682.461 298.467 682.461 297.899 682.461 297.244 682.414 296.501 682.319 295.758 682.225 295.184 682.096 294.779 681.934L296.521 674.072 299.723 674.072C299.723 675.801 300.317 676.666 301.506 676.666 303.073 676.666 304.897 675.686 306.977 673.727 309.058 671.769 311.503 668.817 314.313 664.872 313.529 660.144 312.462 654.443 311.111 647.77 309.679 640.637 308.734 636.219 308.274 634.517 307.707 632.464 307.113 631.154 306.491 630.586 306.113 630.235 305.64 630.059 305.073 630.059 304.208 630.059 303.398 630.411 302.641 631.113 301.885 631.815 300.952 633.031 299.845 634.76L297.21 633.018C299.075 630.235 300.817 628.269 302.438 627.121 304.059 625.973 305.87 625.399 307.869 625.399Z" fill="#0000FF" fill-rule="evenodd"/><text fill="#000000" fill-opacity="0" font-family="Arial,Arial_MSFontService,sans-serif" font-size="57.0625" x="294.779" y="675.328">洧녽</text><path d="M410.658 654.173C409.487 654.173 408.394 654.431 407.382 654.947 406.369 655.464 405.446 656.169 404.612 657.062 403.778 657.956 403.038 658.988 402.393 660.16 401.747 661.331 401.201 662.572 400.755 663.883 400.308 665.194 399.97 666.539 399.742 667.919 399.514 669.299 399.399 670.624 399.399 671.895 399.399 674.04 399.702 675.633 400.308 676.676 400.913 677.718 401.891 678.239 403.242 678.239 403.917 678.239 404.567 678.12 405.193 677.882 405.818 677.644 406.478 677.266 407.173 676.75 408.921 675.38 410.41 673.712 411.641 671.746 412.872 669.78 413.796 667.457 414.411 664.777 414.689 663.545 414.907 662.433 415.066 661.441 415.225 660.448 415.305 659.505 415.305 658.611 415.305 657.022 414.932 655.886 414.188 655.201 413.443 654.516 412.267 654.173 410.658 654.173ZM440.884 651.224C441.976 651.224 442.87 651.463 443.565 651.939 444.26 652.416 444.836 653.111 445.292 654.024 445.749 654.938 446.126 656.064 446.424 657.405 446.722 658.745 447.04 660.279 447.377 662.007L447.765 662.007C448.956 660.438 449.989 659.078 450.862 657.926 451.736 656.774 452.515 655.801 453.2 655.007 453.885 654.213 454.501 653.567 455.047 653.071 455.593 652.575 456.124 652.192 456.641 651.924 457.157 651.656 457.688 651.473 458.234 651.373 458.78 651.274 459.391 651.224 460.066 651.224 461.059 651.224 461.962 651.403 462.776 651.76L461.287 657.628 458.815 657.628C458.755 656.774 458.438 656.347 457.862 656.347 457.643 656.347 457.405 656.387 457.147 656.466 456.889 656.546 456.581 656.705 456.224 656.943 455.866 657.181 455.454 657.514 454.987 657.941 454.521 658.368 453.97 658.924 453.334 659.609 452.699 660.294 451.974 661.133 451.16 662.126 450.346 663.119 449.413 664.29 448.36 665.64 448.896 668.381 449.358 670.575 449.745 672.223 450.133 673.871 450.505 675.132 450.862 676.006 451.22 676.879 451.577 677.45 451.935 677.718 452.292 677.986 452.699 678.12 453.156 678.12 453.493 678.12 453.806 678.081 454.094 678.001 454.382 677.922 454.68 677.748 454.987 677.48 455.295 677.212 455.638 676.825 456.015 676.318 456.392 675.812 456.839 675.142 457.355 674.308L459.589 675.767C458.716 677.078 457.941 678.15 457.266 678.984 456.591 679.818 455.936 680.473 455.3 680.95 454.665 681.426 454.01 681.749 453.334 681.918 452.659 682.087 451.885 682.171 451.011 682.171 450.257 682.171 449.581 682.067 448.986 681.858 448.39 681.65 447.874 681.268 447.437 680.712 447.139 680.374 446.861 679.922 446.603 679.356 446.345 678.79 446.107 678.18 445.888 677.525 445.67 676.869 445.471 676.189 445.292 675.484 445.114 674.779 444.965 674.119 444.846 673.504 444.727 672.888 444.632 672.337 444.563 671.851 444.493 671.364 444.448 671.002 444.429 670.763L444.101 670.763C442.91 672.352 441.872 673.737 440.988 674.918 440.105 676.1 439.306 677.113 438.591 677.956 437.876 678.8 437.231 679.495 436.655 680.041 436.079 680.588 435.513 681.019 434.957 681.337 434.401 681.655 433.83 681.873 433.244 681.992 432.659 682.112 432.008 682.171 431.293 682.171 430.261 682.171 429.377 681.992 428.643 681.635L430.013 675.827 432.544 675.827C432.604 676.701 432.932 677.137 433.527 677.137 433.746 677.118 433.959 677.078 434.168 677.018 434.376 676.959 434.619 676.835 434.897 676.646 435.175 676.457 435.528 676.159 435.955 675.752 436.382 675.345 436.923 674.779 437.578 674.055 438.233 673.33 439.038 672.421 439.991 671.329 440.944 670.237 442.086 668.887 443.416 667.279 443.059 665.611 442.746 664.161 442.478 662.93 442.21 661.699 441.961 660.641 441.733 659.758 441.505 658.874 441.281 658.154 441.063 657.598 440.844 657.042 440.621 656.601 440.393 656.273 440.164 655.945 439.916 655.712 439.648 655.573 439.38 655.434 439.067 655.354 438.71 655.335 438.372 655.335 438.06 655.389 437.772 655.498 437.484 655.608 437.186 655.801 436.878 656.079 436.57 656.357 436.233 656.745 435.865 657.241 435.498 657.737 435.076 658.383 434.6 659.177L432.306 657.688C433.12 656.476 433.855 655.454 434.51 654.62 435.165 653.786 435.811 653.121 436.446 652.624 437.082 652.128 437.752 651.77 438.457 651.552 439.162 651.333 439.971 651.224 440.884 651.224ZM410.122 651.224C411.691 651.224 413.076 651.408 414.277 651.775 415.478 652.143 416.575 652.644 417.568 653.279L420.457 651.224 422.87 651.85 418.372 671.359C418.114 672.471 417.936 673.389 417.836 674.114 417.737 674.839 417.687 675.479 417.687 676.035 417.687 676.79 417.841 677.336 418.149 677.674 418.457 678.011 418.899 678.18 419.475 678.18 419.832 678.18 420.184 678.11 420.532 677.971 420.879 677.832 421.257 677.614 421.664 677.316 422.071 677.018 422.518 676.636 423.004 676.169 423.491 675.703 424.042 675.142 424.657 674.487 424.975 674.824 425.302 675.157 425.64 675.484 425.978 675.812 426.305 676.135 426.623 676.452 425.63 677.465 424.727 678.334 423.913 679.059 423.098 679.783 422.309 680.379 421.545 680.846 420.78 681.312 420.031 681.65 419.296 681.858 418.561 682.067 417.797 682.171 417.002 682.171 415.573 682.171 414.461 681.709 413.666 680.786 412.872 679.863 412.475 678.597 412.475 676.988 412.475 676.095 412.614 675.241 412.892 674.427L412.475 674.248C411.462 675.658 410.479 676.859 409.526 677.852 408.573 678.845 407.63 679.664 406.697 680.31 405.763 680.955 404.82 681.426 403.867 681.724 402.914 682.022 401.921 682.171 400.889 682.171 398.526 682.171 396.699 681.322 395.408 679.624 394.117 677.927 393.472 675.459 393.472 672.223 393.472 670.297 393.676 668.445 394.083 666.668 394.49 664.891 395.066 663.223 395.81 661.664 396.555 660.105 397.443 658.685 398.476 657.405 399.509 656.124 400.64 655.027 401.872 654.113 403.103 653.2 404.413 652.49 405.803 651.984 407.193 651.477 408.633 651.224 410.122 651.224ZM344.501 651.224C345.971 651.224 347.108 651.706 347.912 652.669 348.716 653.632 349.118 654.898 349.118 656.466 349.118 656.903 349.088 657.33 349.029 657.747 348.969 658.164 348.86 658.571 348.701 658.968L349.059 659.117C350.945 656.476 352.831 654.501 354.718 653.19 356.604 651.88 358.54 651.224 360.526 651.224 362.631 651.224 364.204 651.765 365.247 652.848 366.289 653.93 366.81 655.523 366.81 657.628 366.81 657.807 366.81 657.981 366.81 658.149 366.81 658.318 366.791 658.492 366.751 658.671L366.87 658.671C368.717 656.149 370.553 654.277 372.38 653.056 374.207 651.835 376.113 651.224 378.099 651.224 380.204 651.224 381.778 651.79 382.82 652.922 383.862 654.054 384.384 655.642 384.384 657.688 384.384 658.303 384.284 659.132 384.086 660.175 383.887 661.217 383.644 662.364 383.356 663.615 383.068 664.866 382.755 666.162 382.418 667.502 382.08 668.842 381.763 670.108 381.465 671.299 381.286 672.074 381.142 672.704 381.033 673.191 380.924 673.677 380.839 674.084 380.78 674.412 380.72 674.74 380.68 675.023 380.661 675.261 380.641 675.499 380.631 675.757 380.631 676.035 380.631 676.79 380.77 677.336 381.048 677.674 381.326 678.011 381.773 678.18 382.388 678.18 382.746 678.18 383.103 678.11 383.46 677.971 383.818 677.832 384.2 677.614 384.607 677.316 385.014 677.018 385.461 676.636 385.947 676.169 386.434 675.703 386.975 675.142 387.571 674.487L389.626 676.452C388.673 677.445 387.784 678.299 386.96 679.014 386.136 679.729 385.342 680.319 384.577 680.786 383.813 681.253 383.053 681.6 382.299 681.829 381.544 682.057 380.75 682.171 379.916 682.171 379.161 682.171 378.476 682.032 377.861 681.754 377.245 681.476 376.724 681.094 376.297 680.607 375.87 680.121 375.538 679.545 375.299 678.88 375.061 678.215 374.942 677.485 374.942 676.691 374.942 675.062 375.289 672.967 375.984 670.406 376.362 669.115 376.704 667.879 377.012 666.698 377.32 665.516 377.583 664.424 377.801 663.421 378.02 662.419 378.193 661.525 378.322 660.741 378.452 659.956 378.516 659.306 378.516 658.79 378.516 657.559 378.283 656.655 377.816 656.079 377.349 655.503 376.62 655.216 375.627 655.216 375.011 655.216 374.356 655.374 373.661 655.692 372.966 656.01 372.266 656.452 371.561 657.018 370.856 657.583 370.166 658.254 369.491 659.028 368.816 659.802 368.191 660.641 367.615 661.545 367.039 662.448 366.528 663.396 366.081 664.389 365.634 665.382 365.291 666.385 365.053 667.398L362.104 681.635 356.296 681.635C356.574 680.364 356.887 678.999 357.235 677.539 357.582 676.08 357.935 674.606 358.292 673.116 358.649 671.627 358.992 670.158 359.32 668.708 359.647 667.259 359.94 665.903 360.198 664.643 360.456 663.382 360.665 662.25 360.824 661.247 360.983 660.244 361.062 659.445 361.062 658.849 361.062 657.598 360.819 656.68 360.332 656.094 359.846 655.508 359.066 655.216 357.994 655.216 357.041 655.216 356.018 655.573 354.926 656.288 353.834 657.003 352.797 657.941 351.814 659.102 350.831 660.264 349.952 661.575 349.178 663.034 348.403 664.494 347.857 665.968 347.539 667.457L344.501 681.635 338.664 681.635 343.131 662.215C343.389 661.143 343.578 660.209 343.697 659.415 343.816 658.621 343.876 657.966 343.876 657.449 343.876 656 343.29 655.275 342.119 655.275 341.761 655.275 341.399 655.35 341.031 655.498 340.664 655.647 340.277 655.871 339.87 656.169 339.463 656.466 339.021 656.844 338.544 657.3 338.068 657.757 337.532 658.293 336.936 658.909L334.881 656.973C335.854 655.98 336.752 655.121 337.576 654.396 338.4 653.672 339.195 653.076 339.959 652.609 340.724 652.143 341.473 651.795 342.208 651.567 342.943 651.339 343.707 651.224 344.501 651.224Z" fill="#0000FF" fill-rule="evenodd"/><text fill="#000000" fill-opacity="0" font-family="Arial,Arial_MSFontService,sans-serif" font-size="30.9468" x="334.881" y="678.303">洧녴洧녩洧논</text><path d="M499.5 642.5 970.622 642.5" stroke="#000000" stroke-width="6.875" stroke-miterlimit="8" stroke-dasharray="27.5 20.625" stroke-opacity="0.180392" fill="none" fill-rule="evenodd"/><path d="M953.5 645.5 953.5 1397.41" stroke="#000000" stroke-width="6.875" stroke-miterlimit="8" stroke-dasharray="27.5 20.625" stroke-opacity="0.180392" fill="none" fill-rule="evenodd"/><path d="M3.4375-1.45147e-06 3.43786 847.62-3.43714 847.62-3.4375 1.45147e-06ZM25.9219 808.038 0.000360074 854.697-25.9212 808.038C-26.8432 806.379-26.2453 804.286-24.5857 803.364-22.9262 802.442-20.8334 803.04-19.9114 804.699L3.00527 845.949-3.00456 845.949 19.9121 804.699C20.8341 803.04 22.9268 802.442 24.5864 803.364 26.246 804.286 26.8439 806.379 25.9219 808.038Z" transform="matrix(1 0 0 -1 472.5 1397.2)"/><path d="M499.5 1073.5 1412.87 1073.5" stroke="#000000" stroke-width="6.875" stroke-miterlimit="8" stroke-dasharray="27.5 20.625" stroke-opacity="0.180392" fill="none" fill-rule="evenodd"/><path d="M472.5 1394.06 1760.95 1394.06 1760.95 1400.94 472.5 1400.94ZM1721.35 1371.58 1768.01 1397.5 1721.35 1423.42C1719.69 1424.34 1717.6 1423.75 1716.68 1422.09 1715.76 1420.43 1716.35 1418.33 1718.01 1417.41L1759.26 1394.5 1759.26 1400.51 1718.01 1377.59C1716.35 1376.67 1715.76 1374.57 1716.68 1372.91 1717.6 1371.25 1719.69 1370.66 1721.35 1371.58Z"/><path d="M409.227 465.808C410.335 465.808 411.28 465.957 412.064 466.254 412.604 466.47 413.145 466.828 413.685 467.328 414.225 467.828 414.705 468.524 415.124 469.415 415.542 470.307 415.907 471.307 416.218 472.414 416.529 473.522 416.873 475.116 417.251 477.197 417.9 480.682 418.528 484.35 419.136 488.2 419.744 492.05 420.264 495.623 420.696 498.919 423.317 495.137 425.539 491.435 427.363 487.815 429.187 484.194 430.497 481.047 431.294 478.372 432.091 475.697 432.49 473.522 432.49 471.847 432.49 470.577 432.219 469.713 431.679 469.253 431.139 468.794 430.22 468.524 428.923 468.443L429.328 466.457 439.987 466.457 441.081 468.483C439.028 474.103 436.245 480.115 432.733 486.518 429.274 492.786 425.316 499.027 420.858 505.241 416.589 511.158 413.036 515.441 410.2 518.089 408.227 519.899 406.322 521.196 404.485 521.979 403.026 522.574 401.473 522.871 399.825 522.871 399.257 522.871 398.602 522.824 397.859 522.729 397.116 522.634 396.542 522.506 396.137 522.344L397.879 514.482 401.081 514.482C401.081 516.211 401.675 517.075 402.864 517.075 404.431 517.075 406.255 516.096 408.335 514.137 410.416 512.178 412.861 509.227 415.671 505.282 414.887 500.554 413.82 494.853 412.469 488.179 411.037 481.047 410.092 476.629 409.632 474.927 409.065 472.874 408.47 471.563 407.849 470.996 407.471 470.645 406.998 470.469 406.431 470.469 405.566 470.469 404.755 470.82 403.999 471.523 403.242 472.225 402.31 473.441 401.203 475.17L398.568 473.428C400.432 470.645 402.175 468.679 403.796 467.531 405.417 466.383 407.228 465.808 409.227 465.808Z" fill-rule="evenodd"/><text fill="#000000" fill-opacity="0" font-family="Arial,Arial_MSFontService,sans-serif" font-size="57.0625" x="396.137" y="515.738">洧녽</text><path d="M475.494 446.639 476.588 449.76C470.266 451.84 465.585 455.899 462.545 461.938 459.506 467.977 457.986 475.562 457.986 484.694 457.986 494.151 459.506 501.945 462.545 508.078 465.585 514.212 470.225 518.318 476.467 520.399L475.494 523.519C467.578 521.439 461.512 516.961 457.297 510.085 453.082 503.208 450.975 494.88 450.975 485.099 450.975 475.346 453.089 467.017 457.317 460.114 461.546 453.211 467.605 448.719 475.494 446.639Z" fill-rule="evenodd"/><text fill="#000000" fill-opacity="0" font-family="Arial,Arial_MSFontService,sans-serif" font-size="76.8803" x="450.975" y="513.909">(</text><path d="M493.901 456.447 499.494 456.447 497.265 466.457 509.585 466.457 508.694 470.55 496.373 470.55 492.766 486.275C492.064 489.328 491.618 491.523 491.429 492.86 491.24 494.198 491.145 495.272 491.145 496.082 491.145 499.433 492.537 501.108 495.32 501.108 496.508 501.108 497.772 500.655 499.109 499.75 500.446 498.845 502.034 497.298 503.871 495.11L506.221 497.541C503.871 500.378 501.608 502.472 499.433 503.823 497.258 505.174 494.982 505.849 492.604 505.849 486.957 505.849 484.134 502.999 484.134 497.298 484.134 495.488 484.364 493.583 484.823 491.584L489.605 470.55 482.797 470.55 483.405 467.754C484.999 467.727 486.208 467.605 487.032 467.389 487.856 467.173 488.545 466.876 489.099 466.497 489.653 466.119 490.159 465.579 490.618 464.876 491.078 464.174 491.524 463.275 491.956 462.181 492.388 461.087 493.037 459.175 493.901 456.447Z" fill-rule="evenodd"/><text fill="#000000" fill-opacity="0" font-family="Arial,Arial_MSFontService,sans-serif" font-size="49.4028" x="482.797" y="499.674">洧노</text><path d="M515.362 446.639C523.252 448.719 529.31 453.211 533.539 460.114 537.767 467.017 539.881 475.346 539.881 485.099 539.881 494.88 537.774 503.208 533.559 510.085 529.344 516.961 523.279 521.439 515.362 523.519L514.39 520.399C520.631 518.318 525.271 514.212 528.311 508.078 531.35 501.945 532.87 494.151 532.87 484.694 532.87 475.562 531.357 467.977 528.331 461.938 525.305 455.899 520.617 451.84 514.268 449.76Z" fill-rule="evenodd"/><text fill="#000000" fill-opacity="0" font-family="Arial,Arial_MSFontService,sans-serif" font-size="76.8803" x="514.268" y="513.909">)</text><path d="M1806.49 1374.77 1812.08 1374.77 1809.85 1384.78 1822.17 1384.78 1821.28 1388.87 1808.96 1388.87 1805.36 1404.6C1804.65 1407.65 1804.21 1409.84 1804.02 1411.18 1803.83 1412.52 1803.73 1413.59 1803.73 1414.4 1803.73 1417.75 1805.13 1419.43 1807.91 1419.43 1809.1 1419.43 1810.36 1418.98 1811.7 1418.07 1813.04 1417.17 1814.62 1415.62 1816.46 1413.43L1818.81 1415.86C1816.46 1418.7 1814.2 1420.79 1812.02 1422.14 1809.85 1423.5 1807.57 1424.17 1805.19 1424.17 1799.55 1424.17 1796.72 1421.32 1796.72 1415.62 1796.72 1413.81 1796.95 1411.9 1797.41 1409.91L1802.19 1388.87 1795.39 1388.87 1795.99 1386.07C1797.59 1386.05 1798.8 1385.93 1799.62 1385.71 1800.45 1385.49 1801.13 1385.2 1801.69 1384.82 1802.24 1384.44 1802.75 1383.9 1803.21 1383.2 1803.67 1382.49 1804.11 1381.6 1804.55 1380.5 1804.98 1379.41 1805.63 1377.5 1806.49 1374.77Z" fill-rule="evenodd"/><text fill="#000000" fill-opacity="0" font-family="Arial,Arial_MSFontService,sans-serif" font-size="49.4028" x="1795.39" y="1418">洧노</text><path d="M329.006 1054.68C330.114 1054.68 331.06 1054.83 331.843 1055.13 332.383 1055.34 332.924 1055.7 333.464 1056.2 334.005 1056.7 334.484 1057.4 334.903 1058.29 335.322 1059.18 335.686 1060.18 335.997 1061.29 336.308 1062.39 336.652 1063.99 337.031 1066.07 337.679 1069.55 338.307 1073.22 338.915 1077.07 339.523 1080.92 340.043 1084.5 340.475 1087.79 343.096 1084.01 345.318 1080.31 347.142 1076.69 348.966 1073.07 350.276 1069.92 351.073 1067.24 351.87 1064.57 352.269 1062.39 352.269 1060.72 352.269 1059.45 351.999 1058.58 351.458 1058.13 350.918 1057.67 349.999 1057.4 348.702 1057.32L349.108 1055.33 359.766 1055.33 360.861 1057.36C358.807 1062.98 356.024 1068.99 352.512 1075.39 349.054 1081.66 345.096 1087.9 340.638 1094.11 336.369 1100.03 332.816 1104.31 329.979 1106.96 328.007 1108.77 326.102 1110.07 324.264 1110.85 322.805 1111.45 321.252 1111.74 319.604 1111.74 319.036 1111.74 318.381 1111.7 317.638 1111.6 316.895 1111.51 316.321 1111.38 315.916 1111.22L317.659 1103.35 320.86 1103.35C320.86 1105.08 321.455 1105.95 322.643 1105.95 324.21 1105.95 326.034 1104.97 328.115 1103.01 330.195 1101.05 332.64 1098.1 335.45 1094.15 334.666 1089.43 333.599 1083.73 332.248 1077.05 330.816 1069.92 329.871 1065.5 329.411 1063.8 328.844 1061.75 328.25 1060.44 327.628 1059.87 327.25 1059.52 326.777 1059.34 326.21 1059.34 325.345 1059.34 324.535 1059.69 323.778 1060.4 323.022 1061.1 322.09 1062.31 320.982 1064.04L318.347 1062.3C320.212 1059.52 321.954 1057.55 323.576 1056.4 325.197 1055.25 327.007 1054.68 329.006 1054.68Z" fill-rule="evenodd"/><text fill="#000000" fill-opacity="0" font-family="Arial,Arial_MSFontService,sans-serif" font-size="57.0625" x="315.916" y="1104.61">洧녽</text><path d="M377.203 1075.23C375.813 1075.23 374.651 1075.6 373.718 1076.32 372.785 1077.05 372.045 1078.11 371.499 1079.51 370.953 1080.91 370.566 1082.62 370.338 1084.63 370.109 1086.65 369.995 1088.94 369.995 1091.5 369.995 1094.46 370.139 1097.01 370.427 1099.17 370.715 1101.32 371.162 1103.09 371.767 1104.48 372.373 1105.87 373.132 1106.9 374.046 1107.55 374.959 1108.21 376.051 1108.53 377.322 1108.53 378.514 1108.53 379.556 1108.23 380.45 1107.61 381.343 1107 382.083 1106.04 382.669 1104.74 383.254 1103.44 383.696 1101.79 383.994 1099.79 384.292 1097.8 384.441 1095.44 384.441 1092.72 384.441 1089.66 384.277 1087.03 383.949 1084.83 383.622 1082.62 383.16 1080.81 382.564 1079.39 381.969 1077.97 381.219 1076.92 380.316 1076.25 379.412 1075.57 378.375 1075.23 377.203 1075.23ZM377.322 1072.35C379.685 1072.35 381.706 1072.79 383.383 1073.67 385.061 1074.55 386.431 1075.82 387.494 1077.45 388.556 1079.09 389.336 1081.09 389.832 1083.46 390.328 1085.82 390.577 1088.49 390.577 1091.47 390.577 1098.08 389.405 1103.08 387.062 1106.46 384.719 1109.85 381.323 1111.54 376.875 1111.54 372.467 1111.54 369.191 1109.94 367.046 1106.75 364.902 1103.55 363.83 1098.71 363.83 1092.21 363.83 1088.82 364.162 1085.88 364.827 1083.4 365.493 1080.91 366.426 1078.85 367.627 1077.22 368.828 1075.58 370.253 1074.36 371.901 1073.55 373.549 1072.75 375.356 1072.35 377.322 1072.35Z" fill-rule="evenodd"/><text fill="#000000" fill-opacity="0" font-family="Arial,Arial_MSFontService,sans-serif" font-size="39.1973" x="363.83" y="1106.64">0</text><path d="M1412.5 1067.5 1412.5 1396.95" stroke="#000000" stroke-width="6.875" stroke-miterlimit="8" stroke-dasharray="27.5 20.625" stroke-opacity="0.180392" fill="none" fill-rule="evenodd"/><path d="M932.323 1428.88 937.916 1428.88 935.687 1438.89 948.007 1438.89 947.115 1442.98 934.795 1442.98 931.188 1458.7C930.486 1461.76 930.04 1463.95 929.851 1465.29 929.661 1466.63 929.567 1467.7 929.567 1468.51 929.567 1471.86 930.958 1473.54 933.741 1473.54 934.93 1473.54 936.193 1473.08 937.531 1472.18 938.868 1471.27 940.455 1469.73 942.293 1467.54L944.643 1469.97C942.293 1472.81 940.03 1474.9 937.855 1476.25 935.68 1477.6 933.404 1478.28 931.026 1478.28 925.379 1478.28 922.556 1475.43 922.556 1469.73 922.556 1467.92 922.785 1466.01 923.245 1464.01L928.027 1442.98 921.218 1442.98 921.826 1440.18C923.42 1440.16 924.629 1440.03 925.453 1439.82 926.277 1439.6 926.966 1439.3 927.52 1438.93 928.074 1438.55 928.581 1438.01 929.04 1437.31 929.499 1436.6 929.945 1435.7 930.378 1434.61 930.81 1433.52 931.458 1431.6 932.323 1428.88Z" fill="#0000FF" fill-rule="evenodd"/><text fill="#000000" fill-opacity="0" font-family="Arial,Arial_MSFontService,sans-serif" font-size="49.4028" x="921.218" y="1472.1">洧노</text><path d="M965.611 1464.06C967.537 1464.06 969.309 1464.18 970.927 1464.42 972.546 1464.66 974.119 1465.01 975.648 1465.46L974.219 1472.19 971.568 1472.19C971.349 1470.41 970.759 1469.09 969.795 1468.23 968.832 1467.38 967.338 1466.95 965.313 1466.95 964.499 1466.95 963.744 1467.06 963.049 1467.28 962.354 1467.5 961.758 1467.8 961.262 1468.19 960.766 1468.58 960.378 1469.04 960.1 1469.57 959.822 1470.11 959.683 1470.7 959.683 1471.33 959.683 1471.91 959.753 1472.43 959.892 1472.91 960.031 1473.39 960.304 1473.85 960.711 1474.31 961.118 1474.77 961.694 1475.24 962.439 1475.74 963.183 1476.24 964.161 1476.8 965.372 1477.44 966.643 1478.13 967.701 1478.8 968.544 1479.43 969.388 1480.07 970.059 1480.71 970.555 1481.37 971.051 1482.02 971.399 1482.72 971.597 1483.47 971.796 1484.21 971.895 1485.04 971.895 1485.95 971.895 1487.36 971.607 1488.63 971.032 1489.75 970.456 1490.87 969.651 1491.82 968.619 1492.6 967.586 1493.37 966.37 1493.97 964.97 1494.38 963.57 1494.8 962.036 1495.01 960.368 1495.01 958.542 1495.01 956.745 1494.89 954.977 1494.65 953.21 1494.41 951.344 1494.01 949.378 1493.43L950.927 1486.64 953.518 1486.64C953.617 1488.49 954.198 1489.87 955.26 1490.8 956.323 1491.72 957.966 1492.18 960.19 1492.18 962.175 1492.18 963.739 1491.75 964.881 1490.9 966.023 1490.05 966.594 1488.85 966.594 1487.33 966.594 1486.63 966.524 1486.03 966.385 1485.52 966.246 1485.02 965.973 1484.54 965.566 1484.08 965.159 1483.62 964.603 1483.15 963.898 1482.66 963.193 1482.18 962.275 1481.62 961.143 1480.98 959.971 1480.33 958.964 1479.68 958.12 1479.04 957.276 1478.41 956.581 1477.76 956.035 1477.11 955.489 1476.45 955.087 1475.77 954.828 1475.05 954.57 1474.34 954.441 1473.57 954.441 1472.76 954.441 1471.51 954.704 1470.35 955.231 1469.29 955.757 1468.23 956.506 1467.31 957.479 1466.54 958.452 1465.76 959.624 1465.16 960.994 1464.72 962.364 1464.28 963.903 1464.06 965.611 1464.06Z" fill="#0000FF" fill-rule="evenodd"/><text fill="#000000" fill-opacity="0" font-family="Arial,Arial_MSFontService,sans-serif" font-size="30.9468" x="949.378" y="1491.14">洧</text><path d="M1395.34 1433.09 1400.93 1433.09 1398.71 1443.1 1411.03 1443.1 1410.13 1447.19 1397.81 1447.19 1394.21 1462.92C1393.5 1465.97 1393.06 1468.17 1392.87 1469.5 1392.68 1470.84 1392.59 1471.92 1392.59 1472.73 1392.59 1476.08 1393.98 1477.75 1396.76 1477.75 1397.95 1477.75 1399.21 1477.3 1400.55 1476.39 1401.89 1475.49 1403.47 1473.94 1405.31 1471.75L1407.66 1474.19C1405.31 1477.02 1403.05 1479.12 1400.87 1480.47 1398.7 1481.82 1396.42 1482.49 1394.04 1482.49 1388.4 1482.49 1385.57 1479.64 1385.57 1473.94 1385.57 1472.13 1385.8 1470.23 1386.26 1468.23L1391.05 1447.19 1384.24 1447.19 1384.85 1444.4C1386.44 1444.37 1387.65 1444.25 1388.47 1444.03 1389.3 1443.82 1389.99 1443.52 1390.54 1443.14 1391.09 1442.76 1391.6 1442.22 1392.06 1441.52 1392.52 1440.82 1392.96 1439.92 1393.4 1438.83 1393.83 1437.73 1394.48 1435.82 1395.34 1433.09Z" fill="#0000FF" fill-rule="evenodd"/><text fill="#000000" fill-opacity="0" font-family="Arial,Arial_MSFontService,sans-serif" font-size="49.4028" x="1384.24" y="1476.32">洧노</text><path d="M1422.29 1468.28C1423.14 1468.28 1423.83 1468.45 1424.36 1468.78 1424.88 1469.12 1425.3 1469.56 1425.61 1470.11 1425.91 1470.66 1426.12 1471.26 1426.23 1471.91 1426.34 1472.57 1426.4 1473.21 1426.4 1473.85 1426.4 1474.23 1426.36 1474.73 1426.28 1475.37L1424.4 1486.15C1424.22 1487.18 1424.07 1488.19 1423.95 1489.19 1423.83 1490.18 1423.77 1491.05 1423.77 1491.81 1423.77 1492.56 1423.82 1493.18 1423.92 1493.66 1424.02 1494.13 1424.12 1494.37 1424.22 1494.37 1424.86 1494.37 1425.67 1494.12 1426.66 1493.61 1427.66 1493.1 1428.7 1492.41 1429.81 1491.53 1430.91 1490.64 1432.01 1489.59 1433.11 1488.38 1434.21 1487.17 1435.2 1485.86 1436.08 1484.44 1436.95 1483.02 1437.66 1481.53 1438.21 1479.97 1438.75 1478.41 1439.02 1476.84 1439.02 1475.25 1439.02 1474.31 1438.85 1473.64 1438.5 1473.22 1438.16 1472.81 1437.68 1472.6 1437.09 1472.6 1436.45 1472.6 1435.78 1472.9 1435.06 1473.51 1434.35 1474.11 1433.6 1474.9 1432.83 1475.87L1431.07 1474.12C1431.55 1473.34 1432.11 1472.6 1432.77 1471.9 1433.43 1471.19 1434.12 1470.57 1434.85 1470.04 1435.59 1469.5 1436.35 1469.07 1437.13 1468.75 1437.92 1468.44 1438.69 1468.28 1439.44 1468.28 1441.01 1468.28 1442.14 1468.77 1442.84 1469.75 1443.53 1470.74 1443.88 1472.05 1443.88 1473.7 1443.88 1474.65 1443.71 1475.74 1443.36 1476.98 1443.01 1478.21 1442.52 1479.51 1441.88 1480.88 1441.25 1482.25 1440.49 1483.65 1439.62 1485.09 1438.75 1486.53 1437.78 1487.93 1436.72 1489.29 1435.65 1490.65 1434.52 1491.93 1433.32 1493.13 1432.12 1494.34 1430.87 1495.38 1429.57 1496.28 1428.27 1497.17 1426.95 1497.88 1425.61 1498.41 1424.27 1498.93 1422.93 1499.2 1421.6 1499.2 1420.89 1499.2 1420.29 1499.05 1419.81 1498.76 1419.34 1498.48 1418.97 1498.07 1418.71 1497.54 1418.45 1497.02 1418.27 1496.4 1418.18 1495.68 1418.08 1494.97 1418.03 1494.18 1418.03 1493.33 1418.03 1492.2 1418.1 1490.98 1418.23 1489.69 1418.37 1488.4 1418.55 1487.1 1418.77 1485.79 1419.82 1479.42 1420.35 1475.71 1420.35 1474.68 1420.39 1473.95 1420.3 1473.45 1420.1 1473.18 1419.89 1472.91 1419.59 1472.78 1419.22 1472.78 1418.82 1472.78 1418.4 1472.88 1417.95 1473.1 1417.5 1473.32 1417.05 1473.6 1416.6 1473.94 1416.14 1474.27 1415.7 1474.64 1415.27 1475.02 1414.84 1475.41 1414.44 1475.77 1414.06 1476.11L1412.43 1474.12C1413.08 1473.42 1413.78 1472.73 1414.53 1472.03 1415.27 1471.34 1416.06 1470.71 1416.89 1470.14 1417.73 1469.57 1418.6 1469.12 1419.52 1468.78 1420.43 1468.45 1421.35 1468.28 1422.29 1468.28Z" fill="#0000FF" fill-rule="evenodd"/><text fill="#000000" fill-opacity="0" font-family="Arial,Arial_MSFontService,sans-serif" font-size="30.917" x="1412.43" y="1495.33">洧녺</text><g clip-path="url(#clip1)"><g clip-path="url(#clip2)"><g><path d="M2265.96 1063.52C2434.21 690.361 2602.46 317.206 2771.1 317.206 2939.74 317.206 3207.4 923.158 3277.79 1063.52" stroke="#0000FF" stroke-width="6.51955" stroke-miterlimit="8" fill="none" fill-rule="evenodd" transform="matrix(1.34133 0 0 1 -2769.04 331.113)"/></g></g></g><path d="M407.5 1082.5C407.5 1046.6 436.601 1017.5 472.5 1017.5 508.399 1017.5 537.5 1046.6 537.5 1082.5 537.5 1118.4 508.399 1147.5 472.5 1147.5 436.601 1147.5 407.5 1118.4 407.5 1082.5Z" stroke="#000000" stroke-width="6.875" stroke-miterlimit="8" fill="#7F7F7F" fill-rule="evenodd"/><path d="M949.5 648C949.5 644.41 952.41 641.5 956 641.5 959.59 641.5 962.5 644.41 962.5 648 962.5 651.59 959.59 654.5 956 654.5 952.41 654.5 949.5 651.59 949.5 648Z" stroke="#0000FF" stroke-width="6.875" stroke-miterlimit="8" fill="#156082" fill-rule="evenodd"/><path d="M1408.5 1073C1408.5 1069.41 1411.41 1066.5 1415 1066.5 1418.59 1066.5 1421.5 1069.41 1421.5 1073 1421.5 1076.59 1418.59 1079.5 1415 1079.5 1411.41 1079.5 1408.5 1076.59 1408.5 1073Z" stroke="#0000FF" stroke-width="6.875" stroke-miterlimit="8" fill="#156082" fill-rule="evenodd"/></g></svg>