<svg width="599" height="485" xmlns="http://www.w3.org/2000/svg" xmlns:xlink="http://www.w3.org/1999/xlink" xml:space="preserve" overflow="hidden"><g transform="translate(-3055 -1286)"><path d="M3125.5 1717.5 3580.71 1717.5" stroke="#000000" stroke-width="6.875" stroke-miterlimit="8" fill="none" fill-rule="evenodd"/><path d="M6.30208-1.03911e-05 6.30242 205.895-6.30174 205.895-6.30208 1.03911e-05ZM37.0197 152.237 0.000360501 218.872-37.0192 152.237C-38.7095 149.195-37.6133 145.358-34.5707 143.668-31.5282 141.977-27.6915 143.074-26.0012 146.116L5.50935 202.835-5.50868 202.835 26.0016 146.116C27.6919 143.073 31.5287 141.977 34.5712 143.668 37.6138 145.358 38.71 149.195 37.0197 152.237Z" transform="matrix(1 0 0 -1 3125.5 1717.38)"/><path d="M3114.19 1412.01C3115.3 1412.01 3116.25 1412.16 3117.03 1412.46 3117.57 1412.67 3118.11 1413.03 3118.65 1413.53 3119.19 1414.03 3119.67 1414.73 3120.09 1415.62 3120.51 1416.51 3120.87 1417.51 3121.18 1418.62 3121.49 1419.73 3121.84 1421.32 3122.22 1423.4 3122.87 1426.89 3123.49 1430.55 3124.1 1434.4 3124.71 1438.25 3125.23 1441.83 3125.66 1445.12 3128.28 1441.34 3130.5 1437.64 3132.33 1434.02 3134.15 1430.4 3135.46 1427.25 3136.26 1424.57 3137.06 1421.9 3137.46 1419.73 3137.46 1418.05 3137.46 1416.78 3137.18 1415.92 3136.64 1415.46 3136.1 1415 3135.19 1414.73 3133.89 1414.65L3134.29 1412.66 3144.95 1412.66 3146.05 1414.69C3143.99 1420.31 3141.21 1426.32 3137.7 1432.72 3134.24 1438.99 3130.28 1445.23 3125.82 1451.44 3121.55 1457.36 3118 1461.64 3115.17 1464.29 3113.19 1466.1 3111.29 1467.4 3109.45 1468.18 3107.99 1468.78 3106.44 1469.07 3104.79 1469.07 3104.22 1469.07 3103.57 1469.03 3102.82 1468.93 3102.08 1468.84 3101.51 1468.71 3101.1 1468.55L3102.84 1460.68 3106.05 1460.68C3106.05 1462.41 3106.64 1463.28 3107.83 1463.28 3109.4 1463.28 3111.22 1462.3 3113.3 1460.34 3115.38 1458.38 3117.83 1455.43 3120.64 1451.49 3119.85 1446.76 3118.79 1441.06 3117.43 1434.38 3116 1427.25 3115.06 1422.83 3114.6 1421.13 3114.03 1419.08 3113.44 1417.77 3112.81 1417.2 3112.44 1416.85 3111.96 1416.67 3111.4 1416.67 3110.53 1416.67 3109.72 1417.02 3108.96 1417.73 3108.21 1418.43 3107.28 1419.64 3106.17 1421.37L3103.53 1419.63C3105.4 1416.85 3107.14 1414.88 3108.76 1413.73 3110.38 1412.59 3112.19 1412.01 3114.19 1412.01Z" fill-rule="evenodd"/><text fill="#000000" fill-opacity="0" font-family="Arial,Arial_MSFontService,sans-serif" font-size="57.0625" x="3101.1" y="1461.94">­ЮЉд</text><path d="M3126.1 1392.96 3131.53 1392.96 3145.31 1405.73 3143.12 1408.04 3128.82 1398.19 3128.37 1398.19 3113.82 1408.04 3111.64 1405.73Z" fill-rule="evenodd"/><text fill="#000000" fill-opacity="0" font-family="Arial,Arial_MSFontService,sans-serif" font-size="15.0762" x="3111.64" y="1406.16">Яию</text><path d="M3535.8 1481.5 3535.8 1687.4 3523.2 1687.4 3523.2 1481.5ZM3566.52 1633.74 3529.5 1700.37 3492.48 1633.74C3490.79 1630.69 3491.89 1626.86 3494.93 1625.17 3497.97 1623.48 3501.81 1624.57 3503.5 1627.62L3535.01 1684.33 3523.99 1684.33 3555.5 1627.62C3557.19 1624.57 3561.03 1623.48 3564.07 1625.17 3567.11 1626.86 3568.21 1630.69 3566.52 1633.74Z"/><path d="M3614.39 1552.45C3610.73 1552.45 3607.46 1553.93 3604.56 1556.88 3601.66 1559.84 3599.37 1563.82 3597.71 1568.84 3596.04 1573.85 3595.21 1578.84 3595.21 1583.82 3595.21 1587.54 3595.75 1590.33 3596.82 1592.17 3597.9 1594.02 3599.58 1594.94 3601.87 1594.94 3603.7 1594.94 3605.51 1594.31 3607.32 1593.06 3609.13 1591.81 3611.06 1589.82 3613.12 1587.1 3615.18 1584.38 3616.79 1581.78 3617.93 1579.31 3619.08 1576.84 3620.05 1573.76 3620.86 1570.07 3621.66 1566.38 3622.07 1563.18 3622.07 1560.46 3622.07 1557.66 3621.48 1555.63 3620.29 1554.36 3619.11 1553.09 3617.14 1552.45 3614.39 1552.45ZM3613.53 1548.21C3615.78 1548.21 3617.91 1548.48 3619.92 1549.02 3621.92 1549.55 3623.95 1550.47 3625.99 1551.76L3630.93 1548.21 3634.37 1549.07 3628.83 1574.1C3628.44 1575.85 3627.55 1580.28 3626.15 1587.37 3624.68 1594.89 3623.49 1600.2 3622.58 1603.32 3621.66 1606.43 3620.53 1609.27 3619.17 1611.83 3617.81 1614.39 3616.05 1616.62 3613.9 1618.52 3611.75 1620.42 3609.15 1621.88 3606.09 1622.92 3603.03 1623.96 3599.4 1624.48 3595.21 1624.48 3581.68 1624.48 3574.91 1620.54 3574.91 1612.66 3574.91 1610.66 3575.52 1608.83 3576.73 1607.19 3577.95 1605.54 3579.9 1603.8 3582.59 1601.98L3586.46 1605.09C3585.78 1605.91 3585.2 1606.73 3584.74 1607.53 3584.27 1608.34 3583.94 1609.12 3583.74 1609.87 3583.55 1610.62 3583.45 1611.52 3583.45 1612.56 3583.45 1615.24 3584.42 1617.2 3586.35 1618.44 3588.28 1619.67 3591.2 1620.29 3595.1 1620.29 3599.51 1620.29 3603.04 1619.3 3605.71 1617.31 3608.38 1615.32 3610.66 1612.13 3612.56 1607.72 3614.46 1603.32 3616.3 1596.66 3618.09 1587.74L3617.34 1587.58C3613.87 1592.34 3610.64 1595.82 3607.67 1598 3604.7 1600.18 3601.5 1601.28 3598.06 1601.28 3594.15 1601.28 3591.12 1599.81 3588.95 1596.87 3586.79 1593.94 3585.7 1589.75 3585.7 1584.3 3585.7 1578.18 3586.9 1572.3 3589.3 1566.66 3591.7 1561.02 3595.03 1556.54 3599.29 1553.21 3603.55 1549.88 3608.3 1548.21 3613.53 1548.21Z" fill-rule="evenodd"/><text fill="#000000" fill-opacity="0" font-family="Arial,Arial_MSFontService,sans-serif" font-size="76.2695" x="3574.91" y="1614.95">­ЮЉћ</text><path d="M3626.09 1513.89 3639.58 1525.54 3639.58 1528.66 3626.09 1540.31 3623.25 1537.09 3631.84 1529.63 3599.08 1529.63 3599.08 1524.58 3631.84 1524.58 3623.25 1517.11Z" fill-rule="evenodd"/><text fill="#000000" fill-opacity="0" font-family="Arial,Arial_MSFontService,sans-serif" font-size="26.4258" x="3599.08" y="1537.01">нд</text><path d="M3257.5 1642.5C3257.5 1605.5 3286.6 1575.5 3322.5 1575.5 3358.4 1575.5 3387.5 1605.5 3387.5 1642.5 3387.5 1679.5 3358.4 1709.5 3322.5 1709.5 3286.6 1709.5 3257.5 1679.5 3257.5 1642.5Z" stroke="#000000" stroke-width="6.875" stroke-miterlimit="8" fill="#7F7F7F" fill-rule="evenodd"/><path d="M6.30208-1.03911e-05 6.30242 205.895-6.30174 205.895-6.30208 1.03911e-05ZM37.0197 152.237 0.000360501 218.872-37.0192 152.237C-38.7095 149.195-37.6133 145.358-34.5707 143.668-31.5282 141.977-27.6915 143.074-26.0012 146.116L5.50935 202.835-5.50868 202.835 26.0016 146.116C27.6919 143.073 31.5287 141.977 34.5712 143.668 37.6138 145.358 38.71 149.195 37.0197 152.237Z" fill="#0000FF" transform="matrix(1 0 0 -1 3322.5 1575.38)"/><path d="M3382.73 1481.35C3385.31 1481.35 3387.17 1482.02 3388.32 1483.37 3389.46 1484.71 3390.04 1486.51 3390.04 1488.76 3390.04 1490.48 3389.73 1492.45 3389.12 1494.67 3388.51 1496.89 3387.66 1499.24 3386.54 1501.71 3385.43 1504.18 3384.11 1506.71 3382.57 1509.31 3381.03 1511.9 3379.33 1514.43 3377.47 1516.88 3375.61 1519.33 3373.62 1521.64 3371.51 1523.81 3369.39 1525.98 3367.2 1527.86 3364.93 1529.48 3362.65 1531.09 3360.34 1532.37 3358 1533.32 3355.65 1534.27 3353.32 1534.74 3350.99 1534.74 3349.95 1534.74 3349.08 1534.48 3348.38 1533.96 3347.69 1533.44 3347.12 1532.71 3346.69 1531.76 3346.26 1530.81 3345.96 1529.69 3345.78 1528.4 3345.6 1527.11 3345.51 1525.7 3345.51 1524.16 3345.51 1522.12 3345.64 1519.93 3345.89 1517.61 3346.14 1515.28 3346.46 1512.93 3346.85 1510.57L3349.11 1495.69C3349.25 1494.83 3349.37 1494.02 3349.46 1493.25 3349.55 1492.48 3349.59 1491.91 3349.59 1491.56 3349.59 1490.45 3349.41 1489.53 3349.05 1488.82 3348.7 1488.1 3348.09 1487.74 3347.23 1487.74 3346.55 1487.74 3345.81 1487.95 3345.03 1488.36 3344.24 1488.77 3343.44 1489.3 3342.64 1489.94 3341.83 1490.59 3341.05 1491.28 3340.3 1492.01 3339.55 1492.75 3338.85 1493.44 3338.21 1494.08L3335.63 1491.07C3336.74 1489.93 3337.92 1488.79 3339.17 1487.66 3340.43 1486.53 3341.75 1485.51 3343.15 1484.6 3344.54 1483.69 3346.01 1482.95 3347.55 1482.4 3349.09 1481.84 3350.67 1481.57 3352.28 1481.57 3353.64 1481.57 3354.75 1481.79 3355.61 1482.24 3356.47 1482.68 3357.14 1483.28 3357.62 1484.01 3358.1 1484.74 3358.44 1485.55 3358.62 1486.43 3358.79 1487.3 3358.88 1488.17 3358.88 1489.03 3358.88 1489.53 3358.87 1490.02 3358.83 1490.48 3358.79 1490.95 3358.74 1491.38 3358.67 1491.77L3355.66 1511.21C3355.34 1513.26 3355.07 1515.25 3354.86 1517.2 3354.64 1519.15 3354.53 1520.88 3354.53 1522.39 3354.53 1523.89 3354.62 1525.11 3354.8 1526.04 3354.98 1526.97 3355.32 1527.44 3355.82 1527.44 3357 1527.44 3358.49 1526.96 3360.28 1526.01 3362.07 1525.06 3363.95 1523.76 3365.92 1522.09 3367.89 1520.43 3369.86 1518.46 3371.83 1516.18 3373.8 1513.91 3375.57 1511.45 3377.15 1508.8 3378.72 1506.15 3380 1503.35 3380.99 1500.42 3381.97 1497.48 3382.46 1494.53 3382.46 1491.56 3382.46 1490.27 3382.19 1489.27 3381.63 1488.58 3381.08 1487.88 3380.21 1487.53 3379.03 1487.53 3377.52 1487.53 3376.13 1488.11 3374.86 1489.27 3373.59 1490.44 3372.28 1491.97 3370.92 1493.87L3367.85 1491.13C3368.71 1489.84 3369.72 1488.6 3370.89 1487.42 3372.05 1486.24 3373.29 1485.2 3374.59 1484.31 3375.9 1483.41 3377.25 1482.69 3378.65 1482.16 3380.05 1481.62 3381.41 1481.35 3382.73 1481.35Z" fill="#0000FF" fill-rule="evenodd"/><text fill="#000000" fill-opacity="0" font-family="Arial,Arial_MSFontService,sans-serif" font-size="53.3887" x="3335.63" y="1528.07">­ЮЉБ</text><path d="M3377.58 1447.2 3391.07 1458.85 3391.07 1461.97 3377.58 1473.62 3374.74 1470.4 3383.33 1462.94 3350.57 1462.94 3350.57 1457.89 3383.33 1457.89 3374.74 1450.42Z" fill="#0000FF" fill-rule="evenodd"/><text fill="#000000" fill-opacity="0" font-family="Arial,Arial_MSFontService,sans-serif" font-size="26.4258" x="3350.57" y="1470.32">нд</text><path d="M3413.54 1509.49C3411.71 1509.49 3410.19 1509.96 3408.97 1510.91 3407.74 1511.86 3406.77 1513.26 3406.06 1515.09 3405.34 1516.93 3404.83 1519.17 3404.53 1521.81 3404.23 1524.46 3404.08 1527.46 3404.08 1530.82 3404.08 1534.7 3404.27 1538.05 3404.65 1540.87 3405.03 1543.7 3405.61 1546.02 3406.41 1547.85 3407.2 1549.67 3408.2 1551.01 3409.4 1551.87 3410.59 1552.73 3412.03 1553.16 3413.69 1553.16 3415.26 1553.16 3416.62 1552.76 3417.8 1551.95 3418.97 1551.14 3419.94 1549.89 3420.71 1548.18 3421.47 1546.47 3422.05 1544.31 3422.44 1541.7 3422.83 1539.08 3423.03 1535.99 3423.03 1532.42 3423.03 1528.41 3422.81 1524.96 3422.39 1522.07 3421.96 1519.18 3421.35 1516.8 3420.57 1514.94 3419.79 1513.08 3418.8 1511.7 3417.62 1510.82 3416.43 1509.93 3415.07 1509.49 3413.54 1509.49ZM3413.69 1505.7C3416.79 1505.7 3419.44 1506.28 3421.64 1507.44 3423.84 1508.6 3425.64 1510.25 3427.03 1512.4 3428.43 1514.55 3429.45 1517.17 3430.1 1520.27 3430.75 1523.37 3431.08 1526.87 3431.08 1530.78 3431.08 1539.45 3429.54 1546.01 3426.47 1550.45 3423.39 1554.89 3418.94 1557.11 3413.11 1557.11 3407.33 1557.11 3403.03 1555.01 3400.22 1550.82 3397.4 1546.62 3396 1540.27 3396 1531.75 3396 1527.3 3396.43 1523.45 3397.31 1520.19 3398.18 1516.94 3399.4 1514.23 3400.98 1512.09 3402.55 1509.94 3404.42 1508.34 3406.58 1507.28 3408.75 1506.23 3411.12 1505.7 3413.69 1505.7Z" fill="#0000FF" fill-rule="evenodd"/><text fill="#000000" fill-opacity="0" font-family="Arial,Arial_MSFontService,sans-serif" font-size="51.4062" x="3396" y="1550.68">0</text></g></svg>