<svg width="599" height="427" xmlns="http://www.w3.org/2000/svg" xmlns:xlink="http://www.w3.org/1999/xlink" xml:space="preserve" overflow="hidden"><g transform="translate(-3055 -1353)"><path d="M3125.5 1717.5 3580.71 1717.5" stroke="#000000" stroke-width="6.875" stroke-miterlimit="8" fill="none" fill-rule="evenodd"/><path d="M6.30208-1.03911e-05 6.30242 205.895-6.30174 205.895-6.30208 1.03911e-05ZM37.0197 152.237 0.000360501 218.872-37.0192 152.237C-38.7095 149.195-37.6133 145.358-34.5707 143.668-31.5282 141.977-27.6915 143.074-26.0012 146.116L5.50935 202.835-5.50868 202.835 26.0016 146.116C27.6919 143.073 31.5287 141.977 34.5712 143.668 37.6138 145.358 38.71 149.195 37.0197 152.237Z" transform="matrix(1 0 0 -1 3125.5 1717.38)"/><path d="M3114.19 1412.01C3115.3 1412.01 3116.25 1412.16 3117.03 1412.46 3117.57 1412.67 3118.11 1413.03 3118.65 1413.53 3119.19 1414.03 3119.67 1414.73 3120.09 1415.62 3120.51 1416.51 3120.87 1417.51 3121.18 1418.62 3121.49 1419.73 3121.84 1421.32 3122.22 1423.4 3122.87 1426.89 3123.49 1430.55 3124.1 1434.4 3124.71 1438.25 3125.23 1441.83 3125.66 1445.12 3128.28 1441.34 3130.5 1437.64 3132.33 1434.02 3134.15 1430.4 3135.46 1427.25 3136.26 1424.57 3137.06 1421.9 3137.46 1419.73 3137.46 1418.05 3137.46 1416.78 3137.18 1415.92 3136.64 1415.46 3136.1 1415 3135.19 1414.73 3133.89 1414.65L3134.29 1412.66 3144.95 1412.66 3146.05 1414.69C3143.99 1420.31 3141.21 1426.32 3137.7 1432.72 3134.24 1438.99 3130.28 1445.23 3125.82 1451.44 3121.55 1457.36 3118 1461.64 3115.17 1464.29 3113.19 1466.1 3111.29 1467.4 3109.45 1468.18 3107.99 1468.78 3106.44 1469.07 3104.79 1469.07 3104.22 1469.07 3103.57 1469.03 3102.82 1468.93 3102.08 1468.84 3101.51 1468.71 3101.1 1468.55L3102.84 1460.68 3106.05 1460.68C3106.05 1462.41 3106.64 1463.28 3107.83 1463.28 3109.4 1463.28 3111.22 1462.3 3113.3 1460.34 3115.38 1458.38 3117.83 1455.43 3120.64 1451.49 3119.85 1446.76 3118.79 1441.06 3117.43 1434.38 3116 1427.25 3115.06 1422.83 3114.6 1421.13 3114.03 1419.08 3113.44 1417.77 3112.81 1417.2 3112.44 1416.85 3111.96 1416.67 3111.4 1416.67 3110.53 1416.67 3109.72 1417.02 3108.96 1417.73 3108.21 1418.43 3107.28 1419.64 3106.17 1421.37L3103.53 1419.63C3105.4 1416.85 3107.14 1414.88 3108.76 1413.73 3110.38 1412.59 3112.19 1412.01 3114.19 1412.01Z" fill-rule="evenodd"/><text fill="#000000" fill-opacity="0" font-family="Arial,Arial_MSFontService,sans-serif" font-size="57.0625" x="3101.1" y="1461.94">­ЮЉд</text><path d="M3126.1 1392.96 3131.53 1392.96 3145.31 1405.73 3143.12 1408.04 3128.82 1398.19 3128.37 1398.19 3113.82 1408.04 3111.64 1405.73Z" fill-rule="evenodd"/><text fill="#000000" fill-opacity="0" font-family="Arial,Arial_MSFontService,sans-serif" font-size="15.0762" x="3111.64" y="1406.16">Яию</text><path d="M3535.8 1481.5 3535.8 1687.4 3523.2 1687.4 3523.2 1481.5ZM3566.52 1633.74 3529.5 1700.37 3492.48 1633.74C3490.79 1630.69 3491.89 1626.86 3494.93 1625.17 3497.97 1623.48 3501.81 1624.57 3503.5 1627.62L3535.01 1684.33 3523.99 1684.33 3555.5 1627.62C3557.19 1624.57 3561.03 1623.48 3564.07 1625.17 3567.11 1626.86 3568.21 1630.69 3566.52 1633.74Z"/><path d="M3614.39 1552.45C3610.73 1552.45 3607.46 1553.93 3604.56 1556.88 3601.66 1559.84 3599.37 1563.82 3597.71 1568.84 3596.04 1573.85 3595.21 1578.84 3595.21 1583.82 3595.21 1587.54 3595.75 1590.33 3596.82 1592.17 3597.9 1594.02 3599.58 1594.94 3601.87 1594.94 3603.7 1594.94 3605.51 1594.31 3607.32 1593.06 3609.13 1591.81 3611.06 1589.82 3613.12 1587.1 3615.18 1584.38 3616.79 1581.78 3617.93 1579.31 3619.08 1576.84 3620.05 1573.76 3620.86 1570.07 3621.66 1566.38 3622.07 1563.18 3622.07 1560.46 3622.07 1557.66 3621.48 1555.63 3620.29 1554.36 3619.11 1553.09 3617.14 1552.45 3614.39 1552.45ZM3613.53 1548.21C3615.78 1548.21 3617.91 1548.48 3619.92 1549.02 3621.92 1549.55 3623.95 1550.47 3625.99 1551.76L3630.93 1548.21 3634.37 1549.07 3628.83 1574.1C3628.44 1575.85 3627.55 1580.28 3626.15 1587.37 3624.68 1594.89 3623.49 1600.2 3622.58 1603.32 3621.66 1606.43 3620.53 1609.27 3619.17 1611.83 3617.81 1614.39 3616.05 1616.62 3613.9 1618.52 3611.75 1620.42 3609.15 1621.88 3606.09 1622.92 3603.03 1623.96 3599.4 1624.48 3595.21 1624.48 3581.68 1624.48 3574.91 1620.54 3574.91 1612.66 3574.91 1610.66 3575.52 1608.83 3576.73 1607.19 3577.95 1605.54 3579.9 1603.8 3582.59 1601.98L3586.46 1605.09C3585.78 1605.91 3585.2 1606.73 3584.74 1607.53 3584.27 1608.34 3583.94 1609.12 3583.74 1609.87 3583.55 1610.62 3583.45 1611.52 3583.45 1612.56 3583.45 1615.24 3584.42 1617.2 3586.35 1618.44 3588.28 1619.67 3591.2 1620.29 3595.1 1620.29 3599.51 1620.29 3603.04 1619.3 3605.71 1617.31 3608.38 1615.32 3610.66 1612.13 3612.56 1607.72 3614.46 1603.32 3616.3 1596.66 3618.09 1587.74L3617.34 1587.58C3613.87 1592.34 3610.64 1595.82 3607.67 1598 3604.7 1600.18 3601.5 1601.28 3598.06 1601.28 3594.15 1601.28 3591.12 1599.81 3588.95 1596.87 3586.79 1593.94 3585.7 1589.75 3585.7 1584.3 3585.7 1578.18 3586.9 1572.3 3589.3 1566.66 3591.7 1561.02 3595.03 1556.54 3599.29 1553.21 3603.55 1549.88 3608.3 1548.21 3613.53 1548.21Z" fill-rule="evenodd"/><text fill="#000000" fill-opacity="0" font-family="Arial,Arial_MSFontService,sans-serif" font-size="76.2695" x="3574.91" y="1614.95">­ЮЉћ</text><path d="M3626.09 1513.89 3639.58 1525.54 3639.58 1528.66 3626.09 1540.31 3623.25 1537.09 3631.84 1529.63 3599.08 1529.63 3599.08 1524.58 3631.84 1524.58 3623.25 1517.11Z" fill-rule="evenodd"/><text fill="#000000" fill-opacity="0" font-family="Arial,Arial_MSFontService,sans-serif" font-size="26.4258" x="3599.08" y="1537.01">нд</text><path d="M0 67C-8.27539e-15 29.9969 29.1016-8.53e-15 65.0002-1.706e-14 100.899-3.412e-14 130 29.9969 130 67 130 104.003 100.899 134 65.0002 134 29.1016 134-4.13769e-14 104.003 0 67Z" stroke="#000000" stroke-width="6.875" stroke-miterlimit="8" fill="#7F7F7F" fill-rule="evenodd" transform="matrix(1 0 0 -1 3257.5 1490.5)"/><path d="M3328.8 1490.5 3328.8 1696.4 3316.2 1696.4 3316.2 1490.5ZM3359.52 1642.74 3322.5 1709.37 3285.48 1642.74C3283.79 1639.69 3284.89 1635.86 3287.93 1634.17 3290.97 1632.48 3294.81 1633.57 3296.5 1636.62L3328.01 1693.33 3316.99 1693.33 3348.5 1636.62C3350.19 1633.57 3354.03 1632.48 3357.07 1634.17 3360.11 1635.86 3361.21 1639.69 3359.52 1642.74Z" fill="#0000FF"/><path d="M3393.66 1547.77C3396.24 1547.77 3398.1 1548.44 3399.24 1549.78 3400.39 1551.13 3400.96 1552.93 3400.96 1555.18 3400.96 1556.9 3400.66 1558.87 3400.05 1561.09 3399.44 1563.31 3398.58 1565.65 3397.47 1568.13 3396.36 1570.6 3395.04 1573.13 3393.5 1575.73 3391.96 1578.32 3390.26 1580.85 3388.39 1583.3 3386.53 1585.75 3384.54 1588.06 3382.43 1590.23 3380.32 1592.39 3378.13 1594.28 3375.85 1595.89 3373.58 1597.51 3371.27 1598.79 3368.92 1599.73 3366.58 1600.68 3364.24 1601.16 3361.91 1601.16 3360.88 1601.16 3360.01 1600.9 3359.31 1600.38 3358.61 1599.86 3358.05 1599.13 3357.62 1598.18 3357.19 1597.23 3356.88 1596.11 3356.7 1594.82 3356.52 1593.53 3356.44 1592.12 3356.44 1590.58 3356.44 1588.54 3356.56 1586.35 3356.81 1584.02 3357.06 1581.7 3357.38 1579.35 3357.78 1576.99L3360.03 1562.11C3360.18 1561.25 3360.29 1560.44 3360.38 1559.67 3360.47 1558.9 3360.52 1558.33 3360.52 1557.97 3360.52 1556.86 3360.34 1555.95 3359.98 1555.23 3359.62 1554.52 3359.01 1554.16 3358.15 1554.16 3357.47 1554.16 3356.74 1554.37 3355.95 1554.78 3355.16 1555.19 3354.37 1555.72 3353.56 1556.36 3352.76 1557.01 3351.98 1557.7 3351.23 1558.43 3350.47 1559.16 3349.78 1559.85 3349.13 1560.5L3346.55 1557.49C3347.66 1556.34 3348.84 1555.21 3350.1 1554.08 3351.35 1552.95 3352.68 1551.93 3354.07 1551.02 3355.47 1550.11 3356.94 1549.37 3358.48 1548.82 3360.02 1548.26 3361.59 1547.98 3363.2 1547.98 3364.56 1547.98 3365.67 1548.21 3366.53 1548.66 3367.39 1549.1 3368.06 1549.69 3368.55 1550.43 3369.03 1551.16 3369.36 1551.97 3369.54 1552.84 3369.72 1553.72 3369.81 1554.59 3369.81 1555.45 3369.81 1555.95 3369.79 1556.43 3369.76 1556.9 3369.72 1557.37 3369.67 1557.8 3369.59 1558.19L3366.59 1577.63C3366.26 1579.67 3366 1581.67 3365.78 1583.62 3365.57 1585.57 3365.46 1587.3 3365.46 1588.8 3365.46 1590.31 3365.55 1591.53 3365.73 1592.46 3365.91 1593.39 3366.25 1593.85 3366.75 1593.85 3367.93 1593.85 3369.42 1593.38 3371.21 1592.43 3373 1591.48 3374.88 1590.17 3376.85 1588.51 3378.81 1586.84 3380.78 1584.87 3382.75 1582.6 3384.72 1580.33 3386.5 1577.87 3388.07 1575.22 3389.65 1572.57 3390.93 1569.77 3391.91 1566.84 3392.9 1563.9 3393.39 1560.95 3393.39 1557.97 3393.39 1556.69 3393.11 1555.69 3392.56 1554.99 3392 1554.29 3391.13 1553.95 3389.95 1553.95 3388.45 1553.95 3387.06 1554.53 3385.79 1555.69 3384.52 1556.86 3383.2 1558.39 3381.84 1560.28L3378.78 1557.54C3379.64 1556.26 3380.65 1555.02 3381.81 1553.84 3382.98 1552.66 3384.21 1551.62 3385.52 1550.72 3386.83 1549.83 3388.18 1549.11 3389.57 1548.57 3390.97 1548.04 3392.33 1547.77 3393.66 1547.77Z" fill="#0000FF" fill-rule="evenodd"/><text fill="#000000" fill-opacity="0" font-family="Arial,Arial_MSFontService,sans-serif" font-size="53.3887" x="3346.55" y="1594.48">­ЮЉБ</text><path d="M3388.51 1513.62 3401.99 1525.27 3401.99 1528.39 3388.51 1540.04 3385.66 1536.82 3394.26 1529.35 3361.49 1529.35 3361.49 1524.31 3394.26 1524.31 3385.66 1516.84Z" fill="#0000FF" fill-rule="evenodd"/><text fill="#000000" fill-opacity="0" font-family="Arial,Arial_MSFontService,sans-serif" font-size="26.4258" x="3361.49" y="1536.74">нд</text><path d="M3424.46 1575.91C3422.64 1575.91 3421.12 1576.38 3419.89 1577.33 3418.67 1578.28 3417.7 1579.68 3416.98 1581.51 3416.27 1583.35 3415.76 1585.59 3415.46 1588.23 3415.16 1590.87 3415.01 1593.87 3415.01 1597.23 3415.01 1601.11 3415.2 1604.47 3415.58 1607.29 3415.95 1610.12 3416.54 1612.44 3417.33 1614.27 3418.13 1616.09 3419.12 1617.43 3420.32 1618.29 3421.52 1619.15 3422.95 1619.58 3424.62 1619.58 3426.18 1619.58 3427.55 1619.17 3428.72 1618.37 3429.89 1617.56 3430.86 1616.3 3431.63 1614.6 3432.4 1612.89 3432.98 1610.73 3433.37 1608.11 3433.76 1605.5 3433.96 1602.4 3433.96 1598.84 3433.96 1594.83 3433.74 1591.37 3433.31 1588.48 3432.88 1585.59 3432.28 1583.22 3431.49 1581.36 3430.71 1579.49 3429.73 1578.12 3428.55 1577.23 3427.36 1576.35 3426 1575.91 3424.46 1575.91ZM3424.62 1572.12C3427.72 1572.12 3430.37 1572.7 3432.57 1573.86 3434.77 1575.01 3436.57 1576.67 3437.96 1578.82 3439.35 1580.96 3440.37 1583.59 3441.03 1586.69 3441.68 1589.79 3442 1593.29 3442 1597.2 3442 1605.87 3440.47 1612.42 3437.39 1616.86 3434.32 1621.3 3429.87 1623.52 3424.03 1623.52 3418.25 1623.52 3413.96 1621.43 3411.14 1617.23 3408.33 1613.04 3406.92 1606.69 3406.92 1598.17 3406.92 1593.72 3407.36 1589.86 3408.23 1586.61 3409.1 1583.35 3410.33 1580.65 3411.9 1578.5 3413.48 1576.36 3415.35 1574.75 3417.51 1573.7 3419.67 1572.64 3422.04 1572.12 3424.62 1572.12Z" fill="#0000FF" fill-rule="evenodd"/><text fill="#000000" fill-opacity="0" font-family="Arial,Arial_MSFontService,sans-serif" font-size="51.4062" x="3406.92" y="1617.1">0</text></g></svg>