<svg width="1195" height="1331" xmlns="http://www.w3.org/2000/svg" xmlns:xlink="http://www.w3.org/1999/xlink" xml:space="preserve" overflow="hidden"><g transform="translate(-1594 -549)"><path d="M1615.5 1238C1615.5 915.19 1877.41 653.5 2200.5 653.5 2523.59 653.5 2785.5 915.19 2785.5 1238 2785.5 1560.81 2523.59 1822.5 2200.5 1822.5 1877.41 1822.5 1615.5 1560.81 1615.5 1238Z" stroke="#000000" stroke-width="6.875" stroke-miterlimit="8" fill="none" fill-rule="evenodd"/><path d="M2200.5 1238.5 2785.15 1238.5" stroke="#000000" stroke-width="6.875" stroke-miterlimit="8" stroke-dasharray="27.5 20.625" stroke-opacity="0.501961" fill="none" fill-rule="evenodd"/><path d="M2494.34 1270.91C2492.45 1270.91 2490.44 1270.98 2488.33 1271.13L2481.45 1302.23 2487.79 1302.23C2492.98 1302.23 2497.08 1301.53 2500.09 1300.13 2503.1 1298.74 2505.48 1296.44 2507.23 1293.26 2508.99 1290.07 2509.87 1286.63 2509.87 1282.94 2509.87 1281.4 2509.72 1280.04 2509.44 1278.84 2509.15 1277.64 2508.77 1276.64 2508.31 1275.85 2507.84 1275.07 2507.25 1274.37 2506.54 1273.76 2505.82 1273.15 2504.92 1272.62 2503.85 1272.18 2502.78 1271.73 2501.53 1271.41 2500.12 1271.21 2498.7 1271.01 2496.78 1270.91 2494.34 1270.91ZM2472.8 1266.19 2496.71 1266.19C2500.5 1266.19 2503.6 1266.41 2506 1266.86 2508.4 1267.31 2510.45 1267.98 2512.15 1268.87 2513.85 1269.77 2515.27 1270.92 2516.42 1272.34 2517.56 1273.75 2518.42 1275.34 2519 1277.12 2519.57 1278.89 2519.86 1280.78 2519.86 1282.78 2519.86 1288.3 2518.17 1292.99 2514.81 1296.86 2511.44 1300.72 2506.48 1303.66 2499.93 1305.66L2499.93 1306.25C2501.65 1307.54 2503.04 1309.08 2504.09 1310.87 2505.15 1312.66 2506 1315.15 2506.64 1318.34L2507.88 1324.57C2508.27 1326.54 2508.72 1328.31 2509.22 1329.89 2509.72 1331.46 2510.32 1332.72 2511.02 1333.65 2511.72 1334.58 2512.51 1335.28 2513.38 1335.74 2514.26 1336.21 2515.54 1336.58 2517.22 1336.87L2516.69 1339.5 2501.81 1339.5C2500.66 1336.32 2499.64 1332.52 2498.75 1328.12L2496.38 1316.73C2495.99 1314.76 2495.52 1313.1 2494.96 1311.76 2494.41 1310.42 2493.74 1309.38 2492.97 1308.65 2492.2 1307.91 2491.31 1307.43 2490.29 1307.19 2489.27 1306.96 2488.02 1306.85 2486.55 1306.85L2480.43 1306.85 2476.67 1323.87C2476.35 1325.27 2476.13 1326.38 2476 1327.2 2475.88 1328.03 2475.77 1328.89 2475.68 1329.81 2475.59 1330.72 2475.54 1331.53 2475.54 1332.25 2475.54 1333.36 2475.72 1334.23 2476.08 1334.86 2476.44 1335.48 2476.98 1335.94 2477.69 1336.23 2478.41 1336.51 2479.64 1336.73 2481.4 1336.87L2480.81 1339.5 2458.73 1339.5 2459.32 1336.87C2460.68 1336.66 2461.7 1336.31 2462.39 1335.82 2463.07 1335.34 2463.64 1334.67 2464.1 1333.81 2464.57 1332.95 2465 1331.9 2465.39 1330.67 2465.79 1329.43 2466.38 1327.04 2467.17 1323.5L2476.3 1282.14C2477.08 1278.56 2477.48 1275.73 2477.48 1273.65 2477.48 1271.9 2477.07 1270.68 2476.24 1270 2475.42 1269.32 2474.08 1268.93 2472.21 1268.82Z" fill-rule="evenodd"/><text fill="#000000" fill-opacity="0" font-family="Arial,Arial_MSFontService,sans-serif" font-size="73.3154" x="2458.73" y="1330.34">­ЮЉЁ</text><path d="M2339.97 976.148C2342.23 976.148 2344.01 976.891 2345.32 978.377 2346.62 979.863 2347.28 981.805 2347.28 984.204 2347.28 985.995 2346.94 987.839 2346.26 989.737L2346.96 990.005C2350.46 985.243 2353.84 981.752 2357.08 979.531 2360.32 977.311 2363.61 976.201 2366.94 976.201 2369.55 976.201 2371.73 976.398 2373.49 976.792L2370.91 988.823 2365.38 988.823C2365.16 987.32 2364.86 986.156 2364.47 985.332 2364.07 984.509 2363.61 983.936 2363.07 983.614 2362.53 983.291 2361.85 983.13 2361.03 983.13 2359.74 983.13 2358.33 983.685 2356.81 984.795 2355.29 985.905 2353.58 987.642 2351.68 990.005 2349.78 992.368 2348.27 994.642 2347.14 996.826 2346.02 999.011 2345.08 1001.79 2344.32 1005.15L2339.22 1028.41 2329.93 1028.41 2337.72 994.356C2338.22 992.207 2338.54 990.542 2338.68 989.361 2338.83 988.179 2338.9 987.194 2338.9 986.406 2338.9 984.974 2338.67 983.936 2338.2 983.291 2337.74 982.647 2337 982.324 2336 982.324 2334.89 982.324 2333.72 982.781 2332.48 983.694 2331.25 984.607 2329.55 986.263 2327.4 988.662L2324.34 985.655C2327.64 982.217 2330.39 979.773 2332.61 978.323 2334.83 976.873 2337.29 976.148 2339.97 976.148Z" fill-rule="evenodd"/><text fill="#000000" fill-opacity="0" font-family="Arial,Arial_MSFontService,sans-serif" font-size="52.2607" x="2324.34" y="1021.88">­ЮЉЪ</text><path d="M2362.8 941.826 2376.28 953.482 2376.28 956.597 2362.8 968.252 2359.95 965.03 2368.54 957.564 2335.78 957.564 2335.78 952.515 2368.54 952.515 2359.95 945.049Z" fill-rule="evenodd"/><text fill="#000000" fill-opacity="0" font-family="Arial,Arial_MSFontService,sans-serif" font-size="26.4258" x="2335.78" y="964.949">нд</text><path d="M2511.5 787.5C2511.5 751.602 2540.6 722.5 2576.5 722.5 2612.4 722.5 2641.5 751.602 2641.5 787.5 2641.5 823.398 2612.4 852.5 2576.5 852.5 2540.6 852.5 2511.5 823.398 2511.5 787.5Z" stroke="#000000" stroke-width="6.875" stroke-miterlimit="8" fill="#7F7F7F" fill-rule="evenodd"/><path d="M2.66171-2.17525 328.828 396.935 323.505 401.285-2.66171 2.17525ZM324.58 367.126 330.482 404.391 295.139 391.186C293.361 390.521 292.458 388.541 293.122 386.763 293.787 384.984 295.767 384.081 297.545 384.746L327.369 395.888 322.77 399.646 317.79 368.201C317.493 366.326 318.772 364.565 320.647 364.268 322.522 363.971 324.283 365.251 324.58 367.126Z" transform="matrix(1 0 0 -1 2200.5 1237.88)"/><path d="M2525.7 751.826 2335.59 596.469 2339.95 591.145 2530.05 746.502ZM2345.69 624.833 2332.49 589.49 2369.75 595.393C2371.63 595.69 2372.91 597.45 2372.61 599.326 2372.31 601.201 2370.55 602.48 2368.68 602.183L2337.23 597.202 2340.99 592.604 2352.13 622.427C2352.8 624.206 2351.89 626.186 2350.12 626.85 2348.34 627.515 2346.36 626.612 2345.69 624.833Z" fill="#0000FF"/><path d="M2468.75 598.195C2471.33 598.195 2473.19 598.867 2474.33 600.209 2475.48 601.552 2476.05 603.351 2476.05 605.607 2476.05 607.326 2475.75 609.295 2475.14 611.515 2474.53 613.735 2473.67 616.081 2472.56 618.552 2471.45 621.022 2470.13 623.556 2468.59 626.152 2467.05 628.748 2465.35 631.272 2463.48 633.725 2461.62 636.178 2459.63 638.487 2457.52 640.654 2455.41 642.82 2453.22 644.709 2450.94 646.32 2448.67 647.931 2446.36 649.212 2444.01 650.16 2441.67 651.109 2439.33 651.584 2437 651.584 2435.97 651.584 2435.1 651.324 2434.4 650.805 2433.7 650.286 2433.14 649.552 2432.71 648.603 2432.28 647.654 2431.97 646.535 2431.79 645.246 2431.61 643.957 2431.53 642.542 2431.53 641.003 2431.53 638.962 2431.65 636.777 2431.9 634.45 2432.15 632.123 2432.47 629.777 2432.87 627.414L2435.12 612.536C2435.27 611.677 2435.38 610.862 2435.47 610.092 2435.56 609.322 2435.61 608.758 2435.61 608.4 2435.61 607.29 2435.43 606.377 2435.07 605.661 2434.71 604.945 2434.1 604.587 2433.24 604.587 2432.56 604.587 2431.83 604.793 2431.04 605.204 2430.25 605.616 2429.46 606.144 2428.65 606.789 2427.85 607.433 2427.07 608.123 2426.32 608.857 2425.56 609.591 2424.87 610.28 2424.22 610.925L2421.64 607.917C2422.75 606.771 2423.93 605.634 2425.19 604.506 2426.44 603.378 2427.77 602.358 2429.16 601.445 2430.56 600.532 2432.03 599.797 2433.57 599.242 2435.11 598.688 2436.68 598.41 2438.29 598.41 2439.65 598.41 2440.76 598.634 2441.62 599.081 2442.48 599.529 2443.15 600.12 2443.64 600.854 2444.12 601.588 2444.45 602.394 2444.63 603.271 2444.81 604.148 2444.9 605.016 2444.9 605.876 2444.9 606.377 2444.88 606.86 2444.85 607.326 2444.81 607.792 2444.76 608.221 2444.68 608.615L2441.68 628.058C2441.35 630.099 2441.09 632.096 2440.87 634.047 2440.66 635.999 2440.55 637.726 2440.55 639.23 2440.55 640.734 2440.64 641.952 2440.82 642.883 2441 643.814 2441.34 644.279 2441.84 644.279 2443.02 644.279 2444.51 643.805 2446.3 642.856 2448.09 641.907 2449.97 640.6 2451.94 638.935 2453.91 637.27 2455.87 635.3 2457.84 633.027 2459.81 630.753 2461.59 628.291 2463.16 625.641 2464.74 622.992 2466.02 620.199 2467 617.263 2467.99 614.326 2468.48 611.372 2468.48 608.4 2468.48 607.111 2468.2 606.117 2467.65 605.419 2467.09 604.721 2466.22 604.372 2465.04 604.372 2463.54 604.372 2462.15 604.954 2460.88 606.117 2459.61 607.281 2458.29 608.812 2456.93 610.71L2453.87 607.971C2454.73 606.681 2455.74 605.446 2456.9 604.264 2458.07 603.083 2459.3 602.044 2460.61 601.149 2461.92 600.254 2463.27 599.538 2464.67 599.001 2466.06 598.464 2467.42 598.195 2468.75 598.195Z" fill="#0000FF" fill-rule="evenodd"/><text fill="#000000" fill-opacity="0" font-family="Arial,Arial_MSFontService,sans-serif" font-size="53.3887" x="2421.64" y="644.91">­ЮЉБ</text><path d="M2463.6 564.043 2477.08 575.698 2477.08 578.813 2463.6 590.469 2460.75 587.246 2469.35 579.78 2436.58 579.78 2436.58 574.731 2469.35 574.731 2460.75 567.266Z" fill="#0000FF" fill-rule="evenodd"/><text fill="#000000" fill-opacity="0" font-family="Arial,Arial_MSFontService,sans-serif" font-size="26.4258" x="2436.58" y="587.165">нд</text><path d="M2549.83 851.675 2394.47 1041.78 2389.15 1037.42 2544.5 847.325ZM2422.83 1031.68 2387.49 1044.88 2393.39 1007.62C2393.69 1005.74 2395.45 1004.46 2397.33 1004.76 2399.2 1005.06 2400.48 1006.82 2400.18 1008.69L2395.2 1040.14 2390.6 1036.38 2420.43 1025.24C2422.21 1024.57 2424.19 1025.48 2424.85 1027.25 2425.51 1029.03 2424.61 1031.01 2422.83 1031.68Z" fill="#0000FF"/><path d="M2518.57 965.519C2514.88 965.519 2511.57 967.005 2508.63 969.977 2505.69 972.949 2503.4 976.933 2501.75 981.928 2500.11 986.923 2499.28 991.909 2499.28 996.886 2499.28 1000.61 2499.79 1003.39 2500.81 1005.24 2501.84 1007.08 2503.54 1008 2505.94 1008 2508.31 1008 2510.63 1006.98 2512.9 1004.94 2515.17 1002.9 2517.52 999.993 2519.94 996.215 2522.35 992.437 2524.06 988.078 2525.07 983.136L2525.55 980.827C2525.87 979.359 2526.09 978.088 2526.19 977.013 2526.3 975.939 2526.35 974.775 2526.35 973.522 2526.35 970.765 2525.76 968.742 2524.58 967.453 2523.4 966.164 2521.4 965.519 2518.57 965.519ZM2517.49 961.276C2519.82 961.276 2521.99 961.536 2524.02 962.055 2526.04 962.574 2528.13 963.496 2530.28 964.821L2535.22 961.276 2538.65 962.135 2530.76 996.188C2529.97 999.59 2529.58 1002.24 2529.58 1004.14 2529.58 1005.57 2529.81 1006.61 2530.28 1007.25 2530.74 1007.9 2531.47 1008.22 2532.48 1008.22 2533.55 1008.22 2534.7 1007.78 2535.91 1006.9 2537.13 1006.03 2538.85 1004.35 2541.07 1001.88L2544.13 1004.89C2540.91 1008.33 2538.16 1010.77 2535.89 1012.22 2533.61 1013.67 2531.15 1014.4 2528.5 1014.4 2526.28 1014.4 2524.51 1013.66 2523.19 1012.19 2521.86 1010.73 2521.2 1008.77 2521.2 1006.34 2521.2 1004.37 2521.61 1002.28 2522.43 1000.06L2521.74 999.841C2518.3 1004.85 2515.04 1008.52 2511.96 1010.85 2508.88 1013.18 2505.62 1014.34 2502.18 1014.34 2498.25 1014.34 2495.19 1012.86 2493.03 1009.88 2490.86 1006.91 2489.78 1002.74 2489.78 997.37 2489.78 991.211 2490.99 985.294 2493.4 979.618 2495.82 973.943 2499.14 969.467 2503.37 966.191 2507.59 962.914 2512.3 961.276 2517.49 961.276Z" fill="#0000FF" fill-rule="evenodd"/><text fill="#000000" fill-opacity="0" font-family="Arial,Arial_MSFontService,sans-serif" font-size="53.1201" x="2489.78" y="1007.76">­ЮЉј</text><path d="M2528.98 926.955 2542.46 938.61 2542.46 941.725 2528.98 953.381 2526.14 950.158 2534.73 942.692 2501.97 942.692 2501.97 937.643 2534.73 937.643 2526.14 930.177Z" fill="#0000FF" fill-rule="evenodd"/><text fill="#000000" fill-opacity="0" font-family="Arial,Arial_MSFontService,sans-serif" font-size="26.4258" x="2501.97" y="950.077">нд</text><path d="M2574.35 996.112C2576.25 996.112 2578.01 996.216 2579.64 996.425 2581.27 996.633 2582.95 996.959 2584.7 997.401L2582.51 1006.97 2577.9 1006.97C2577.87 1005.62 2577.78 1004.49 2577.61 1003.59 2577.44 1002.69 2577.16 1001.98 2576.79 1001.46 2576.41 1000.94 2575.91 1000.57 2575.3 1000.35 2574.69 1000.13 2573.94 1000.01 2573.06 999.979 2571.65 999.979 2570.3 1000.29 2569.01 1000.92 2567.72 1001.54 2566.53 1002.41 2565.42 1003.51 2564.31 1004.62 2563.3 1005.92 2562.39 1007.4 2561.48 1008.89 2560.7 1010.49 2560.05 1012.21 2559.4 1013.92 2558.9 1015.72 2558.54 1017.58 2558.19 1019.44 2558.02 1021.29 2558.02 1023.14 2558.02 1025.9 2558.56 1028.01 2559.66 1029.45 2560.75 1030.9 2562.39 1031.62 2564.58 1031.62 2565.8 1031.62 2566.94 1031.51 2567.98 1031.29 2569.02 1031.07 2570.04 1030.7 2571.03 1030.17 2572.01 1029.65 2573.04 1028.97 2574.09 1028.12 2575.15 1027.28 2576.31 1026.23 2577.59 1024.98 2578.08 1025.5 2578.56 1026.01 2579.01 1026.52 2579.47 1027.03 2579.94 1027.54 2580.44 1028.07 2577.63 1030.98 2574.81 1033.15 2572 1034.57 2569.19 1035.99 2566.17 1036.7 2562.94 1036.7 2558.9 1036.7 2555.81 1035.52 2553.66 1033.16 2551.51 1030.81 2550.44 1027.44 2550.44 1023.07 2550.44 1020.62 2550.71 1018.25 2551.26 1015.98 2551.81 1013.7 2552.59 1011.55 2553.62 1009.55 2554.65 1007.54 2555.88 1005.72 2557.31 1004.08 2558.75 1002.44 2560.35 1001.03 2562.12 999.843 2563.89 998.658 2565.8 997.74 2567.86 997.089 2569.92 996.438 2572.08 996.112 2574.35 996.112Z" fill="#0000FF" fill-rule="evenodd"/><text fill="#000000" fill-opacity="0" font-family="Arial,Arial_MSFontService,sans-serif" font-size="40.5859" x="2550.44" y="1031.62">­ЮЉљ</text><path d="M2207.65 650.208 2224.56 650.553 2248.54 652.025 2272.43 654.471 2296.19 657.887 2319.78 662.268 2343.19 667.61 2366.38 673.907 2389.26 681.133 2387.19 687.688 2364.38 680.483 2364.51 680.523 2341.46 674.263 2341.59 674.297 2318.32 668.986 2318.46 669.015 2295 664.659 2295.14 664.682 2271.52 661.286 2271.66 661.303 2247.91 658.871 2248.05 658.882 2224.21 657.42 2224.35 657.425 2207.51 657.081ZM2246.62 680.369 2200.5 653.5 2247.68 628.537C2249.36 627.649 2251.44 628.29 2252.33 629.968 2253.22 631.646 2252.58 633.726 2250.9 634.614L2209.19 656.683 2209.31 650.674 2250.08 674.429C2251.72 675.385 2252.28 677.489 2251.32 679.13 2250.37 680.77 2248.26 681.325 2246.62 680.369Z"/><path d="M1853.35 1712.55 1834.86 1698.68 1811.85 1679.51 1790.03 1659.39 1769.43 1638.38 1750.06 1616.53 1731.91 1593.89 1715.01 1570.51 1699.36 1546.44 1684.97 1521.74 1671.84 1496.45 1659.99 1470.64 1649.43 1444.34 1640.16 1417.62 1632.19 1390.52 1625.53 1363.09 1620.19 1335.39 1616.18 1307.46 1613.5 1279.36 1612.17 1251.15 1612.2 1222.86 1613.58 1194.56 1616.34 1166.29 1620.48 1138.11 1626.01 1110.07 1632.93 1082.21 1641.26 1054.6 1651 1027.28 1662.17 1000.3 1674.77 973.719 1688.81 947.585 1704.3 921.951 1721.24 896.875 1735.71 877.422 1750.87 858.709 1766.68 840.737 1783.12 823.516 1800.15 807.053 1817.77 791.359 1835.93 776.44 1854.61 762.307 1873.78 748.968 1893.42 736.432 1913.5 724.706 1933.99 713.801 1954.87 703.723 1976.11 694.483 1997.68 686.089 2019.56 678.548 2041.71 671.871 2064.12 666.066 2086.75 661.14 2109.59 657.104 2132.59 653.965 2155.74 651.733 2179.01 650.415 2202.37 650.021 2225.79 650.559 2249.26 652.038 2272.73 654.466 2296.19 657.853 2319.6 662.207 2342.95 667.535 2366.2 673.848 2389.26 681.133 2387.19 687.688 2364.19 680.425 2364.33 680.465 2341.22 674.189 2341.35 674.222 2318.14 668.925 2318.28 668.953 2295 664.625 2295.14 664.648 2271.82 661.281 2271.95 661.298 2248.62 658.883 2248.75 658.895 2225.43 657.424 2225.57 657.43 2202.28 656.896 2202.42 656.896 2179.19 657.288 2179.33 657.283 2156.2 658.593 2156.33 658.582 2133.32 660.802 2133.45 660.786 2110.58 663.907 2110.72 663.886 2088.02 667.899 2088.15 667.872 2065.65 672.769 2065.78 672.738 2043.5 678.51 2043.63 678.473 2021.6 685.112 2021.73 685.07 1999.98 692.566 2000.11 692.52 1978.66 700.866 1978.79 700.814 1957.67 710.001 1957.8 709.944 1937.04 719.963 1937.16 719.901 1916.79 730.743 1916.91 730.677 1896.94 742.334 1897.06 742.263 1877.54 754.727 1877.65 754.651 1858.59 767.912 1858.7 767.831 1840.13 781.882 1840.24 781.796 1822.18 796.627 1822.29 796.537 1804.78 812.14 1804.88 812.046 1787.94 828.411 1788.04 828.313 1771.7 845.433 1771.79 845.33 1756.08 863.197 1756.17 863.09 1741.1 881.694 1741.19 881.583 1726.8 900.916 1726.89 900.788 1710.04 925.727 1710.13 925.58 1694.74 951.066 1694.82 950.915 1680.87 976.896 1680.94 976.742 1668.42 1003.17 1668.49 1003.01 1657.39 1029.83 1657.45 1029.67 1647.76 1056.83 1647.82 1056.67 1639.54 1084.12 1639.58 1083.96 1632.7 1111.65 1632.73 1111.48 1627.24 1139.36 1627.27 1139.19 1623.16 1167.21 1623.18 1167.05 1620.44 1195.15 1620.45 1194.98 1619.07 1223.12 1619.07 1222.95 1619.05 1251.07 1619.05 1250.91 1620.37 1278.96 1620.36 1278.79 1623.02 1306.73 1623 1306.56 1626.98 1334.33 1626.96 1334.16 1632.27 1361.71 1632.23 1361.55 1638.85 1388.81 1638.81 1388.65 1646.73 1415.6 1646.68 1415.44 1655.9 1442.01 1655.84 1441.86 1666.34 1468 1666.28 1467.85 1678.06 1493.51 1677.98 1493.36 1691.03 1518.5 1690.95 1518.35 1705.26 1542.91 1705.17 1542.76 1720.73 1566.69 1720.63 1566.55 1737.44 1589.79 1737.33 1589.65 1755.37 1612.16 1755.26 1612.03 1774.52 1633.75 1774.4 1633.63 1794.88 1654.51 1794.76 1654.39 1816.44 1674.39 1816.31 1674.28 1839.2 1693.34 1839.06 1693.23 1857.47 1707.05ZM1839.32 1665.31 1861.07 1714.05 1808.19 1706.77C1806.31 1706.52 1805 1704.78 1805.26 1702.9 1805.52 1701.02 1807.25 1699.71 1809.13 1699.96L1855.88 1706.4 1852.27 1711.2 1833.04 1668.11C1832.26 1666.38 1833.04 1664.35 1834.78 1663.57 1836.51 1662.8 1838.54 1663.58 1839.32 1665.31Z"/><path d="M2686.75 1568.87 2673.49 1587.78 2655.08 1611.41 2635.68 1633.86 2615.35 1655.13 2594.14 1675.21 2572.09 1694.08 2549.27 1711.74 2525.72 1728.17 2501.49 1743.36 2476.63 1757.31 2451.2 1770 2425.25 1781.43 2398.83 1791.58 2371.98 1800.44 2344.77 1808 2317.24 1814.25 2289.44 1819.19 2261.42 1822.79 2233.24 1825.06 2204.95 1825.98 2176.59 1825.54 2148.23 1823.73 2119.9 1820.53 2091.66 1815.95 2063.57 1809.96 2035.67 1802.56 2008.02 1793.74 1980.66 1783.49 1953.65 1771.79 1927.04 1758.65 1900.88 1744.03 1875.23 1727.95 1850.42 1710.59 1826.77 1692.19 1804.3 1672.81 1783.01 1652.5 1762.92 1631.3 1744.03 1609.28 1726.36 1586.47 1709.92 1562.94 1694.71 1538.73 1680.75 1513.9 1668.05 1488.49 1656.61 1462.56 1646.45 1436.16 1637.59 1409.34 1630.02 1382.15 1623.76 1354.64 1618.82 1326.86 1615.21 1298.87 1612.94 1270.72 1612.02 1242.45 1612.46 1214.11 1614.28 1185.77 1617.47 1157.47 1622.06 1129.25 1628.05 1101.18 1635.46 1073.31 1644.28 1045.68 1654.55 1018.34 1666.25 991.357 1679.41 964.771 1694.04 938.635 1710.13 913.008 1724.35 892.54 1739.3 872.832 1754.97 853.888 1771.31 835.718 1788.32 818.332 1805.94 801.739 1824.17 785.95 1842.96 770.974 1862.29 756.822 1882.13 743.503 1902.45 731.027 1923.22 719.404 1944.41 708.644 1966.01 698.756 1987.96 689.75 2010.26 681.636 2032.86 674.424 2055.74 668.124 2078.87 662.745 2102.23 658.298 2125.77 654.792 2149.49 652.237 2173.34 650.642 2197.29 650.019 2221.32 650.375 2245.41 651.723 2269.51 654.07 2293.61 657.428 2317.66 661.805 2341.65 667.212 2365.55 673.658 2389.25 681.132 2387.19 687.688 2363.55 680.236 2363.69 680.277 2339.93 673.868 2340.07 673.903 2316.22 668.527 2316.36 668.556 2292.45 664.204 2292.59 664.227 2268.63 660.889 2268.77 660.906 2244.81 658.572 2244.95 658.583 2221.01 657.244 2221.15 657.249 2197.26 656.894 2197.4 656.893 2173.58 657.513 2173.72 657.507 2150.02 659.092 2150.15 659.079 2126.58 661.62 2126.72 661.602 2103.31 665.088 2103.44 665.065 2080.23 669.486 2080.36 669.457 2057.36 674.805 2057.5 674.771 2034.75 681.034 2034.88 680.995 2012.41 688.165 2012.54 688.12 1990.38 696.187 1990.51 696.137 1968.68 705.09 1968.81 705.035 1947.34 714.865 1947.47 714.805 1926.39 725.503 1926.52 725.438 1905.86 736.993 1905.98 736.923 1885.78 749.326 1885.9 749.25 1866.18 762.491 1866.29 762.411 1847.08 776.48 1847.19 776.395 1828.51 791.282 1828.61 791.192 1810.5 806.888 1810.6 806.794 1793.08 823.289 1793.18 823.189 1776.28 840.474 1776.38 840.369 1760.13 858.433 1760.22 858.325 1744.65 877.158 1744.73 877.045 1729.87 896.638 1729.95 896.522 1715.82 916.865 1715.91 916.732 1699.9 942.218 1699.99 942.068 1685.45 968.052 1685.53 967.898 1672.45 994.33 1672.52 994.173 1660.89 1021 1660.95 1020.84 1650.75 1048.01 1650.81 1047.85 1642.03 1075.32 1642.08 1075.16 1634.72 1102.87 1634.76 1102.7 1628.8 1130.61 1628.83 1130.44 1624.27 1158.49 1624.29 1158.32 1621.12 1186.46 1621.13 1186.29 1619.33 1214.47 1619.33 1214.3 1618.89 1242.47 1618.89 1242.3 1619.81 1270.41 1619.8 1270.24 1622.05 1298.24 1622.04 1298.07 1625.62 1325.9 1625.6 1325.74 1630.51 1353.35 1630.48 1353.19 1636.7 1380.54 1636.66 1380.38 1644.19 1407.42 1644.14 1407.26 1652.96 1433.92 1652.9 1433.77 1663 1460.02 1662.93 1459.86 1674.3 1485.64 1674.23 1485.49 1686.86 1510.75 1686.78 1510.6 1700.66 1535.29 1700.58 1535.15 1715.69 1559.21 1715.6 1559.07 1731.95 1582.47 1731.85 1582.33 1749.42 1605 1749.31 1604.87 1768.08 1626.76 1767.97 1626.64 1787.94 1647.71 1787.82 1647.58 1808.99 1667.78 1808.86 1667.66 1831.2 1686.93 1831.06 1686.82 1854.57 1705.11 1854.43 1705.01 1879.1 1722.27 1878.95 1722.17 1904.46 1738.16 1904.31 1738.07 1930.32 1752.6 1930.16 1752.52 1956.62 1765.59 1956.46 1765.52 1983.31 1777.15 1983.15 1777.08 2010.35 1787.28 2010.19 1787.22 2037.68 1795.99 2037.51 1795.94 2065.25 1803.29 2065.08 1803.26 2093.01 1809.21 2092.85 1809.18 2120.92 1813.73 2120.75 1813.71 2148.91 1816.88 2148.75 1816.87 2176.95 1818.67 2176.78 1818.67 2204.97 1819.1 2204.81 1819.11 2232.94 1818.19 2232.77 1818.2 2260.79 1815.95 2260.63 1815.97 2288.48 1812.38 2288.32 1812.4 2315.95 1807.5 2315.79 1807.53 2343.17 1801.31 2343.01 1801.35 2370.06 1793.83 2369.91 1793.88 2396.59 1785.07 2396.44 1785.13 2422.71 1775.04 2422.56 1775.1 2448.36 1763.74 2448.21 1763.81 2473.49 1751.2 2473.34 1751.27 2498.05 1737.41 2497.9 1737.49 2521.99 1722.39 2521.85 1722.48 2545.26 1706.15 2545.13 1706.25 2567.82 1688.69 2567.69 1688.8 2589.6 1670.04 2589.47 1670.16 2610.56 1650.2 2610.44 1650.32 2630.65 1629.17 2630.53 1629.3 2649.82 1606.98 2649.71 1607.12 2668.01 1583.63 2667.91 1583.77 2681.12 1564.92ZM2639.99 1584.43 2688 1561.1 2682.44 1614.18C2682.24 1616.07 2680.55 1617.44 2678.66 1617.24 2676.78 1617.05 2675.41 1615.36 2675.6 1613.47L2680.52 1566.54 2685.44 1569.99 2642.99 1590.61C2641.29 1591.44 2639.23 1590.73 2638.4 1589.02 2637.57 1587.31 2638.28 1585.26 2639.99 1584.43Z"/><path d="M2279.47 1187.43C2278.2 1193.29 2277.56 1198.22 2277.56 1202.22 2277.56 1205.25 2278.02 1207.47 2278.94 1208.89 2279.86 1210.31 2281.35 1211.01 2283.4 1211.01 2286.43 1211.01 2289.3 1208.98 2292.01 1204.92 2294.73 1200.85 2297.03 1195.02 2298.92 1187.43ZM2296.09 1160.11C2292.92 1160.11 2290 1162.11 2287.31 1166.11 2284.62 1170.11 2282.33 1175.84 2280.44 1183.29L2299.85 1183.29C2301.12 1177.59 2301.76 1172.69 2301.76 1168.58 2301.76 1165.75 2301.3 1163.62 2300.38 1162.22 2299.46 1160.81 2298.03 1160.11 2296.09 1160.11ZM2296.57 1156.83C2304.41 1156.83 2308.32 1161.8 2308.32 1171.74 2308.32 1174.55 2308.01 1177.91 2307.37 1181.81 2306.74 1185.72 2305.73 1189.7 2304.35 1193.75 2302.98 1197.8 2301.23 1201.39 2299.12 1204.51 2297.02 1207.63 2294.59 1210.04 2291.83 1211.74 2289.07 1213.45 2286.1 1214.3 2282.91 1214.3 2278.89 1214.3 2275.89 1213.07 2273.92 1210.61 2271.94 1208.15 2270.96 1204.46 2270.96 1199.55 2270.96 1196.87 2271.26 1193.57 2271.85 1189.66 2272.44 1185.74 2273.42 1181.73 2274.79 1177.64 2276.15 1173.55 2277.91 1169.91 2280.06 1166.74 2282.2 1163.56 2284.68 1161.12 2287.47 1159.4 2290.27 1157.69 2293.3 1156.83 2296.57 1156.83Z" fill-rule="evenodd"/><text fill="#000000" fill-opacity="0" font-family="Arial,Arial_MSFontService,sans-serif" font-size="57.4678" x="2270.96" y="1207.11">­ЮюЃ</text><path d="M2346.92 1155.09 2348.02 1158.21C2341.7 1160.29 2337.02 1164.35 2333.98 1170.39 2330.94 1176.42 2329.42 1184.01 2329.42 1193.14 2329.42 1202.6 2330.94 1210.39 2333.98 1216.53 2337.02 1222.66 2341.66 1226.77 2347.9 1228.85L2346.92 1231.97C2339.01 1229.89 2332.94 1225.41 2328.73 1218.53 2324.51 1211.66 2322.41 1203.33 2322.41 1193.55 2322.41 1183.79 2324.52 1175.47 2328.75 1168.56 2332.98 1161.66 2339.03 1157.17 2346.92 1155.09Z" fill-rule="evenodd"/><text fill="#000000" fill-opacity="0" font-family="Arial,Arial_MSFontService,sans-serif" font-size="76.8804" x="2322.41" y="1222.36">(</text><path d="M2365.33 1164.89 2370.92 1164.89 2368.7 1174.9 2381.02 1174.9 2380.12 1179 2367.8 1179 2364.2 1194.72C2363.49 1197.78 2363.05 1199.97 2362.86 1201.31 2362.67 1202.65 2362.58 1203.72 2362.58 1204.53 2362.58 1207.88 2363.97 1209.56 2366.75 1209.56 2367.94 1209.56 2369.2 1209.1 2370.54 1208.2 2371.88 1207.29 2373.46 1205.75 2375.3 1203.56L2377.65 1205.99C2375.3 1208.83 2373.04 1210.92 2370.86 1212.27 2368.69 1213.62 2366.41 1214.3 2364.03 1214.3 2358.39 1214.3 2355.56 1211.45 2355.56 1205.75 2355.56 1203.94 2355.79 1202.03 2356.25 1200.03L2361.04 1179 2354.23 1179 2354.83 1176.2C2356.43 1176.17 2357.64 1176.05 2358.46 1175.84 2359.29 1175.62 2359.98 1175.32 2360.53 1174.95 2361.08 1174.57 2361.59 1174.03 2362.05 1173.32 2362.51 1172.62 2362.95 1171.72 2363.39 1170.63 2363.82 1169.53 2364.47 1167.62 2365.33 1164.89Z" fill-rule="evenodd"/><text fill="#000000" fill-opacity="0" font-family="Arial,Arial_MSFontService,sans-serif" font-size="49.4028" x="2354.23" y="1208.12">­ЮЉА</text><path d="M2386.79 1155.09C2394.68 1157.17 2400.74 1161.66 2404.97 1168.56 2409.2 1175.47 2411.31 1183.79 2411.31 1193.55 2411.31 1203.33 2409.2 1211.66 2404.99 1218.53 2400.77 1225.41 2394.71 1229.89 2386.79 1231.97L2385.82 1228.85C2392.06 1226.77 2396.7 1222.66 2399.74 1216.53 2402.78 1210.39 2404.3 1202.6 2404.3 1193.14 2404.3 1184.01 2402.79 1176.42 2399.76 1170.39 2396.74 1164.35 2392.05 1160.29 2385.7 1158.21Z" fill-rule="evenodd"/><text fill="#000000" fill-opacity="0" font-family="Arial,Arial_MSFontService,sans-serif" font-size="76.8804" x="2385.7" y="1222.36">)</text><path d="M2333 1075.54C2402.44 1110.86 2444.5 1172.15 2444.5 1238" stroke="#000000" stroke-width="6.875" stroke-miterlimit="8" fill="none" fill-rule="evenodd"/><path d="M2.2181-1.8127 42.3157 47.2523 37.8795 50.8777-2.2181 1.8127ZM37.9463 17.172 43.6951 53.4671 9.27174 40.6058C7.78973 40.0521 7.0372 38.4019 7.5909 36.9198 8.14461 35.4378 9.79488 34.6853 11.2769 35.239L41.1002 46.3816 37.2683 49.5131 32.2877 18.0683C32.0402 16.5057 33.1062 15.0383 34.6688 14.7908 36.2314 14.5433 37.6988 15.6094 37.9463 17.172Z" fill="#000000" fill-opacity="0.501961" transform="matrix(1 0 0 -1 2617 722.457)"/><path d="M2615.38 720.322 2564.58 678.807 2568.2 674.371 2619 715.886ZM2574.85 707.415 2561.99 672.992 2598.28 678.741C2599.85 678.988 2600.91 680.455 2600.67 682.018 2600.42 683.581 2598.95 684.647 2597.39 684.399L2565.94 679.419 2569.08 675.587 2580.22 705.41C2580.77 706.892 2580.02 708.542 2578.54 709.096 2577.05 709.65 2575.4 708.897 2574.85 707.415Z" fill="#000000" fill-opacity="0.501961"/><path d="M2673.87 660.377C2675.37 660.377 2676.55 660.87 2677.42 661.856 2678.29 662.842 2678.72 664.131 2678.72 665.724 2678.72 666.912 2678.5 668.135 2678.04 669.395L2678.51 669.573C2680.84 666.413 2683.08 664.096 2685.23 662.622 2687.38 661.149 2689.56 660.413 2691.77 660.413 2693.5 660.413 2694.95 660.543 2696.12 660.805L2694.41 668.789 2690.73 668.789C2690.59 667.791 2690.39 667.019 2690.13 666.472 2689.87 665.926 2689.56 665.545 2689.2 665.331 2688.84 665.118 2688.39 665.011 2687.85 665.011 2686.99 665.011 2686.06 665.379 2685.05 666.116 2684.04 666.852 2682.9 668.005 2681.64 669.573 2680.38 671.142 2679.38 672.651 2678.63 674.1 2677.88 675.55 2677.26 677.391 2676.76 679.625L2673.37 695.059 2667.21 695.059 2672.38 672.46C2672.71 671.035 2672.92 669.93 2673.02 669.145 2673.11 668.361 2673.16 667.708 2673.16 667.185 2673.16 666.234 2673.01 665.545 2672.7 665.118 2672.39 664.69 2671.9 664.476 2671.24 664.476 2670.5 664.476 2669.72 664.779 2668.9 665.385 2668.08 665.991 2666.96 667.09 2665.53 668.682L2663.5 666.686C2665.69 664.405 2667.52 662.783 2668.99 661.82 2670.46 660.858 2672.09 660.377 2673.87 660.377Z" fill="#7F7F7F" fill-rule="evenodd"/><text fill="#000000" fill-opacity="0" font-family="Arial,Arial_MSFontService,sans-serif" font-size="34.6821" x="2663.5" y="690.724">­ЮЉЪ</text><path d="M2681.18 643.66 2685.96 643.66 2693.62 654.888 2691.12 656.919 2683.57 648.258 2683.18 648.258 2675.62 656.919 2673.19 654.888Z" fill="#7F7F7F" fill-rule="evenodd"/><text fill="#000000" fill-opacity="0" font-family="Arial,Arial_MSFontService,sans-serif" font-size="13.2598" x="2673.19" y="655.262">кИ</text><path d="M2545.85 655.113 2550.77 655.113 2548.8 663.917 2559.64 663.917 2558.86 667.517 2548.02 667.517 2544.85 681.347C2544.23 684.032 2543.84 685.963 2543.67 687.139 2543.51 688.316 2543.42 689.26 2543.42 689.973 2543.42 692.92 2544.65 694.393 2547.09 694.393 2548.14 694.393 2549.25 693.995 2550.43 693.199 2551.6 692.403 2553 691.042 2554.61 689.118L2556.68 691.256C2554.61 693.751 2552.62 695.593 2550.71 696.781 2548.8 697.969 2546.8 698.563 2544.71 698.563 2539.74 698.563 2537.26 696.056 2537.26 691.042 2537.26 689.45 2537.46 687.775 2537.86 686.017L2542.07 667.517 2536.08 667.517 2536.61 665.058C2538.02 665.034 2539.08 664.927 2539.8 664.737 2540.53 664.547 2541.14 664.285 2541.62 663.953 2542.11 663.62 2542.55 663.145 2542.96 662.527 2543.36 661.909 2543.76 661.119 2544.14 660.156 2544.52 659.194 2545.09 657.513 2545.85 655.113Z" fill="#7F7F7F" fill-rule="evenodd"/><text fill="#000000" fill-opacity="0" font-family="Arial,Arial_MSFontService,sans-serif" font-size="43.4507" x="2536.08" y="693.132">­ЮЉА</text><path d="M2547.27 638.458 2552.04 638.458 2559.71 649.686 2557.21 651.718 2549.66 643.056 2549.26 643.056 2541.71 651.718 2539.28 649.686Z" fill="#7F7F7F" fill-rule="evenodd"/><text fill="#000000" fill-opacity="0" font-family="Arial,Arial_MSFontService,sans-serif" font-size="13.2598" x="2539.28" y="650.061">кИ</text><path d="M2105.37 1774.25C2125.47 1803.97 2117.66 1844.35 2087.94 1864.45 2058.22 1884.54 2017.84 1876.74 1997.74 1847.02 1977.65 1817.3 1985.45 1776.92 2015.17 1756.82 2044.89 1736.73 2085.27 1744.53 2105.37 1774.25Z" stroke="#000000" stroke-width="6.875" stroke-miterlimit="8" stroke-opacity="0.4" fill="#7F7F7F" fill-rule="evenodd" fill-opacity="0.4"/><path d="M2114.27 1811.6 2358.77 1833.81 2358.15 1840.66 2113.65 1818.44ZM2334.52 1815.97 2365.25 1837.85 2331.08 1853.83C2329.36 1854.64 2327.31 1853.9 2326.51 1852.18 2325.7 1850.46 2326.44 1848.41 2328.16 1847.61L2357 1834.12 2356.46 1840.03 2330.53 1821.57C2328.98 1820.47 2328.62 1818.32 2329.72 1816.77 2330.82 1815.23 2332.97 1814.87 2334.52 1815.97Z" fill="#0000FF" fill-opacity="0.4"/></g></svg>