<svg width="587" height="682" xmlns="http://www.w3.org/2000/svg" xmlns:xlink="http://www.w3.org/1999/xlink" xml:space="preserve" overflow="hidden"><g transform="translate(-2199 -575)"><path d="M2200 653C2523.09 653 2785 914.69 2785 1237.5" stroke="#000000" stroke-width="2.29167" stroke-miterlimit="8" fill="none" fill-rule="evenodd"/><path d="M2200 653 2200 1237.38" stroke="#000000" stroke-width="2.29167" stroke-miterlimit="8" fill="none" fill-rule="evenodd"/><path d="M2200 1238 2784.38 1238" stroke="#000000" stroke-width="2.29167" stroke-miterlimit="8" fill="none" fill-rule="evenodd"/><path d="M2517.5 759C2517.5 749.887 2524.89 742.5 2534 742.5 2543.11 742.5 2550.5 749.887 2550.5 759 2550.5 768.113 2543.11 775.5 2534 775.5 2524.89 775.5 2517.5 768.113 2517.5 759Z" stroke="#000000" stroke-width="6.875" stroke-miterlimit="8" fill="#7F7F7F" fill-rule="evenodd"/><path d="M2646.5 886C2646.5 876.887 2653.66 869.5 2662.5 869.5 2671.34 869.5 2678.5 876.887 2678.5 886 2678.5 895.112 2671.34 902.5 2662.5 902.5 2653.66 902.5 2646.5 895.112 2646.5 886Z" stroke="#000000" stroke-width="6.875" stroke-miterlimit="8" stroke-opacity="0.501961" fill="#7F7F7F" fill-rule="evenodd" fill-opacity="0.501961"/><path d="M2653.36 874.735 2491.6 691.086 2496.76 686.542 2658.52 870.191ZM2500.89 735.649 2489.5 683.502 2539.79 701.382C2541.58 702.018 2542.52 703.984 2541.88 705.773 2541.25 707.562 2539.28 708.496 2537.49 707.86L2493.03 692.053 2497.54 688.08 2507.61 734.182C2508.01 736.037 2506.84 737.869 2504.98 738.274 2503.13 738.679 2501.29 737.504 2500.89 735.649Z" fill="#000000" fill-opacity="0.501961"/><path d="M0 0 321.794 467.648" stroke="#000000" stroke-width="1.14583" stroke-miterlimit="8" stroke-dasharray="4.58333 3.4375" stroke-opacity="0.501961" fill="none" fill-rule="evenodd" transform="matrix(1 0 0 -1 2200.5 1238.15)"/><path d="M2517.22 749.689 2306.63 625.014 2310.13 619.098 2520.72 743.773ZM2329.23 664.526 2302.29 618.45 2355.64 619.914C2357.54 619.966 2359.04 621.547 2358.98 623.445 2358.93 625.342 2357.35 626.839 2355.45 626.786L2308.28 625.492 2311.34 620.321 2335.17 661.055C2336.12 662.694 2335.57 664.799 2333.93 665.758 2332.29 666.716 2330.19 666.164 2329.23 664.526Z"/><path d="M2321.08 630.228 2482.84 813.877 2477.68 818.421 2315.92 634.772ZM2473.55 769.314 2484.94 821.461 2434.64 803.58C2432.86 802.944 2431.92 800.979 2432.56 799.19 2433.19 797.401 2435.16 796.467 2436.95 797.103L2481.41 812.91 2476.9 816.882 2466.83 770.781C2466.43 768.926 2467.6 767.094 2469.46 766.689 2471.31 766.284 2473.14 767.459 2473.55 769.314Z" fill="#000000" fill-opacity="0.501961"/><path d="M2.87551-1.88358 36.3963 49.2899 30.6453 53.057-2.87551 1.88358ZM35.304 19.2012 37.259 56.8802 3.49835 40.0353C1.79959 39.1877 1.10959 37.1234 1.95719 35.4247 2.80479 33.7259 4.86903 33.0359 6.56779 33.8835L35.0555 48.0975 30.0879 51.3515 28.4383 19.5574C28.3399 17.6615 29.7971 16.0448 31.693 15.9464 33.589 15.8481 35.2056 17.3053 35.304 19.2012Z" fill="#0000FF" transform="matrix(-1 0 0 1 2522.75 770.5)"/><path d="M2.9108-1.82857 36.5408 51.7052 30.7192 55.3623-2.9108 1.82857ZM36.0209 21.6013 37.2591 59.3106 3.82483 41.8269C2.14249 40.9471 1.49186 38.8701 2.37161 37.1878 3.25136 35.5054 5.32834 34.8548 7.01068 35.7346L35.2229 50.4876 30.1944 53.6466 29.1496 21.8269C29.0872 19.9294 30.5749 18.3407 32.4724 18.2784 34.3698 18.2161 35.9585 19.7038 36.0209 21.6013Z" transform="matrix(1 0 0 -1 2203.5 1237.8)"/><path d="M2258.58 1194.43C2260.28 1194.43 2261.62 1194.99 2262.61 1196.11 2263.59 1197.23 2264.09 1198.69 2264.09 1200.5 2264.09 1201.86 2263.83 1203.25 2263.32 1204.68L2263.84 1204.88C2266.49 1201.29 2269.04 1198.65 2271.48 1196.98 2273.93 1195.3 2276.41 1194.47 2278.92 1194.47 2280.89 1194.47 2282.54 1194.61 2283.86 1194.91L2281.92 1203.99 2277.74 1203.99C2277.58 1202.85 2277.35 1201.98 2277.06 1201.36 2276.76 1200.73 2276.41 1200.3 2276 1200.06 2275.6 1199.82 2275.08 1199.69 2274.46 1199.69 2273.49 1199.69 2272.43 1200.11 2271.28 1200.95 2270.13 1201.79 2268.84 1203.1 2267.41 1204.88 2265.98 1206.66 2264.84 1208.38 2263.99 1210.03 2263.13 1211.68 2262.43 1213.77 2261.86 1216.31L2258.01 1233.86 2251 1233.86 2256.87 1208.16C2257.25 1206.54 2257.49 1205.29 2257.6 1204.39 2257.71 1203.5 2257.76 1202.76 2257.76 1202.17 2257.76 1201.09 2257.59 1200.3 2257.24 1199.82 2256.89 1199.33 2256.33 1199.09 2255.58 1199.09 2254.74 1199.09 2253.85 1199.43 2252.92 1200.12 2251.99 1200.81 2250.71 1202.06 2249.09 1203.87L2246.78 1201.6C2249.27 1199 2251.35 1197.16 2253.02 1196.07 2254.7 1194.97 2256.55 1194.43 2258.58 1194.43Z" fill-rule="evenodd"/><text fill="#000000" fill-opacity="0" font-family="Arial,Arial_MSFontService,sans-serif" font-size="39.4331" x="2246.78" y="1228.93">­ЮЉЪ</text><path d="M2266.52 1175.42 2271.95 1175.42 2280.66 1188.18 2277.82 1190.49 2269.23 1180.65 2268.79 1180.65 2260.19 1190.49 2257.44 1188.18Z" fill-rule="evenodd"/><text fill="#000000" fill-opacity="0" font-family="Arial,Arial_MSFontService,sans-serif" font-size="15.0762" x="2257.44" y="1188.61">кИ</text><path d="M2632.47 757.273C2634.42 757.273 2635.82 757.78 2636.69 758.793 2637.55 759.806 2637.98 761.164 2637.98 762.866 2637.98 764.163 2637.75 765.649 2637.3 767.324 2636.84 768.999 2636.19 770.769 2635.35 772.633 2634.51 774.497 2633.51 776.409 2632.35 778.368 2631.19 780.326 2629.91 782.231 2628.5 784.082 2627.1 785.933 2625.6 787.675 2624 789.31 2622.41 790.945 2620.75 792.37 2619.04 793.586 2617.32 794.802 2615.58 795.767 2613.81 796.483 2612.04 797.199 2610.28 797.557 2608.52 797.557 2607.74 797.557 2607.08 797.362 2606.56 796.97 2606.03 796.578 2605.6 796.024 2605.28 795.308 2604.95 794.592 2604.72 793.748 2604.59 792.775 2604.45 791.802 2604.39 790.735 2604.39 789.573 2604.39 788.033 2604.48 786.385 2604.67 784.629 2604.86 782.873 2605.1 781.103 2605.4 779.32L2607.1 768.094C2607.21 767.446 2607.3 766.831 2607.37 766.25 2607.43 765.669 2607.47 765.244 2607.47 764.973 2607.47 764.136 2607.33 763.447 2607.06 762.906 2606.79 762.366 2606.33 762.096 2605.68 762.096 2605.17 762.096 2604.62 762.251 2604.02 762.562 2603.43 762.873 2602.83 763.271 2602.22 763.758 2601.61 764.244 2601.02 764.764 2600.46 765.318 2599.89 765.872 2599.36 766.392 2598.88 766.878L2596.93 764.609C2597.77 763.744 2598.66 762.886 2599.6 762.035 2600.55 761.184 2601.55 760.414 2602.6 759.725 2603.66 759.036 2604.77 758.482 2605.93 758.063 2607.09 757.645 2608.28 757.435 2609.49 757.435 2610.52 757.435 2611.36 757.604 2612.01 757.942 2612.65 758.28 2613.16 758.725 2613.53 759.279 2613.89 759.833 2614.14 760.441 2614.28 761.103 2614.41 761.765 2614.48 762.42 2614.48 763.069 2614.48 763.447 2614.46 763.812 2614.44 764.163 2614.41 764.514 2614.37 764.838 2614.32 765.135L2612.05 779.806C2611.8 781.346 2611.6 782.853 2611.44 784.325 2611.28 785.798 2611.2 787.101 2611.2 788.236 2611.2 789.371 2611.26 790.289 2611.4 790.992 2611.53 791.694 2611.79 792.046 2612.17 792.046 2613.06 792.046 2614.18 791.688 2615.53 790.972 2616.88 790.256 2618.3 789.27 2619.79 788.013 2621.27 786.757 2622.76 785.271 2624.25 783.555 2625.73 781.84 2627.07 779.982 2628.26 777.983 2629.45 775.983 2630.41 773.876 2631.16 771.66 2631.9 769.445 2632.27 767.216 2632.27 764.973 2632.27 764.001 2632.06 763.251 2631.64 762.724 2631.22 762.197 2630.57 761.934 2629.68 761.934 2628.54 761.934 2627.49 762.373 2626.54 763.251 2625.58 764.129 2624.58 765.284 2623.56 766.716L2621.25 764.649C2621.89 763.677 2622.66 762.744 2623.54 761.853 2624.41 760.961 2625.35 760.178 2626.33 759.502 2627.32 758.827 2628.34 758.286 2629.39 757.881 2630.45 757.476 2631.47 757.273 2632.47 757.273Z" fill-rule="evenodd"/><text fill="#000000" fill-opacity="0" font-family="Arial,Arial_MSFontService,sans-serif" font-size="40.2842" x="2596.93" y="792.522">­ЮЉБ</text><path d="M2656.18 775.349 2658 775.349C2657.96 776.441 2657.93 777.419 2657.91 778.283 2657.89 779.146 2657.87 779.985 2657.86 780.8 2657.85 781.614 2657.85 782.418 2657.85 783.212L2657.85 805.849C2657.85 806.464 2657.87 806.996 2657.91 807.442 2657.95 807.889 2658.01 808.266 2658.1 808.574 2658.19 808.882 2658.31 809.145 2658.46 809.364 2658.61 809.582 2658.78 809.771 2658.98 809.929 2659.22 810.168 2659.54 810.351 2659.93 810.48 2660.33 810.61 2660.84 810.719 2661.45 810.808 2662.07 810.897 2662.81 810.967 2663.67 811.017 2664.54 811.066 2665.57 811.101 2666.78 811.121L2666.78 813.712 2643.17 813.712 2643.17 811.121C2644.34 811.081 2645.33 811.036 2646.14 810.987 2646.96 810.937 2647.65 810.868 2648.23 810.778 2648.8 810.689 2649.27 810.59 2649.61 810.48 2649.96 810.371 2650.26 810.237 2650.52 810.078 2650.8 809.9 2651.04 809.706 2651.24 809.498 2651.44 809.289 2651.59 809.026 2651.71 808.708 2651.83 808.391 2651.93 808.003 2652 807.547 2652.07 807.09 2652.1 806.524 2652.1 805.849L2652.1 784.493C2652.1 783.719 2651.95 783.172 2651.65 782.855 2651.36 782.537 2650.93 782.378 2650.37 782.378 2649.76 782.378 2648.84 782.696 2647.63 783.331 2646.42 783.967 2644.85 784.91 2642.93 786.161 2642.67 785.704 2642.43 785.247 2642.21 784.791 2641.99 784.334 2641.77 783.867 2641.53 783.391 2643.99 782.041 2646.43 780.695 2648.84 779.355 2651.25 778.015 2653.7 776.679 2656.18 775.349Z" fill-rule="evenodd"/><text fill="#000000" fill-opacity="0" font-family="Arial,Arial_MSFontService,sans-serif" font-size="38.3633" x="2641.53" y="808.917">1</text><path d="M2664.44 731.515 2674.61 740.31 2674.61 742.66 2664.44 751.455 2662.29 749.023 2668.77 743.39 2652.23 743.39 2644.05 743.39 2640.98 743.39 2629.71 743.39 2627.92 743.39 2618.43 743.39 2616.67 743.39 2605.39 743.39 2594.12 743.39 2594.12 739.58 2605.39 739.58 2616.67 739.58 2618.43 739.58 2627.92 739.58 2629.71 739.58 2640.98 739.58 2644.05 739.58 2652.23 739.58 2668.77 739.58 2662.29 733.947Z" fill-rule="evenodd"/><path d="M2410.64 619.16C2412.59 619.16 2413.99 619.667 2414.86 620.68 2415.72 621.693 2416.15 623.051 2416.15 624.753 2416.15 626.05 2415.92 627.536 2415.47 629.211 2415.01 630.886 2414.36 632.656 2413.52 634.52 2412.68 636.385 2411.68 638.296 2410.52 640.255 2409.36 642.214 2408.08 644.118 2406.67 645.969 2405.27 647.82 2403.77 649.563 2402.17 651.197 2400.58 652.832 2398.92 654.257 2397.21 655.473 2395.49 656.689 2393.75 657.655 2391.98 658.371 2390.21 659.087 2388.45 659.445 2386.69 659.445 2385.91 659.445 2385.25 659.249 2384.73 658.857 2384.2 658.465 2383.77 657.911 2383.45 657.195 2383.12 656.479 2382.9 655.635 2382.76 654.662 2382.62 653.69 2382.56 652.622 2382.56 651.461 2382.56 649.921 2382.65 648.273 2382.84 646.516 2383.03 644.76 2383.27 642.99 2383.57 641.207L2385.27 629.981C2385.38 629.333 2385.47 628.718 2385.54 628.137 2385.6 627.556 2385.64 627.131 2385.64 626.861 2385.64 626.023 2385.5 625.334 2385.23 624.794 2384.96 624.253 2384.5 623.983 2383.85 623.983 2383.34 623.983 2382.79 624.138 2382.19 624.449 2381.6 624.76 2381 625.158 2380.39 625.645 2379.78 626.131 2379.19 626.651 2378.63 627.205 2378.06 627.759 2377.53 628.279 2377.05 628.765L2375.1 626.496C2375.94 625.631 2376.83 624.773 2377.78 623.922 2378.72 623.071 2379.72 622.301 2380.77 621.612 2381.83 620.923 2382.94 620.369 2384.1 619.951 2385.26 619.532 2386.45 619.323 2387.66 619.323 2388.69 619.323 2389.53 619.491 2390.18 619.829 2390.82 620.167 2391.33 620.613 2391.7 621.167 2392.06 621.72 2392.31 622.328 2392.45 622.99 2392.58 623.652 2392.65 624.307 2392.65 624.956 2392.65 625.334 2392.64 625.699 2392.61 626.05 2392.58 626.401 2392.54 626.726 2392.49 627.023L2390.22 641.694C2389.97 643.234 2389.77 644.74 2389.61 646.212 2389.45 647.685 2389.37 648.989 2389.37 650.123 2389.37 651.258 2389.43 652.177 2389.57 652.879 2389.7 653.582 2389.96 653.933 2390.34 653.933 2391.23 653.933 2392.35 653.575 2393.7 652.859 2395.05 652.143 2396.47 651.157 2397.96 649.9 2399.44 648.644 2400.93 647.158 2402.42 645.442 2403.9 643.727 2405.24 641.869 2406.43 639.87 2407.62 637.871 2408.58 635.763 2409.33 633.548 2410.07 631.332 2410.44 629.103 2410.44 626.861 2410.44 625.888 2410.23 625.138 2409.81 624.611 2409.39 624.084 2408.74 623.821 2407.85 623.821 2406.71 623.821 2405.66 624.26 2404.71 625.138 2403.75 626.016 2402.75 627.171 2401.73 628.603L2399.42 626.536C2400.07 625.564 2400.83 624.632 2401.71 623.74 2402.58 622.848 2403.52 622.065 2404.5 621.389 2405.49 620.714 2406.51 620.174 2407.56 619.768 2408.62 619.363 2409.64 619.16 2410.64 619.16Z" fill-rule="evenodd"/><text fill="#000000" fill-opacity="0" font-family="Arial,Arial_MSFontService,sans-serif" font-size="40.2842" x="2375.1" y="654.409">­ЮЉБ</text><path d="M2433.93 637.028C2436 637.028 2437.76 637.261 2439.22 637.728 2440.68 638.194 2441.86 638.825 2442.78 639.619 2443.69 640.413 2444.35 641.366 2444.76 642.478 2445.16 643.59 2445.37 644.792 2445.37 646.082 2445.37 646.857 2445.31 647.576 2445.2 648.242 2445.1 648.907 2444.91 649.562 2444.64 650.208 2444.37 650.853 2444.02 651.503 2443.58 652.158 2443.14 652.814 2442.6 653.509 2441.94 654.243 2441.45 654.879 2440.8 655.614 2440.01 656.448 2439.21 657.281 2438.34 658.175 2437.4 659.128 2436.46 660.081 2435.47 661.074 2434.44 662.107 2433.4 663.139 2432.4 664.162 2431.43 665.175 2430.46 666.187 2429.56 667.17 2428.75 668.123 2427.93 669.076 2427.27 669.95 2426.75 670.744L2437.77 670.744C2438.71 670.744 2439.45 670.71 2440.01 670.64 2440.56 670.571 2441.02 670.417 2441.39 670.178 2441.76 669.94 2442.07 669.578 2442.33 669.091 2442.59 668.605 2442.89 667.935 2443.22 667.081L2445.99 667.081C2445.89 668.491 2445.8 669.91 2445.71 671.34 2445.62 672.77 2445.53 674.19 2445.43 675.599L2420.2 675.599 2420.2 674.051C2420.68 672.978 2421.23 671.921 2421.87 670.878 2422.5 669.836 2423.22 668.779 2424.01 667.706 2424.81 666.634 2425.71 665.527 2426.72 664.385 2427.74 663.243 2428.86 662.057 2430.09 660.826 2431.95 658.959 2433.47 657.366 2434.65 656.045 2435.82 654.725 2436.74 653.548 2437.42 652.516 2438.09 651.483 2438.55 650.53 2438.8 649.656 2439.05 648.783 2439.17 647.85 2439.17 646.857 2439.17 645.844 2439.03 644.911 2438.74 644.057 2438.45 643.203 2438.04 642.478 2437.5 641.883 2436.97 641.287 2436.29 640.82 2435.46 640.483 2434.64 640.145 2433.69 639.976 2432.62 639.976 2430.77 639.976 2429.22 640.478 2427.97 641.48 2426.72 642.483 2425.75 643.938 2425.05 645.844L2421.15 645.844 2421.15 640.036C2423.69 638.983 2426.03 638.219 2428.17 637.742 2430.3 637.266 2432.22 637.028 2433.93 637.028Z" fill-rule="evenodd"/><text fill="#000000" fill-opacity="0" font-family="Arial,Arial_MSFontService,sans-serif" font-size="38.5718" x="2420.2" y="670.778">2</text><path d="M2444.49 593.403 2454.66 602.197 2454.66 604.548 2444.49 613.342 2442.34 610.91 2448.82 605.277 2432.28 605.277 2424.1 605.277 2420.39 605.277 2408.5 605.277 2407.97 605.277 2396.6 605.277 2396.07 605.277 2384.18 605.277 2372.29 605.277 2372.29 601.468 2384.18 601.468 2396.07 601.468 2396.6 601.468 2407.97 601.468 2408.5 601.468 2420.39 601.468 2424.1 601.468 2432.28 601.468 2448.82 601.468 2442.34 595.834Z" fill-rule="evenodd"/><path d="M2258.44 770.445 2308.37 770.445 2308.37 775.835 2258.44 775.835Z" fill="#7F7F7F" fill-rule="evenodd"/><text fill="#000000" fill-opacity="0" font-family="Arial,Arial_MSFontService,sans-serif" font-size="5.39014" x="2258.44" y="775.161">Рѕњ</text><path d="M2352.66 757.273C2354.6 757.273 2356.01 757.78 2356.87 758.793 2357.74 759.806 2358.17 761.164 2358.17 762.866 2358.17 764.163 2357.94 765.649 2357.48 767.324 2357.02 768.999 2356.37 770.769 2355.54 772.633 2354.7 774.497 2353.7 776.409 2352.54 778.368 2351.38 780.326 2350.09 782.231 2348.69 784.082 2347.28 785.933 2345.78 787.675 2344.19 789.31 2342.59 790.945 2340.94 792.37 2339.22 793.586 2337.51 794.802 2335.77 795.767 2334 796.483 2332.23 797.199 2330.46 797.557 2328.71 797.557 2327.92 797.557 2327.27 797.362 2326.74 796.97 2326.21 796.578 2325.79 796.024 2325.46 795.308 2325.14 794.592 2324.91 793.748 2324.78 792.775 2324.64 791.802 2324.57 790.735 2324.57 789.573 2324.57 788.033 2324.67 786.385 2324.86 784.629 2325.05 782.873 2325.29 781.103 2325.59 779.32L2327.29 768.094C2327.4 767.446 2327.48 766.831 2327.55 766.25 2327.62 765.669 2327.65 765.244 2327.65 764.973 2327.65 764.136 2327.52 763.447 2327.25 762.906 2326.98 762.366 2326.52 762.096 2325.87 762.096 2325.36 762.096 2324.8 762.251 2324.21 762.562 2323.61 762.873 2323.01 763.271 2322.4 763.758 2321.8 764.244 2321.21 764.764 2320.64 765.318 2320.07 765.872 2319.55 766.392 2319.06 766.878L2317.12 764.609C2317.95 763.744 2318.85 762.886 2319.79 762.035 2320.74 761.184 2321.74 760.414 2322.79 759.725 2323.84 759.036 2324.95 758.482 2326.11 758.063 2327.27 757.645 2328.46 757.435 2329.68 757.435 2330.71 757.435 2331.54 757.604 2332.19 757.942 2332.84 758.28 2333.35 758.725 2333.71 759.279 2334.08 759.833 2334.33 760.441 2334.46 761.103 2334.6 761.765 2334.66 762.42 2334.66 763.069 2334.66 763.447 2334.65 763.812 2334.62 764.163 2334.6 764.514 2334.56 764.838 2334.5 765.135L2332.23 779.806C2331.99 781.346 2331.79 782.853 2331.62 784.325 2331.46 785.798 2331.38 787.101 2331.38 788.236 2331.38 789.371 2331.45 790.289 2331.58 790.992 2331.72 791.694 2331.98 792.046 2332.35 792.046 2333.25 792.046 2334.37 791.688 2335.72 790.972 2337.07 790.256 2338.49 789.27 2339.97 788.013 2341.46 786.757 2342.95 785.271 2344.43 783.555 2345.92 781.84 2347.25 779.982 2348.44 777.983 2349.63 775.983 2350.6 773.876 2351.34 771.66 2352.08 769.445 2352.46 767.216 2352.46 764.973 2352.46 764.001 2352.25 763.251 2351.83 762.724 2351.41 762.197 2350.75 761.934 2349.86 761.934 2348.73 761.934 2347.68 762.373 2346.72 763.251 2345.76 764.129 2344.77 765.284 2343.74 766.716L2341.43 764.649C2342.08 763.677 2342.84 762.744 2343.72 761.853 2344.6 760.961 2345.53 760.178 2346.52 759.502 2347.5 758.827 2348.52 758.286 2349.58 757.881 2350.63 757.476 2351.66 757.273 2352.66 757.273Z" fill="#7F7F7F" fill-rule="evenodd"/><text fill="#000000" fill-opacity="0" font-family="Arial,Arial_MSFontService,sans-serif" font-size="40.2842" x="2317.12" y="792.522">­ЮЉБ</text><path d="M2376.37 775.349 2378.18 775.349C2378.14 776.441 2378.11 777.419 2378.09 778.283 2378.07 779.146 2378.06 779.985 2378.05 780.8 2378.04 781.614 2378.04 782.418 2378.04 783.212L2378.04 805.849C2378.04 806.464 2378.05 806.996 2378.09 807.442 2378.13 807.889 2378.2 808.266 2378.29 808.574 2378.38 808.882 2378.5 809.145 2378.65 809.364 2378.79 809.582 2378.97 809.771 2379.17 809.929 2379.41 810.168 2379.72 810.351 2380.12 810.48 2380.52 810.61 2381.02 810.719 2381.64 810.808 2382.25 810.897 2382.99 810.967 2383.86 811.017 2384.72 811.066 2385.76 811.101 2386.97 811.121L2386.97 813.712 2363.35 813.712 2363.35 811.121C2364.52 811.081 2365.52 811.036 2366.33 810.987 2367.14 810.937 2367.84 810.868 2368.41 810.778 2368.99 810.689 2369.45 810.59 2369.8 810.48 2370.15 810.371 2370.45 810.237 2370.71 810.078 2370.99 809.9 2371.22 809.706 2371.42 809.498 2371.62 809.289 2371.78 809.026 2371.9 808.708 2372.02 808.391 2372.11 808.003 2372.18 807.547 2372.25 807.09 2372.29 806.524 2372.29 805.849L2372.29 784.493C2372.29 783.719 2372.14 783.172 2371.84 782.855 2371.54 782.537 2371.11 782.378 2370.56 782.378 2369.94 782.378 2369.03 782.696 2367.82 783.331 2366.61 783.967 2365.04 784.91 2363.11 786.161 2362.85 785.704 2362.62 785.247 2362.4 784.791 2362.18 784.334 2361.95 783.867 2361.71 783.391 2364.18 782.041 2366.61 780.695 2369.03 779.355 2371.44 778.015 2373.89 776.679 2376.37 775.349Z" fill="#7F7F7F" fill-rule="evenodd"/><text fill="#000000" fill-opacity="0" font-family="Arial,Arial_MSFontService,sans-serif" font-size="38.3633" x="2361.71" y="808.917">1</text><path d="M2384.62 731.515 2394.79 740.31 2394.79 742.66 2384.62 751.455 2382.47 749.023 2388.96 743.39 2372.42 743.39 2364.24 743.39 2361.17 743.39 2349.89 743.39 2348.1 743.39 2338.62 743.39 2336.85 743.39 2325.58 743.39 2314.3 743.39 2314.3 739.58 2325.58 739.58 2336.85 739.58 2338.62 739.58 2348.1 739.58 2349.89 739.58 2361.17 739.58 2364.24 739.58 2372.42 739.58 2388.96 739.58 2382.47 733.947Z" fill="#7F7F7F" fill-rule="evenodd"/><path d="M2511.57 840.451 2496.13 880.979 2524.34 880.979ZM2510.16 831.495 2516.15 831.495 2533.26 884.869 2533.26 887.463 2488.96 887.463 2488.96 884.869Z" fill="#0000FF" fill-rule="evenodd"/><text fill="#000000" fill-opacity="0" font-family="Arial,Arial_MSFontService,sans-serif" font-size="55.9683" x="2488.96" y="880.467">╬ћ</text><path d="M2574.54 847.868C2576.49 847.868 2577.89 848.375 2578.76 849.388 2579.62 850.401 2580.06 851.759 2580.06 853.461 2580.06 854.758 2579.83 856.244 2579.37 857.919 2578.91 859.594 2578.26 861.364 2577.42 863.228 2576.58 865.092 2575.58 867.004 2574.42 868.962 2573.26 870.921 2571.98 872.826 2570.57 874.677 2569.17 876.528 2567.67 878.27 2566.07 879.905 2564.48 881.539 2562.82 882.965 2561.11 884.18 2559.39 885.396 2557.65 886.362 2555.88 887.078 2554.11 887.794 2552.35 888.152 2550.59 888.152 2549.81 888.152 2549.15 887.956 2548.63 887.565 2548.1 887.173 2547.67 886.619 2547.35 885.903 2547.03 885.187 2546.8 884.343 2546.66 883.37 2546.53 882.397 2546.46 881.33 2546.46 880.168 2546.46 878.628 2546.55 876.98 2546.74 875.224 2546.93 873.468 2547.17 871.698 2547.47 869.915L2549.17 858.689C2549.28 858.04 2549.37 857.426 2549.44 856.845 2549.5 856.264 2549.54 855.838 2549.54 855.568 2549.54 854.731 2549.4 854.042 2549.13 853.501 2548.86 852.961 2548.4 852.691 2547.75 852.691 2547.24 852.691 2546.69 852.846 2546.09 853.157 2545.5 853.468 2544.9 853.866 2544.29 854.352 2543.68 854.839 2543.09 855.359 2542.53 855.913 2541.96 856.467 2541.43 856.987 2540.95 857.473L2539 855.203C2539.84 854.339 2540.73 853.481 2541.68 852.63 2542.62 851.779 2543.62 851.009 2544.67 850.32 2545.73 849.631 2546.84 849.077 2548 848.658 2549.16 848.24 2550.35 848.03 2551.56 848.03 2552.59 848.03 2553.43 848.199 2554.08 848.537 2554.73 848.874 2555.23 849.32 2555.6 849.874 2555.96 850.428 2556.21 851.036 2556.35 851.698 2556.48 852.36 2556.55 853.015 2556.55 853.663 2556.55 854.042 2556.54 854.406 2556.51 854.758 2556.48 855.109 2556.44 855.433 2556.39 855.73L2554.12 870.401C2553.87 871.941 2553.67 873.448 2553.51 874.92 2553.35 876.392 2553.27 877.696 2553.27 878.831 2553.27 879.966 2553.33 880.884 2553.47 881.587 2553.6 882.289 2553.86 882.64 2554.24 882.64 2555.13 882.64 2556.25 882.282 2557.6 881.566 2558.95 880.85 2560.37 879.864 2561.86 878.608 2563.34 877.352 2564.83 875.866 2566.32 874.15 2567.8 872.434 2569.14 870.577 2570.33 868.577 2571.52 866.578 2572.48 864.471 2573.23 862.255 2573.97 860.04 2574.34 857.811 2574.34 855.568 2574.34 854.596 2574.13 853.846 2573.71 853.319 2573.29 852.792 2572.64 852.529 2571.75 852.529 2570.61 852.529 2569.57 852.968 2568.61 853.846 2567.65 854.724 2566.65 855.879 2565.63 857.311L2563.32 855.244C2563.97 854.271 2564.73 853.339 2565.61 852.448 2566.49 851.556 2567.42 850.772 2568.4 850.097 2569.39 849.422 2570.41 848.881 2571.46 848.476 2572.52 848.071 2573.54 847.868 2574.54 847.868Z" fill="#0000FF" fill-rule="evenodd"/><text fill="#000000" fill-opacity="0" font-family="Arial,Arial_MSFontService,sans-serif" font-size="40.2842" x="2539" y="883.117">­ЮЉБ</text><path d="M2570.55 822.11 2580.72 830.905 2580.72 833.255 2570.55 842.05 2568.4 839.618 2574.89 833.985 2550.17 833.985 2550.17 830.175 2574.89 830.175 2568.4 824.542Z" fill="#0000FF" fill-rule="evenodd"/><text fill="#000000" fill-opacity="0" font-family="Arial,Arial_MSFontService,sans-serif" font-size="19.9395" x="2550.17" y="839.557">нд</text></g></svg>