<svg width="1715" height="1127" xmlns="http://www.w3.org/2000/svg" xmlns:xlink="http://www.w3.org/1999/xlink" xml:space="preserve" overflow="hidden"><g transform="translate(-550 -430)"><path d="M3.4375-1.45147e-06 3.43786 847.62-3.43714 847.62-3.4375 1.45147e-06ZM25.9219 808.038 0.000360074 854.697-25.9212 808.038C-26.8432 806.379-26.2453 804.286-24.5857 803.364-22.9262 802.442-20.8334 803.04-19.9114 804.699L3.00527 845.949-3.00456 845.949 19.9121 804.699C20.8341 803.04 22.9268 802.442 24.5864 803.364 26.246 804.286 26.8439 806.379 25.9219 808.038Z" transform="matrix(1 0 0 -1 618.5 1399.2)"/><path d="M618.5 1396.06 2193.81 1396.06 2193.81 1402.94 618.5 1402.94ZM2154.24 1373.58 2200.89 1399.5 2154.24 1425.42C2152.58 1426.34 2150.48 1425.75 2149.56 1424.09 2148.64 1422.43 2149.24 1420.33 2150.9 1419.41L2192.15 1396.5 2192.15 1402.51 2150.9 1379.59C2149.24 1378.67 2148.64 1376.57 2149.56 1374.91 2150.48 1373.25 2152.58 1372.66 2154.24 1373.58Z"/><path d="M3.75904-2.62232 223.374 312.191 215.856 317.435-3.75904 2.62232ZM219.369 267.404 225.015 322.554 175.207 298.212C172.933 297.1 171.99 294.356 173.102 292.081 174.213 289.807 176.958 288.865 179.232 289.976L221.628 310.696 215.056 315.28 210.25 268.337C209.993 265.819 211.825 263.569 214.343 263.311 216.861 263.053 219.112 264.886 219.369 267.404Z" fill="#0000FF" transform="matrix(1 0 0 -1 618.5 1399.06)"/><path d="M618.5 1395.55C864.601 1034.2 1110.7 672.843 1357.37 673.501 1604.04 674.158 1851.27 1036.83 2098.5 1399.5" stroke="#042433" stroke-width="6.875" stroke-miterlimit="8" stroke-dasharray="27.5 20.625" stroke-opacity="0.258824" fill="none" fill-rule="evenodd"/><path d="M553.5 1334.5C553.5 1298.6 582.601 1269.5 618.5 1269.5 654.398 1269.5 683.5 1298.6 683.5 1334.5 683.5 1370.4 654.398 1399.5 618.5 1399.5 582.601 1399.5 553.5 1370.4 553.5 1334.5Z" stroke="#000000" stroke-width="6.875" stroke-miterlimit="8" fill="#7F7F7F" fill-rule="evenodd"/><path d="M785.559 992.458C788.138 992.458 790 993.13 791.145 994.473 792.291 995.815 792.864 997.615 792.864 999.871 792.864 1001.59 792.56 1003.56 791.951 1005.78 791.342 1008 790.483 1010.34 789.373 1012.81 788.263 1015.29 786.938 1017.82 785.398 1020.42 783.859 1023.01 782.158 1025.54 780.296 1027.99 778.434 1030.44 776.446 1032.75 774.334 1034.92 772.221 1037.08 770.028 1038.97 767.754 1040.58 765.48 1042.19 763.171 1043.47 760.826 1044.42 758.48 1045.37 756.144 1045.85 753.816 1045.85 752.778 1045.85 751.909 1045.59 751.211 1045.07 750.513 1044.55 749.949 1043.82 749.519 1042.87 749.09 1041.92 748.785 1040.8 748.606 1039.51 748.427 1038.22 748.338 1036.81 748.338 1035.27 748.338 1033.23 748.463 1031.04 748.714 1028.71 748.964 1026.39 749.287 1024.04 749.68 1021.68L751.936 1006.8C752.08 1005.94 752.196 1005.13 752.285 1004.36 752.375 1003.59 752.42 1003.02 752.42 1002.66 752.42 1001.55 752.241 1000.64 751.883 999.924 751.525 999.208 750.916 998.85 750.056 998.85 749.376 998.85 748.642 999.056 747.854 999.468 747.067 999.88 746.27 1000.41 745.464 1001.05 744.659 1001.7 743.88 1002.39 743.128 1003.12 742.376 1003.85 741.678 1004.54 741.033 1005.19L738.455 1002.18C739.565 1001.03 740.747 999.897 742 998.77 743.253 997.642 744.578 996.621 745.974 995.708 747.371 994.795 748.839 994.061 750.379 993.506 751.918 992.951 753.494 992.673 755.105 992.673 756.466 992.673 757.576 992.897 758.435 993.345 759.295 993.792 759.966 994.383 760.45 995.117 760.933 995.851 761.264 996.657 761.443 997.534 761.622 998.411 761.712 999.28 761.712 1000.14 761.712 1000.64 761.694 1001.12 761.658 1001.59 761.622 1002.05 761.568 1002.48 761.497 1002.88L758.489 1022.32C758.167 1024.36 757.898 1026.36 757.683 1028.31 757.469 1030.26 757.361 1031.99 757.361 1033.49 757.361 1035 757.451 1036.21 757.63 1037.15 757.809 1038.08 758.149 1038.54 758.65 1038.54 759.832 1038.54 761.318 1038.07 763.108 1037.12 764.899 1036.17 766.778 1034.86 768.748 1033.2 770.717 1031.53 772.687 1029.56 774.656 1027.29 776.625 1025.02 778.398 1022.55 779.973 1019.9 781.549 1017.26 782.829 1014.46 783.814 1011.53 784.798 1008.59 785.291 1005.64 785.291 1002.66 785.291 1001.37 785.013 1000.38 784.458 999.683 783.903 998.984 783.035 998.635 781.853 998.635 780.349 998.635 778.962 999.217 777.691 1000.38 776.42 1001.54 775.104 1003.08 773.743 1004.97L770.681 1002.23C771.541 1000.94 772.552 999.709 773.716 998.528 774.88 997.346 776.115 996.308 777.422 995.413 778.729 994.517 780.081 993.801 781.477 993.264 782.874 992.727 784.234 992.458 785.559 992.458Z" fill="#0000FF" fill-rule="evenodd"/><text fill="#000000" fill-opacity="0" font-family="Arial,Arial_MSFontService,sans-serif" font-size="53.3887" x="738.455" y="1039.17">­ЮЉБ</text><path d="M780.412 958.306 793.893 969.962 793.893 973.077 780.412 984.732 777.565 981.509 786.159 974.044 753.395 974.044 753.395 968.995 786.159 968.995 777.565 961.529Z" fill="#0000FF" fill-rule="evenodd"/><text fill="#000000" fill-opacity="0" font-family="Arial,Arial_MSFontService,sans-serif" font-size="26.4258" x="753.395" y="981.429">нд</text><path d="M816.365 1020.6C814.542 1020.6 813.019 1021.07 811.795 1022.02 810.571 1022.97 809.601 1024.37 808.885 1026.2 808.169 1028.04 807.661 1030.28 807.362 1032.92 807.062 1035.56 806.912 1038.56 806.912 1041.92 806.912 1045.8 807.101 1049.16 807.479 1051.98 807.856 1054.81 808.442 1057.13 809.237 1058.95 810.031 1060.78 811.027 1062.12 812.225 1062.98 813.423 1063.84 814.855 1064.27 816.522 1064.27 818.084 1064.27 819.451 1063.86 820.623 1063.06 821.795 1062.25 822.765 1060.99 823.533 1059.29 824.302 1057.58 824.881 1055.42 825.272 1052.8 825.662 1050.19 825.858 1047.09 825.858 1043.53 825.858 1039.51 825.643 1036.06 825.213 1033.17 824.783 1030.28 824.178 1027.91 823.397 1026.04 822.615 1024.18 821.632 1022.81 820.447 1021.92 819.263 1021.04 817.902 1020.6 816.365 1020.6ZM816.522 1016.81C819.621 1016.81 822.27 1017.39 824.471 1018.54 826.671 1019.7 828.468 1021.36 829.862 1023.51 831.255 1025.65 832.277 1028.28 832.928 1031.38 833.579 1034.48 833.904 1037.98 833.904 1041.88 833.904 1050.56 832.368 1057.11 829.295 1061.55 826.222 1065.99 821.769 1068.21 815.936 1068.21 810.154 1068.21 805.858 1066.12 803.045 1061.92 800.233 1057.73 798.826 1051.38 798.826 1042.86 798.826 1038.41 799.263 1034.55 800.135 1031.3 801.007 1028.04 802.231 1025.34 803.807 1023.19 805.382 1021.04 807.251 1019.44 809.412 1018.39 811.574 1017.33 813.944 1016.81 816.522 1016.81Z" fill="#0000FF" fill-rule="evenodd"/><text fill="#000000" fill-opacity="0" font-family="Arial,Arial_MSFontService,sans-serif" font-size="51.4062" x="798.826" y="1061.79">0</text><path d="M718.488 1336.11C716.805 1343.88 715.964 1350.41 715.964 1355.71 715.964 1359.72 716.572 1362.67 717.79 1364.55 719.007 1366.43 720.977 1367.37 723.698 1367.37 727.708 1367.37 731.513 1364.67 735.112 1359.28 738.71 1353.9 741.763 1346.17 744.269 1336.11ZM740.51 1299.91C736.32 1299.91 732.444 1302.56 728.881 1307.86 725.318 1313.16 722.284 1320.75 719.777 1330.63L745.505 1330.63C747.188 1323.07 748.029 1316.58 748.029 1311.13 748.029 1307.37 747.42 1304.56 746.203 1302.7 744.985 1300.84 743.088 1299.91 740.51 1299.91ZM741.154 1295.56C751.538 1295.56 756.73 1302.15 756.73 1315.32 756.73 1319.05 756.31 1323.5 755.468 1328.67 754.627 1333.84 753.293 1339.12 751.467 1344.49 749.64 1349.86 747.331 1354.61 744.538 1358.75 741.745 1362.88 738.522 1366.08 734.87 1368.33 731.218 1370.59 727.279 1371.72 723.053 1371.72 717.718 1371.72 713.744 1370.09 711.13 1366.83 708.516 1363.57 707.209 1358.68 707.209 1352.17 707.209 1348.62 707.603 1344.25 708.39 1339.06 709.178 1333.87 710.476 1328.56 712.284 1323.14 714.093 1317.71 716.42 1312.9 719.267 1308.69 722.114 1304.48 725.39 1301.24 729.096 1298.97 732.802 1296.69 736.821 1295.56 741.154 1295.56Z" fill="#0000FF" fill-rule="evenodd"/><text fill="#000000" fill-opacity="0" font-family="Arial,Arial_MSFontService,sans-serif" font-size="76.1621" x="707.209" y="1362.2">­ЮюЃ</text><path d="M748.889 1210C808.464 1255.53 843.5 1326.82 843.5 1402.5" stroke="#000000" stroke-width="6.875" stroke-miterlimit="8" fill="none" fill-rule="evenodd"/><path d="M1951.08 724.5 1951.08 933.936 1941.92 933.936 1941.92 724.5ZM1973.42 894.912 1946.5 943.374 1919.58 894.912C1918.35 892.699 1919.15 889.909 1921.36 888.68 1923.57 887.45 1926.36 888.247 1927.59 890.46L1950.51 931.71 1942.49 931.71 1965.41 890.46C1966.64 888.247 1969.43 887.45 1971.64 888.679 1973.86 889.909 1974.65 892.699 1973.42 894.912Z" fill="#0000FF"/><path d="M2028.47 820.833C2024.82 820.833 2021.55 822.31 2018.65 825.264 2015.75 828.218 2013.46 832.202 2011.8 837.215 2010.13 842.228 2009.3 847.223 2009.3 852.2 2009.3 855.924 2009.84 858.708 2010.91 860.552 2011.99 862.396 2013.67 863.318 2015.96 863.318 2017.79 863.318 2019.6 862.692 2021.41 861.439 2023.22 860.185 2025.15 858.198 2027.21 855.477 2029.27 852.755 2030.87 850.159 2032.02 847.689 2033.17 845.218 2034.14 842.138 2034.95 838.45 2035.75 834.762 2036.16 831.557 2036.16 828.836 2036.16 826.043 2035.56 824.011 2034.38 822.74 2033.2 821.469 2031.23 820.833 2028.47 820.833ZM2027.62 816.59C2029.87 816.59 2032 816.859 2034.01 817.396 2036.01 817.933 2038.04 818.846 2040.08 820.135L2045.02 816.59 2048.46 817.449 2042.92 842.479C2042.53 844.233 2041.63 848.655 2040.24 855.745 2038.77 863.265 2037.58 868.582 2036.67 871.697 2035.75 874.813 2034.62 877.65 2033.26 880.211 2031.89 882.771 2030.14 885 2027.99 886.898 2025.84 888.795 2023.24 890.263 2020.18 891.302 2017.11 892.34 2013.49 892.859 2009.3 892.859 1995.76 892.859 1989 888.921 1989 881.043 1989 879.038 1989.61 877.212 1990.82 875.565 1992.04 873.917 1993.99 872.181 1996.68 870.355L2000.55 873.47C1999.86 874.293 1999.29 875.108 1998.83 875.914 1998.36 876.719 1998.03 877.498 1997.83 878.25 1997.64 879.002 1997.54 879.897 1997.54 880.936 1997.54 883.621 1998.5 885.582 2000.44 886.817 2002.37 888.052 2005.29 888.67 2009.19 888.67 2013.6 888.67 2017.13 887.676 2019.8 885.689 2022.47 883.702 2024.75 880.506 2026.65 876.102 2028.55 871.697 2030.39 865.037 2032.18 856.121L2031.43 855.96C2027.96 860.722 2024.73 864.196 2021.76 866.38 2018.79 868.564 2015.58 869.656 2012.15 869.656 2008.24 869.656 2005.21 868.188 2003.04 865.252 2000.88 862.316 1999.79 858.126 1999.79 852.684 1999.79 846.561 2000.99 840.679 2003.39 835.04 2005.79 829.4 2009.12 824.915 2013.38 821.585 2017.64 818.255 2022.39 816.59 2027.62 816.59Z" fill="#0000FF" fill-rule="evenodd"/><text fill="#000000" fill-opacity="0" font-family="Arial,Arial_MSFontService,sans-serif" font-size="76.2695" x="1989" y="883.326">­ЮЉћ</text><path d="M2040.18 782.269 2053.67 793.924 2053.67 797.039 2040.18 808.694 2037.34 805.472 2045.93 798.006 2013.17 798.006 2013.17 792.957 2045.93 792.957 2037.34 785.491Z" fill="#0000FF" fill-rule="evenodd"/><text fill="#000000" fill-opacity="0" font-family="Arial,Arial_MSFontService,sans-serif" font-size="26.4258" x="2013.17" y="805.391">нд</text><path d="M2221.7 1377.94C2222.63 1377.94 2223.44 1378.05 2224.15 1378.26 2224.85 1378.47 2225.47 1378.79 2226.01 1379.22 2226.55 1379.66 2227.03 1380.22 2227.45 1380.91 2227.87 1381.6 2228.27 1382.53 2228.66 1383.72 2229.05 1384.9 2229.42 1386.37 2229.76 1388.12 2230.11 1389.87 2230.42 1391.69 2230.68 1393.58L2231.13 1393.58C2234.01 1389.53 2236.19 1386.58 2237.67 1384.7 2239.15 1382.83 2240.4 1381.44 2241.42 1380.53 2242.44 1379.61 2243.42 1378.97 2244.36 1378.59 2245.31 1378.22 2246.56 1378.03 2248.11 1378.03 2249.52 1378.03 2250.67 1378.21 2251.57 1378.57L2249.78 1386.7 2246.63 1386.7C2246.45 1385.44 2245.93 1384.82 2245.06 1384.82 2244.79 1384.82 2244.51 1384.86 2244.21 1384.95 2243.91 1385.04 2243.54 1385.24 2243.11 1385.53 2242.67 1385.83 2242.03 1386.42 2241.2 1387.29 2240.36 1388.16 2239.41 1389.22 2238.37 1390.48 2237.32 1391.73 2236.24 1393.05 2235.13 1394.43L2232.08 1398.25C2232.62 1401.12 2233.13 1403.61 2233.6 1405.7 2234.08 1407.8 2234.51 1409.55 2234.88 1410.94 2235.26 1412.33 2235.59 1413.43 2235.87 1414.24 2236.16 1415.05 2236.46 1415.65 2236.79 1416.06 2237.12 1416.46 2237.46 1416.75 2237.8 1416.91 2238.15 1417.08 2238.55 1417.16 2239 1417.16 2239.8 1417.16 2240.59 1416.85 2241.35 1416.22 2242.12 1415.59 2243.22 1414.17 2244.66 1411.95L2247.58 1413.88C2245.48 1417 2243.58 1419.19 2241.89 1420.46 2240.2 1421.73 2238.19 1422.37 2235.85 1422.37 2234.56 1422.37 2233.47 1422.14 2232.57 1421.67 2231.67 1421.21 2230.89 1420.47 2230.24 1419.45 2229.58 1418.43 2228.99 1416.85 2228.48 1414.69 2227.55 1410.86 2226.99 1407.92 2226.78 1405.88L2226.33 1405.88C2223.15 1410.35 2220.79 1413.55 2219.25 1415.5 2217.71 1417.44 2216.44 1418.88 2215.43 1419.81 2214.43 1420.74 2213.46 1421.39 2212.51 1421.76 2211.57 1422.14 2210.32 1422.33 2208.76 1422.33 2207.36 1422.33 2206.2 1422.15 2205.3 1421.79L2207.1 1413.66 2210.25 1413.66C2210.42 1414.91 2210.95 1415.54 2211.82 1415.54 2212.24 1415.54 2212.68 1415.43 2213.14 1415.21 2213.61 1414.98 2214.27 1414.44 2215.14 1413.59 2216.01 1412.73 2217.21 1411.39 2218.74 1409.57 2220.26 1407.74 2222.48 1405 2225.38 1401.35 2224.93 1398.98 2224.47 1396.71 2223.99 1394.52 2223.51 1392.33 2223.02 1390.3 2222.51 1388.41 2222 1386.52 2221.58 1385.29 2221.25 1384.7 2220.92 1384.12 2220.57 1383.72 2220.2 1383.49 2219.82 1383.27 2219.35 1383.15 2218.78 1383.15 2218.15 1383.15 2217.58 1383.3 2217.07 1383.58 2216.56 1383.87 2216.01 1384.36 2215.41 1385.06 2214.81 1385.77 2214.02 1386.87 2213.03 1388.36L2210.11 1386.43C2212 1383.59 2213.81 1381.46 2215.55 1380.05 2217.28 1378.65 2219.33 1377.94 2221.7 1377.94Z" fill-rule="evenodd"/><text fill="#000000" fill-opacity="0" font-family="Arial,Arial_MSFontService,sans-serif" font-size="44.4277" x="2205.3" y="1416.82">­ЮЉЦ</text><path d="M605.594 471.044C606.822 471.044 607.87 471.209 608.739 471.539 609.338 471.778 609.937 472.175 610.536 472.729 611.135 473.283 611.666 474.054 612.13 475.042 612.594 476.031 612.999 477.139 613.343 478.367 613.688 479.595 614.069 481.362 614.489 483.667 615.207 487.531 615.904 491.596 616.578 495.864 617.251 500.131 617.828 504.092 618.307 507.746 621.212 503.553 623.675 499.45 625.697 495.437 627.718 491.424 629.171 487.935 630.054 484.97 630.938 482.005 631.379 479.595 631.379 477.738 631.379 476.33 631.08 475.372 630.481 474.863 629.882 474.354 628.864 474.054 627.426 473.964L627.875 471.763 639.69 471.763 640.903 474.009C638.627 480.238 635.542 486.902 631.649 494 627.816 500.947 623.428 507.865 618.487 514.753 613.755 521.312 609.817 526.059 606.672 528.994 604.486 531 602.375 532.438 600.338 533.306 598.721 533.965 596.999 534.294 595.172 534.294 594.543 534.294 593.817 534.242 592.994 534.137 592.17 534.032 591.534 533.89 591.084 533.71L593.016 524.996 596.565 524.996C596.565 526.912 597.224 527.871 598.541 527.871 600.278 527.871 602.3 526.785 604.606 524.614 606.912 522.443 609.622 519.171 612.737 514.798 611.868 509.557 610.685 503.238 609.188 495.841 607.601 487.935 606.552 483.039 606.043 481.152 605.414 478.876 604.756 477.423 604.067 476.794 603.648 476.405 603.123 476.21 602.495 476.21 601.536 476.21 600.638 476.6 599.799 477.378 598.961 478.157 597.927 479.505 596.7 481.421L593.78 479.49C595.846 476.405 597.778 474.226 599.575 472.954 601.372 471.681 603.378 471.044 605.594 471.044Z" fill-rule="evenodd"/><text fill="#000000" fill-opacity="0" font-family="Arial,Arial_MSFontService,sans-serif" font-size="63.25" x="591.084" y="526.388">­ЮЉд</text><path d="M2105.87 1417.44C2104.44 1417.44 2102.92 1417.49 2101.33 1417.6L2096.14 1441.07 2100.92 1441.07C2104.84 1441.07 2107.94 1440.54 2110.21 1439.48 2112.48 1438.43 2114.27 1436.7 2115.6 1434.3 2116.92 1431.89 2117.58 1429.3 2117.58 1426.52 2117.58 1425.35 2117.47 1424.32 2117.26 1423.42 2117.04 1422.51 2116.76 1421.76 2116.41 1421.17 2116.05 1420.57 2115.61 1420.05 2115.07 1419.59 2114.53 1419.13 2113.85 1418.73 2113.04 1418.39 2112.23 1418.05 2111.29 1417.81 2110.23 1417.66 2109.16 1417.51 2107.71 1417.44 2105.87 1417.44ZM2089.62 1413.87 2107.65 1413.87C2110.52 1413.87 2112.85 1414.04 2114.66 1414.38 2116.47 1414.72 2118.02 1415.22 2119.3 1415.9 2120.59 1416.57 2121.66 1417.44 2122.53 1418.51 2123.39 1419.58 2124.04 1420.78 2124.47 1422.12 2124.9 1423.46 2125.12 1424.88 2125.12 1426.39 2125.12 1430.56 2123.85 1434.09 2121.31 1437.01 2118.77 1439.93 2115.03 1442.15 2110.08 1443.66L2110.08 1444.1C2111.38 1445.08 2112.43 1446.24 2113.22 1447.59 2114.02 1448.94 2114.66 1450.82 2115.15 1453.22L2116.08 1457.92C2116.38 1459.41 2116.72 1460.75 2117.1 1461.94 2117.47 1463.13 2117.93 1464.07 2118.45 1464.77 2118.98 1465.48 2119.57 1466 2120.24 1466.35 2120.9 1466.71 2121.86 1466.99 2123.13 1467.21L2122.73 1469.19 2111.5 1469.19C2110.64 1466.79 2109.87 1463.92 2109.19 1460.6L2107.41 1452.01C2107.11 1450.52 2106.75 1449.27 2106.34 1448.26 2105.92 1447.25 2105.42 1446.46 2104.84 1445.91 2104.25 1445.35 2103.58 1444.99 2102.81 1444.81 2102.04 1444.64 2101.1 1444.55 2099.99 1444.55L2095.37 1444.55 2092.54 1457.4C2092.29 1458.45 2092.12 1459.29 2092.03 1459.91 2091.93 1460.53 2091.85 1461.19 2091.79 1461.88 2091.72 1462.57 2091.68 1463.18 2091.68 1463.72 2091.68 1464.56 2091.82 1465.21 2092.09 1465.69 2092.36 1466.16 2092.77 1466.5 2093.31 1466.72 2093.85 1466.94 2094.78 1467.1 2096.1 1467.21L2095.66 1469.19 2079 1469.19 2079.45 1467.21C2080.47 1467.04 2081.24 1466.78 2081.76 1466.42 2082.27 1466.05 2082.7 1465.54 2083.05 1464.9 2083.4 1464.25 2083.73 1463.46 2084.02 1462.52 2084.32 1461.59 2084.77 1459.79 2085.36 1457.11L2092.25 1425.91C2092.85 1423.21 2093.14 1421.07 2093.14 1419.5 2093.14 1418.18 2092.83 1417.26 2092.21 1416.75 2091.59 1416.24 2090.58 1415.94 2089.17 1415.86Z" fill-rule="evenodd"/><text fill="#000000" fill-opacity="0" font-family="Arial,Arial_MSFontService,sans-serif" font-size="55.3198" x="2079" y="1462.28">­ЮЉЁ</text><path d="M4.58333-5.12805e-06 4.58368 313.116-4.58298 313.116-4.58333 5.12805e-06ZM26.9235 274.091 0.000360625 322.553-26.9229 274.092C-28.1522 271.879-27.355 269.088-25.1422 267.859-22.9295 266.63-20.1391 267.427-18.9098 269.64L4.0069 310.89-4.00621 310.89 18.9104 269.64C20.1397 267.427 22.9301 266.63 25.1428 267.859 27.3556 269.088 28.1528 271.879 26.9235 274.091Z" fill="#0000FF" fill-opacity="0.501961" transform="matrix(1 0 0 -1 879.5 1403.06)"/><path d="M7.35094e-06-4.58333 215.576-4.58299 215.576 4.58368-7.35094e-06 4.58333ZM176.552-26.9229 225.013 0.000361676 176.552 26.9235C174.339 28.1528 171.549 27.3556 170.319 25.1428 169.09 22.93 169.887 20.1397 172.1 18.9104L213.35-4.00621 213.35 4.0069 172.1-18.9098C169.887-20.1392 169.09-22.9295 170.319-25.1423 171.549-27.355 174.339-28.1523 176.552-26.9229Z" fill="#0000FF" fill-opacity="0.501961" transform="matrix(1 0 0 -1 654.5 1425.5)"/><path d="M737.471 1473.55C740.049 1473.55 741.911 1474.22 743.057 1475.57 744.203 1476.91 744.776 1478.71 744.776 1480.96 744.776 1482.68 744.471 1484.65 743.863 1486.87 743.254 1489.09 742.395 1491.44 741.284 1493.91 740.174 1496.38 738.85 1498.91 737.31 1501.51 735.77 1504.1 734.069 1506.63 732.207 1509.08 730.345 1511.53 728.358 1513.84 726.245 1516.01 724.133 1518.18 721.94 1520.07 719.666 1521.68 717.392 1523.29 715.083 1524.57 712.737 1525.52 710.392 1526.47 708.055 1526.94 705.728 1526.94 704.689 1526.94 703.821 1526.68 703.123 1526.16 702.425 1525.64 701.861 1524.91 701.431 1523.96 701.001 1523.01 700.697 1521.89 700.518 1520.6 700.339 1519.31 700.249 1517.9 700.249 1516.36 700.249 1514.32 700.375 1512.13 700.625 1509.81 700.876 1507.48 701.198 1505.13 701.592 1502.77L703.848 1487.89C703.991 1487.03 704.108 1486.22 704.197 1485.45 704.287 1484.68 704.331 1484.11 704.331 1483.76 704.331 1482.65 704.152 1481.73 703.794 1481.02 703.436 1480.3 702.827 1479.94 701.968 1479.94 701.288 1479.94 700.554 1480.15 699.766 1480.56 698.978 1480.97 698.181 1481.5 697.376 1482.15 696.57 1482.79 695.791 1483.48 695.039 1484.21 694.287 1484.95 693.589 1485.64 692.945 1486.28L690.367 1483.27C691.477 1482.13 692.658 1480.99 693.911 1479.86 695.165 1478.73 696.49 1477.71 697.886 1476.8 699.283 1475.89 700.751 1475.15 702.29 1474.6 703.83 1474.04 705.406 1473.77 707.017 1473.77 708.378 1473.77 709.488 1473.99 710.347 1474.44 711.206 1474.89 711.878 1475.48 712.361 1476.21 712.845 1476.94 713.176 1477.75 713.355 1478.63 713.534 1479.5 713.623 1480.37 713.623 1481.23 713.623 1481.73 713.605 1482.22 713.57 1482.68 713.534 1483.15 713.48 1483.58 713.409 1483.97L710.401 1503.42C710.078 1505.46 709.81 1507.45 709.595 1509.4 709.38 1511.36 709.273 1513.08 709.273 1514.59 709.273 1516.09 709.362 1517.31 709.541 1518.24 709.72 1519.17 710.061 1519.64 710.562 1519.64 711.743 1519.64 713.229 1519.16 715.02 1518.21 716.81 1517.26 718.69 1515.96 720.659 1514.29 722.629 1512.63 724.598 1510.66 726.568 1508.38 728.537 1506.11 730.31 1503.65 731.885 1501 733.461 1498.35 734.741 1495.56 735.725 1492.62 736.71 1489.68 737.202 1486.73 737.202 1483.76 737.202 1482.47 736.925 1481.47 736.37 1480.78 735.815 1480.08 734.947 1479.73 733.765 1479.73 732.261 1479.73 730.874 1480.31 729.602 1481.47 728.331 1482.64 727.015 1484.17 725.655 1486.07L722.593 1483.33C723.452 1482.04 724.464 1480.8 725.628 1479.62 726.792 1478.44 728.027 1477.4 729.334 1476.51 730.641 1475.61 731.992 1474.89 733.389 1474.36 734.785 1473.82 736.146 1473.55 737.471 1473.55Z" fill="#7F7FFF" fill-rule="evenodd"/><text fill="#000000" fill-opacity="0" font-family="Arial,Arial_MSFontService,sans-serif" font-size="53.3887" x="690.367" y="1520.27">­ЮЉБ</text><path d="M732.323 1439.4 745.805 1451.05 745.805 1454.17 732.323 1465.83 729.477 1462.6 738.07 1455.14 705.307 1455.14 705.307 1450.09 738.07 1450.09 729.477 1442.62Z" fill="#7F7FFF" fill-rule="evenodd"/><text fill="#000000" fill-opacity="0" font-family="Arial,Arial_MSFontService,sans-serif" font-size="26.4258" x="705.307" y="1462.52">нд</text><path d="M768.277 1501.69C766.454 1501.69 764.931 1502.16 763.707 1503.11 762.483 1504.07 761.513 1505.46 760.797 1507.29 760.08 1509.13 759.573 1511.37 759.273 1514.01 758.974 1516.66 758.824 1519.66 758.824 1523.02 758.824 1526.9 759.013 1530.25 759.39 1533.08 759.768 1535.9 760.354 1538.23 761.148 1540.05 761.942 1541.87 762.938 1543.21 764.136 1544.07 765.334 1544.93 766.767 1545.36 768.433 1545.36 769.996 1545.36 771.363 1544.96 772.535 1544.15 773.707 1543.34 774.677 1542.09 775.445 1540.38 776.213 1538.67 776.793 1536.51 777.183 1533.9 777.574 1531.28 777.769 1528.19 777.769 1524.62 777.769 1520.61 777.554 1517.16 777.125 1514.27 776.695 1511.38 776.09 1509 775.308 1507.14 774.527 1505.28 773.544 1503.9 772.359 1503.02 771.174 1502.13 769.813 1501.69 768.277 1501.69ZM768.433 1497.9C771.532 1497.9 774.182 1498.48 776.383 1499.64 778.583 1500.8 780.38 1502.45 781.773 1504.6 783.166 1506.75 784.188 1509.37 784.84 1512.47 785.491 1515.57 785.816 1519.07 785.816 1522.98 785.816 1531.65 784.28 1538.21 781.207 1542.65 778.134 1547.09 773.681 1549.31 767.847 1549.31 762.066 1549.31 757.769 1547.21 754.957 1543.02 752.144 1538.82 750.738 1532.47 750.738 1523.95 750.738 1519.5 751.174 1515.65 752.047 1512.39 752.919 1509.14 754.143 1506.43 755.718 1504.29 757.294 1502.14 759.162 1500.54 761.324 1499.48 763.485 1498.43 765.855 1497.9 768.433 1497.9Z" fill="#7F7FFF" fill-rule="evenodd"/><text fill="#000000" fill-opacity="0" font-family="Arial,Arial_MSFontService,sans-serif" font-size="51.4062" x="750.738" y="1542.88">0</text><path d="M808.863 1508.6C810.295 1508.6 811.467 1508.92 812.379 1509.54 813.29 1510.17 814.045 1511.08 814.644 1512.27 815.243 1513.47 815.738 1514.95 816.129 1516.71 816.519 1518.47 816.936 1520.48 817.379 1522.74L817.886 1522.74C819.449 1520.69 820.803 1518.9 821.949 1517.39 823.095 1515.88 824.117 1514.61 825.015 1513.56 825.914 1512.52 826.721 1511.68 827.437 1511.02 828.153 1510.37 828.85 1509.87 829.527 1509.52 830.204 1509.17 830.901 1508.93 831.617 1508.8 832.333 1508.67 833.134 1508.6 834.019 1508.6 835.321 1508.6 836.506 1508.84 837.574 1509.31L835.621 1517 832.379 1517C832.3 1515.88 831.884 1515.32 831.129 1515.32 830.842 1515.32 830.53 1515.37 830.191 1515.48 829.853 1515.58 829.449 1515.79 828.98 1516.1 828.511 1516.42 827.971 1516.85 827.359 1517.41 826.747 1517.97 826.024 1518.7 825.191 1519.6 824.358 1520.5 823.407 1521.6 822.34 1522.9 821.272 1524.2 820.048 1525.74 818.668 1527.51 819.371 1531.1 819.976 1533.98 820.484 1536.14 820.992 1538.3 821.48 1539.96 821.949 1541.1 822.418 1542.25 822.886 1543 823.355 1543.35 823.824 1543.7 824.358 1543.88 824.957 1543.88 825.399 1543.88 825.81 1543.82 826.187 1543.72 826.565 1543.62 826.955 1543.39 827.359 1543.04 827.763 1542.68 828.212 1542.18 828.707 1541.51 829.202 1540.85 829.787 1539.97 830.465 1538.88L833.394 1540.79C832.248 1542.51 831.233 1543.92 830.347 1545.01 829.462 1546.1 828.603 1546.96 827.769 1547.59 826.936 1548.21 826.077 1548.64 825.191 1548.86 824.306 1549.08 823.29 1549.19 822.144 1549.19 821.155 1549.19 820.269 1549.05 819.488 1548.78 818.707 1548.51 818.03 1548 817.457 1547.27 817.066 1546.83 816.702 1546.24 816.363 1545.5 816.024 1544.76 815.712 1543.95 815.425 1543.1 815.139 1542.24 814.879 1541.34 814.644 1540.42 814.41 1539.49 814.215 1538.63 814.058 1537.82 813.902 1537.01 813.778 1536.29 813.687 1535.65 813.596 1535.02 813.537 1534.54 813.511 1534.23L813.082 1534.23C811.519 1536.31 810.159 1538.13 809 1539.68 807.841 1541.23 806.793 1542.55 805.855 1543.66 804.918 1544.77 804.071 1545.68 803.316 1546.4 802.561 1547.11 801.819 1547.68 801.09 1548.1 800.36 1548.51 799.612 1548.8 798.843 1548.95 798.075 1549.11 797.222 1549.19 796.285 1549.19 794.931 1549.19 793.772 1548.95 792.808 1548.49L794.605 1540.87 797.925 1540.87C798.004 1542.01 798.433 1542.59 799.215 1542.59 799.501 1542.56 799.781 1542.51 800.054 1542.43 800.328 1542.35 800.647 1542.19 801.011 1541.94 801.376 1541.7 801.838 1541.3 802.398 1540.77 802.958 1540.24 803.668 1539.49 804.527 1538.54 805.386 1537.59 806.441 1536.4 807.691 1534.97 808.941 1533.54 810.438 1531.77 812.183 1529.66 811.715 1527.47 811.304 1525.57 810.953 1523.95 810.601 1522.34 810.276 1520.95 809.976 1519.79 809.677 1518.64 809.384 1517.69 809.097 1516.96 808.811 1516.23 808.518 1515.65 808.218 1515.22 807.919 1514.79 807.593 1514.49 807.242 1514.31 806.89 1514.12 806.48 1514.02 806.011 1513.99 805.569 1513.99 805.159 1514.07 804.781 1514.21 804.403 1514.35 804.013 1514.61 803.609 1514.97 803.205 1515.33 802.763 1515.84 802.281 1516.49 801.799 1517.14 801.246 1517.99 800.621 1519.03L797.613 1517.08C798.681 1515.49 799.644 1514.15 800.504 1513.06 801.363 1511.96 802.209 1511.09 803.043 1510.44 803.876 1509.79 804.755 1509.32 805.679 1509.03 806.604 1508.75 807.665 1508.6 808.863 1508.6Z" fill="#7F7FFF" fill-rule="evenodd"/><text fill="#000000" fill-opacity="0" font-family="Arial,Arial_MSFontService,sans-serif" font-size="40.5859" x="792.808" y="1544.12">­ЮЉЦ</text><path d="M941.742 1223.38C944.32 1223.38 946.182 1224.05 947.328 1225.4 948.474 1226.74 949.047 1228.54 949.047 1230.8 949.047 1232.51 948.742 1234.48 948.134 1236.7 947.525 1238.92 946.666 1241.27 945.556 1243.74 944.445 1246.21 943.121 1248.74 941.581 1251.34 940.041 1253.94 938.34 1256.46 936.478 1258.91 934.616 1261.37 932.629 1263.68 930.516 1265.84 928.404 1268.01 926.211 1269.9 923.937 1271.51 921.663 1273.12 919.354 1274.4 917.008 1275.35 914.663 1276.3 912.326 1276.77 909.999 1276.77 908.961 1276.77 908.092 1276.51 907.394 1275.99 906.696 1275.47 906.132 1274.74 905.702 1273.79 905.272 1272.84 904.968 1271.72 904.789 1270.43 904.61 1269.15 904.52 1267.73 904.52 1266.19 904.52 1264.15 904.646 1261.97 904.896 1259.64 905.147 1257.31 905.469 1254.97 905.863 1252.6L908.119 1237.72C908.262 1236.86 908.379 1236.05 908.468 1235.28 908.558 1234.51 908.602 1233.95 908.602 1233.59 908.602 1232.48 908.423 1231.57 908.065 1230.85 907.707 1230.13 907.099 1229.78 906.239 1229.78 905.559 1229.78 904.825 1229.98 904.037 1230.39 903.249 1230.8 902.453 1231.33 901.647 1231.98 900.841 1232.62 900.062 1233.31 899.31 1234.05 898.558 1234.78 897.86 1235.47 897.216 1236.11L894.638 1233.11C895.748 1231.96 896.929 1230.82 898.182 1229.69 899.436 1228.57 900.761 1227.55 902.157 1226.63 903.554 1225.72 905.022 1224.99 906.561 1224.43 908.101 1223.88 909.677 1223.6 911.288 1223.6 912.649 1223.6 913.759 1223.82 914.618 1224.27 915.477 1224.72 916.149 1225.31 916.632 1226.04 917.116 1226.78 917.447 1227.58 917.626 1228.46 917.805 1229.34 917.894 1230.2 917.894 1231.06 917.894 1231.57 917.877 1232.05 917.841 1232.51 917.805 1232.98 917.751 1233.41 917.68 1233.8L914.672 1253.25C914.349 1255.29 914.081 1257.28 913.866 1259.24 913.651 1261.19 913.544 1262.91 913.544 1264.42 913.544 1265.92 913.633 1267.14 913.812 1268.07 913.991 1269 914.332 1269.47 914.833 1269.47 916.015 1269.47 917.501 1268.99 919.291 1268.04 921.081 1267.1 922.961 1265.79 924.931 1264.12 926.9 1262.46 928.869 1260.49 930.839 1258.22 932.808 1255.94 934.581 1253.48 936.156 1250.83 937.732 1248.18 939.012 1245.39 939.996 1242.45 940.981 1239.51 941.474 1236.56 941.474 1233.59 941.474 1232.3 941.196 1231.31 940.641 1230.61 940.086 1229.91 939.218 1229.56 938.036 1229.56 936.532 1229.56 935.145 1230.14 933.873 1231.31 932.602 1232.47 931.286 1234 929.926 1235.9L926.864 1233.16C927.724 1231.87 928.735 1230.63 929.899 1229.45 931.063 1228.27 932.298 1227.23 933.605 1226.34 934.912 1225.44 936.264 1224.73 937.66 1224.19 939.057 1223.65 940.417 1223.38 941.742 1223.38Z" fill="#7F7FFF" fill-rule="evenodd"/><text fill="#000000" fill-opacity="0" font-family="Arial,Arial_MSFontService,sans-serif" font-size="53.3887" x="894.638" y="1270.1">­ЮЉБ</text><path d="M936.594 1189.23 950.076 1200.89 950.076 1204 936.594 1215.66 933.748 1212.43 942.341 1204.97 909.578 1204.97 909.578 1199.92 942.341 1199.92 933.748 1192.45Z" fill="#7F7FFF" fill-rule="evenodd"/><text fill="#000000" fill-opacity="0" font-family="Arial,Arial_MSFontService,sans-serif" font-size="26.4258" x="909.578" y="1212.35">нд</text><path d="M972.548 1251.52C970.725 1251.52 969.202 1252 967.978 1252.95 966.754 1253.9 965.784 1255.29 965.068 1257.13 964.352 1258.96 963.844 1261.2 963.544 1263.84 963.245 1266.49 963.095 1269.49 963.095 1272.85 963.095 1276.73 963.284 1280.08 963.661 1282.91 964.039 1285.73 964.625 1288.06 965.419 1289.88 966.213 1291.7 967.21 1293.04 968.407 1293.9 969.605 1294.76 971.038 1295.19 972.704 1295.19 974.267 1295.19 975.634 1294.79 976.806 1293.98 977.978 1293.17 978.948 1291.92 979.716 1290.21 980.484 1288.51 981.064 1286.34 981.454 1283.73 981.845 1281.11 982.04 1278.02 982.04 1274.45 982.04 1270.44 981.825 1266.99 981.396 1264.1 980.966 1261.21 980.361 1258.83 979.579 1256.97 978.798 1255.11 977.815 1253.73 976.63 1252.85 975.445 1251.96 974.085 1251.52 972.548 1251.52ZM972.704 1247.73C975.803 1247.73 978.453 1248.31 980.654 1249.47 982.854 1250.63 984.651 1252.28 986.044 1254.43 987.437 1256.58 988.46 1259.2 989.111 1262.3 989.762 1265.4 990.087 1268.9 990.087 1272.81 990.087 1281.48 988.551 1288.04 985.478 1292.48 982.405 1296.92 977.952 1299.14 972.118 1299.14 966.337 1299.14 962.04 1297.04 959.228 1292.85 956.415 1288.66 955.009 1282.3 955.009 1273.79 955.009 1269.33 955.445 1265.48 956.318 1262.22 957.19 1258.97 958.414 1256.27 959.99 1254.12 961.565 1251.97 963.434 1250.37 965.595 1249.31 967.756 1248.26 970.126 1247.73 972.704 1247.73Z" fill="#7F7FFF" fill-rule="evenodd"/><text fill="#000000" fill-opacity="0" font-family="Arial,Arial_MSFontService,sans-serif" font-size="51.4062" x="955.009" y="1292.71">0</text><path d="M1011.06 1258.43C1012 1258.43 1012.81 1258.53 1013.49 1258.73 1014.16 1258.92 1014.77 1259.23 1015.32 1259.65 1015.87 1260.06 1016.36 1260.6 1016.79 1261.27 1017.22 1261.93 1017.65 1262.73 1018.09 1263.67 1018.33 1264.24 1018.58 1265.06 1018.84 1266.13 1019.1 1267.2 1019.37 1268.43 1019.66 1269.84 1019.94 1271.25 1020.23 1272.8 1020.52 1274.49 1020.8 1276.18 1021.09 1277.95 1021.38 1279.8 1021.66 1281.65 1021.94 1283.55 1022.2 1285.49 1022.46 1287.43 1022.7 1289.33 1022.94 1291.21 1024.89 1288.66 1026.65 1286.07 1028.21 1283.45 1029.77 1280.84 1031.1 1278.36 1032.18 1276.03 1033.26 1273.7 1034.08 1271.58 1034.66 1269.67 1035.23 1267.75 1035.5 1266.22 1035.48 1265.08 1035.48 1263.93 1035.18 1263.11 1034.58 1262.61 1033.98 1262.12 1032.98 1261.83 1031.57 1261.76L1032.08 1259.26 1043.21 1259.26 1044.58 1261.52C1041.98 1267.95 1038.93 1274.16 1035.46 1280.13 1031.98 1286.11 1028.06 1291.91 1023.68 1297.54 1021.78 1299.8 1020.07 1301.76 1018.54 1303.4 1017.02 1305.04 1015.61 1306.45 1014.33 1307.63 1013.04 1308.82 1011.84 1309.79 1010.73 1310.54 1009.62 1311.3 1008.55 1311.9 1007.51 1312.36 1006.47 1312.82 1005.43 1313.14 1004.4 1313.34 1003.37 1313.53 1002.3 1313.66 1001.18 1313.71 1000.58 1313.71 999.859 1313.64 999.013 1313.51 998.167 1313.38 997.418 1313.21 996.767 1313.01L998.72 1304.45 1002.27 1304.45 1002.27 1304.68C1002.27 1306.46 1002.99 1307.34 1004.42 1307.34 1006.32 1307.34 1008.25 1306.61 1010.2 1305.13 1012.16 1303.66 1014.51 1301.31 1017.27 1298.08 1016.42 1293.14 1015.66 1288.86 1015.01 1285.25 1014.36 1281.64 1013.77 1278.57 1013.23 1276.03 1012.7 1273.49 1012.21 1271.43 1011.77 1269.84 1011.32 1268.25 1010.89 1267.02 1010.48 1266.13 1010.06 1265.24 1009.64 1264.64 1009.21 1264.31 1008.78 1263.99 1008.32 1263.83 1007.82 1263.83 1007.35 1263.83 1006.92 1263.88 1006.53 1264 1006.14 1264.12 1005.74 1264.36 1005.32 1264.72 1004.9 1265.09 1004.46 1265.6 1003.97 1266.27 1003.49 1266.93 1002.9 1267.8 1002.2 1268.86L999.189 1266.91C1000.31 1265.27 1001.34 1263.9 1002.27 1262.81 1003.21 1261.72 1004.14 1260.85 1005.07 1260.21 1005.99 1259.57 1006.94 1259.12 1007.9 1258.84 1008.86 1258.57 1009.92 1258.43 1011.06 1258.43Z" fill="#7F7FFF" fill-rule="evenodd"/><text fill="#000000" fill-opacity="0" font-family="Arial,Arial_MSFontService,sans-serif" font-size="55.2734" x="996.767" y="1306.8">­ЮЉд</text></g></svg>