<svg width="530" height="356" xmlns="http://www.w3.org/2000/svg" xmlns:xlink="http://www.w3.org/1999/xlink" xml:space="preserve" overflow="hidden"><g transform="translate(-3055 -1374)"><path d="M3125.5 1717.5 3580.71 1717.5" stroke="#000000" stroke-width="6.875" stroke-miterlimit="8" fill="none" fill-rule="evenodd"/><path d="M6.30208-1.03911e-05 6.30242 205.895-6.30174 205.895-6.30208 1.03911e-05ZM37.0197 152.237 0.000360501 218.872-37.0192 152.237C-38.7095 149.195-37.6133 145.358-34.5707 143.668-31.5282 141.977-27.6915 143.074-26.0012 146.116L5.50935 202.835-5.50868 202.835 26.0016 146.116C27.6919 143.073 31.5287 141.977 34.5712 143.668 37.6138 145.358 38.71 149.195 37.0197 152.237Z" fill="#0000FF" transform="matrix(1 0 0 -1 3125.5 1717.38)"/><path d="M3114.19 1412.01C3115.3 1412.01 3116.25 1412.16 3117.03 1412.46 3117.57 1412.67 3118.11 1413.03 3118.65 1413.53 3119.19 1414.03 3119.67 1414.73 3120.09 1415.62 3120.51 1416.51 3120.87 1417.51 3121.18 1418.62 3121.49 1419.73 3121.84 1421.32 3122.22 1423.4 3122.87 1426.89 3123.49 1430.55 3124.1 1434.4 3124.71 1438.25 3125.23 1441.83 3125.66 1445.12 3128.28 1441.34 3130.5 1437.64 3132.33 1434.02 3134.15 1430.4 3135.46 1427.25 3136.26 1424.57 3137.06 1421.9 3137.46 1419.73 3137.46 1418.05 3137.46 1416.78 3137.18 1415.92 3136.64 1415.46 3136.1 1415 3135.19 1414.73 3133.89 1414.65L3134.29 1412.66 3144.95 1412.66 3146.05 1414.69C3143.99 1420.31 3141.21 1426.32 3137.7 1432.72 3134.24 1438.99 3130.28 1445.23 3125.82 1451.44 3121.55 1457.36 3118 1461.64 3115.17 1464.29 3113.19 1466.1 3111.29 1467.4 3109.45 1468.18 3107.99 1468.78 3106.44 1469.07 3104.79 1469.07 3104.22 1469.07 3103.57 1469.03 3102.82 1468.93 3102.08 1468.84 3101.51 1468.71 3101.1 1468.55L3102.84 1460.68 3106.05 1460.68C3106.05 1462.41 3106.64 1463.28 3107.83 1463.28 3109.4 1463.28 3111.22 1462.3 3113.3 1460.34 3115.38 1458.38 3117.83 1455.43 3120.64 1451.49 3119.85 1446.76 3118.79 1441.06 3117.43 1434.38 3116 1427.25 3115.06 1422.83 3114.6 1421.13 3114.03 1419.08 3113.44 1417.77 3112.81 1417.2 3112.44 1416.85 3111.96 1416.67 3111.4 1416.67 3110.53 1416.67 3109.72 1417.02 3108.96 1417.73 3108.21 1418.43 3107.28 1419.64 3106.17 1421.37L3103.53 1419.63C3105.4 1416.85 3107.14 1414.88 3108.76 1413.73 3110.38 1412.59 3112.19 1412.01 3114.19 1412.01Z" fill="#0000FF" fill-rule="evenodd"/><text fill="#000000" fill-opacity="0" font-family="Arial,Arial_MSFontService,sans-serif" font-size="57.0625" x="3101.1" y="1461.94">­ЮЉд</text><path d="M3126.1 1392.96 3131.53 1392.96 3145.31 1405.73 3143.12 1408.04 3128.82 1398.19 3128.37 1398.19 3113.82 1408.04 3111.64 1405.73Z" fill="#0000FF" fill-rule="evenodd"/><text fill="#000000" fill-opacity="0" font-family="Arial,Arial_MSFontService,sans-serif" font-size="15.0762" x="3111.64" y="1406.16">Яию</text><path d="M3362.8 1440.5 3362.8 1646.4 3350.2 1646.4 3350.2 1440.5ZM3393.52 1592.74 3356.5 1659.37 3319.48 1592.74C3317.79 1589.69 3318.89 1585.86 3321.93 1584.17 3324.97 1582.48 3328.81 1583.57 3330.5 1586.62L3362.01 1643.33 3350.99 1643.33 3382.5 1586.62C3384.19 1583.57 3388.03 1582.48 3391.07 1584.17 3394.11 1585.86 3395.21 1589.69 3393.52 1592.74Z"/><path d="M3478.73 1512.12C3475.08 1512.12 3471.8 1513.6 3468.9 1516.56 3466 1519.51 3463.72 1523.49 3462.05 1528.51 3460.39 1533.52 3459.56 1538.51 3459.56 1543.49 3459.56 1547.22 3460.09 1550 3461.17 1551.84 3462.24 1553.69 3463.92 1554.61 3466.22 1554.61 3468.04 1554.61 3469.86 1553.98 3471.67 1552.73 3473.48 1551.48 3475.41 1549.49 3477.47 1546.77 3479.53 1544.05 3481.13 1541.45 3482.28 1538.98 3483.42 1536.51 3484.4 1533.43 3485.2 1529.74 3486.01 1526.05 3486.41 1522.85 3486.41 1520.13 3486.41 1517.33 3485.82 1515.3 3484.64 1514.03 3483.46 1512.76 3481.49 1512.12 3478.73 1512.12ZM3477.87 1507.88C3480.13 1507.88 3482.26 1508.15 3484.26 1508.69 3486.27 1509.22 3488.29 1510.14 3490.33 1511.43L3495.27 1507.88 3498.71 1508.74 3493.18 1533.77C3492.79 1535.52 3491.89 1539.95 3490.49 1547.04 3489.03 1554.56 3487.83 1559.87 3486.92 1562.99 3486.01 1566.1 3484.87 1568.94 3483.51 1571.5 3482.15 1574.06 3480.4 1576.29 3478.25 1578.19 3476.1 1580.09 3473.49 1581.55 3470.43 1582.59 3467.37 1583.63 3463.75 1584.15 3459.56 1584.15 3446.02 1584.15 3439.25 1580.21 3439.25 1572.33 3439.25 1570.33 3439.86 1568.5 3441.08 1566.86 3442.3 1565.21 3444.25 1563.47 3446.93 1561.65L3450.8 1564.76C3450.12 1565.58 3449.55 1566.4 3449.08 1567.2 3448.62 1568.01 3448.29 1568.79 3448.09 1569.54 3447.89 1570.29 3447.79 1571.19 3447.79 1572.23 3447.79 1574.91 3448.76 1576.87 3450.69 1578.11 3452.63 1579.34 3455.55 1579.96 3459.45 1579.96 3463.85 1579.96 3467.39 1578.97 3470.06 1576.98 3472.72 1574.99 3475.01 1571.8 3476.9 1567.39 3478.8 1562.99 3480.65 1556.33 3482.44 1547.41L3481.69 1547.25C3478.21 1552.01 3474.99 1555.49 3472.02 1557.67 3469.05 1559.86 3465.84 1560.95 3462.4 1560.95 3458.5 1560.95 3455.47 1559.48 3453.3 1556.54 3451.13 1553.61 3450.05 1549.42 3450.05 1543.97 3450.05 1537.85 3451.25 1531.97 3453.65 1526.33 3456.05 1520.69 3459.38 1516.21 3463.64 1512.88 3467.9 1509.55 3472.64 1507.88 3477.87 1507.88Z" fill-rule="evenodd"/><text fill="#000000" fill-opacity="0" font-family="Arial,Arial_MSFontService,sans-serif" font-size="76.2695" x="3439.25" y="1574.62">­ЮЉћ</text><path d="M3490.44 1473.56 3503.92 1485.22 3503.92 1488.33 3490.44 1499.99 3487.59 1496.76 3496.19 1489.3 3463.42 1489.3 3463.42 1484.25 3496.19 1484.25 3487.59 1476.78Z" fill-rule="evenodd"/><text fill="#000000" fill-opacity="0" font-family="Arial,Arial_MSFontService,sans-serif" font-size="26.4258" x="3463.42" y="1496.68">нд</text></g></svg>