<svg width="2010" height="1467" xmlns="http://www.w3.org/2000/svg" xmlns:xlink="http://www.w3.org/1999/xlink" xml:space="preserve" overflow="hidden"><g transform="translate(-529 -402)"><rect x="640" y="407" width="1894" height="1345" stroke="#000000" stroke-width="10.3125" stroke-miterlimit="8" fill="none"/><path d="M1560.5 893.5C1560.5 857.601 1589.6 828.5 1625.5 828.5 1661.4 828.5 1690.5 857.601 1690.5 893.5 1690.5 929.398 1661.4 958.5 1625.5 958.5 1589.6 958.5 1560.5 929.398 1560.5 893.5Z" stroke="#000000" stroke-width="6.875" stroke-miterlimit="8" fill="#7F7F7F" fill-rule="evenodd"/><path d="M4.12477-4.76471 933.565 799.844 925.315 809.374-4.12477 4.76471ZM913.101 741.5 939.251 813.102 864.642 797.477C861.235 796.764 859.052 793.424 859.765 790.017 860.479 786.611 863.819 784.427 867.225 785.141L930.731 798.44 923.52 806.771 901.262 745.824C900.068 742.555 901.75 738.936 905.019 737.742 908.289 736.548 911.907 738.231 913.101 741.5Z" fill="#0000FF" transform="matrix(1 0 0 -1 640.5 1752.61)"/><path d="M6.30208-6.93592e-06 6.30243 314.93-6.30174 314.93-6.30208 6.93592e-06ZM37.0197 261.272 0.000360983 327.907-37.0191 261.272C-38.7094 258.23-37.6132 254.393-34.5707 252.703-31.5282 251.012-27.6914 252.108-26.0011 255.151L5.50935 311.87-5.50867 311.87 26.0017 255.151C27.692 252.108 31.5287 251.012 34.5713 252.703 37.6138 254.393 38.71 258.23 37.0197 261.272Z" fill="#0000FF" transform="matrix(1 0 0 -1 640.5 1752.41)"/><path d="M6.30208-6.93592e-06 6.30243 314.93-6.30174 314.93-6.30208 6.93592e-06ZM37.0197 261.272 0.000360983 327.907-37.0191 261.272C-38.7094 258.23-37.6132 254.393-34.5707 252.703-31.5282 251.012-27.6914 252.108-26.0011 255.151L5.50935 311.87-5.50867 311.87 26.0017 255.151C27.692 252.108 31.5287 251.012 34.5713 252.703 37.6138 254.393 38.71 258.23 37.0197 261.272Z" fill="#0000FF" transform="matrix(6.12323e-17 1 1 -6.12323e-17 640.5 1752.5)"/><path d="M943.101 1806.72C943.939 1806.72 944.675 1806.82 945.31 1807.01 945.945 1807.2 946.505 1807.49 946.992 1807.88 947.478 1808.27 947.91 1808.78 948.289 1809.4 948.667 1810.02 949.032 1810.86 949.383 1811.93 949.734 1813 950.065 1814.32 950.376 1815.9 950.686 1817.48 950.963 1819.12 951.207 1820.83L951.612 1820.83C954.206 1817.18 956.171 1814.51 957.509 1812.82 958.846 1811.13 959.974 1809.88 960.893 1809.05 961.811 1808.23 962.696 1807.65 963.547 1807.31 964.398 1806.97 965.526 1806.8 966.931 1806.8 968.201 1806.8 969.241 1806.97 970.052 1807.29L968.431 1814.63 965.594 1814.63C965.432 1813.49 964.959 1812.92 964.175 1812.92 963.932 1812.92 963.675 1812.96 963.405 1813.04 963.135 1813.13 962.804 1813.3 962.412 1813.57 962.021 1813.84 961.446 1814.37 960.69 1815.15 959.933 1815.94 959.082 1816.89 958.137 1818.03 957.191 1819.16 956.218 1820.35 955.219 1821.6L952.463 1825.04C952.949 1827.63 953.409 1829.88 953.841 1831.77 954.273 1833.66 954.658 1835.23 954.996 1836.49 955.334 1837.75 955.631 1838.74 955.887 1839.47 956.144 1840.2 956.421 1840.74 956.718 1841.11 957.015 1841.47 957.319 1841.73 957.63 1841.88 957.941 1842.03 958.299 1842.1 958.704 1842.1 959.434 1842.1 960.143 1841.82 960.832 1841.25 961.521 1840.68 962.514 1839.4 963.811 1837.4L966.445 1839.14C964.554 1841.95 962.845 1843.93 961.318 1845.08 959.792 1846.23 957.975 1846.8 955.867 1846.8 954.705 1846.8 953.719 1846.59 952.909 1846.18 952.098 1845.76 951.396 1845.09 950.801 1844.17 950.207 1843.25 949.68 1841.82 949.221 1839.87 948.383 1836.42 947.87 1833.77 947.681 1831.93L947.275 1831.93C944.411 1835.96 942.284 1838.85 940.892 1840.6 939.501 1842.36 938.353 1843.66 937.448 1844.49 936.542 1845.33 935.664 1845.92 934.813 1846.26 933.962 1846.59 932.834 1846.76 931.429 1846.76 930.159 1846.76 929.119 1846.6 928.309 1846.28L929.93 1838.94 932.767 1838.94C932.929 1840.08 933.402 1840.64 934.185 1840.64 934.563 1840.64 934.962 1840.54 935.381 1840.34 935.799 1840.14 936.401 1839.65 937.184 1838.88 937.968 1838.11 939.048 1836.9 940.426 1835.25 941.804 1833.61 943.804 1831.13 946.424 1827.84 946.019 1825.7 945.6 1823.65 945.168 1821.68 944.736 1819.7 944.29 1817.87 943.831 1816.17 943.371 1814.46 942.993 1813.35 942.696 1812.82 942.399 1812.29 942.081 1811.93 941.743 1811.73 941.406 1811.52 940.98 1811.42 940.467 1811.42 939.899 1811.42 939.386 1811.55 938.927 1811.81 938.467 1812.07 937.968 1812.51 937.427 1813.15 936.887 1813.78 936.171 1814.77 935.279 1816.12L932.645 1814.38C934.347 1811.82 935.982 1809.9 937.549 1808.63 939.116 1807.36 940.967 1806.72 943.101 1806.72Z" fill="#0000FF" fill-rule="evenodd"/><text fill="#000000" fill-opacity="0" font-family="Arial,Arial_MSFontService,sans-serif" font-size="40.0815" x="928.309" y="1841.79">­ЮЉЦ</text><path d="M951.576 1787.71 957.006 1787.71 970.786 1800.48 968.597 1802.79 954.291 1792.94 953.845 1792.94 939.296 1802.79 937.107 1800.48Z" fill="#0000FF" fill-rule="evenodd"/><text fill="#000000" fill-opacity="0" font-family="Arial,Arial_MSFontService,sans-serif" font-size="15.0762" x="937.107" y="1800.91">Яию</text><path d="M550.732 1403.56C551.839 1403.56 552.785 1403.71 553.569 1404 554.109 1404.22 554.649 1404.58 555.19 1405.08 555.73 1405.58 556.21 1406.27 556.628 1407.17 557.047 1408.06 557.412 1409.06 557.723 1410.16 558.033 1411.27 558.378 1412.87 558.756 1414.95 559.405 1418.43 560.033 1422.1 560.641 1425.95 561.249 1429.8 561.769 1433.37 562.201 1436.67 564.822 1432.89 567.044 1429.19 568.868 1425.57 570.691 1421.94 572.002 1418.8 572.799 1416.12 573.596 1413.45 573.994 1411.27 573.994 1409.6 573.994 1408.33 573.724 1407.46 573.184 1407 572.644 1406.54 571.725 1406.27 570.428 1406.19L570.833 1404.21 581.492 1404.21 582.586 1406.23C580.533 1411.85 577.75 1417.86 574.238 1424.27 570.779 1430.54 566.821 1436.78 562.363 1442.99 558.094 1448.91 554.541 1453.19 551.704 1455.84 549.732 1457.65 547.827 1458.95 545.99 1459.73 544.531 1460.32 542.978 1460.62 541.329 1460.62 540.762 1460.62 540.107 1460.57 539.364 1460.48 538.621 1460.38 538.047 1460.26 537.641 1460.09L539.384 1452.23 542.586 1452.23C542.586 1453.96 543.18 1454.83 544.369 1454.83 545.936 1454.83 547.76 1453.85 549.84 1451.89 551.921 1449.93 554.366 1446.98 557.176 1443.03 556.392 1438.3 555.325 1432.6 553.974 1425.93 552.542 1418.8 551.596 1414.38 551.137 1412.68 550.57 1410.62 549.975 1409.31 549.354 1408.75 548.976 1408.4 548.503 1408.22 547.935 1408.22 547.071 1408.22 546.26 1408.57 545.504 1409.27 544.747 1409.98 543.815 1411.19 542.707 1412.92L540.073 1411.18C541.937 1408.4 543.68 1406.43 545.301 1405.28 546.922 1404.13 548.732 1403.56 550.732 1403.56Z" fill="#0000FF" fill-rule="evenodd"/><text fill="#000000" fill-opacity="0" font-family="Arial,Arial_MSFontService,sans-serif" font-size="57.0625" x="537.641" y="1453.49">­ЮЉд</text><path d="M562.643 1384.51 568.073 1384.51 581.853 1397.28 579.664 1399.59 565.358 1389.74 564.912 1389.74 550.363 1399.59 548.174 1397.28Z" fill="#0000FF" fill-rule="evenodd"/><text fill="#000000" fill-opacity="0" font-family="Arial,Arial_MSFontService,sans-serif" font-size="15.0762" x="548.174" y="1397.7">Яию</text><path d="M1011.38 1194.69C1013.63 1194.69 1015.42 1195.43 1016.72 1196.92 1018.03 1198.4 1018.68 1200.35 1018.68 1202.74 1018.68 1204.53 1018.34 1206.38 1017.66 1208.28L1018.36 1208.54C1021.87 1203.78 1025.24 1200.29 1028.48 1198.07 1031.73 1195.85 1035.01 1194.74 1038.34 1194.74 1040.95 1194.74 1043.14 1194.94 1044.89 1195.33L1042.32 1207.36 1036.78 1207.36C1036.57 1205.86 1036.26 1204.7 1035.87 1203.87 1035.48 1203.05 1035.01 1202.48 1034.47 1202.15 1033.94 1201.83 1033.26 1201.67 1032.43 1201.67 1031.14 1201.67 1029.74 1202.22 1028.22 1203.33 1026.69 1204.44 1024.98 1206.18 1023.09 1208.54 1021.19 1210.91 1019.68 1213.18 1018.55 1215.37 1017.42 1217.55 1016.48 1220.33 1015.73 1223.69L1010.63 1246.95 1001.33 1246.95 1009.12 1212.9C1009.62 1210.75 1009.95 1209.08 1010.09 1207.9 1010.23 1206.72 1010.3 1205.73 1010.3 1204.95 1010.3 1203.51 1010.07 1202.48 1009.61 1201.83 1009.14 1201.19 1008.41 1200.86 1007.4 1200.86 1006.29 1200.86 1005.12 1201.32 1003.89 1202.23 1002.65 1203.15 1000.96 1204.8 998.809 1207.2L995.748 1204.19C999.042 1200.76 1001.8 1198.31 1004.02 1196.86 1006.24 1195.41 1008.69 1194.69 1011.38 1194.69Z" fill="#0000FF" fill-rule="evenodd"/><text fill="#000000" fill-opacity="0" font-family="Arial,Arial_MSFontService,sans-serif" font-size="52.2607" x="995.748" y="1240.42">­ЮЉЪ</text><path d="M1034.2 1160.37 1047.68 1172.02 1047.68 1175.14 1034.2 1186.79 1031.36 1183.57 1039.95 1176.1 1007.19 1176.1 1007.19 1171.05 1039.95 1171.05 1031.36 1163.59Z" fill="#0000FF" fill-rule="evenodd"/><text fill="#000000" fill-opacity="0" font-family="Arial,Arial_MSFontService,sans-serif" font-size="26.4258" x="1007.19" y="1183.49">нд</text><path d="M1091.22 1169.34 1092.67 1173.47C1084.29 1176.23 1078.08 1181.61 1074.06 1189.61 1070.03 1197.61 1068.01 1207.67 1068.01 1219.77 1068.01 1232.3 1070.03 1242.63 1074.06 1250.76 1078.08 1258.89 1084.23 1264.33 1092.51 1267.09L1091.22 1271.23C1080.73 1268.47 1072.69 1262.53 1067.1 1253.42 1061.52 1244.31 1058.72 1233.27 1058.72 1220.31 1058.72 1207.38 1061.52 1196.34 1067.13 1187.19 1072.73 1178.05 1080.76 1172.09 1091.22 1169.34Z" fill="#0000FF" fill-rule="evenodd"/><text fill="#000000" fill-opacity="0" font-family="Arial,Arial_MSFontService,sans-serif" font-size="101.89" x="1058.72" y="1258.49">(</text><path d="M1115.89 1182.33 1123.3 1182.33 1120.35 1195.6 1136.67 1195.6 1135.49 1201.03 1119.16 1201.03 1114.38 1221.87C1113.45 1225.91 1112.86 1228.82 1112.61 1230.59 1112.36 1232.37 1112.24 1233.79 1112.24 1234.86 1112.24 1239.3 1114.08 1241.52 1117.77 1241.52 1119.34 1241.52 1121.02 1240.92 1122.79 1239.72 1124.56 1238.52 1126.67 1236.47 1129.1 1233.57L1132.22 1236.8C1129.1 1240.56 1126.1 1243.33 1123.22 1245.12 1120.34 1246.91 1117.32 1247.81 1114.17 1247.81 1106.69 1247.81 1102.94 1244.03 1102.94 1236.47 1102.94 1234.08 1103.25 1231.55 1103.86 1228.9L1110.2 1201.03 1101.17 1201.03 1101.98 1197.32C1104.09 1197.28 1105.69 1197.12 1106.78 1196.84 1107.88 1196.55 1108.79 1196.16 1109.52 1195.65 1110.26 1195.15 1110.93 1194.44 1111.54 1193.51 1112.15 1192.57 1112.74 1191.38 1113.31 1189.93 1113.88 1188.48 1114.74 1185.95 1115.89 1182.33Z" fill="#0000FF" fill-rule="evenodd"/><text fill="#000000" fill-opacity="0" font-family="Arial,Arial_MSFontService,sans-serif" font-size="65.4736" x="1101.17" y="1239.62">­ЮЉА</text><path d="M1144.6 1169.34C1155.06 1172.09 1163.09 1178.05 1168.69 1187.19 1174.29 1196.34 1177.1 1207.38 1177.1 1220.31 1177.1 1233.27 1174.3 1244.31 1168.72 1253.42 1163.13 1262.53 1155.09 1268.47 1144.6 1271.23L1143.31 1267.09C1151.58 1264.33 1157.73 1258.89 1161.76 1250.76 1165.79 1242.63 1167.8 1232.3 1167.8 1219.77 1167.8 1207.67 1165.8 1197.61 1161.79 1189.61 1157.78 1181.61 1151.57 1176.23 1143.15 1173.47Z" fill="#0000FF" fill-rule="evenodd"/><text fill="#000000" fill-opacity="0" font-family="Arial,Arial_MSFontService,sans-serif" font-size="101.89" x="1143.15" y="1258.49">)</text></g></svg>