<svg width="2551" height="448" xmlns="http://www.w3.org/2000/svg" xmlns:xlink="http://www.w3.org/1999/xlink" xml:space="preserve" overflow="hidden"><g transform="translate(-925 -988)"><path d="M928.5 1238C928.5 1130.58 1015.8 1043.5 1123.5 1043.5 1231.2 1043.5 1318.5 1130.58 1318.5 1238 1318.5 1345.42 1231.2 1432.5 1123.5 1432.5 1015.8 1432.5 928.5 1345.42 928.5 1238Z" stroke="#000000" stroke-width="6.875" stroke-miterlimit="8" fill="#D1D1D1" fill-rule="evenodd"/><path d="M3082.5 1238C3082.5 1130.58 3169.8 1043.5 3277.5 1043.5 3385.2 1043.5 3472.5 1130.58 3472.5 1238 3472.5 1345.42 3385.2 1432.5 3277.5 1432.5 3169.8 1432.5 3082.5 1345.42 3082.5 1238Z" stroke="#000000" stroke-width="6.875" stroke-miterlimit="8" fill="#D1D1D1" fill-rule="evenodd"/><path d="M1318.5 1228.76 1943.44 1228.76 1943.44 1248.24 1318.5 1248.24ZM1860.51 1181.29 1963.49 1238.5 1860.51 1295.71C1855.81 1298.32 1849.88 1296.63 1847.27 1291.93 1844.65 1287.23 1846.35 1281.3 1851.05 1278.68L1938.71 1229.99 1938.71 1247.01 1851.05 1198.32C1846.35 1195.7 1844.65 1189.77 1847.27 1185.07 1849.88 1180.37 1855.81 1178.68 1860.51 1181.29Z" fill="#0000FF"/><path d="M5.44953e-06-9.73958 624.936-9.73923 624.936 9.73993-5.44953e-06 9.73958ZM542.01-57.2115 644.991 0.000358555 542.01 57.2121C537.308 59.8244 531.378 58.1303 528.766 53.4282 526.154 48.7261 527.848 42.7966 532.55 40.1843L620.206-8.51358 620.206 8.51428 532.55-40.1837C527.848-42.796 526.154-48.7255 528.766-53.4276 531.378-58.1297 537.308-59.8238 542.01-57.2115Z" fill="#0000FF" transform="matrix(-1 0 0 1 3082.5 1238.5)"/><path d="M1127.5 1198.68 1130.45 1198.68C1130.23 1202.12 1130.13 1206.88 1130.13 1212.97L1130.13 1258.84C1130.13 1260.92 1130.24 1262.48 1130.48 1263.54 1130.71 1264.59 1131.12 1265.45 1131.71 1266.12 1132.3 1266.78 1133.15 1267.3 1134.26 1267.67 1135.37 1268.05 1136.77 1268.34 1138.45 1268.53 1140.14 1268.73 1142.36 1268.86 1145.11 1268.94L1145.11 1272.86 1105.42 1272.86 1105.42 1268.94C1109.39 1268.76 1112.23 1268.52 1113.93 1268.21 1115.63 1267.91 1116.93 1267.45 1117.83 1266.84 1118.72 1266.23 1119.38 1265.37 1119.79 1264.26 1120.2 1263.15 1120.41 1261.34 1120.41 1258.84L1120.41 1215.28C1120.41 1213.85 1120.15 1212.8 1119.65 1212.14 1119.15 1211.47 1118.42 1211.14 1117.45 1211.14 1116.31 1211.14 1114.68 1211.73 1112.56 1212.92 1110.45 1214.1 1107.84 1215.73 1104.72 1217.8L1102.36 1213.67Z" fill-rule="evenodd"/><text fill="#000000" fill-opacity="0" font-family="Arial,Arial_MSFontService,sans-serif" font-size="74.1748" x="1102.36" y="1263.59">1</text><path d="M3277.12 1198.68C3283.78 1198.68 3288.81 1200.14 3292.21 1203.06 3295.61 1205.98 3297.31 1210.21 3297.31 1215.76 3297.31 1217.66 3297.13 1219.41 3296.75 1221 3296.37 1222.59 3295.78 1224.17 3294.98 1225.73 3294.17 1227.28 3293.09 1228.96 3291.73 1230.75 3290.37 1232.54 3288.86 1234.36 3287.22 1236.2 3285.57 1238.04 3282.72 1241.11 3278.68 1245.41 3271.87 1252.61 3266.88 1258.89 3263.69 1264.26L3283.94 1264.26C3285.69 1264.26 3287.11 1264.16 3288.18 1263.94 3289.26 1263.73 3290.12 1263.37 3290.76 1262.87 3291.41 1262.37 3291.92 1261.71 3292.29 1260.91 3292.67 1260.1 3293.14 1258.86 3293.71 1257.17L3298.28 1257.17 3297.37 1272.86 3253.16 1272.86 3253.16 1270.28C3254.7 1266.52 3256.78 1262.67 3259.39 1258.73 3262.01 1254.79 3265.71 1250.16 3270.51 1244.82 3274.67 1240.24 3277.66 1236.76 3279.48 1234.4 3281.49 1231.82 3282.98 1229.59 3283.97 1227.71 3284.95 1225.83 3285.66 1224.06 3286.09 1222.4 3286.52 1220.73 3286.73 1219.06 3286.73 1217.37 3286.73 1214.69 3286.3 1212.32 3285.44 1210.26 3284.58 1208.2 3283.27 1206.58 3281.5 1205.4 3279.72 1204.21 3277.49 1203.62 3274.81 1203.62 3268.11 1203.62 3263.6 1207.35 3261.27 1214.8L3254.77 1214.8 3254.77 1204.48C3259.11 1202.44 3263.16 1200.96 3266.94 1200.05 3270.72 1199.14 3274.11 1198.68 3277.12 1198.68Z" fill-rule="evenodd"/><text fill="#000000" fill-opacity="0" font-family="Arial,Arial_MSFontService,sans-serif" font-size="74.1748" x="3253.16" y="1263.59">2</text><path d="M1561.8 1048.22 1626.54 1048.22 1621.59 1070.25 1614.7 1070.25C1614.5 1066.57 1614.2 1063.66 1613.8 1061.53 1613.39 1059.4 1612.82 1057.87 1612.08 1056.94 1611.33 1056.01 1610.44 1055.37 1609.38 1055.04 1608.33 1054.7 1606.75 1054.54 1604.65 1054.54L1582.54 1054.54 1574 1093.58 1587.42 1093.58C1589.53 1093.58 1591.27 1093.29 1592.66 1092.72 1594.05 1092.15 1595.34 1091.11 1596.54 1089.6 1597.73 1088.09 1599.22 1085.52 1600.99 1081.88L1607.52 1081.88 1600.56 1112.17 1594.24 1112.17C1594.24 1107.34 1594.08 1104.31 1593.77 1103.09 1593.46 1101.87 1592.86 1101.03 1591.98 1100.58 1591.09 1100.13 1589.33 1099.9 1586.7 1099.9L1572.63 1099.9 1566.96 1125.31C1565.96 1129.81 1565.46 1133.54 1565.46 1136.5 1565.46 1137.99 1565.7 1139.15 1566.17 1139.99 1566.65 1140.82 1567.37 1141.43 1568.33 1141.82 1569.28 1142.2 1570.94 1142.49 1573.28 1142.68L1572.49 1146.19 1542.99 1146.19 1543.78 1142.68C1545.6 1142.39 1546.96 1141.92 1547.87 1141.28 1548.78 1140.63 1549.55 1139.73 1550.17 1138.59 1550.79 1137.44 1551.36 1136.04 1551.89 1134.39 1552.42 1132.74 1553.21 1129.54 1554.26 1124.81L1566.46 1069.54C1567.51 1064.75 1568.04 1060.97 1568.04 1058.2 1568.04 1055.85 1567.49 1054.22 1566.39 1053.31 1565.29 1052.41 1563.49 1051.88 1561.01 1051.74Z" fill="#0000FF" fill-rule="evenodd"/><text fill="#000000" fill-opacity="0" font-family="Arial,Arial_MSFontService,sans-serif" font-size="97.9761" x="1542.99" y="1133.95">­Юљ╣</text><path d="M1607.09 1002.62 1625.1 1018.2 1625.1 1022.36 1607.09 1037.94 1603.28 1033.63 1614.77 1023.65 1570.98 1023.65 1570.98 1016.91 1614.77 1016.91 1603.28 1006.93Z" fill="#0000FF" fill-rule="evenodd"/><text fill="#000000" fill-opacity="0" font-family="Arial,Arial_MSFontService,sans-serif" font-size="35.3145" x="1570.98" y="1033.52">нд</text><path d="M1709.5 1108.83 1712.68 1108.83C1712.62 1110.75 1712.56 1112.46 1712.53 1113.98 1712.49 1115.49 1712.47 1116.96 1712.45 1118.39 1712.43 1119.82 1712.42 1121.23 1712.42 1122.62L1712.42 1162.33C1712.42 1163.41 1712.46 1164.34 1712.53 1165.13 1712.6 1165.91 1712.71 1166.57 1712.87 1167.11 1713.02 1167.65 1713.23 1168.11 1713.49 1168.5 1713.76 1168.88 1714.06 1169.21 1714.41 1169.49 1714.83 1169.91 1715.38 1170.23 1716.08 1170.46 1716.78 1170.68 1717.67 1170.87 1718.75 1171.03 1719.83 1171.19 1721.12 1171.31 1722.64 1171.4 1724.15 1171.48 1725.97 1171.54 1728.1 1171.58L1728.1 1176.12 1686.67 1176.12 1686.67 1171.58C1688.72 1171.51 1690.46 1171.43 1691.89 1171.34 1693.32 1171.26 1694.54 1171.13 1695.55 1170.98 1696.56 1170.82 1697.37 1170.65 1697.98 1170.46 1698.59 1170.26 1699.12 1170.03 1699.57 1169.75 1700.06 1169.44 1700.48 1169.1 1700.83 1168.73 1701.17 1168.37 1701.45 1167.9 1701.66 1167.35 1701.87 1166.79 1702.04 1166.11 1702.16 1165.31 1702.28 1164.51 1702.34 1163.52 1702.34 1162.33L1702.34 1124.87C1702.34 1123.51 1702.08 1122.55 1701.56 1122 1701.03 1121.44 1700.29 1121.16 1699.31 1121.16 1698.23 1121.16 1696.63 1121.72 1694.5 1122.83 1692.38 1123.95 1689.63 1125.6 1686.25 1127.8 1685.8 1127 1685.38 1126.19 1684.99 1125.39 1684.61 1124.59 1684.21 1123.77 1683.79 1122.94 1688.11 1120.57 1692.39 1118.21 1696.62 1115.86 1700.85 1113.51 1705.14 1111.16 1709.5 1108.83ZM1643.42 1108.47C1647.05 1108.47 1650.14 1108.87 1652.7 1109.69 1655.26 1110.51 1657.34 1111.62 1658.94 1113.01 1660.54 1114.4 1661.7 1116.08 1662.41 1118.03 1663.13 1119.98 1663.49 1122.08 1663.49 1124.35 1663.49 1125.71 1663.39 1126.97 1663.2 1128.14 1663.01 1129.3 1662.68 1130.45 1662.21 1131.58 1661.73 1132.72 1661.12 1133.86 1660.35 1135.01 1659.58 1136.16 1658.63 1137.37 1657.48 1138.66 1656.61 1139.78 1655.47 1141.07 1654.08 1142.53 1652.69 1143.99 1651.16 1145.56 1649.51 1147.23 1647.85 1148.9 1646.12 1150.65 1644.31 1152.46 1642.5 1154.27 1640.74 1156.06 1639.03 1157.84 1637.33 1159.61 1635.76 1161.34 1634.33 1163.01 1632.9 1164.68 1631.74 1166.21 1630.83 1167.61L1650.16 1167.61C1651.8 1167.61 1653.11 1167.55 1654.08 1167.42 1655.06 1167.3 1655.87 1167.03 1656.51 1166.62 1657.15 1166.2 1657.7 1165.56 1658.16 1164.71 1658.61 1163.85 1659.13 1162.68 1659.72 1161.18L1664.58 1161.18C1664.41 1163.65 1664.24 1166.14 1664.09 1168.65 1663.93 1171.16 1663.76 1173.65 1663.59 1176.12L1619.34 1176.12 1619.34 1173.41C1620.17 1171.53 1621.15 1169.67 1622.26 1167.84 1623.38 1166.01 1624.63 1164.16 1626.02 1162.28 1627.42 1160.4 1629 1158.46 1630.78 1156.45 1632.56 1154.45 1634.52 1152.37 1636.68 1150.21 1639.96 1146.94 1642.62 1144.14 1644.68 1141.82 1646.73 1139.51 1648.35 1137.44 1649.54 1135.63 1650.72 1133.82 1651.53 1132.15 1651.96 1130.62 1652.4 1129.08 1652.62 1127.45 1652.62 1125.71 1652.62 1123.93 1652.37 1122.29 1651.86 1120.8 1651.36 1119.3 1650.63 1118.03 1649.69 1116.98 1648.75 1115.94 1647.56 1115.12 1646.11 1114.53 1644.67 1113.93 1643 1113.64 1641.12 1113.64 1637.88 1113.64 1635.17 1114.52 1632.97 1116.28 1630.78 1118.03 1629.07 1120.59 1627.85 1123.93L1621.01 1123.93 1621.01 1113.74C1625.47 1111.9 1629.57 1110.56 1633.31 1109.72 1637.06 1108.88 1640.43 1108.47 1643.42 1108.47Z" fill="#0000FF" fill-rule="evenodd"/><text fill="#000000" fill-opacity="0" font-family="Arial,Arial_MSFontService,sans-serif" font-size="67.6587" x="1619.34" y="1167.67">21</text><path d="M2680.45 1048.22 2745.19 1048.22 2740.24 1070.25 2733.35 1070.25C2733.15 1066.57 2732.85 1063.66 2732.45 1061.53 2732.04 1059.4 2731.47 1057.87 2730.73 1056.94 2729.98 1056.01 2729.09 1055.37 2728.03 1055.04 2726.98 1054.7 2725.4 1054.53 2723.3 1054.53L2701.19 1054.53 2692.65 1093.58 2706.07 1093.58C2708.18 1093.58 2709.92 1093.29 2711.31 1092.72 2712.7 1092.15 2713.99 1091.11 2715.19 1089.6 2716.38 1088.09 2717.87 1085.52 2719.64 1081.88L2726.17 1081.88 2719.21 1112.17 2712.89 1112.17C2712.89 1107.34 2712.73 1104.31 2712.42 1103.09 2712.11 1101.87 2711.51 1101.03 2710.63 1100.58 2709.74 1100.13 2707.98 1099.9 2705.35 1099.9L2691.28 1099.9 2685.61 1125.31C2684.61 1129.81 2684.11 1133.54 2684.11 1136.5 2684.11 1137.99 2684.35 1139.15 2684.82 1139.99 2685.3 1140.82 2686.02 1141.43 2686.98 1141.82 2687.93 1142.2 2689.58 1142.49 2691.93 1142.68L2691.14 1146.19 2661.64 1146.19 2662.43 1142.68C2664.25 1142.39 2665.61 1141.92 2666.52 1141.28 2667.43 1140.63 2668.2 1139.73 2668.82 1138.59 2669.44 1137.44 2670.01 1136.04 2670.54 1134.39 2671.07 1132.74 2671.86 1129.54 2672.91 1124.8L2685.11 1069.54C2686.16 1064.75 2686.69 1060.97 2686.69 1058.2 2686.69 1055.85 2686.14 1054.22 2685.04 1053.31 2683.94 1052.41 2682.14 1051.88 2679.66 1051.74Z" fill="#0000FF" fill-rule="evenodd"/><text fill="#000000" fill-opacity="0" font-family="Arial,Arial_MSFontService,sans-serif" font-size="97.9761" x="2661.64" y="1133.95">­Юљ╣</text><path d="M2725.74 1002.62 2743.75 1018.2 2743.75 1022.36 2725.74 1037.94 2721.93 1033.63 2733.42 1023.65 2689.63 1023.65 2689.63 1016.91 2733.42 1016.91 2721.93 1006.93Z" fill="#0000FF" fill-rule="evenodd"/><text fill="#000000" fill-opacity="0" font-family="Arial,Arial_MSFontService,sans-serif" font-size="35.3145" x="2689.63" y="1033.52">нд</text><path d="M2762.76 1108.83 2765.94 1108.83C2765.87 1110.75 2765.82 1112.46 2765.79 1113.98 2765.75 1115.49 2765.73 1116.96 2765.71 1118.39 2765.69 1119.82 2765.68 1121.23 2765.68 1122.62L2765.68 1162.33C2765.68 1163.41 2765.72 1164.34 2765.79 1165.13 2765.86 1165.91 2765.97 1166.57 2766.13 1167.11 2766.28 1167.65 2766.49 1168.11 2766.75 1168.5 2767.01 1168.88 2767.32 1169.21 2767.67 1169.49 2768.09 1169.91 2768.64 1170.23 2769.34 1170.45 2770.04 1170.68 2770.92 1170.87 2772 1171.03 2773.08 1171.19 2774.38 1171.31 2775.9 1171.4 2777.41 1171.48 2779.23 1171.54 2781.36 1171.58L2781.36 1176.12 2739.92 1176.12 2739.92 1171.58C2741.98 1171.51 2743.72 1171.43 2745.15 1171.34 2746.58 1171.26 2747.8 1171.13 2748.81 1170.98 2749.82 1170.82 2750.63 1170.65 2751.24 1170.45 2751.85 1170.26 2752.38 1170.03 2752.83 1169.75 2753.32 1169.44 2753.73 1169.1 2754.08 1168.73 2754.43 1168.36 2754.71 1167.9 2754.92 1167.35 2755.13 1166.79 2755.29 1166.11 2755.42 1165.31 2755.54 1164.51 2755.6 1163.51 2755.6 1162.33L2755.6 1124.87C2755.6 1123.51 2755.34 1122.55 2754.81 1122 2754.29 1121.44 2753.54 1121.16 2752.57 1121.16 2751.49 1121.16 2749.89 1121.72 2747.76 1122.83 2745.64 1123.95 2742.89 1125.6 2739.51 1127.8 2739.05 1126.99 2738.64 1126.19 2738.25 1125.39 2737.87 1124.59 2737.47 1123.77 2737.05 1122.94 2741.37 1120.57 2745.65 1118.21 2749.88 1115.86 2754.11 1113.51 2758.4 1111.16 2762.76 1108.83ZM2820.68 1108.46C2824.3 1108.46 2827.39 1108.87 2829.95 1109.69 2832.51 1110.51 2834.6 1111.62 2836.2 1113.01 2837.8 1114.4 2838.96 1116.08 2839.67 1118.03 2840.39 1119.98 2840.74 1122.08 2840.74 1124.35 2840.74 1125.71 2840.65 1126.97 2840.46 1128.14 2840.26 1129.3 2839.93 1130.45 2839.46 1131.58 2838.99 1132.72 2838.38 1133.86 2837.61 1135.01 2836.84 1136.16 2835.88 1137.37 2834.74 1138.66 2833.86 1139.78 2832.73 1141.07 2831.34 1142.53 2829.95 1143.99 2828.42 1145.56 2826.77 1147.23 2825.11 1148.9 2823.38 1150.64 2821.57 1152.46 2819.76 1154.27 2818 1156.06 2816.29 1157.84 2814.59 1159.61 2813.02 1161.34 2811.59 1163.01 2810.16 1164.68 2809 1166.21 2808.09 1167.61L2827.42 1167.61C2829.06 1167.61 2830.36 1167.55 2831.34 1167.42 2832.31 1167.3 2833.12 1167.03 2833.77 1166.61 2834.41 1166.2 2834.96 1165.56 2835.41 1164.71 2835.87 1163.85 2836.39 1162.68 2836.98 1161.18L2841.84 1161.18C2841.67 1163.65 2841.5 1166.14 2841.34 1168.65 2841.19 1171.16 2841.02 1173.65 2840.85 1176.12L2796.6 1176.12 2796.6 1173.41C2797.43 1171.53 2798.41 1169.67 2799.52 1167.84 2800.64 1166.01 2801.89 1164.16 2803.28 1162.28 2804.68 1160.4 2806.26 1158.46 2808.04 1156.45 2809.81 1154.45 2811.78 1152.37 2813.94 1150.21 2817.22 1146.94 2819.88 1144.14 2821.93 1141.82 2823.99 1139.51 2825.61 1137.44 2826.79 1135.63 2827.98 1133.82 2828.79 1132.15 2829.22 1130.62 2829.66 1129.08 2829.88 1127.45 2829.88 1125.71 2829.88 1123.93 2829.62 1122.29 2829.12 1120.79 2828.61 1119.3 2827.89 1118.03 2826.95 1116.98 2826.01 1115.94 2824.82 1115.12 2823.37 1114.53 2821.93 1113.93 2820.26 1113.64 2818.38 1113.64 2815.14 1113.64 2812.43 1114.52 2810.23 1116.28 2808.04 1118.03 2806.33 1120.59 2805.11 1123.93L2798.27 1123.93 2798.27 1113.74C2802.73 1111.9 2806.83 1110.55 2810.57 1109.72 2814.32 1108.88 2817.69 1108.46 2820.68 1108.46Z" fill="#0000FF" fill-rule="evenodd"/><text fill="#000000" fill-opacity="0" font-family="Arial,Arial_MSFontService,sans-serif" font-size="67.6587" x="2737.05" y="1167.67">12</text></g></svg>