<svg width="1863" height="1847" xmlns="http://www.w3.org/2000/svg" xmlns:xlink="http://www.w3.org/1999/xlink" overflow="hidden"><defs><clipPath id="clip0"><rect x="543" y="1301" width="1863" height="1847"/></clipPath></defs><g clip-path="url(#clip0)" transform="translate(-543 -1301)"><path d="M1273.66 1983.9C1368.28 2015.7 1432.64 2104.57 1423.43 2190.7" stroke="#000000" stroke-width="2.29167" stroke-miterlimit="8" fill="none" fill-rule="evenodd"/><rect x="605.5" y="1328.5" width="584" height="1817" stroke="#000000" stroke-width="4.58333" stroke-miterlimit="8" fill="#7F7F7F"/><rect x="1023.5" y="2045.5" width="128" height="145" stroke="#2F5597" stroke-width="4.58333" stroke-miterlimit="8" fill="#B4C7E7"/><path d="M1087 2190 1469.39 2190" stroke="#FF0000" stroke-width="2.29167" stroke-miterlimit="8" fill="none" fill-rule="evenodd"/><path d="M3.27169-3.20983 317.632 317.21 311.089 323.629-3.27169 3.20983ZM306.248 273.707 320.969 327.155 267.811 311.417C265.384 310.698 263.999 308.148 264.718 305.721 265.436 303.294 267.986 301.909 270.414 302.627L315.66 316.024 309.94 321.635 297.411 276.141C296.738 273.701 298.172 271.177 300.612 270.505 303.053 269.833 305.576 271.266 306.248 273.707Z" fill="#FF0000" transform="matrix(1 0 0 -1 1082.5 2172.66)"/><rect x="545.5" y="1303.5" width="704" height="30.9999" stroke="#000000" stroke-width="4.58333" stroke-miterlimit="8" fill="#7F7F7F"/><rect x="644.5" y="2683.5" width="127" height="144" stroke="#2F5597" stroke-width="4.58333" stroke-miterlimit="8" fill="#B4C7E7"/><rect x="833.5" y="2683.5" width="128" height="144" stroke="#2F5597" stroke-width="4.58333" stroke-miterlimit="8" fill="#B4C7E7"/><rect x="1023.5" y="2683.5" width="128" height="144" stroke="#2F5597" stroke-width="4.58333" stroke-miterlimit="8" fill="#B4C7E7"/><rect x="644.5" y="2895.5" width="127" height="144" stroke="#2F5597" stroke-width="4.58333" stroke-miterlimit="8" fill="#B4C7E7"/><rect x="833.5" y="2895.5" width="128" height="144" stroke="#2F5597" stroke-width="4.58333" stroke-miterlimit="8" fill="#B4C7E7"/><rect x="1023.5" y="2895.5" width="128" height="144" stroke="#2F5597" stroke-width="4.58333" stroke-miterlimit="8" fill="#B4C7E7"/><rect x="644.5" y="3107.5" width="127" height="38.0002" stroke="#2F5597" stroke-width="4.58333" stroke-miterlimit="8" fill="#B4C7E7"/><rect x="833.5" y="3107.5" width="128" height="38.0002" stroke="#2F5597" stroke-width="4.58333" stroke-miterlimit="8" fill="#B4C7E7"/><path d="M1105.5 2145.81C1195.93 2064.06 1533.62 1679.36 1634.35 1680.5 1735.09 1681.65 1792.7 1926.91 1709.9 2152.69 1627.1 2378.47 1493.36 2674.73 1122.67 2998.5" stroke="#FF0000" stroke-width="4.58333" stroke-miterlimit="8" stroke-dasharray="18.3333 13.75" stroke-opacity="0.380392" fill="none" fill-rule="evenodd"/><rect x="1023.5" y="3107.5" width="128" height="38.0002" stroke="#2F5597" stroke-width="4.58333" stroke-miterlimit="8" fill="#B4C7E7"/><rect x="644.5" y="2045.5" width="127" height="145" stroke="#2F5597" stroke-width="4.58333" stroke-miterlimit="8" fill="#B4C7E7"/><rect x="833.5" y="2045.5" width="128" height="145" stroke="#2F5597" stroke-width="4.58333" stroke-miterlimit="8" fill="#B4C7E7"/><rect x="644.5" y="2258.5" width="127" height="145" stroke="#2F5597" stroke-width="4.58333" stroke-miterlimit="8" fill="#B4C7E7"/><rect x="833.5" y="2258.5" width="128" height="145" stroke="#2F5597" stroke-width="4.58333" stroke-miterlimit="8" fill="#B4C7E7"/><rect x="1023.5" y="2258.5" width="128" height="145" stroke="#2F5597" stroke-width="4.58333" stroke-miterlimit="8" fill="#B4C7E7"/><rect x="644.5" y="2470.5" width="127" height="145" stroke="#2F5597" stroke-width="4.58333" stroke-miterlimit="8" fill="#B4C7E7"/><rect x="833.5" y="2470.5" width="128" height="145" stroke="#2F5597" stroke-width="4.58333" stroke-miterlimit="8" fill="#B4C7E7"/><rect x="1023.5" y="2470.5" width="128" height="145" stroke="#2F5597" stroke-width="4.58333" stroke-miterlimit="8" fill="#B4C7E7"/><rect x="644.5" y="2682.5" width="127" height="145" stroke="#2F5597" stroke-width="4.58333" stroke-miterlimit="8" fill="#B4C7E7"/><rect x="833.5" y="2682.5" width="128" height="145" stroke="#2F5597" stroke-width="4.58333" stroke-miterlimit="8" fill="#B4C7E7"/><rect x="1023.5" y="2682.5" width="128" height="145" stroke="#2F5597" stroke-width="4.58333" stroke-miterlimit="8" fill="#B4C7E7"/><path d="M1057.5 2158C1057.5 2140.05 1072.05 2125.5 1090 2125.5 1107.95 2125.5 1122.5 2140.05 1122.5 2158 1122.5 2175.95 1107.95 2190.5 1090 2190.5 1072.05 2190.5 1057.5 2175.95 1057.5 2158Z" stroke="#262626" stroke-width="4.58333" stroke-miterlimit="8" fill="#404040" fill-rule="evenodd"/><rect x="644.5" y="1621.5" width="127" height="144" stroke="#2F5597" stroke-width="4.58333" stroke-miterlimit="8" fill="#B4C7E7"/><rect x="833.5" y="1621.5" width="128" height="144" stroke="#2F5597" stroke-width="4.58333" stroke-miterlimit="8" fill="#B4C7E7"/><rect x="1023.5" y="1621.5" width="128" height="144" stroke="#2F5597" stroke-width="4.58333" stroke-miterlimit="8" fill="#B4C7E7"/><rect x="644.5" y="1833.5" width="127" height="144" stroke="#2F5597" stroke-width="4.58333" stroke-miterlimit="8" fill="#B4C7E7"/><rect x="833.5" y="1833.5" width="128" height="144" stroke="#2F5597" stroke-width="4.58333" stroke-miterlimit="8" fill="#B4C7E7"/><rect x="1023.5" y="1833.5" width="128" height="144" stroke="#2F5597" stroke-width="4.58333" stroke-miterlimit="8" fill="#B4C7E7"/><rect x="644.5" y="1408.5" width="127" height="145" stroke="#2F5597" stroke-width="4.58333" stroke-miterlimit="8" fill="#B4C7E7"/><rect x="833.5" y="1408.5" width="128" height="145" stroke="#2F5597" stroke-width="4.58333" stroke-miterlimit="8" fill="#B4C7E7"/><rect x="1023.5" y="1408.5" width="128" height="145" stroke="#2F5597" stroke-width="4.58333" stroke-miterlimit="8" fill="#B4C7E7"/><rect x="644.5" y="1620.5" width="127" height="145" stroke="#2F5597" stroke-width="4.58333" stroke-miterlimit="8" fill="#B4C7E7"/><rect x="833.5" y="1620.5" width="128" height="145" stroke="#2F5597" stroke-width="4.58333" stroke-miterlimit="8" fill="#B4C7E7"/><rect x="1023.5" y="1620.5" width="128" height="145" stroke="#2F5597" stroke-width="4.58333" stroke-miterlimit="8" fill="#B4C7E7"/><path d="M1059.5 3007C1059.5 2989.05 1074.05 2974.5 1092 2974.5 1109.95 2974.5 1124.5 2989.05 1124.5 3007 1124.5 3024.95 1109.95 3039.5 1092 3039.5 1074.05 3039.5 1059.5 3024.95 1059.5 3007Z" stroke="#262626" stroke-width="4.58333" stroke-miterlimit="8" stroke-opacity="0.501961" fill="#404040" fill-rule="evenodd" fill-opacity="0.501961"/><rect x="1186.5" y="1731.5" width="292" height="134" stroke="#FF0000" stroke-width="3.4375" stroke-linejoin="round" stroke-miterlimit="10" stroke-opacity="0" fill="none"/><text font-family="Calibri,Calibri_MSFontService,sans-serif" font-weight="400" font-size="83" transform="matrix(1 0 0 1 1219.45 1825)">$v_0$</text><rect x="1169.5" y="2074.5" width="514" height="134" stroke="#FF0000" stroke-width="3.4375" stroke-linejoin="round" stroke-miterlimit="10" stroke-opacity="0" fill="none"/><text font-family="Calibri,Calibri_MSFontService,sans-serif" font-weight="400" font-size="83" transform="matrix(1 0 0 1 1202.2 2168)">$45^{<tspan font-size="83" x="192.5" y="0">\</tspan><tspan font-size="83" x="224.583" y="0">circ</tspan><tspan font-size="83" x="340.817" y="0">}$</tspan></text><path d="M1931.01 1553 1931.01 1756.76 1922.99 1756.76 1922.99 1553ZM1953.42 1717.46 1927 1765.02 1900.58 1717.46C1899.5 1715.52 1900.2 1713.08 1902.14 1712 1904.07 1710.93 1906.51 1711.63 1907.59 1713.56L1930.51 1754.81 1923.49 1754.81 1946.41 1713.56C1947.49 1711.63 1949.93 1710.93 1951.86 1712 1953.8 1713.08 1954.5 1715.52 1953.42 1717.46Z"/><rect x="1920.5" y="1576.5" width="394" height="134" stroke="#FF0000" stroke-width="3.4375" stroke-linejoin="round" stroke-miterlimit="10" stroke-opacity="0" fill="none"/><text font-family="Calibri,Calibri_MSFontService,sans-serif" font-weight="400" font-size="83" transform="matrix(1 0 0 1 1952.78 1670)">$<tspan font-size="83" x="41.823" y="0">\</tspan><tspan font-size="83" x="73.9063" y="0">vec</tspan><tspan font-size="83" x="186.542" y="0">{g</tspan><tspan font-size="83" x="251.281" y="0">}</tspan>$</text><path d="M2008.02 2145.01 1804.26 2145.01 1804.26 2136.99 2008.02 2136.99ZM1843.56 2167.42 1796 2141 1843.56 2114.58C1845.5 2113.5 1847.94 2114.2 1849.02 2116.14 1850.09 2118.07 1849.4 2120.51 1847.46 2121.59L1806.21 2144.51 1806.21 2137.49 1847.46 2160.41C1849.4 2161.49 1850.09 2163.93 1849.02 2165.86 1847.94 2167.8 1845.5 2168.5 1843.56 2167.42Z"/><rect x="1830.5" y="2005.5" width="483" height="134" stroke="#FF0000" stroke-width="3.4375" stroke-linejoin="round" stroke-miterlimit="10" stroke-opacity="0" fill="none"/><text font-family="Calibri,Calibri_MSFontService,sans-serif" font-weight="400" font-size="83" transform="matrix(1 0 0 1 1862.65 2099)">$<tspan font-size="83" x="41.8229" y="0">\</tspan><tspan font-size="83" x="73.9063" y="0">vec</tspan><tspan font-size="83" x="186.542" y="0">{a}_v$</tspan></text><path d="M1853 2234.75C1888.38 2214.3 1927.09 2196.96 1969.74 2198.09 2015.98 2200.59 2044.79 2242.74 2102.5 2243.91 2144.89 2249.51 2198.22 2230.81 2249 2207.25" stroke="#000000" stroke-width="2.29167" stroke-miterlimit="8" stroke-dasharray="18.3333 6.875 2.29167 6.875 2.29167 6.875" stroke-opacity="0.2" fill="none" fill-rule="evenodd"/><path d="M1959 2333.75C1994.38 2313.3 2033.09 2295.96 2075.74 2297.09 2121.98 2299.59 2150.79 2341.74 2208.5 2342.91 2250.89 2348.51 2304.22 2329.81 2355 2306.25" stroke="#000000" stroke-width="2.29167" stroke-miterlimit="8" stroke-dasharray="18.3333 6.875 2.29167 6.875 2.29167 6.875" stroke-opacity="0.2" fill="none" fill-rule="evenodd"/><path d="M1853 2026.75C1888.38 2006.3 1927.09 1988.96 1969.74 1990.09 2015.98 1992.59 2044.79 2034.74 2102.5 2035.91 2144.89 2041.51 2198.22 2022.81 2249 1999.25" stroke="#000000" stroke-width="2.29167" stroke-miterlimit="8" stroke-dasharray="18.3333 6.875 2.29167 6.875 2.29167 6.875" stroke-opacity="0.2" fill="none" fill-rule="evenodd"/><path d="M2008 1937.75C2043.47 1917.3 2082.28 1899.96 2125.03 1901.09 2171.39 1903.59 2200.27 1945.74 2258.13 1946.91 2300.63 1952.51 2354.09 1933.81 2405 1910.25" stroke="#000000" stroke-width="2.29167" stroke-miterlimit="8" stroke-dasharray="18.3333 6.875 2.29167 6.875 2.29167 6.875" stroke-opacity="0.2" fill="none" fill-rule="evenodd"/><path d="M1810 2525.75C1845.38 2505.3 1884.09 2487.96 1926.74 2489.09 1972.98 2491.59 2001.79 2533.74 2059.5 2534.91 2101.89 2540.51 2155.22 2521.81 2206 2498.25" stroke="#000000" stroke-width="2.29167" stroke-miterlimit="8" stroke-dasharray="18.3333 6.875 2.29167 6.875 2.29167 6.875" stroke-opacity="0.2" fill="none" fill-rule="evenodd"/><path d="M2008 2683.75C2043.47 2663.3 2082.28 2645.96 2125.03 2647.09 2171.39 2649.59 2200.27 2691.74 2258.13 2692.91 2300.63 2698.51 2354.09 2679.81 2405 2656.25" stroke="#000000" stroke-width="2.29167" stroke-miterlimit="8" stroke-dasharray="18.3333 6.875 2.29167 6.875 2.29167 6.875" stroke-opacity="0.2" fill="none" fill-rule="evenodd"/></g></svg>