<svg width="998" height="839" xmlns="http://www.w3.org/2000/svg" xmlns:xlink="http://www.w3.org/1999/xlink" xml:space="preserve" overflow="hidden"><defs><clipPath id="clip0"><rect x="1085" y="189" width="998" height="839"/></clipPath></defs><g clip-path="url(#clip0)" transform="translate(-1085 -189)"><path d="M1793.5 968C1434.79 968 1144 677.209 1144 318.5" stroke="#595959" stroke-width="2.29167" stroke-miterlimit="8" stroke-dasharray="9.16667 6.875" fill="none" fill-rule="evenodd"/><path d="M1767.5 318.5C1767.5 304.141 1779.14 292.5 1793.5 292.5 1807.86 292.5 1819.5 304.141 1819.5 318.5 1819.5 332.859 1807.86 344.5 1793.5 344.5 1779.14 344.5 1767.5 332.859 1767.5 318.5Z" stroke="#000000" stroke-width="4.58333" stroke-miterlimit="8" fill-rule="evenodd"/><path d="M2028 750.5C2028 868.965 1932.19 965 1814 965" stroke="#595959" stroke-width="2.29167" stroke-miterlimit="8" stroke-dasharray="9.16667 6.875" fill="none" fill-rule="evenodd"/><path d="M1780.5 318.5C1780.5 311.32 1786.32 305.5 1793.5 305.5 1800.68 305.5 1806.5 311.32 1806.5 318.5 1806.5 325.68 1800.68 331.5 1793.5 331.5 1786.32 331.5 1780.5 325.68 1780.5 318.5Z" stroke="#404040" stroke-width="4.58333" stroke-miterlimit="8" fill="#404040" fill-rule="evenodd"/><path d="M0 0 589.852 0.000360892" stroke="#000000" stroke-width="4.58333" stroke-miterlimit="8" fill="none" fill-rule="evenodd" transform="matrix(-1 0 0 1 1767.35 318.5)"/><path d="M1087.5 318.5C1087.5 289.781 1110.78 266.5 1139.5 266.5 1168.22 266.5 1191.5 289.781 1191.5 318.5 1191.5 347.219 1168.22 370.5 1139.5 370.5 1110.78 370.5 1087.5 347.219 1087.5 318.5Z" stroke="#000000" stroke-width="4.58333" stroke-miterlimit="8" fill="#D0CECE" fill-rule="evenodd"/><path d="M0 0 0.000360892 188.606" stroke="#7F7F7F" stroke-width="4.58333" stroke-miterlimit="8" stroke-dasharray="18.3333 13.75" fill="#D0CECE" fill-rule="evenodd" transform="matrix(0.235991 0.971755 0.971755 -0.235991 1806.93 748.722)"/><path d="M2078.31 682.818C2085.08 710.708 2067.96 738.809 2040.07 745.582 2012.18 752.356 1984.08 735.236 1977.31 707.346 1970.53 679.455 1987.65 651.354 2015.54 644.581 2043.43 637.808 2071.54 654.927 2078.31 682.818Z" stroke="#7F7F7F" stroke-width="4.58333" stroke-miterlimit="8" stroke-dasharray="18.3333 13.75" fill="#D0CECE" fill-rule="evenodd"/><rect x="1356" y="198" width="249" height="133" fill="#4472C4" fill-opacity="0.0117647"/><text font-family="Calibri,Calibri_MSFontService,sans-serif" font-weight="400" font-size="83" transform="matrix(1 0 0 1 1421 292)">$L$</text><path d="M0 0 589.852 0.000360892" stroke="#7F7F7F" stroke-width="4.58333" stroke-miterlimit="8" stroke-dasharray="18.3333 13.75" fill="#D0CECE" fill-rule="evenodd" transform="matrix(1.83697e-16 1 1 -1.83697e-16 1793.5 344.5)"/><path d="M1793.5 1025.5C1764.78 1025.5 1741.5 1002.22 1741.5 973.5 1741.5 944.781 1764.78 921.5 1793.5 921.5 1822.22 921.5 1845.5 944.781 1845.5 973.5 1845.5 1002.22 1822.22 1025.5 1793.5 1025.5Z" stroke="#7F7F7F" stroke-width="4.58333" stroke-miterlimit="8" stroke-dasharray="18.3333 13.75" fill="#D0CECE" fill-rule="evenodd"/><path d="M1795.5 726C1795.5 715.23 1804.23 706.5 1815 706.5 1825.77 706.5 1834.5 715.23 1834.5 726 1834.5 736.77 1825.77 745.5 1815 745.5 1804.23 745.5 1795.5 736.77 1795.5 726Z" stroke="#000000" stroke-width="4.58333" stroke-miterlimit="8" fill="#404040" fill-rule="evenodd"/><path d="M1722.94 728.306 1722.94 958.648 1716.06 958.648 1716.06 728.306ZM1700.49 754.074 1719.5 721.484 1738.51 754.074C1739.47 755.714 1738.91 757.819 1737.27 758.776 1735.63 759.732 1733.53 759.178 1732.57 757.538L1716.53 730.038 1722.47 730.038 1706.43 757.538C1705.47 759.178 1703.37 759.732 1701.73 758.776 1700.09 757.819 1699.53 755.714 1700.49 754.074ZM1738.51 932.88 1719.5 965.47 1700.49 932.88C1699.53 931.24 1700.09 929.135 1701.73 928.178 1703.37 927.222 1705.47 927.776 1706.43 929.416L1722.47 956.916 1716.53 956.916 1732.57 929.416C1733.53 927.776 1735.63 927.222 1737.27 928.178 1738.91 929.135 1739.47 931.24 1738.51 932.88Z"/><rect x="1544" y="776" width="249" height="134" fill="#4472C4" fill-opacity="0.0117647"/><text font-family="Calibri,Calibri_MSFontService,sans-serif" font-weight="400" font-size="83" transform="matrix(1 0 0 1 1604.4 870)">$R$</text><path d="M1845 968.99 2019.72 968.99 2019.72 977.011 1845 977.011ZM1994.24 953.495 2027.68 973.001 1994.24 992.506C1992.33 993.622 1989.87 992.976 1988.75 991.063 1987.64 989.15 1988.28 986.694 1990.2 985.578L2017.7 969.536 2017.7 976.465 1990.2 960.423C1988.28 959.307 1987.64 956.851 1988.75 954.938 1989.87 953.025 1992.33 952.379 1994.24 953.495Z"/><path d="M2013.39 640.33 1989.09 576.849 1996.58 573.983 2020.88 637.463ZM1983.73 606.184 1989.99 567.983 2020.16 592.24C2021.89 593.628 2022.16 596.153 2020.77 597.879 2019.39 599.605 2016.86 599.879 2015.14 598.491L1990.33 578.541 1996.8 576.065 1991.64 607.482C1991.28 609.668 1989.22 611.149 1987.04 610.791 1984.85 610.432 1983.37 608.37 1983.73 606.184Z"/></g></svg>