<svg width="1704" height="670" xmlns="http://www.w3.org/2000/svg" xmlns:xlink="http://www.w3.org/1999/xlink" overflow="hidden"><defs><clipPath id="clip0"><rect x="2634" y="1349" width="1704" height="670"/></clipPath></defs><g clip-path="url(#clip0)" transform="translate(-2634 -1349)"><rect x="2651.5" y="1358.5" width="1685" height="633" stroke="#000000" stroke-width="3.4375" stroke-linejoin="round" stroke-miterlimit="10" stroke-opacity="0" fill="none"/><text font-family="Calibri,Calibri_MSFontService,sans-serif" font-weight="400" font-size="83" transform="matrix(1 0 0 1 2684.32 1452)">$<tspan font-size="83" x="41.823" y="0">\</tspan><tspan font-size="83" x="73.9063" y="0">bullet</tspan><tspan font-size="83" x="267.117" y="0">$ Teo. coseno:</tspan><tspan font-size="83" x="745.502" y="0">\</tspan>\<tspan font-size="83" x="0" y="99">\</tspan><tspan font-size="83" x="32.0835" y="99">begin</tspan><tspan font-size="83" x="218.281" y="99">{</tspan>align<tspan font-size="83" x="403.906" y="99">*}</tspan><tspan font-size="83" x="0" y="198">a^2&amp;=b^2+c^2</tspan><tspan font-size="83" x="505.886" y="198">-</tspan><tspan font-size="83" x="531.094" y="198">2bc</tspan>\<tspan font-size="83" x="683.49" y="198">cos{</tspan><tspan font-size="83" x="819.156" y="198">\</tspan><tspan font-size="83" x="851.24" y="198">alpha</tspan><tspan font-size="83" x="1036.29" y="198">}</tspan>\<tspan font-size="83" x="1094.16" y="198">\</tspan><tspan font-size="83" x="0" y="297">b^2&amp;=a^2+c^2</tspan><tspan font-size="83" x="505.886" y="297">-</tspan><tspan font-size="83" x="531.094" y="297">2ac</tspan><tspan font-size="83" x="647.396" y="297">\</tspan><tspan font-size="83" x="679.479" y="297">cos{</tspan><tspan font-size="83" x="815.146" y="297">\</tspan><tspan font-size="83" x="847.229" y="297">beta}</tspan>\<tspan font-size="83" x="1055.47" y="297">\</tspan><tspan font-size="83" x="0" y="396">c^2&amp;=a^2+b^2</tspan><tspan font-size="83" x="505.886" y="396">-</tspan><tspan font-size="83" x="531.094" y="396">2ab</tspan><tspan font-size="83" x="655.99" y="396">\</tspan><tspan font-size="83" x="688.073" y="396">cos{</tspan><tspan font-size="83" x="823.74" y="396">\</tspan><tspan font-size="83" x="855.823" y="396">gamma}</tspan><tspan font-size="83" x="1129.86" y="396">\</tspan><tspan font-size="83" x="1161.94" y="396">\</tspan><tspan font-size="83" x="0" y="495">\</tspan><tspan font-size="83" x="32.0835" y="495">end</tspan><tspan font-size="83" x="160.417" y="495">{</tspan>align<tspan font-size="83" x="346.042" y="495">*} </tspan></text></g></svg>