<svg width="2456" height="1329" xmlns="http://www.w3.org/2000/svg" xmlns:xlink="http://www.w3.org/1999/xlink" overflow="hidden"><defs><clipPath id="clip0"><rect x="41" y="784" width="2456" height="1329"/></clipPath></defs><g clip-path="url(#clip0)" transform="translate(-41 -784)"><path d="M63.9999 1948 2480 798 1605.52 1948 63.9999 1948Z" stroke="#000000" stroke-width="10.3125" stroke-miterlimit="8" fill="none" fill-rule="evenodd"/><rect x="229.5" y="1832.5" width="381" height="133" stroke="#000000" stroke-width="3.4375" stroke-linejoin="round" stroke-miterlimit="10" stroke-opacity="0" fill="none"/><text font-family="Calibri,Calibri_MSFontService,sans-serif" font-weight="400" font-size="83" transform="matrix(1 0 0 1 262.167 1925)">$<tspan font-size="83" x="41.8229" y="0">\</tspan><tspan font-size="83" x="73.9063" y="0">alpha</tspan><tspan font-size="83" x="258.958" y="0">$</tspan></text><rect x="2221.5" y="894.5" width="231" height="234" stroke="#000000" stroke-width="3.4375" stroke-linejoin="round" stroke-miterlimit="10" stroke-opacity="0" fill="none"/><text font-family="Calibri,Calibri_MSFontService,sans-serif" font-weight="400" font-size="83" transform="matrix(1 0 0 1 2253.62 988)">$<tspan font-size="83" x="41.823" y="0">\</tspan><tspan font-size="83" x="73.9063" y="0">be</tspan><tspan font-size="83" x="0" y="99">ta$</tspan></text><rect x="1524.5" y="1815.5" width="431" height="133" stroke="#000000" stroke-width="3.4375" stroke-linejoin="round" stroke-miterlimit="10" stroke-opacity="0" fill="none"/><text font-family="Calibri,Calibri_MSFontService,sans-serif" font-weight="400" font-size="83" transform="matrix(1 0 0 1 1556.96 1908)">$<tspan font-size="83" x="41.8229" y="0">\</tspan><tspan font-size="83" x="73.9063" y="0">gamma$</tspan></text><rect x="1208.5" y="1239.5" width="208" height="134" stroke="#000000" stroke-width="3.4375" stroke-linejoin="round" stroke-miterlimit="10" stroke-opacity="0" fill="none"/><text font-family="Calibri,Calibri_MSFontService,sans-serif" font-weight="400" font-size="83" transform="matrix(1 0 0 1 1240.71 1333)">$<tspan font-size="83" x="41.8229" y="0">c$</tspan></text><rect x="1045.5" y="1948.5" width="209" height="133" stroke="#000000" stroke-width="3.4375" stroke-linejoin="round" stroke-miterlimit="10" stroke-opacity="0" fill="none"/><text font-family="Calibri,Calibri_MSFontService,sans-serif" font-weight="400" font-size="83" transform="matrix(1 0 0 1 1078 2041)">$<tspan font-size="83" x="41.8229" y="0">b$</tspan></text><rect x="1955.5" y="1412.5" width="208" height="133" stroke="#000000" stroke-width="3.4375" stroke-linejoin="round" stroke-miterlimit="10" stroke-opacity="0" fill="none"/><text font-family="Calibri,Calibri_MSFontService,sans-serif" font-weight="400" font-size="83" transform="matrix(1 0 0 1 1987.79 1505)">$a$</text><path d="M354.868 1810.42C396.549 1842.99 411.036 1898.63 390.064 1945.58" stroke="#000000" stroke-width="2.29167" stroke-miterlimit="8" fill="none" fill-rule="evenodd"/><path d="M1515.98 1948.85C1503.47 1887.31 1544.58 1829.47 1607.8 1819.67 1634.69 1815.5 1662.61 1820.68 1686.64 1834.31" stroke="#000000" stroke-width="2.29167" stroke-miterlimit="8" fill="none" fill-rule="evenodd"/><path d="M2286.34 1053.53C2231.58 1035.62 2189.51 988.483 2186.26 941.387" stroke="#000000" stroke-width="2.29167" stroke-miterlimit="8" fill="none" fill-rule="evenodd"/></g></svg>