<svg width="2315" height="2217" xmlns="http://www.w3.org/2000/svg" xmlns:xlink="http://www.w3.org/1999/xlink" overflow="hidden"><defs><clipPath id="clip0"><rect x="632" y="2" width="2315" height="2217"/></clipPath><clipPath id="clip1"><rect x="1954" y="223" width="982" height="123"/></clipPath><clipPath id="clip2"><rect x="1954" y="223" width="982" height="123"/></clipPath><clipPath id="clip3"><rect x="1653" y="-478" width="3235" height="1554"/></clipPath><clipPath id="clip4"><rect x="662" y="1752" width="2274" height="123"/></clipPath><clipPath id="clip5"><rect x="662" y="1752" width="2274" height="123"/></clipPath><clipPath id="clip6"><rect x="-37" y="1051" width="7495" height="1554"/></clipPath></defs><g clip-path="url(#clip0)" transform="translate(-632 -2)"><path d="M1927.54 256.987 1967.23 290.285 676.538 1828.47 636.855 1795.17Z" stroke="#000000" stroke-width="6.875" stroke-miterlimit="8" fill="none" fill-rule="evenodd"/><path d="M2936.5 2.4999 2936.5 2208.11" stroke="#000000" stroke-width="20.625" stroke-miterlimit="8" fill="none" fill-rule="evenodd"/><g clip-path="url(#clip1)"><g clip-path="url(#clip2)"><g clip-path="url(#clip3)"><path d="M981.193 517.432 949.345 517.432C949.345 483.657 937.157 456.273 922.13 456.273 907.09 456.273 894.905 483.657 894.905 517.432 894.905 536.75 898.348 565.19 905.122 565.19 912.784 565.19 915.629 536.532 915.629 516.917 915.629 483.135 903.444 455.758 888.41 455.758 873.377 455.758 861.192 483.135 861.192 516.917 861.192 536.235 864.759 564.676 871.409 564.676 878.715 564.676 881.912 536.018 881.912 516.396 881.912 482.621 869.728 455.237 854.694 455.237 839.661 455.237 827.473 482.621 827.473 516.396 827.473 535.721 830.915 564.151 837.689 564.151 845.351 564.151 848.175 536.287 848.175 515.961 848.175 482.341 835.984 454.802 820.95 454.802 805.917 454.802 793.736 482.186 793.736 515.961 793.736 535.583 796.581 564.234 804.239 564.234 811.017 564.234 814.456 535.8 814.456 516.475 814.456 482.7 802.271 455.316 787.238 455.316 772.204 455.316 760.019 482.7 760.019 516.475 760.019 536.097 763.213 564.748 770.523 564.748 777.173 564.748 780.739 536.315 780.739 516.99 780.739 483.215 768.555 455.841 753.518 455.841 738.491 455.841 726.303 483.215 726.303 516.99 726.303 536.612 729.148 565.27 736.803 565.27 743.584 565.27 747.096 551.624 747.096 517.514 747.096 483.405 734.911 456.356 719.878 456.356 704.844 456.356 692.656 483.739 692.656 517.514 692.656 536.84 696.098 565.27 702.873 565.27 710.534 565.27 713.379 536.612 713.379 516.99 713.379 483.215 701.195 455.841 686.158 455.841 671.124 455.841 658.936 483.215 658.936 516.99 658.936 536.315 662.503 564.748 669.153 564.748 676.469 564.748 679.663 536.097 679.663 516.475 679.663 482.7 667.475 455.316 652.442 455.316 637.408 455.316 625.223 482.7 625.223 516.475 625.223 535.8 628.666 564.234 635.433 564.234 643.098 564.234 645.943 535.583 645.943 515.961 645.943 482.186 633.759 454.802 618.722 454.802 603.688 454.802 591.504 482.186 590.792 517.549L552.719 517.549" stroke="#000000" stroke-width="4.14332" stroke-miterlimit="2" fill="none" transform="matrix(-2.34167 2.04619e-16 -2.04618e-16 -1 5488.85 799.079)"/><path d="M815.298 767.329C815.298 795.932 792.11 819.12 763.507 819.12 734.903 819.12 711.715 795.932 711.715 767.329 711.715 738.725 734.903 715.537 763.507 715.537 792.11 715.537 815.298 738.725 815.298 767.329Z" stroke="#000000" stroke-width="4.14332" fill="none" transform="matrix(6.12323e-17 1 -2.34167 1.43386e-16 4887.23 -477.909)"/><path d="M1562.04 1083.56 1518.86 1083.56C1518.86 1053.72 1502.35 1029.52 1481.98 1029.52 1461.6 1029.52 1445.08 1053.72 1445.08 1083.56 1445.08 1100.62 1449.75 1125.75 1458.93 1125.75 1469.31 1125.75 1473.17 1100.43 1473.17 1083.1 1473.17 1053.26 1456.65 1029.06 1436.28 1029.06 1415.9 1029.06 1399.38 1053.26 1399.38 1083.1 1399.38 1100.17 1404.22 1125.3 1413.23 1125.3 1423.13 1125.3 1427.47 1099.98 1427.47 1082.64 1427.47 1052.8 1410.95 1028.61 1390.58 1028.61 1370.2 1028.61 1353.68 1052.8 1353.68 1082.64 1353.68 1099.71 1358.34 1124.84 1367.52 1124.84 1377.91 1124.84 1381.74 1100.22 1381.74 1082.26 1381.74 1052.55 1365.22 1028.22 1344.84 1028.22 1324.46 1028.22 1307.95 1052.42 1307.95 1082.26 1307.95 1099.59 1311.81 1124.91 1322.19 1124.91 1331.37 1124.91 1336.04 1099.79 1336.04 1082.71 1336.04 1052.87 1319.52 1028.67 1299.14 1028.67 1278.76 1028.67 1262.25 1052.87 1262.25 1082.71 1262.25 1100.05 1266.58 1125.36 1276.49 1125.36 1285.5 1125.36 1290.34 1100.24 1290.34 1083.17 1290.34 1053.32 1273.82 1029.14 1253.44 1029.14 1233.07 1029.14 1216.55 1053.32 1216.55 1083.17 1216.55 1100.5 1220.4 1125.83 1230.78 1125.83 1239.98 1125.83 1244.74 1113.77 1244.74 1083.63 1244.74 1053.49 1228.22 1029.59 1207.84 1029.59 1187.47 1029.59 1170.94 1053.79 1170.94 1083.63 1170.94 1100.71 1175.61 1125.83 1184.79 1125.83 1195.18 1125.83 1199.03 1100.5 1199.03 1083.17 1199.03 1053.32 1182.52 1029.14 1162.14 1029.14 1141.76 1029.14 1125.24 1053.32 1125.24 1083.17 1125.24 1100.24 1130.08 1125.36 1139.09 1125.36 1149 1125.36 1153.33 1100.05 1153.33 1082.71 1153.33 1052.87 1136.81 1028.67 1116.44 1028.67 1096.06 1028.67 1079.54 1052.87 1079.54 1082.71 1079.54 1099.79 1084.21 1124.91 1093.38 1124.91 1103.78 1124.91 1107.63 1099.59 1107.63 1082.26 1107.63 1052.42 1091.11 1028.22 1070.73 1028.22 1050.36 1028.22 1033.84 1052.42 1032.87 1083.66L981.27 1083.66" stroke="#000000" stroke-width="5.15348" stroke-miterlimit="2" fill="none" transform="matrix(0.657632 -0.75334 1.76408 0.280838 123.326 1200)"/><path d="M974.288 1042.25 942.439 1042.25C942.439 1008.48 930.251 981.093 915.225 981.093 900.184 981.093 888 1008.48 888 1042.25 888 1061.57 891.442 1090.01 898.216 1090.01 905.878 1090.01 908.723 1061.35 908.723 1041.74 908.723 1007.96 896.538 980.579 881.505 980.579 866.472 980.579 854.287 1007.96 854.287 1041.74 854.287 1061.06 857.854 1089.5 864.504 1089.5 871.81 1089.5 875.007 1060.84 875.007 1041.22 875.007 1007.44 862.822 980.057 847.789 980.057 832.755 980.057 820.567 1007.44 820.567 1041.22 820.567 1060.54 824.009 1088.97 830.784 1088.97 838.445 1088.97 841.27 1061.11 841.27 1040.78 841.27 1007.16 829.078 979.622 814.045 979.622 799.011 979.622 786.83 1007.01 786.83 1040.78 786.83 1060.4 789.675 1089.05 797.333 1089.05 804.111 1089.05 807.55 1060.62 807.55 1041.3 807.55 1007.52 795.365 980.137 780.332 980.137 765.299 980.137 753.114 1007.52 753.114 1041.3 753.114 1060.92 756.308 1089.57 763.617 1089.57 770.267 1089.57 773.834 1061.14 773.834 1041.81 773.834 1008.04 761.649 980.661 746.612 980.661 731.586 980.661 719.398 1008.04 719.398 1041.81 719.398 1061.43 722.243 1090.09 729.897 1090.09 736.679 1090.09 740.19 1076.44 740.19 1042.33 740.19 1008.22 728.005 981.176 712.972 981.176 697.939 981.176 685.75 1008.56 685.75 1042.33 685.75 1061.66 689.193 1090.09 695.967 1090.09 703.629 1090.09 706.474 1061.43 706.474 1041.81 706.474 1008.04 694.289 980.661 679.252 980.661 664.219 980.661 652.031 1008.04 652.031 1041.81 652.031 1061.14 655.597 1089.57 662.247 1089.57 669.564 1089.57 672.758 1060.92 672.758 1041.3 672.758 1007.52 660.569 980.137 645.536 980.137 630.503 980.137 618.318 1007.52 618.318 1041.3 618.318 1060.62 621.76 1089.05 628.528 1089.05 636.193 1089.05 639.038 1060.4 639.038 1040.78 639.038 1007.01 626.853 979.622 611.816 979.622 596.783 979.622 584.598 1007.01 583.887 1042.37L545.813 1042.37" stroke="#000000" stroke-width="4.14332" stroke-miterlimit="2" fill="none" transform="matrix(2.34167 -8.21539e-17 -8.21538e-17 1 684.151 -752.719)"/><path d="M917.852 834.473 874.679 834.473C874.679 804.63 858.162 780.435 837.793 780.435 817.411 780.435 800.894 804.63 800.894 834.473 800.894 851.54 805.562 876.668 814.74 876.668 825.124 876.668 828.981 851.347 828.981 834.018 828.981 804.171 812.464 779.98 792.09 779.98 771.713 779.98 755.196 804.171 755.196 834.018 755.196 851.085 760.031 876.212 769.046 876.212 778.949 876.212 783.282 850.896 783.282 833.559 783.282 803.716 766.77 779.52 746.392 779.52 726.014 779.52 709.493 803.716 709.493 833.559 709.493 850.63 714.161 875.753 723.339 875.753 733.723 875.753 737.554 851.132 737.554 833.172 737.554 803.467 721.032 779.134 700.655 779.134 680.277 779.134 663.769 803.333 663.769 833.172 663.769 850.509 667.621 875.822 678.001 875.822 687.187 875.822 691.851 850.703 691.851 833.627 691.851 803.784 675.334 779.589 654.956 779.589 634.578 779.589 618.062 803.784 618.062 833.627 618.062 850.965 622.39 876.277 632.302 876.277 641.317 876.277 646.152 851.158 646.152 834.083 646.152 804.24 629.635 780.053 609.253 780.053 588.888 780.053 572.367 804.24 572.367 834.083 572.367 851.42 576.219 876.741 586.599 876.741 595.79 876.741 600.552 864.681 600.552 834.546 600.552 804.407 584.036 780.508 563.658 780.508 543.28 780.508 526.759 804.703 526.759 834.546 526.759 851.622 531.427 876.741 540.609 876.741 550.993 876.741 554.845 851.42 554.845 834.083 554.845 804.24 538.333 780.053 517.955 780.053 497.577 780.053 481.056 804.24 481.056 834.083 481.056 851.158 485.892 876.277 494.902 876.277 504.818 876.277 509.147 850.965 509.147 833.627 509.147 803.784 492.626 779.589 472.252 779.589 451.875 779.589 435.358 803.784 435.358 833.627 435.358 850.703 440.026 875.822 449.199 875.822 459.592 875.822 463.444 850.509 463.444 833.172 463.444 803.333 446.927 779.134 426.547 779.134 406.17 779.134 389.654 803.333 388.69 834.576L337.083 834.576" stroke="#000000" stroke-width="5.15348" stroke-miterlimit="2" fill="none" transform="matrix(-0.657632 0.75334 -1.76408 -0.280838 5201.68 -213.615)"/><path d="M1118.03 1362.87 1069.87 1362.87C1069.87 1336.03 1051.44 1314.28 1028.72 1314.28 1005.98 1314.28 987.562 1336.03 987.562 1362.87 987.562 1378.22 992.768 1400.81 1003.01 1400.81 1014.59 1400.81 1018.89 1378.04 1018.89 1362.46 1018.89 1335.62 1000.47 1313.87 977.74 1313.87 955.007 1313.87 936.586 1335.62 936.586 1362.46 936.586 1377.8 941.977 1400.4 952.032 1400.4 963.084 1400.4 967.917 1377.63 967.917 1362.04 967.917 1335.21 949.491 1313.45 926.764 1313.45 904.031 1313.45 885.605 1335.21 885.605 1362.04 885.605 1377.39 890.81 1399.98 901.051 1399.98 912.634 1399.98 916.905 1377.85 916.905 1361.7 916.905 1334.99 898.474 1313.11 875.746 1313.11 853.013 1313.11 834.597 1334.87 834.597 1361.7 834.597 1377.29 838.899 1400.05 850.477 1400.05 860.723 1400.05 865.924 1377.46 865.924 1362.11 865.924 1335.28 847.498 1313.52 824.77 1313.52 802.037 1313.52 783.616 1335.28 783.616 1362.11 783.616 1377.7 788.445 1400.46 799.501 1400.46 809.551 1400.46 814.948 1377.87 814.948 1362.52 814.948 1335.68 796.522 1313.93 773.789 1313.93 751.071 1313.93 732.64 1335.68 732.64 1362.52 732.64 1378.11 736.942 1400.88 748.52 1400.88 758.771 1400.88 764.08 1390.03 764.08 1362.93 764.08 1335.83 745.659 1314.34 722.926 1314.34 700.198 1314.34 681.767 1336.1 681.767 1362.93 681.767 1378.29 686.973 1400.88 697.213 1400.88 708.797 1400.88 713.098 1378.11 713.098 1362.52 713.098 1335.68 694.678 1313.93 671.945 1313.93 649.217 1313.93 630.786 1335.68 630.786 1362.52 630.786 1377.87 636.182 1400.46 646.232 1400.46 657.294 1400.46 662.122 1377.7 662.122 1362.11 662.122 1335.28 643.696 1313.52 620.963 1313.52 598.236 1313.52 579.81 1335.28 579.81 1362.11 579.81 1377.46 585.015 1400.05 595.251 1400.05 606.839 1400.05 611.141 1377.29 611.141 1361.7 611.141 1334.87 592.72 1313.11 569.982 1313.11 547.254 1313.11 528.828 1334.87 527.754 1362.96L470.187 1362.96" stroke="#000000" stroke-width="6.19708" stroke-miterlimit="2" fill="none" transform="matrix(-0.82239 -0.568925 1.33224 -0.351197 1607.92 981.374)"/><path d="M1813.7 954.377 1765.31 954.377C1765.31 927.412 1746.79 905.549 1723.96 905.549 1701.11 905.549 1682.6 927.412 1682.6 954.377 1682.6 969.8 1687.83 992.505 1698.12 992.505 1709.76 992.505 1714.09 969.624 1714.09 953.967 1714.09 926.992 1695.57 905.139 1672.73 905.139 1649.89 905.139 1631.37 926.992 1631.37 953.967 1631.37 969.385 1636.79 992.095 1646.9 992.095 1658 992.095 1662.86 969.214 1662.86 953.547 1662.86 926.582 1644.34 904.719 1621.5 904.719 1598.66 904.719 1580.14 926.582 1580.14 953.547 1580.14 968.975 1585.38 991.674 1595.67 991.674 1607.31 991.674 1611.6 969.432 1611.6 953.204 1611.6 926.359 1593.08 904.376 1570.24 904.376 1547.39 904.376 1528.89 926.24 1528.89 953.204 1528.89 968.871 1533.21 991.742 1544.84 991.742 1555.14 991.742 1560.37 969.043 1560.37 953.614 1560.37 926.65 1541.85 904.786 1519.01 904.786 1496.17 904.786 1477.66 926.65 1477.66 953.614 1477.66 969.281 1482.51 992.152 1493.62 992.152 1503.72 992.152 1509.14 969.453 1509.14 954.024 1509.14 927.06 1490.63 905.201 1467.78 905.201 1444.95 905.201 1426.43 927.06 1426.43 954.024 1426.43 969.691 1430.75 992.572 1442.39 992.572 1452.69 992.572 1458.02 981.674 1458.02 954.445 1458.02 927.21 1439.51 905.611 1416.67 905.611 1393.83 905.611 1375.31 927.475 1375.31 954.445 1375.31 969.873 1380.54 992.572 1390.83 992.572 1402.47 992.572 1406.79 969.691 1406.79 954.024 1406.79 927.06 1388.28 905.201 1365.44 905.201 1342.6 905.201 1324.08 927.06 1324.08 954.024 1324.08 969.453 1329.5 992.152 1339.6 992.152 1350.72 992.152 1355.57 969.281 1355.57 953.614 1355.57 926.65 1337.05 904.786 1314.21 904.786 1291.37 904.786 1272.85 926.65 1272.85 953.614 1272.85 969.043 1278.08 991.742 1288.37 991.742 1300.02 991.742 1304.34 968.871 1304.34 953.204 1304.34 926.24 1285.83 904.376 1262.98 904.376 1240.14 904.376 1221.62 926.24 1220.54 954.471L1162.69 954.471" stroke="#000000" stroke-width="6.22741" stroke-miterlimit="2" fill="none" transform="matrix(0.825613 0.564236 -1.32126 0.352574 3434.01 -661.861)"/><path d="M759.609 142.379 759.609 297.754" stroke="#000000" stroke-width="4.14332" fill="none" transform="matrix(6.12323e-17 1 -2.34167 1.43386e-16 4887.23 -477.909)"/><path d="M761.335 142.379 725.081 176.907" stroke="#000000" stroke-width="4.14332" fill="none" transform="matrix(6.12323e-17 1 -2.34167 1.43386e-16 4887.23 -477.909)"/><path d="M757.882 142.379 794.136 176.907" stroke="#000000" stroke-width="4.14332" fill="none" transform="matrix(6.12323e-17 1 -2.34167 1.43386e-16 4887.23 -477.909)"/><path d="M1399.46 952.208 1399.46 1117.5" stroke="#000000" stroke-width="4.40776" fill="none" transform="matrix(-2.03851 -0.354656 0.830488 -0.870535 4602.71 2234.8)"/><path d="M1401.3 952.208 1362.73 988.94" stroke="#000000" stroke-width="4.40776" fill="none" transform="matrix(-2.03851 -0.354656 0.830488 -0.870535 4602.71 2234.8)"/><path d="M1397.63 952.208 1436.19 988.94" stroke="#000000" stroke-width="4.40776" fill="none" transform="matrix(-2.03851 -0.354656 0.830488 -0.870535 4602.71 2234.8)"/><path d="M326.686 1132.39 326.686 1311.67" stroke="#000000" stroke-width="4.78077" fill="none" transform="matrix(1.6926 -0.478167 1.11971 0.722815 485.925 -921.873)"/><path d="M328.678 1132.39 286.846 1172.23" stroke="#000000" stroke-width="4.78077" fill="none" transform="matrix(1.6926 -0.478167 1.11971 0.722815 485.925 -921.873)"/><path d="M324.694 1132.39 366.526 1172.23" stroke="#000000" stroke-width="4.78077" fill="none" transform="matrix(1.6926 -0.478167 1.11971 0.722815 485.925 -921.873)"/></g></g></g><g clip-path="url(#clip4)"><g clip-path="url(#clip5)"><g clip-path="url(#clip6)"><path d="M981.193 517.432 949.345 517.432C949.345 483.657 937.157 456.273 922.13 456.273 907.09 456.273 894.905 483.657 894.905 517.432 894.905 536.75 898.348 565.19 905.122 565.19 912.784 565.19 915.629 536.532 915.629 516.917 915.629 483.135 903.444 455.758 888.41 455.758 873.377 455.758 861.192 483.135 861.192 516.917 861.192 536.235 864.759 564.676 871.409 564.676 878.715 564.676 881.912 536.018 881.912 516.396 881.912 482.621 869.728 455.237 854.694 455.237 839.661 455.237 827.473 482.621 827.473 516.396 827.473 535.721 830.915 564.151 837.689 564.151 845.351 564.151 848.175 536.287 848.175 515.961 848.175 482.341 835.984 454.802 820.95 454.802 805.917 454.802 793.736 482.186 793.736 515.961 793.736 535.583 796.581 564.234 804.239 564.234 811.017 564.234 814.456 535.8 814.456 516.475 814.456 482.7 802.271 455.316 787.238 455.316 772.204 455.316 760.019 482.7 760.019 516.475 760.019 536.097 763.213 564.748 770.523 564.748 777.173 564.748 780.739 536.315 780.739 516.99 780.739 483.215 768.555 455.841 753.518 455.841 738.491 455.841 726.303 483.215 726.303 516.99 726.303 536.612 729.148 565.27 736.803 565.27 743.584 565.27 747.096 551.624 747.096 517.514 747.096 483.405 734.911 456.356 719.878 456.356 704.844 456.356 692.656 483.739 692.656 517.514 692.656 536.84 696.098 565.27 702.873 565.27 710.534 565.27 713.379 536.612 713.379 516.99 713.379 483.215 701.195 455.841 686.158 455.841 671.124 455.841 658.936 483.215 658.936 516.99 658.936 536.315 662.503 564.748 669.153 564.748 676.469 564.748 679.663 536.097 679.663 516.475 679.663 482.7 667.475 455.316 652.442 455.316 637.408 455.316 625.223 482.7 625.223 516.475 625.223 535.8 628.666 564.234 635.433 564.234 643.098 564.234 645.943 535.583 645.943 515.961 645.943 482.186 633.759 454.802 618.722 454.802 603.688 454.802 591.504 482.186 590.792 517.549L552.719 517.549" stroke="#000000" stroke-width="2.36761" stroke-miterlimit="2" fill="none" transform="matrix(-5.42571 3.93461e-16 -3.93461e-16 -1 8851 2328.08)"/><path d="M815.298 767.329C815.298 795.932 792.11 819.12 763.507 819.12 734.903 819.12 711.715 795.932 711.715 767.329 711.715 738.725 734.903 715.537 763.507 715.537 792.11 715.537 815.298 738.725 815.298 767.329Z" stroke="#000000" stroke-width="2.36761" fill="none" transform="matrix(6.12323e-17 1 -5.42571 3.32229e-16 7457.05 1051.09)"/><path d="M2655.16 1841.83 2581.77 1841.83C2581.77 1791.11 2553.69 1749.98 2519.07 1749.98 2484.42 1749.98 2456.35 1791.11 2456.35 1841.83 2456.35 1870.84 2464.28 1913.56 2479.88 1913.56 2497.54 1913.56 2504.09 1870.52 2504.09 1841.06 2504.09 1790.33 2476.02 1749.21 2441.38 1749.21 2406.75 1749.21 2378.67 1790.33 2378.67 1841.06 2378.67 1870.07 2386.89 1912.78 2402.21 1912.78 2419.05 1912.78 2426.41 1869.75 2426.41 1840.28 2426.41 1789.55 2398.34 1748.43 2363.71 1748.43 2329.07 1748.43 2300.99 1789.55 2300.99 1840.28 2300.99 1869.3 2308.91 1912 2324.52 1912 2342.17 1912 2348.68 1870.15 2348.68 1839.62 2348.68 1789.13 2320.6 1747.77 2285.96 1747.77 2251.32 1747.77 2223.26 1788.9 2223.26 1839.62 2223.26 1869.09 2229.81 1912.12 2247.45 1912.12 2263.07 1912.12 2271 1869.42 2271 1840.4 2271 1789.67 2242.92 1748.54 2208.28 1748.54 2173.65 1748.54 2145.57 1789.67 2145.57 1840.4 2145.57 1869.87 2152.93 1912.89 2169.78 1912.89 2185.1 1912.89 2193.32 1870.19 2193.32 1841.17 2193.32 1790.44 2165.24 1749.33 2130.6 1749.33 2095.98 1749.33 2067.89 1790.44 2067.89 1841.17 2067.89 1870.64 2074.45 1913.68 2092.09 1913.68 2107.71 1913.68 2115.81 1893.18 2115.81 1841.96 2115.81 1790.73 2087.73 1750.1 2053.09 1750.1 2018.46 1750.1 1990.37 1791.23 1990.37 1841.96 1990.37 1870.98 1998.31 1913.68 2013.92 1913.68 2031.57 1913.68 2038.11 1870.64 2038.11 1841.17 2038.11 1790.44 2010.05 1749.33 1975.41 1749.33 1940.77 1749.33 1912.69 1790.44 1912.69 1841.17 1912.69 1870.19 1920.91 1912.89 1936.22 1912.89 1953.08 1912.89 1960.44 1869.87 1960.44 1840.4 1960.44 1789.67 1932.35 1748.54 1897.72 1748.54 1863.08 1748.54 1835.01 1789.67 1835.01 1840.4 1835.01 1869.42 1842.94 1912.12 1858.54 1912.12 1876.2 1912.12 1882.75 1869.09 1882.75 1839.62 1882.75 1788.9 1854.68 1747.77 1820.03 1747.77 1785.4 1747.77 1757.32 1788.9 1755.68 1842.01L1667.97 1842.01" stroke="#000000" stroke-width="5.00566" stroke-miterlimit="2" fill="none" transform="matrix(0.896426 -0.443193 2.40464 0.165218 -3581.03 2729)"/><path d="M974.288 1042.25 942.439 1042.25C942.439 1008.48 930.251 981.093 915.225 981.093 900.184 981.093 888 1008.48 888 1042.25 888 1061.57 891.442 1090.01 898.216 1090.01 905.878 1090.01 908.723 1061.35 908.723 1041.74 908.723 1007.96 896.538 980.579 881.505 980.579 866.472 980.579 854.287 1007.96 854.287 1041.74 854.287 1061.06 857.854 1089.5 864.504 1089.5 871.81 1089.5 875.007 1060.84 875.007 1041.22 875.007 1007.44 862.822 980.057 847.789 980.057 832.755 980.057 820.567 1007.44 820.567 1041.22 820.567 1060.54 824.009 1088.97 830.784 1088.97 838.445 1088.97 841.27 1061.11 841.27 1040.78 841.27 1007.16 829.078 979.622 814.045 979.622 799.011 979.622 786.83 1007.01 786.83 1040.78 786.83 1060.4 789.675 1089.05 797.333 1089.05 804.111 1089.05 807.55 1060.62 807.55 1041.3 807.55 1007.52 795.365 980.137 780.332 980.137 765.299 980.137 753.114 1007.52 753.114 1041.3 753.114 1060.92 756.308 1089.57 763.617 1089.57 770.267 1089.57 773.834 1061.14 773.834 1041.81 773.834 1008.04 761.649 980.661 746.612 980.661 731.586 980.661 719.398 1008.04 719.398 1041.81 719.398 1061.43 722.243 1090.09 729.897 1090.09 736.679 1090.09 740.19 1076.44 740.19 1042.33 740.19 1008.22 728.005 981.176 712.972 981.176 697.939 981.176 685.75 1008.56 685.75 1042.33 685.75 1061.66 689.193 1090.09 695.967 1090.09 703.629 1090.09 706.474 1061.43 706.474 1041.81 706.474 1008.04 694.289 980.661 679.252 980.661 664.219 980.661 652.031 1008.04 652.031 1041.81 652.031 1061.14 655.597 1089.57 662.247 1089.57 669.564 1089.57 672.758 1060.92 672.758 1041.3 672.758 1007.52 660.569 980.137 645.536 980.137 630.503 980.137 618.318 1007.52 618.318 1041.3 618.318 1060.62 621.76 1089.05 628.528 1089.05 636.193 1089.05 639.038 1060.4 639.038 1040.78 639.038 1007.01 626.853 979.622 611.816 979.622 596.783 979.622 584.598 1007.01 583.887 1042.37L545.813 1042.37" stroke="#000000" stroke-width="2.36761" stroke-miterlimit="2" fill="none" transform="matrix(5.42571 -2.70997e-16 -2.70997e-16 1 -2281.59 776.281)"/><path d="M1560.17 1418.44 1486.78 1418.44C1486.78 1367.71 1458.71 1326.58 1424.08 1326.58 1389.44 1326.58 1361.36 1367.71 1361.36 1418.44 1361.36 1447.45 1369.3 1490.16 1384.9 1490.16 1402.55 1490.16 1409.1 1447.12 1409.1 1417.67 1409.1 1366.93 1381.03 1325.81 1346.4 1325.81 1311.76 1325.81 1283.68 1366.93 1283.68 1417.67 1283.68 1446.68 1291.9 1489.39 1307.23 1489.39 1324.06 1489.39 1331.42 1446.35 1331.42 1416.88 1331.42 1366.16 1303.36 1325.03 1268.72 1325.03 1234.08 1325.03 1206 1366.16 1206 1416.88 1206 1445.9 1213.93 1488.61 1229.53 1488.61 1247.18 1488.61 1253.7 1446.76 1253.7 1416.23 1253.7 1365.73 1225.61 1324.37 1190.97 1324.37 1156.34 1324.37 1128.28 1365.51 1128.28 1416.23 1128.28 1445.7 1134.82 1488.72 1152.47 1488.72 1168.08 1488.72 1176.01 1446.03 1176.01 1417 1176.01 1366.27 1147.93 1325.15 1113.3 1325.15 1078.66 1325.15 1050.58 1366.27 1050.58 1417 1050.58 1446.47 1057.94 1489.5 1074.79 1489.5 1090.11 1489.5 1098.33 1446.8 1098.33 1417.78 1098.33 1367.05 1070.26 1325.94 1035.61 1325.94 1000.99 1325.94 972.911 1367.05 972.911 1417.78 972.911 1447.25 979.459 1490.29 997.103 1490.29 1012.72 1490.29 1020.82 1469.79 1020.82 1418.56 1020.82 1367.33 992.745 1326.71 958.107 1326.71 923.469 1326.71 895.386 1367.84 895.386 1418.56 895.386 1447.59 903.321 1490.29 918.928 1490.29 936.579 1490.29 943.127 1447.25 943.127 1417.78 943.127 1367.05 915.059 1325.94 880.421 1325.94 845.783 1325.94 817.7 1367.05 817.7 1417.78 817.7 1446.8 825.92 1489.5 841.235 1489.5 858.091 1489.5 865.449 1446.47 865.449 1417 865.449 1366.27 837.366 1325.15 802.735 1325.15 768.097 1325.15 740.022 1366.27 740.022 1417 740.022 1446.03 747.957 1488.72 763.549 1488.72 781.215 1488.72 787.763 1445.7 787.763 1416.23 787.763 1365.51 759.688 1324.37 725.045 1324.37 690.409 1324.37 662.335 1365.51 660.697 1418.61L572.975 1418.61" stroke="#000000" stroke-width="5.00566" stroke-miterlimit="2" fill="none" transform="matrix(-0.896426 0.443193 -2.40464 -0.165218 8185.64 1315.38)"/><path d="M1363.58 1662.2 1304.85 1662.2C1304.85 1629.47 1282.37 1602.93 1254.66 1602.93 1226.93 1602.93 1204.46 1629.47 1204.46 1662.2 1204.46 1680.91 1210.81 1708.47 1223.3 1708.47 1237.43 1708.47 1242.67 1680.7 1242.67 1661.7 1242.67 1628.96 1220.2 1602.44 1192.48 1602.44 1164.76 1602.44 1142.29 1628.96 1142.29 1661.7 1142.29 1680.41 1148.86 1707.97 1161.13 1707.97 1174.61 1707.97 1180.5 1680.2 1180.5 1661.19 1180.5 1628.46 1158.03 1601.93 1130.31 1601.93 1102.58 1601.93 1080.11 1628.46 1080.11 1661.19 1080.11 1679.91 1086.46 1707.46 1098.95 1707.46 1113.08 1707.46 1118.29 1680.47 1118.29 1660.77 1118.29 1628.19 1095.81 1601.51 1068.09 1601.51 1040.36 1601.51 1017.9 1628.04 1017.9 1660.77 1017.9 1679.79 1023.15 1707.54 1037.27 1707.54 1049.76 1707.54 1056.11 1679.99 1056.11 1661.27 1056.11 1628.54 1033.63 1602.01 1005.91 1602.01 978.189 1602.01 955.722 1628.54 955.722 1661.27 955.722 1680.28 961.611 1708.04 975.096 1708.04 987.353 1708.04 993.935 1680.49 993.935 1661.77 993.935 1629.04 971.462 1602.51 943.736 1602.51 916.029 1602.51 893.55 1629.04 893.55 1661.77 893.55 1680.78 898.797 1708.55 912.918 1708.55 925.42 1708.55 931.895 1695.33 931.895 1662.28 931.895 1629.22 909.428 1603.01 881.703 1603.01 853.983 1603.01 831.504 1629.54 831.504 1662.28 831.504 1681 837.853 1708.55 850.343 1708.55 864.47 1708.55 869.717 1680.78 869.717 1661.77 869.717 1629.04 847.25 1602.51 819.524 1602.51 791.805 1602.51 769.325 1629.04 769.325 1661.77 769.325 1680.49 775.907 1708.04 788.164 1708.04 801.655 1708.04 807.544 1680.28 807.544 1661.27 807.544 1628.54 785.072 1602.01 757.346 1602.01 729.626 1602.01 707.153 1628.54 707.153 1661.27 707.153 1679.99 713.502 1707.54 725.986 1707.54 740.12 1707.54 745.366 1679.79 745.366 1660.77 745.366 1628.04 722.9 1601.51 695.167 1601.51 667.448 1601.51 644.975 1628.04 643.665 1662.31L573.455 1662.31" stroke="#000000" stroke-width="4.31894" stroke-miterlimit="2" fill="none" transform="matrix(-1.56235 -0.466473 2.53095 -0.287954 -141.201 2510.37)"/><path d="M2184.15 1149.31 2125.88 1149.31C2125.88 1116.84 2103.58 1090.51 2076.08 1090.51 2048.56 1090.51 2026.27 1116.84 2026.27 1149.31 2026.27 1167.88 2032.57 1195.22 2044.96 1195.22 2058.98 1195.22 2064.19 1167.67 2064.19 1148.82 2064.19 1116.33 2041.89 1090.01 2014.39 1090.01 1986.88 1090.01 1964.58 1116.33 1964.58 1148.82 1964.58 1167.38 1971.11 1194.73 1983.28 1194.73 1996.65 1194.73 2002.5 1167.18 2002.5 1148.31 2002.5 1115.84 1980.2 1089.51 1952.7 1089.51 1925.19 1089.51 1902.89 1115.84 1902.89 1148.31 1902.89 1166.89 1909.19 1194.22 1921.58 1194.22 1935.6 1194.22 1940.77 1167.44 1940.77 1147.9 1940.77 1115.57 1918.46 1089.1 1890.96 1089.1 1863.45 1089.1 1841.16 1115.42 1841.16 1147.9 1841.16 1166.76 1846.37 1194.3 1860.38 1194.3 1872.78 1194.3 1879.07 1166.97 1879.07 1148.39 1879.07 1115.92 1856.77 1089.59 1829.27 1089.59 1801.76 1089.59 1779.47 1115.92 1779.47 1148.39 1779.47 1167.26 1785.31 1194.8 1798.69 1194.8 1810.86 1194.8 1817.38 1167.46 1817.38 1148.88 1817.38 1116.41 1795.09 1090.09 1767.58 1090.09 1740.08 1090.09 1717.78 1116.41 1717.78 1148.88 1717.78 1167.75 1722.98 1195.3 1737 1195.3 1749.4 1195.3 1755.83 1182.18 1755.83 1149.39 1755.83 1116.59 1733.53 1090.58 1706.02 1090.58 1678.52 1090.58 1656.22 1116.91 1656.22 1149.39 1656.22 1167.97 1662.52 1195.3 1674.91 1195.3 1688.93 1195.3 1694.13 1167.75 1694.13 1148.88 1694.13 1116.41 1671.84 1090.09 1644.33 1090.09 1616.83 1090.09 1594.52 1116.41 1594.52 1148.88 1594.52 1167.46 1601.05 1194.8 1613.21 1194.8 1626.6 1194.8 1632.44 1167.26 1632.44 1148.39 1632.44 1115.92 1610.14 1089.59 1582.63 1089.59 1555.13 1089.59 1532.83 1115.92 1532.83 1148.39 1532.83 1166.97 1539.13 1194.3 1551.52 1194.3 1565.55 1194.3 1570.75 1166.76 1570.75 1147.9 1570.75 1115.42 1548.46 1089.1 1520.94 1089.1 1493.44 1089.1 1471.14 1115.42 1469.84 1149.42L1400.17 1149.42" stroke="#000000" stroke-width="4.28535" stroke-miterlimit="2" fill="none" transform="matrix(1.58851 0.468538 -2.54215 0.292775 4089.9 867.139)"/><path d="M759.609 142.379 759.609 297.754" stroke="#000000" stroke-width="2.36761" fill="none" transform="matrix(6.12323e-17 1 -5.42571 3.32229e-16 7457.05 1051.09)"/><path d="M761.335 142.379 725.081 176.907" stroke="#000000" stroke-width="2.36761" fill="none" transform="matrix(6.12323e-17 1 -5.42571 3.32229e-16 7457.05 1051.09)"/><path d="M757.882 142.379 794.136 176.907" stroke="#000000" stroke-width="2.36761" fill="none" transform="matrix(6.12323e-17 1 -5.42571 3.32229e-16 7457.05 1051.09)"/><path d="M1416.5 963.799 1416.5 1131.1" stroke="#000000" stroke-width="2.54938" fill="none" transform="matrix(-4.66647 -0.350391 1.90112 -0.860066 6797.8 3763.8)"/><path d="M1418.36 963.799 1379.32 1000.98" stroke="#000000" stroke-width="2.54938" fill="none" transform="matrix(-4.66647 -0.350391 1.90112 -0.860066 6797.8 3763.8)"/><path d="M1414.64 963.799 1453.68 1000.98" stroke="#000000" stroke-width="2.54938" fill="none" transform="matrix(-4.66647 -0.350391 1.90112 -0.860066 6797.8 3763.8)"/><path d="M336.977 1168.06 336.977 1352.99" stroke="#000000" stroke-width="2.81792" fill="none" transform="matrix(3.80203 -0.463565 2.51517 0.700742 -2740.88 607.127)"/><path d="M339.031 1168.06 295.882 1209.15" stroke="#000000" stroke-width="2.81792" fill="none" transform="matrix(3.80203 -0.463565 2.51517 0.700742 -2740.88 607.127)"/><path d="M334.922 1168.06 378.071 1209.15" stroke="#000000" stroke-width="2.81792" fill="none" transform="matrix(3.80203 -0.463565 2.51517 0.700742 -2740.88 607.127)"/></g></g></g><path d="M0 0 6.70719 895.901" stroke="#404040" stroke-width="2.29167" stroke-miterlimit="8" stroke-dasharray="18.3333 6.875" fill="none" fill-rule="evenodd" transform="matrix(1 0 0 -1 657 1811.9)"/><rect x="663.5" y="1546.5" width="216" height="233" stroke="#000000" stroke-width="3.4375" stroke-linejoin="round" stroke-miterlimit="10" stroke-opacity="0" fill="none"/><text font-family="Calibri,Calibri_MSFontService,sans-serif" font-weight="400" font-size="83" transform="matrix(1 0 0 1 696.402 1640)">$<tspan font-size="83" x="41.8229" y="0">\</tspan><tspan font-size="83" x="73.9063" y="0">th</tspan><tspan font-size="83" x="0" y="99">eta$</tspan></text><path d="M661.946 1511.57C726.099 1477.51 803.932 1485.84 855.757 1532.29" stroke="#000000" stroke-width="3.4375" stroke-miterlimit="8" fill="none" fill-rule="evenodd"/><rect x="2315.5" y="90.4999" width="512" height="133" stroke="#000000" stroke-width="3.4375" stroke-linejoin="round" stroke-miterlimit="10" stroke-opacity="0" fill="none"/><text font-family="Calibri,Calibri_MSFontService,sans-serif" font-weight="400" font-size="83" transform="matrix(1 0 0 1 2347.61 183)">$k_1, <tspan font-size="83" x="201.667" y="0">\</tspan><tspan font-size="83" x="233.75" y="0">ell_1$</tspan></text><rect x="1693.5" y="1619.5" width="512" height="133" stroke="#000000" stroke-width="3.4375" stroke-linejoin="round" stroke-miterlimit="10" stroke-opacity="0" fill="none"/><text font-family="Calibri,Calibri_MSFontService,sans-serif" font-weight="400" font-size="83" transform="matrix(1 0 0 1 1725.9 1712)">$k_2, <tspan font-size="83" x="201.667" y="0">\</tspan><tspan font-size="83" x="233.75" y="0">ell_2$</tspan></text><path d="M1392.45 1137.67 1502.41 1236.69 1500.88 1238.4 1390.92 1139.37ZM1400.29 1169.19 1390 1137 1423.09 1143.88C1423.71 1144.01 1424.11 1144.61 1423.98 1145.23 1423.85 1145.85 1423.24 1146.25 1422.62 1146.12L1391.45 1139.64 1392.78 1138.17 1402.48 1168.49C1402.67 1169.1 1402.34 1169.74 1401.73 1169.93 1401.13 1170.13 1400.49 1169.79 1400.29 1169.19Z"/><rect x="1502.5" y="1171.5" width="512" height="133" stroke="#000000" stroke-width="3.4375" stroke-linejoin="round" stroke-miterlimit="10" stroke-opacity="0" fill="none"/><text font-family="Calibri,Calibri_MSFontService,sans-serif" font-weight="400" font-size="83" transform="matrix(1 0 0 1 1534.74 1264)">pivote</text><path d="M1341.53 1190.89 1317.97 1072.02 1438.65 1083.03Z" stroke="#000000" stroke-width="4.58333" stroke-miterlimit="8" fill="#595959" fill-rule="evenodd"/></g></svg>