<svg width="697" height="558" xmlns="http://www.w3.org/2000/svg" xmlns:xlink="http://www.w3.org/1999/xlink" overflow="hidden"><defs><clipPath id="clip0"><rect x="318" y="77" width="697" height="558"/></clipPath></defs><g clip-path="url(#clip0)" transform="translate(-318 -77)"><path d="M320.5 304C320.71 326.327 320.921 348.655 321.131 370.982L677.227 371.863 680.75 634.5 756.5 634.5C755.913 525.215 756.826 412.785 756.239 303.5L320.5 304Z" stroke="#000000" stroke-width="1.33333" stroke-miterlimit="8" fill="#D0CECE" fill-rule="evenodd"/><path d="M0 0 43.5164 37.2871" stroke="#000000" stroke-width="6" stroke-miterlimit="8" fill="none" fill-rule="evenodd" transform="matrix(1 0 0 -1 755 303.287)"/><path d="M771.5 275.5C771.5 260.036 784.036 247.5 799.5 247.5 814.964 247.5 827.5 260.036 827.5 275.5 827.5 290.964 814.964 303.5 799.5 303.5 784.036 303.5 771.5 290.964 771.5 275.5Z" stroke="#000000" stroke-width="1.33333" stroke-miterlimit="8" fill="#D0CECE" fill-rule="evenodd"/><path d="M0 0 298 0.000104987" stroke="#000000" stroke-width="1.33333" stroke-miterlimit="8" fill="none" fill-rule="evenodd" transform="matrix(-1 0 0 1 799.5 247.5)"/><path d="M827.5 275.5 827.5 510.059" stroke="#000000" stroke-width="1.33333" stroke-miterlimit="8" fill="none" fill-rule="evenodd"/><rect x="388.5" y="209.5" width="113" height="94" stroke="#000000" stroke-width="1.33333" stroke-miterlimit="8" fill="none"/><text font-family="Calibri,Calibri_MSFontService,sans-serif" font-weight="400" font-size="21" transform="translate(414.25 263)">$m_1$</text><rect x="786.5" y="510.5" width="82" height="80" stroke="#000000" stroke-width="1.33333" stroke-miterlimit="8" fill="none"/><text font-family="Calibri,Calibri_MSFontService,sans-serif" font-weight="400" font-size="21" transform="translate(797.263 557)">$m<tspan font-size="21" x="27.8333" y="0">_2</tspan>$</text><path d="M895.833 285 895.833 363.69 894.167 363.69 894.167 285ZM901.667 362.356 895 370.356 888.333 362.356Z"/><text font-family="Calibri,Calibri_MSFontService,sans-serif" font-weight="400" font-size="21" transform="translate(904.267 334)">$<tspan font-size="21" x="10.8333" y="0">\</tspan><tspan font-size="21" x="19" y="0">vec</tspan><tspan font-size="21" x="48.1266" y="0">{g}</tspan><tspan font-size="21" x="71.46" y="0">$</tspan></text><path d="M0 0 0.000104987 184.621" stroke="#404040" stroke-width="0.666667" stroke-miterlimit="8" stroke-dasharray="2.66667 2" fill="none" fill-rule="evenodd" transform="matrix(1 0 0 -1 755.5 304.121)"/><path d="M0 0 0.000104987 92.3102" stroke="#404040" stroke-width="0.666667" stroke-miterlimit="8" stroke-dasharray="2.66667 2" fill="none" fill-rule="evenodd" transform="matrix(1 0 0 -1 501.5 208.81)"/><path d="M502.866 115.833 754.611 115.833 754.611 117.167 502.866 117.167ZM514.55 123.749 501.501 116.5 514.55 109.251C514.871 109.072 515.277 109.188 515.456 109.51 515.635 109.831 515.519 110.237 515.197 110.416L503.197 117.083 503.197 115.917 515.197 122.584C515.519 122.763 515.635 123.169 515.456 123.49 515.277 123.812 514.871 123.928 514.55 123.749ZM742.934 109.251 755.983 116.5 742.934 123.75C742.612 123.928 742.206 123.812 742.028 123.491 741.849 123.169 741.965 122.763 742.287 122.584L754.287 115.917 754.287 117.083 742.287 110.416C741.965 110.237 741.849 109.832 742.028 109.51 742.206 109.188 742.612 109.072 742.934 109.251Z"/><text font-family="Calibri,Calibri_MSFontService,sans-serif" font-weight="400" font-size="21" transform="translate(610.825 104)">$D$</text></g></svg>