<svg width="648" height="390" xmlns="http://www.w3.org/2000/svg" xmlns:xlink="http://www.w3.org/1999/xlink" overflow="hidden"><defs><clipPath id="clip0"><rect x="354" y="190" width="648" height="390"/></clipPath><clipPath id="clip1"><path d="M619.278 190.395 790.772 371.419 769.627 391.451 598.133 210.427Z" fill-rule="evenodd" clip-rule="evenodd"/></clipPath><clipPath id="clip2"><path d="M619.278 190.395 790.772 371.419 769.627 391.451 598.133 210.427Z" fill-rule="evenodd" clip-rule="evenodd"/></clipPath><clipPath id="clip3"><path d="M616.63 170.537 859.856 427.28 735.495 545.094 492.269 288.351Z" fill-rule="evenodd" clip-rule="evenodd"/></clipPath><clipPath id="clip4"><path d="M616.63 170.537 859.856 427.28 735.495 545.094 492.269 288.351Z"/></clipPath><clipPath id="clip5"><path d="M616.63 170.537 859.856 427.28 735.495 545.094 492.269 288.351Z"/></clipPath><clipPath id="clip6"><path d="M616.63 170.537 859.856 427.28 735.495 545.094 492.269 288.351Z"/></clipPath><clipPath id="clip7"><path d="M614.157 172.88 857.383 429.623 822.054 463.093 578.828 206.35Z"/></clipPath></defs><g clip-path="url(#clip0)" transform="translate(-354 -190)"><g clip-path="url(#clip1)"><g clip-path="url(#clip2)"><g clip-path="url(#clip3)"><g clip-path="url(#clip4)"><path d="M0 0 132.373 0 132.373 171.306 0 171.306Z" stroke="#000000" stroke-width="0.531617" fill="none" transform="matrix(1.83743 1.93954 -0.725958 0.687739 616.63 170.537)"/><path d="M0 0 132.373 0 132.373 171.306 0 171.306Z" stroke="#000000" stroke-width="0.531617" fill="none" transform="matrix(1.83743 1.93954 -0.725958 0.687739 616.63 170.537)"/><path d="M0 0 132.373 0 132.373 171.306 0 171.306Z" stroke="#000000" stroke-width="0.531617" fill="none" transform="matrix(1.83743 1.93954 -0.725958 0.687739 616.63 170.537)"/><path d="M0 0 132.373 0 132.373 171.306 0 171.306Z" stroke="#000000" stroke-width="0.531617" fill="none" transform="matrix(1.83743 1.93954 -0.725958 0.687739 616.63 170.537)"/></g><g clip-path="url(#clip5)"><path d="M0 0 132.373 0 132.373 171.306 0 171.306Z" stroke="#000000" stroke-width="0.531617" fill="none" transform="matrix(1.83743 1.93954 -0.725958 0.687739 616.63 170.537)"/></g><g clip-path="url(#clip6)"><path d="M0 3.40665 132.373 3.40665 132.373 52.0731 0 52.0731Z" stroke="#000000" stroke-width="0.531617" fill="none" transform="matrix(1.83743 1.93954 -0.725958 0.687739 616.63 170.537)"/></g><g clip-path="url(#clip7)"><path d="M6.65108 22.0248 23.2723 22.0248 26.9645 10.0577 34.352 33.9919 41.7396 10.0577 49.1255 33.9919 56.5131 10.0577 63.899 33.9919 71.2866 10.0577 78.6742 33.9919 82.3663 22.0248 98.9875 22.0248" stroke="#000000" stroke-width="0.531617" fill="none" transform="matrix(1.83743 1.93954 -0.725958 0.687739 614.157 172.88)"/></g></g></g></g><path d="M355.5 523C355.5 491.796 380.796 466.5 412 466.5 443.204 466.5 468.5 491.796 468.5 523 468.5 554.204 443.204 579.5 412 579.5 380.796 579.5 355.5 554.204 355.5 523Z" stroke="#000000" stroke-width="1.33333" stroke-miterlimit="8" fill="#404040" fill-rule="evenodd"/><path d="M882.5 523C882.5 491.796 908.02 466.5 939.5 466.5 970.98 466.5 996.5 491.796 996.5 523 996.5 554.204 970.98 579.5 939.5 579.5 908.02 579.5 882.5 554.204 882.5 523Z" stroke="#000000" stroke-width="1.33333" stroke-miterlimit="8" fill="#404040" fill-rule="evenodd"/><path d="M408.5 522.5C408.5 520.291 410.067 518.5 412 518.5 413.933 518.5 415.5 520.291 415.5 522.5 415.5 524.709 413.933 526.5 412 526.5 410.067 526.5 408.5 524.709 408.5 522.5Z" stroke="#000000" stroke-width="1.33333" stroke-miterlimit="8" fill="#FFFFFF" fill-rule="evenodd"/><path d="M935.5 526.5C935.5 524.291 937.291 522.5 939.5 522.5 941.709 522.5 943.5 524.291 943.5 526.5 943.5 528.709 941.709 530.5 939.5 530.5 937.291 530.5 935.5 528.709 935.5 526.5Z" stroke="#000000" stroke-width="1.33333" stroke-miterlimit="8" fill="#FFFFFF" fill-rule="evenodd"/><path d="M412.5 466.5 939.744 466.5" stroke="#000000" stroke-width="1.33333" stroke-miterlimit="8" fill="none" fill-rule="evenodd"/><path d="M412.5 579.5 939.744 579.5" stroke="#000000" stroke-width="1.33333" stroke-miterlimit="8" fill="none" fill-rule="evenodd"/><path d="M407.5 201.5 935.705 201.5" stroke="#000000" stroke-miterlimit="8" fill="none" fill-rule="evenodd"/><rect x="781.5" y="380.5" width="90" height="86" stroke="#000000" stroke-width="2.66667" stroke-miterlimit="8" fill="none"/><path d="M454 202.531 454 465.21 453 465.21 453 202.531ZM446.396 214.287 453.5 201.5 460.604 214.287C460.738 214.529 460.651 214.833 460.41 214.967 460.168 215.101 459.864 215.014 459.73 214.773L453.063 202.773 453.937 202.773 447.27 214.773C447.136 215.014 446.832 215.101 446.591 214.967 446.349 214.833 446.262 214.529 446.396 214.287ZM460.604 453.454 453.5 466.241 446.396 453.454C446.262 453.213 446.349 452.909 446.591 452.774 446.832 452.64 447.136 452.727 447.271 452.969L453.937 464.969 453.063 464.969 459.73 452.969C459.864 452.727 460.168 452.64 460.41 452.774 460.651 452.909 460.738 453.213 460.604 453.454Z"/><path d="M609.5 201.5 609.5 465.971" stroke="#767171" stroke-width="0.666667" stroke-miterlimit="8" stroke-dasharray="5.33333 2" stroke-opacity="0.501961" fill="none" fill-rule="evenodd"/><path d="M653.15 232.737C646.375 247.814 627.616 258.373 611.251 256.321 610.439 256.219 609.641 256.087 608.859 255.924" stroke="#000000" stroke-width="0.666667" stroke-miterlimit="8" fill="none" fill-rule="evenodd"/><rect x="606.5" y="229.5" width="59" height="25" stroke="#000000" stroke-linejoin="round" stroke-miterlimit="10" stroke-opacity="0" fill="none"/><text font-family="Calibri,Calibri_MSFontService,sans-serif" font-weight="400" font-size="12" transform="translate(615.338 245)">$\<tspan font-size="12" x="10.6667" y="0">beta</tspan>$</text><rect x="419.5" y="321.5" width="60" height="24" stroke="#000000" stroke-linejoin="round" stroke-miterlimit="10" stroke-opacity="0" fill="none"/><text font-family="Calibri,Calibri_MSFontService,sans-serif" font-weight="400" font-size="12" transform="translate(429.058 337)">$H$</text><path d="M903.147 465.064 904.357 459.821 906.383 453.618 909.253 448.005 911.267 445.601 913.612 443.451 916.68 441.819 920.398 440.666 924.512 439.843 928.846 439.215 933.1 438.652 933.086 438.654 937.149 438.029 937.088 438.041 940.588 437.166 940.463 437.211 943.213 435.898 943.787 437.102 940.977 438.443 937.382 439.342 933.282 439.973 929.025 440.536 929.033 440.535 924.721 441.16 924.756 441.154 920.693 441.966 920.76 441.949 917.135 443.074 917.251 443.026 914.313 444.589 914.451 444.491 912.201 446.554 912.261 446.491 910.324 448.803 910.406 448.679 907.594 454.179 907.634 454.082 905.634 460.207 905.65 460.15 904.446 465.364ZM910.628 458.925 903.499 466.503 900.412 456.567C900.303 456.216 900.499 455.842 900.851 455.733 901.202 455.624 901.576 455.82 901.685 456.172L904.434 465.016 903.311 464.757 909.657 458.011C909.91 457.743 910.332 457.73 910.6 457.983 910.868 458.235 910.881 458.657 910.628 458.925Z" fill="#FF0000"/><rect x="935.5" y="415.5" width="66" height="24" stroke="#000000" stroke-linejoin="round" stroke-miterlimit="10" stroke-opacity="0" fill="none"/><text font-family="Calibri,Calibri_MSFontService,sans-serif" font-weight="400" font-size="12" transform="translate(944.64 431)">$\<tspan font-size="12" x="10.6666" y="0">mu_e</tspan>$</text><rect x="935.5" y="431.5" width="66" height="24" stroke="#000000" stroke-linejoin="round" stroke-miterlimit="10" stroke-opacity="0" fill="none"/><text font-family="Calibri,Calibri_MSFontService,sans-serif" font-weight="400" font-size="12" transform="translate(944.64 447)">$\<tspan font-size="12" x="10.6667" y="0">mu_c</tspan>$</text><path d="M936 234.5 936 274.826 935 274.826 935 234.5ZM942.551 267.146 935.5 275.607 928.449 267.146C928.273 266.934 928.301 266.618 928.513 266.441 928.726 266.265 929.041 266.293 929.218 266.505L935.884 274.505 935.116 274.505 941.783 266.505C941.959 266.293 942.275 266.265 942.487 266.441 942.699 266.618 942.728 266.934 942.551 267.146Z"/><rect x="935.5" y="242.5" width="46" height="38" stroke="#000000" stroke-linejoin="round" stroke-miterlimit="10" stroke-opacity="0" fill="none"/><text font-family="Calibri,Calibri_MSFontService,sans-serif" font-weight="400" font-size="12" transform="translate(944.64 257)">$\<tspan font-size="12" x="10.6666" y="0">ve</tspan><tspan font-size="12" x="0" y="15">c</tspan>{g}$</text><rect x="806.5" y="411.5" width="45" height="24" stroke="#000000" stroke-linejoin="round" stroke-miterlimit="10" stroke-opacity="0" fill="none"/><text font-family="Calibri,Calibri_MSFontService,sans-serif" font-weight="400" font-size="12" transform="translate(815.904 427)">$m$</text><path d="M760.5 486.167 804.833 486.167 804.833 486.833 760.5 486.833ZM803.5 479.833 811.5 486.5 803.5 493.167Z"/><rect x="765.5" y="484.5" width="51" height="24" stroke="#000000" stroke-linejoin="round" stroke-miterlimit="10" stroke-opacity="0" fill="none"/><text font-family="Calibri,Calibri_MSFontService,sans-serif" font-weight="400" font-size="12" transform="translate(775.079 500)">$v_0$</text></g></svg>