<svg width="504" height="332" xmlns="http://www.w3.org/2000/svg" xmlns:xlink="http://www.w3.org/1999/xlink" overflow="hidden"><defs><clipPath id="clip0"><rect x="424" y="80" width="504" height="332"/></clipPath></defs><g clip-path="url(#clip0)" transform="translate(-424 -80)"><path d="M425 398 927.018 398" stroke="#000000" stroke-width="2" stroke-miterlimit="8" fill="none" fill-rule="evenodd"/><path d="M472.5 397.5 489.5 378.5 506.5 397.5Z" stroke="#000000" stroke-width="1.33333" stroke-miterlimit="8" fill="#262626" fill-rule="evenodd"/><path d="M756.805 197.455 761.765 204.808 491.957 386.795 486.998 379.442Z" stroke="#000000" stroke-width="1.33333" stroke-miterlimit="8" fill="#7F7F7F" fill-rule="evenodd"/><path d="M0 0 63.0182 120.646" stroke="#000000" stroke-width="0.666667" stroke-miterlimit="8" fill="none" fill-rule="evenodd" transform="matrix(1 0 0 -1 759.5 201.146)"/><rect x="516.5" y="368.5" width="88" height="29" stroke="#7F7F7F" stroke-linejoin="round" stroke-miterlimit="10" stroke-opacity="0" fill="none"/><text font-family="Calibri,Calibri_MSFontService,sans-serif" font-weight="400" font-size="24" transform="translate(515.93 390)">$<tspan font-size="24" x="12.1667" y="0">\</tspan><tspan font-size="24" x="21.5" y="0">alpha</tspan><tspan font-size="24" x="75.3334" y="0">$</tspan></text><path d="M647.5 201.5 898.7 201.5" stroke="#7F7F7F" stroke-width="0.666667" stroke-miterlimit="8" stroke-dasharray="5.33333 2" stroke-opacity="0.580392" fill="none" fill-rule="evenodd"/><rect x="770.5" y="172.5" width="78" height="29" stroke="#7F7F7F" stroke-linejoin="round" stroke-miterlimit="10" stroke-opacity="0" fill="none"/><text font-family="Calibri,Calibri_MSFontService,sans-serif" font-weight="400" font-size="24" transform="translate(769.865 194)">$<tspan font-size="24" x="12.1667" y="0">\</tspan><tspan font-size="24" x="21.5" y="0">beta$</tspan></text><path d="M539.099 355.179C550.106 368.076 552.924 385.586 546.348 400.21" stroke="#000000" stroke-width="0.666667" stroke-miterlimit="8" fill="none" fill-rule="evenodd"/><path d="M783.228 157.272C799.254 166.157 808.086 183.346 805.41 200.442" stroke="#000000" stroke-width="0.666667" stroke-miterlimit="8" fill="none" fill-rule="evenodd"/><path d="M473 161 473 227.133 471 227.133 471 161ZM478.667 225.8 472 233.8 465.333 225.8Z"/><rect x="479.5" y="183.5" width="94" height="29" stroke="#7F7F7F" stroke-linejoin="round" stroke-miterlimit="10" stroke-opacity="0" fill="none"/><text font-family="Calibri,Calibri_MSFontService,sans-serif" font-weight="400" font-size="24" transform="translate(478.981 205)">$<tspan font-size="24" x="12.1667" y="0">\</tspan><tspan font-size="24" x="21.5" y="0">vec</tspan><tspan font-size="24" x="54.2667" y="0">{g}</tspan><tspan font-size="24" x="80.6" y="0">$</tspan></text><rect x="546.5" y="271.5" width="67" height="29" stroke="#7F7F7F" stroke-linejoin="round" stroke-miterlimit="10" stroke-opacity="0" fill="none"/><text font-family="Calibri,Calibri_MSFontService,sans-serif" font-weight="400" font-size="24" transform="translate(546.232 293)">$M, L$</text></g></svg>