<svg width="527" height="254" xmlns="http://www.w3.org/2000/svg" xmlns:xlink="http://www.w3.org/1999/xlink" overflow="hidden"><defs><clipPath id="clip0"><rect x="466" y="207" width="527" height="254"/></clipPath></defs><g clip-path="url(#clip0)" transform="translate(-466 -207)"><path d="M748.625 259.5 770.5 248.676 745.5 227.5 748.625 259.5Z" stroke="#DDAC65" stroke-width="1.33333" stroke-miterlimit="8" fill="#DDAC65" fill-rule="evenodd"/><rect x="672.5" y="292.5" width="125" height="118" stroke="#000000" stroke-width="1.33333" stroke-miterlimit="8" fill="#D0CECE"/><path d="M468.5 458.329 468.5 458.329 522.711 379.861 991.5 379.5 939.946 458.5 468.5 458.329Z" stroke="#000000" stroke-miterlimit="8" fill="#E7E6E6" fill-rule="evenodd"/><rect x="564.5" y="333.5" width="193" height="118" stroke="#000000" stroke-width="1.33333" stroke-miterlimit="8" fill="#E7E6E6"/><path d="M623.439 291.755 565.5 333.245 757.032 333.5 795.5 291.5 623.439 291.755Z" stroke="#000000" stroke-width="1.33333" stroke-miterlimit="8" fill="#E7E6E6" fill-rule="evenodd"/><path d="M757.5 450.5 757.5 450.5 797.5 377.75 797.248 291.5 757.752 333.25C757.668 372.333 757.584 411.417 757.5 450.5Z" stroke="#000000" stroke-width="1.33333" stroke-miterlimit="8" fill="#AFABAB" fill-rule="evenodd"/><path d="M749.19 260.482 771.078 249.33 865 433.662 843.112 444.815Z" stroke="#000000" stroke-width="1.33333" stroke-miterlimit="8" fill="#C00000" fill-rule="evenodd"/><rect x="779.5" y="343.5" width="86" height="29" stroke="#000000" stroke-linejoin="round" stroke-miterlimit="10" stroke-opacity="0" fill="none"/><text font-family="Calibri,Calibri_MSFontService,sans-serif" font-weight="400" font-size="24" transform="translate(778.768 365)">$<tspan font-size="24" x="12.1667" y="0">\</tspan><tspan font-size="24" x="21.5" y="0">theta$</tspan></text><path d="M805.53 371.222C796.816 375.458 786.964 376.762 777.372 374.947" stroke="#000000" stroke-width="2.66667" stroke-miterlimit="8" fill="none" fill-rule="evenodd"/><path d="M776.5 312.5 777.433 375.447" stroke="#000000" stroke-width="0.666667" stroke-miterlimit="8" stroke-dasharray="5.33333 2" stroke-opacity="0.6" fill="none" fill-rule="evenodd"/><path d="M645 334.49 645 450.47 644 450.47 644 334.49ZM639.401 342.238 644.5 333.498 649.599 342.238C649.738 342.477 649.657 342.783 649.419 342.922 649.18 343.061 648.874 342.981 648.735 342.742L644.068 334.742 644.932 334.742 640.265 342.742C640.126 342.981 639.82 343.061 639.581 342.922 639.343 342.783 639.262 342.477 639.401 342.238ZM651.604 438.713 644.5 451.5 637.396 438.713C637.262 438.471 637.349 438.167 637.591 438.033 637.832 437.899 638.136 437.986 638.271 438.227L644.937 450.227 644.063 450.227 650.73 438.227C650.864 437.986 651.168 437.899 651.41 438.033 651.651 438.167 651.738 438.471 651.604 438.713Z"/><rect x="668.5" y="379.5" width="40" height="29" stroke="#000000" stroke-linejoin="round" stroke-miterlimit="10" stroke-opacity="0" fill="none"/><text font-family="Calibri,Calibri_MSFontService,sans-serif" font-weight="400" font-size="24" transform="translate(668.306 401)">$<tspan font-size="24" x="12.1667" y="0">H</tspan>$</text><path d="M779.107 216.959 886.718 428.374 886.124 428.676 778.513 217.261ZM777.981 230.818 778.5 216.5 790.383 224.506C790.535 224.609 790.576 224.816 790.473 224.969 790.37 225.121 790.163 225.162 790.01 225.059L778.625 217.388 779.145 217.124 778.647 230.843C778.64 231.027 778.486 231.17 778.302 231.164 778.118 231.157 777.974 231.002 777.981 230.818ZM887.256 414.828 886.737 429.146 874.854 421.14C874.702 421.038 874.661 420.83 874.764 420.678 874.867 420.525 875.074 420.485 875.227 420.588L886.612 428.258 886.092 428.522 886.59 414.804C886.597 414.62 886.751 414.476 886.935 414.483 887.119 414.489 887.263 414.644 887.256 414.828Z"/><rect x="832.5" y="301.5" width="58" height="29" stroke="#000000" stroke-linejoin="round" stroke-miterlimit="10" stroke-opacity="0" fill="none"/><text font-family="Calibri,Calibri_MSFontService,sans-serif" font-weight="400" font-size="24" transform="translate(832.305 323)">$<tspan font-size="24" x="12.1667" y="0">\</tspan><tspan font-size="24" x="21.5" y="0">ell</tspan>$</text><path d="M746.75 240.5 755.5 236.103 745.5 227.5 746.75 240.5Z" stroke="#000000" stroke-width="1.33333" stroke-miterlimit="8" fill-rule="evenodd"/></g></svg>