<svg width="1364" height="698" xmlns="http://www.w3.org/2000/svg" xmlns:xlink="http://www.w3.org/1999/xlink" overflow="hidden"><defs><clipPath id="clip0"><rect x="1267" y="443" width="1364" height="698"/></clipPath></defs><g clip-path="url(#clip0)" transform="translate(-1267 -443)"><path d="M1691.5 782.5C1691.5 638.906 1807.91 522.5 1951.5 522.5 2095.09 522.5 2211.5 638.906 2211.5 782.5 2211.5 926.094 2095.09 1042.5 1951.5 1042.5 1807.91 1042.5 1691.5 926.094 1691.5 782.5Z" stroke="#000000" stroke-width="9.16667" stroke-miterlimit="8" fill="none" fill-rule="evenodd"/><path d="M0 0 350.787 0.000360892" stroke="#595959" stroke-width="6.875" stroke-miterlimit="8" fill="none" fill-rule="evenodd" transform="matrix(-1 0 0 1 1621.29 784.5)"/><path d="M1951 522 1951 1041.69" stroke="#000000" stroke-width="2.29167" stroke-miterlimit="8" stroke-dasharray="9.16667 6.875" stroke-opacity="0.341176" fill="none" fill-rule="evenodd"/><path d="M2134.74 965.737 1951 782" stroke="#000000" stroke-width="2.29167" stroke-miterlimit="8" stroke-dasharray="9.16667 6.875" stroke-opacity="0.341176" fill="none" fill-rule="evenodd"/><path d="M2276.5 784.5 2627.29 784.5" stroke="#595959" stroke-width="6.875" stroke-miterlimit="8" fill="none" fill-rule="evenodd"/><path d="M2093.5 940.5C2093.5 926.141 2105.14 914.5 2119.5 914.5 2133.86 914.5 2145.5 926.141 2145.5 940.5 2145.5 954.859 2133.86 966.5 2119.5 966.5 2105.14 966.5 2093.5 954.859 2093.5 940.5Z" stroke="#000000" stroke-width="4.58333" stroke-miterlimit="8" fill="#3B3838" fill-rule="evenodd"/><rect x="2033.5" y="782.5" width="281" height="133" stroke="#000000" stroke-width="3.4375" stroke-linejoin="round" stroke-miterlimit="10" stroke-opacity="0" fill="none"/><text font-family="Calibri,Calibri_MSFontService,sans-serif" font-weight="400" font-size="83" transform="matrix(1 0 0 1 2066.44 876)">$m$</text><rect x="1621.5" y="975.5" width="280" height="133" stroke="#000000" stroke-width="3.4375" stroke-linejoin="round" stroke-miterlimit="10" stroke-opacity="0" fill="none"/><text font-family="Calibri,Calibri_MSFontService,sans-serif" font-weight="400" font-size="83" transform="matrix(1 0 0 1 1653.94 1069)">$M$</text><rect x="1795.5" y="598.5" width="280" height="134" stroke="#000000" stroke-width="3.4375" stroke-linejoin="round" stroke-miterlimit="10" stroke-opacity="0" fill="none"/><text font-family="Calibri,Calibri_MSFontService,sans-serif" font-weight="400" font-size="83" transform="matrix(1 0 0 1 1827.53 692)">$R$</text><path d="M0 0 0.000360892 342.072" stroke="#595959" stroke-width="6.875" stroke-miterlimit="8" fill="none" fill-rule="evenodd" transform="matrix(1 0 0 -1 1618.5 1124.57)"/><path d="M0 0 0.000360892 342.072" stroke="#595959" stroke-width="6.875" stroke-miterlimit="8" fill="none" fill-rule="evenodd" transform="matrix(1 0 0 -1 2283.5 1124.57)"/><path d="M1621 1117 2282.78 1117" stroke="#595959" stroke-width="13.75" stroke-miterlimit="8" fill="none" fill-rule="evenodd"/><rect x="1626" y="459" width="650" height="649" stroke="#000000" stroke-width="10.3125" stroke-miterlimit="8" fill="none"/><path d="M2400.01 443 2400.01 637.551 2391.99 637.551 2391.99 443ZM2422.42 598.249 2396 645.809 2369.58 598.249C2368.5 596.313 2369.2 593.871 2371.14 592.795 2373.07 591.72 2375.51 592.417 2376.59 594.354L2399.51 635.604 2392.49 635.604 2415.41 594.353C2416.49 592.417 2418.93 591.72 2420.86 592.795 2422.8 593.871 2423.5 596.313 2422.42 598.249Z"/><rect x="2395.5" y="478.5" width="217" height="133" stroke="#000000" stroke-width="3.4375" stroke-linejoin="round" stroke-miterlimit="10" stroke-opacity="0" fill="none"/><text font-family="Calibri,Calibri_MSFontService,sans-serif" font-weight="400" font-size="83" transform="matrix(1 0 0 1 2428.31 572)">$g$</text></g></svg>