<svg width="3129" height="845" xmlns="http://www.w3.org/2000/svg" xmlns:xlink="http://www.w3.org/1999/xlink" overflow="hidden"><defs><clipPath id="clip0"><rect x="516" y="663" width="3129" height="845"/></clipPath></defs><g clip-path="url(#clip0)" transform="translate(-516 -663)"><path d="M981.5 1464.5 981.5 739.5 3338.5 1464.5Z" stroke="#000000" stroke-width="9.16667" stroke-miterlimit="8" fill="none" fill-rule="evenodd"/><path d="M1979.93 826.404 1983.57 1035.19 1351.33 837.377Z" stroke="#000000" stroke-width="10.3125" stroke-miterlimit="8" fill="none" fill-rule="evenodd"/><path d="M516 1095.13 966.847 1095.13 966.847 1108.88 516 1108.88ZM908.31 1061.62 981.003 1102 908.31 1142.39C904.991 1144.23 900.806 1143.03 898.962 1139.71 897.118 1136.4 898.314 1132.21 901.633 1130.37L963.508 1095.99 963.508 1108.01 901.633 1073.64C898.314 1071.79 897.118 1067.61 898.962 1064.29 900.806 1060.97 904.991 1059.77 908.31 1061.62Z"/><path d="M2803.16 663 2803.16 917.066 2792.84 917.066 2792.84 663ZM2828.29 873.164 2798 927.683 2767.71 873.164C2766.33 870.674 2767.23 867.535 2769.72 866.152 2772.2 864.769 2775.34 865.666 2776.73 868.155L2802.51 914.562 2793.49 914.562 2819.27 868.155C2820.66 865.666 2823.8 864.769 2826.29 866.152 2828.78 867.535 2829.67 870.674 2828.29 873.164Z"/><rect x="1784.5" y="826.5" width="399" height="134" stroke="#000000" stroke-width="3.4375" stroke-linejoin="round" stroke-miterlimit="10" stroke-opacity="0" fill="none"/><text font-family="Calibri,Calibri_MSFontService,sans-serif" font-weight="400" font-size="83" transform="matrix(1 0 0 1 1817.2 920)">$m$</text><rect x="981.5" y="1331.5" width="398" height="133" stroke="#000000" stroke-width="3.4375" stroke-linejoin="round" stroke-miterlimit="10" stroke-opacity="0" fill="none"/><text font-family="Calibri,Calibri_MSFontService,sans-serif" font-weight="400" font-size="83" transform="matrix(1 0 0 1 1013.63 1425)">$M$</text><path d="M0 0 3104.06 0.000360892" stroke="#000000" stroke-width="5.72917" stroke-miterlimit="8" fill="none" fill-rule="evenodd" transform="matrix(-1 0 0 1 3644.06 1468)"/><rect x="641.5" y="964.5" width="399" height="133" stroke="#000000" stroke-width="3.4375" stroke-linejoin="round" stroke-miterlimit="10" stroke-opacity="0" fill="none"/><text font-family="Calibri,Calibri_MSFontService,sans-serif" font-weight="400" font-size="83" transform="matrix(1 0 0 1 674.009 1057)">$F_0$</text><rect x="2798.5" y="727.5" width="399" height="133" stroke="#000000" stroke-width="3.4375" stroke-linejoin="round" stroke-miterlimit="10" stroke-opacity="0" fill="none"/><text font-family="Calibri,Calibri_MSFontService,sans-serif" font-weight="400" font-size="83" transform="matrix(1 0 0 1 2831.12 821)">$g$</text><rect x="2798.5" y="1343.5" width="399" height="133" stroke="#000000" stroke-width="3.4375" stroke-linejoin="round" stroke-miterlimit="10" stroke-opacity="0" fill="none"/><text font-family="Calibri,Calibri_MSFontService,sans-serif" font-weight="400" font-size="83" transform="matrix(1 0 0 1 2831.12 1436)">$<tspan font-size="83" x="41.823" y="0">\</tspan><tspan font-size="83" x="73.9063" y="0">theta$</tspan></text></g></svg>