<svg width="2366" height="795" xmlns="http://www.w3.org/2000/svg" xmlns:xlink="http://www.w3.org/1999/xlink" overflow="hidden"><defs><clipPath id="clip0"><rect x="627" y="520" width="2366" height="795"/></clipPath></defs><g clip-path="url(#clip0)" transform="translate(-627 -520)"><path d="M0 0 299.521 345.125" stroke="#000000" stroke-width="6.875" stroke-miterlimit="8" fill="none" fill-rule="evenodd" transform="matrix(-1 0 0 1 999.021 523.5)"/><path d="M0 0 303.417 345.125" stroke="#000000" stroke-width="6.875" stroke-miterlimit="8" fill="none" fill-rule="evenodd" transform="matrix(-1 0 0 1 2931.92 523.5)"/><path d="M0 0 1933.25 0.000360892" stroke="#000000" stroke-width="6.875" stroke-miterlimit="8" fill="none" fill-rule="evenodd" transform="matrix(-1 0 0 1 2628.75 868.5)"/><path d="M0 0 1933.25 0.000360892" stroke="#000000" stroke-width="6.875" stroke-miterlimit="8" fill="none" fill-rule="evenodd" transform="matrix(-1 0 0 1 2931.75 523.5)"/><path d="M1166.5 687.5C1166.5 683.082 1174.56 679.5 1184.5 679.5 1194.44 679.5 1202.5 683.082 1202.5 687.5 1202.5 691.918 1194.44 695.5 1184.5 695.5 1174.56 695.5 1166.5 691.918 1166.5 687.5Z" stroke="#000000" stroke-width="4.58333" stroke-miterlimit="8" fill-rule="evenodd"/><path d="M2255.5 687.5C2255.5 683.082 2263.56 679.5 2273.5 679.5 2283.44 679.5 2291.5 683.082 2291.5 687.5 2291.5 691.918 2283.44 695.5 2273.5 695.5 2263.56 695.5 2255.5 691.918 2255.5 687.5Z" stroke="#000000" stroke-width="4.58333" stroke-miterlimit="8" fill-rule="evenodd"/><path d="M2273 679 2273 868.062" stroke="#000000" stroke-width="2.29167" stroke-miterlimit="8" stroke-dasharray="9.16667 6.875" stroke-opacity="0.4" fill="none" fill-rule="evenodd"/><path d="M2273.5 868.5 2273.5 1217.75" stroke="#000000" stroke-width="3.4375" stroke-miterlimit="8" fill="none" fill-rule="evenodd"/><path d="M0 0 1089 0.000360892" stroke="#000000" stroke-width="3.4375" stroke-miterlimit="8" fill="none" fill-rule="evenodd" transform="matrix(-1 0 0 1 2273.5 679.5)"/><path d="M1183 868 1183 1217.25" stroke="#000000" stroke-width="2.29167" stroke-miterlimit="8" stroke-dasharray="9.16667 6.875" stroke-opacity="0.258824" fill="none" fill-rule="evenodd"/><path d="M0 0 271.099 403.745" stroke="#000000" stroke-width="2.29167" stroke-miterlimit="8" stroke-dasharray="9.16667 6.875" stroke-opacity="0.4" fill="none" fill-rule="evenodd" transform="matrix(-1 0 0 1 1184.1 695)"/><path d="M933.5 1157.5C933.5 1146.45 1044.31 1137.5 1181 1137.5 1317.69 1137.5 1428.5 1146.45 1428.5 1157.5 1428.5 1168.55 1317.69 1177.5 1181 1177.5 1044.31 1177.5 933.5 1168.55 933.5 1157.5Z" stroke="#000000" stroke-width="4.58333" stroke-miterlimit="8" stroke-dasharray="18.3333 13.75" stroke-opacity="0.301961" fill="none" fill-rule="evenodd"/><path d="M0 0 1.375 189.062" stroke="#000000" stroke-width="2.29167" stroke-miterlimit="8" stroke-dasharray="9.16667 6.875" stroke-opacity="0.258824" fill="none" fill-rule="evenodd" transform="matrix(-1 0 0 1 1184.37 679)"/><path d="M0 0 155.613 231.183" stroke="#000000" stroke-width="3.4375" stroke-miterlimit="8" fill="none" fill-rule="evenodd" transform="matrix(-1 0 0 1 1069.11 868.5)"/><path d="M2234.5 1219.5C2234.5 1197.96 2251.96 1180.5 2273.5 1180.5 2295.04 1180.5 2312.5 1197.96 2312.5 1219.5 2312.5 1241.04 2295.04 1258.5 2273.5 1258.5 2251.96 1258.5 2234.5 1241.04 2234.5 1219.5Z" stroke="#000000" stroke-width="4.58333" stroke-miterlimit="8" fill="#595959" fill-rule="evenodd"/><path d="M874.5 1138.5C874.5 1116.96 891.961 1099.5 913.5 1099.5 935.039 1099.5 952.5 1116.96 952.5 1138.5 952.5 1160.04 935.039 1177.5 913.5 1177.5 891.961 1177.5 874.5 1160.04 874.5 1138.5Z" stroke="#000000" stroke-width="4.58333" stroke-miterlimit="8" fill="#595959" fill-rule="evenodd"/><rect x="1032.5" y="890.5" width="339" height="134" stroke="#000000" stroke-width="3.4375" stroke-linejoin="round" stroke-miterlimit="10" stroke-opacity="0" fill="none"/><text font-family="Calibri,Calibri_MSFontService,sans-serif" font-weight="400" font-size="83" transform="matrix(1 0 0 1 1065.17 984)">$<tspan font-size="83" x="41.8229" y="0">\</tspan><tspan font-size="83" x="73.9063" y="0">beta$</tspan></text><rect x="644.5" y="1070.5" width="339" height="134" stroke="#000000" stroke-width="3.4375" stroke-linejoin="round" stroke-miterlimit="10" stroke-opacity="0" fill="none"/><text font-family="Calibri,Calibri_MSFontService,sans-serif" font-weight="400" font-size="83" transform="matrix(1 0 0 1 677.06 1164)">$m$</text><rect x="2305.5" y="1150.5" width="575" height="133" stroke="#000000" stroke-width="3.4375" stroke-linejoin="round" stroke-miterlimit="10" stroke-opacity="0" fill="none"/><text font-family="Calibri,Calibri_MSFontService,sans-serif" font-weight="400" font-size="83" transform="matrix(1 0 0 1 2337.78 1243)">$<tspan font-size="83" x="41.823" y="0">\</tspan><tspan font-size="83" x="73.9063" y="0">lambda m$</tspan></text><rect x="1419.5" y="1086.5" width="424" height="133" stroke="#000000" stroke-width="3.4375" stroke-linejoin="round" stroke-miterlimit="10" stroke-opacity="0" fill="none"/><text font-family="Calibri,Calibri_MSFontService,sans-serif" font-weight="400" font-size="83" transform="matrix(1 0 0 1 1452.18 1179)">$<tspan font-size="83" x="41.8229" y="0">\</tspan><tspan font-size="83" x="73.9063" y="0">omega$</tspan></text><path d="M1345.05 1139 1348.78 1139.27 1357.6 1139.96 1365.95 1140.65 1373.86 1141.46 1381.19 1142.22 1387.98 1143.03 1394.34 1143.85 1400.14 1144.73 1405.38 1145.62 1410.12 1146.5 1414.4 1147.4 1418.21 1148.37 1421.4 1149.34 1424.22 1150.35 1426.5 1151.42 1428.38 1152.59 1430.05 1154.16 1430.93 1156.37 1430.62 1158.84 1429.27 1160.7 1427.59 1162.02 1425.42 1163.22 1422.86 1164.26 1419.81 1165.25 1416.2 1166.22 1412.1 1167.18 1407.45 1168.07 1402.21 1168.95 1396.48 1169.83 1390.13 1170.71 1383.28 1171.59 1375.79 1172.41 1362.88 1173.67 1348.9 1174.79 1333.81 1175.86 1317.79 1176.8 1317.46 1171.08 1333.46 1170.14 1333.42 1170.14 1348.49 1169.08 1348.46 1169.08 1362.39 1167.96 1362.35 1167.96 1375.22 1166.71 1375.19 1166.71 1382.63 1165.9 1382.57 1165.91 1389.38 1165.03 1389.36 1165.04 1395.67 1164.16 1395.63 1164.17 1401.31 1163.29 1401.27 1163.3 1406.46 1162.43 1406.4 1162.44 1410.96 1161.56 1410.85 1161.59 1414.85 1160.65 1414.76 1160.67 1418.26 1159.73 1418.11 1159.78 1420.99 1158.84 1420.8 1158.91 1423.11 1157.97 1422.8 1158.12 1424.62 1157.12 1424.22 1157.38 1425.41 1156.44 1424.88 1156.99 1425.56 1156.06 1425.03 1157.39 1425.16 1156.39 1425.34 1157.81 1424.97 1156.88 1425.67 1157.9 1424.67 1156.96 1425.11 1157.3 1423.61 1156.37 1423.91 1156.53 1421.91 1155.59 1422.16 1155.7 1419.54 1154.76 1419.66 1154.8 1416.6 1153.86 1416.73 1153.9 1413.04 1152.96 1413.16 1152.99 1408.98 1152.12 1409.04 1152.13 1404.35 1151.25 1404.4 1151.26 1399.21 1150.39 1399.26 1150.39 1393.51 1149.52 1393.57 1149.53 1387.26 1148.72 1387.28 1148.72 1380.53 1147.91 1380.58 1147.91 1373.27 1147.16 1365.39 1146.35 1365.45 1146.35 1357.14 1145.67 1357.15 1145.67 1348.34 1144.98 1348.35 1144.98 1344.63 1144.71ZM1369.48 1162.22 1339.17 1141.44 1372.19 1125.29C1373.61 1124.6 1375.32 1125.19 1376.02 1126.61 1376.71 1128.03 1376.12 1129.74 1374.7 1130.44L1346.1 1144.43 1346.46 1139.49 1372.72 1157.5C1374.02 1158.4 1374.35 1160.18 1373.46 1161.48 1372.56 1162.79 1370.78 1163.12 1369.48 1162.22Z"/><path d="M2784.01 798 2784.01 975.455 2775.99 975.455 2775.99 798ZM2806.42 936.152 2780 983.713 2753.58 936.152C2752.5 934.216 2753.2 931.775 2755.14 930.699 2757.07 929.623 2759.51 930.321 2760.59 932.257L2783.51 973.507 2776.49 973.507 2799.41 932.257C2800.49 930.321 2802.93 929.623 2804.86 930.699 2806.8 931.775 2807.5 934.216 2806.42 936.152Z"/><rect x="2788.5" y="824.5" width="195" height="133" stroke="#000000" stroke-width="3.4375" stroke-linejoin="round" stroke-miterlimit="10" stroke-opacity="0" fill="none"/><text font-family="Calibri,Calibri_MSFontService,sans-serif" font-weight="400" font-size="83" transform="matrix(1 0 0 1 2820.53 917)">$g$</text><rect x="829.5" y="880.5" width="339" height="134" stroke="#000000" stroke-width="3.4375" stroke-linejoin="round" stroke-miterlimit="10" stroke-opacity="0" fill="none"/><text font-family="Calibri,Calibri_MSFontService,sans-serif" font-weight="400" font-size="83" transform="matrix(1 0 0 1 861.668 974)">$L$</text></g></svg>