<svg width="2010" height="1171" xmlns="http://www.w3.org/2000/svg" xmlns:xlink="http://www.w3.org/1999/xlink" overflow="hidden"><defs><clipPath id="clip0"><rect x="654" y="399" width="2010" height="1171"/></clipPath></defs><g clip-path="url(#clip0)" transform="translate(-654 -399)"><path d="M654.5 403.5 2473.4 403.5" stroke="#000000" stroke-width="9.16667" stroke-miterlimit="8" fill="none" fill-rule="evenodd"/><path d="M2473.5 400.5 2473.5 1487.38" stroke="#000000" stroke-width="9.16667" stroke-miterlimit="8" fill="none" fill-rule="evenodd"/><path d="M1278.5 403.5 1731.7 1184.81" stroke="#000000" stroke-width="4.58333" stroke-miterlimit="8" fill="none" fill-rule="evenodd"/><path d="M0 0 411.546 740.229" stroke="#000000" stroke-width="2.29167" stroke-miterlimit="8" stroke-dasharray="9.16667 6.875" stroke-opacity="0.501961" fill="none" fill-rule="evenodd" transform="matrix(1 0 0 -1 866 1146.23)"/><path d="M1278.5 406.5 1278.5 1451.44" stroke="#000000" stroke-width="4.58333" stroke-miterlimit="8" stroke-dasharray="18.3333 13.75" stroke-opacity="0.478431" fill="none" fill-rule="evenodd"/><path d="M1641.5 1278.5C1641.5 1206.7 1699.7 1148.5 1771.5 1148.5 1843.3 1148.5 1901.5 1206.7 1901.5 1278.5 1901.5 1350.3 1843.3 1408.5 1771.5 1408.5 1699.7 1408.5 1641.5 1350.3 1641.5 1278.5Z" stroke="#000000" stroke-width="12.6042" stroke-miterlimit="8" fill="#404040" fill-rule="evenodd"/><path d="M1901 1278 2154.39 1278" stroke="#000000" stroke-width="2.29167" stroke-miterlimit="8" fill="none" fill-rule="evenodd"/><path d="M0 0 64.7697 82.5" stroke="#000000" stroke-width="2.29167" stroke-miterlimit="8" fill="none" fill-rule="evenodd" transform="matrix(1 0 0 -1 2122 1320.5)"/><path d="M2187 1276 2472.78 1276" stroke="#000000" stroke-width="2.29167" stroke-miterlimit="8" fill="none" fill-rule="evenodd"/><rect x="1133.5" y="612.5" width="497" height="133" stroke="#000000" stroke-width="3.4375" stroke-linejoin="round" stroke-miterlimit="10" stroke-opacity="0" fill="none"/><text font-family="Calibri,Calibri_MSFontService,sans-serif" font-weight="400" font-size="83" transform="matrix(1 0 0 1 1165.56 706)">$<tspan font-size="83" x="41.8229" y="0">\</tspan><tspan font-size="83" x="73.9063" y="0">alpha</tspan><tspan font-size="83" x="258.958" y="0">$</tspan></text><path d="M691.5 1276.5C691.5 1204.7 749.703 1146.5 821.5 1146.5 893.297 1146.5 951.5 1204.7 951.5 1276.5 951.5 1348.3 893.297 1406.5 821.5 1406.5 749.703 1406.5 691.5 1348.3 691.5 1276.5Z" stroke="#000000" stroke-width="12.6042" stroke-miterlimit="8" stroke-opacity="0.501961" fill="#404040" fill-rule="evenodd" fill-opacity="0.501961"/><rect x="1280.5" y="612.5" width="497" height="133" stroke="#000000" stroke-width="3.4375" stroke-linejoin="round" stroke-miterlimit="10" stroke-opacity="0" fill="none"/><text font-family="Calibri,Calibri_MSFontService,sans-serif" font-weight="400" font-size="83" transform="matrix(1 0 0 1 1312.76 706)">$<tspan font-size="83" x="41.823" y="0">\</tspan><tspan font-size="83" x="73.9063" y="0">alpha</tspan><tspan font-size="83" x="258.958" y="0">$</tspan></text><rect x="1678.5" y="1404.5" width="497" height="133" stroke="#000000" stroke-width="3.4375" stroke-linejoin="round" stroke-miterlimit="10" stroke-opacity="0" fill="none"/><text font-family="Calibri,Calibri_MSFontService,sans-serif" font-weight="400" font-size="83" transform="matrix(1 0 0 1 1711.03 1498)">$A$</text><rect x="703.5" y="1405.5" width="497" height="133" stroke="#000000" stroke-width="3.4375" stroke-linejoin="round" stroke-miterlimit="10" stroke-opacity="0" fill="none"/><text font-family="Calibri,Calibri_MSFontService,sans-serif" font-weight="400" font-size="83" transform="matrix(1 0 0 1 735.809 1498)">$B$</text><rect x="823.5" y="753.5" width="497" height="134" stroke="#000000" stroke-width="3.4375" stroke-linejoin="round" stroke-miterlimit="10" stroke-opacity="0" fill="none"/><text font-family="Calibri,Calibri_MSFontService,sans-serif" font-weight="400" font-size="83" transform="matrix(1 0 0 1 856.352 847)">$T_B$</text><rect x="1528.5" y="753.5" width="497" height="134" stroke="#000000" stroke-width="3.4375" stroke-linejoin="round" stroke-miterlimit="10" stroke-opacity="0" fill="none"/><text font-family="Calibri,Calibri_MSFontService,sans-serif" font-weight="400" font-size="83" transform="matrix(1 0 0 1 1561.25 847)">$T_A$</text><path d="M2160.08 529.5 2160.08 767.188 2150.92 767.188 2150.92 529.5ZM2182.42 728.164 2155.5 776.626 2128.58 728.164C2127.35 725.951 2128.15 723.161 2130.36 721.931 2132.57 720.702 2135.36 721.499 2136.59 723.712L2159.51 764.962 2151.49 764.962 2174.41 723.712C2175.64 721.499 2178.43 720.702 2180.64 721.931 2182.86 723.161 2183.65 725.951 2182.42 728.164Z"/><rect x="2165.5" y="586.5" width="497" height="133" stroke="#000000" stroke-width="3.4375" stroke-linejoin="round" stroke-miterlimit="10" stroke-opacity="0" fill="none"/><text font-family="Calibri,Calibri_MSFontService,sans-serif" font-weight="400" font-size="83" transform="matrix(1 0 0 1 2198.17 679)">$g$</text></g></svg>