<svg width="1255" height="741" xmlns="http://www.w3.org/2000/svg" xmlns:xlink="http://www.w3.org/1999/xlink" overflow="hidden"><defs><clipPath id="clip0"><rect x="579" y="575" width="1255" height="741"/></clipPath></defs><g clip-path="url(#clip0)" transform="translate(-579 -575)"><path d="M583.5 1313.5 844.429 696.5 1650.5 696.5 1389.57 1313.5Z" stroke="#000000" stroke-width="4.58333" stroke-miterlimit="8" fill="#E7E6E6" fill-rule="evenodd"/><path d="M0 0 259.976 616.595" stroke="#4472C4" stroke-width="2.29167" stroke-miterlimit="8" fill="none" fill-rule="evenodd" transform="matrix(-1 0 0 1 1649.98 696)"/><path d="M1650.5 699.5C1649.93 821.612 1649.36 943.724 1648.78 1065.84L1391.5 1313.5 1650.5 699.5Z" stroke="#000000" stroke-width="4.58333" stroke-linecap="round" stroke-linejoin="round" stroke-miterlimit="10" fill="#AFABAB" fill-rule="evenodd"/><path d="M0 0 260.36 616.595" stroke="#000000" stroke-width="2.29167" stroke-miterlimit="8" fill="none" fill-rule="evenodd" transform="matrix(1 0 0 -1 987 1312.6)"/><path d="M893.152 913.409C941.701 789.862 1081.21 729.065 1204.76 777.614 1328.31 826.164 1389.11 965.676 1340.56 1089.22 1292.01 1212.77 1152.49 1273.57 1028.95 1225.02 905.4 1176.47 844.602 1036.96 893.152 913.409Z" stroke="#000000" stroke-width="4.58333" stroke-miterlimit="8" stroke-dasharray="18.3333 13.75" fill="none" fill-rule="evenodd"/><path d="M0 0 230.987 118.51" stroke="#000000" stroke-width="2.29167" stroke-miterlimit="8" fill="none" fill-rule="evenodd" transform="matrix(-1 0 0 1 1127.99 979)"/><path d="M870.5 1098C870.5 1086.13 881.021 1076.5 894 1076.5 906.979 1076.5 917.5 1086.13 917.5 1098 917.5 1109.87 906.979 1119.5 894 1119.5 881.021 1119.5 870.5 1109.87 870.5 1098Z" stroke="#000000" stroke-width="4.58333" stroke-miterlimit="8" fill="#0070C0" fill-rule="evenodd"/><path d="M1461.1 1147.26C1495.74 1149.64 1521.14 1167.56 1518.86 1188.01" stroke="#000000" stroke-width="2.29167" stroke-miterlimit="8" fill="none" fill-rule="evenodd"/><rect x="1428.5" y="1149.5" width="246" height="89" stroke="#000000" stroke-width="3.4375" stroke-linejoin="round" stroke-miterlimit="10" stroke-opacity="0" fill="none"/><text font-family="Calibri,Calibri_MSFontService,sans-serif" font-weight="400" font-size="46" transform="matrix(1 0 0 1 1461.46 1208)">$<tspan font-size="46" x="23.4896" y="0">\</tspan><tspan font-size="46" x="41.25" y="0">alpha</tspan><tspan font-size="46" x="143.229" y="0">$</tspan></text><rect x="765.5" y="1053.5" width="160" height="89" stroke="#000000" stroke-width="3.4375" stroke-linejoin="round" stroke-miterlimit="10" stroke-opacity="0" fill="none"/><text font-family="Calibri,Calibri_MSFontService,sans-serif" font-weight="400" font-size="46" transform="matrix(1 0 0 1 798.313 1112)">$m$</text><rect x="960.5" y="957.5" width="159" height="89.0001" stroke="#000000" stroke-width="3.4375" stroke-linejoin="round" stroke-miterlimit="10" stroke-opacity="0" fill="none"/><text font-family="Calibri,Calibri_MSFontService,sans-serif" font-weight="400" font-size="46" transform="matrix(1 0 0 1 993.057 1017)">$L$</text><rect x="1102.5" y="934.5" width="159" height="88.9997" stroke="#000000" stroke-width="3.4375" stroke-linejoin="round" stroke-miterlimit="10" stroke-opacity="0" fill="none"/><text font-family="Calibri,Calibri_MSFontService,sans-serif" font-weight="400" font-size="46" transform="matrix(1 0 0 1 1134.81 994)">$O$</text><rect x="1350.5" y="576.5" width="346" height="89.0001" stroke="#000000" stroke-width="3.4375" stroke-linejoin="round" stroke-miterlimit="10" stroke-opacity="0" fill="none"/><text font-family="Calibri,Calibri_MSFontService,sans-serif" font-weight="400" font-size="46" transform="matrix(1 0 0 1 1382.79 635)">$<tspan font-size="46" x="23.4895" y="0">\</tspan><tspan font-size="46" x="41.25" y="0">mu_c</tspan><tspan font-size="46" x="144.375" y="0">$</tspan></text><path d="M1403.46 773.674 1404.29 761.723 1405.92 746.712 1408.18 732.198 1411.01 718.185 1414.34 704.793 1418.18 692.139 1422.59 680.228 1427.43 669.305 1430.57 670.696 1425.76 681.571 1425.8 681.472 1421.42 693.285 1421.46 693.187 1417.64 705.749 1417.67 705.665 1414.36 718.978 1414.37 718.903 1411.56 732.84 1411.57 732.765 1409.32 747.202 1409.33 747.124 1407.71 762.061 1407.71 761.994 1406.89 773.912ZM1424.5 748.436 1404.94 777.196 1389.53 746.009C1389.11 745.158 1389.46 744.128 1390.31 743.707 1391.16 743.287 1392.19 743.636 1392.61 744.487L1406.71 773.032 1403.75 772.826 1421.66 746.502C1422.19 745.718 1423.26 745.514 1424.05 746.048 1424.83 746.582 1425.04 747.651 1424.5 748.436Z" fill="#FF0000"/><path d="M1698.86 734 1698.86 861.016 1693.14 861.016 1693.14 734ZM1721.42 821.157 1696 866.914 1670.58 821.157C1669.81 819.774 1670.31 818.03 1671.69 817.261 1673.08 816.493 1674.82 816.991 1675.59 818.374L1698.5 859.624 1693.5 859.624 1716.41 818.374C1717.18 816.991 1718.93 816.493 1720.31 817.261 1721.69 818.03 1722.19 819.774 1721.42 821.157Z"/><rect x="1690.5" y="743.5" width="142" height="200" stroke="#000000" stroke-width="3.4375" stroke-linejoin="round" stroke-miterlimit="10" stroke-opacity="0" fill="none"/><text font-family="Calibri,Calibri_MSFontService,sans-serif" font-weight="400" font-size="46" transform="matrix(1 0 0 1 1723.38 803)">$<tspan font-size="46" x="23.4895" y="0">\</tspan><tspan font-size="46" x="41.25" y="0">v</tspan><tspan font-size="46" x="0" y="55">ec</tspan><tspan font-size="46" x="42.3958" y="55">{</tspan><tspan font-size="46" x="0" y="110">g}$</tspan></text></g></svg>