<svg width="2179" height="408" xmlns="http://www.w3.org/2000/svg" xmlns:xlink="http://www.w3.org/1999/xlink" overflow="hidden"><defs><clipPath id="clip0"><rect x="341" y="888" width="2179" height="408"/></clipPath></defs><g clip-path="url(#clip0)" transform="translate(-341 -888)"><path d="M343.5 1128.5 343.5 1266.56" stroke="#000000" stroke-width="4.58333" stroke-miterlimit="8" fill="none" fill-rule="evenodd"/><path d="M343.5 1266.5 1370.54 1266.5" stroke="#000000" stroke-width="4.58333" stroke-miterlimit="8" fill="none" fill-rule="evenodd"/><path d="M0 0 1145.88 375.88" stroke="#000000" stroke-width="4.58333" stroke-miterlimit="8" fill="none" fill-rule="evenodd" transform="matrix(1 0 0 -1 1371.5 1266.38)"/><path d="M583 1262.14 600.188 1262.14 600.188 1263.09 583 1263.09ZM583 1264.05 600.188 1264.05 600.188 1265.96 583 1265.95ZM583 1266.91 600.187 1266.91 600.187 1267.87 583 1267.86ZM605.917 1262.14 623.104 1262.14 623.104 1263.09 605.917 1263.09ZM605.917 1264.05 623.104 1264.05 623.104 1265.96 605.917 1265.96ZM605.917 1266.91 623.104 1266.91 623.104 1267.87 605.917 1267.87ZM628.833 1262.14 646.021 1262.14 646.021 1263.09 628.833 1263.09ZM628.833 1264.05 646.021 1264.05 646.021 1265.96 628.833 1265.96ZM628.833 1266.91 646.021 1266.91 646.021 1267.87 628.833 1267.87ZM651.75 1262.14 668.938 1262.14 668.938 1263.09 651.75 1263.09ZM651.75 1264.05 668.938 1264.05 668.938 1265.96 651.75 1265.96ZM651.75 1266.91 668.937 1266.91 668.937 1267.87 651.75 1267.87ZM674.667 1262.14 691.854 1262.14 691.854 1263.09 674.667 1263.09ZM674.667 1264.05 691.854 1264.05 691.854 1265.96 674.667 1265.96ZM674.667 1266.91 691.854 1266.91 691.854 1267.87 674.667 1267.87ZM697.583 1262.14 714.771 1262.14 714.771 1263.09 697.583 1263.09ZM697.583 1264.05 714.771 1264.05 714.771 1265.96 697.583 1265.96ZM697.583 1266.91 714.771 1266.91 714.771 1267.87 697.583 1267.87ZM720.5 1262.14 737.688 1262.14 737.688 1263.09 720.5 1263.09ZM720.5 1264.05 737.688 1264.05 737.688 1265.96 720.5 1265.96ZM720.5 1266.91 737.687 1266.91 737.687 1267.87 720.5 1267.87ZM743.417 1262.14 760.604 1262.14 760.604 1263.1 743.417 1263.09ZM743.417 1264.05 760.604 1264.05 760.604 1265.96 743.417 1265.96ZM743.417 1266.91 760.604 1266.91 760.604 1267.87 743.417 1267.87ZM766.333 1262.14 783.521 1262.14 783.521 1263.1 766.333 1263.1ZM766.333 1264.05 783.521 1264.05 783.521 1265.96 766.333 1265.96ZM766.333 1266.92 783.521 1266.92 783.521 1267.87 766.333 1267.87ZM789.25 1262.14 806.438 1262.14 806.438 1263.1 789.25 1263.1ZM789.25 1264.05 806.438 1264.05 806.438 1265.96 789.25 1265.96ZM789.25 1266.92 806.437 1266.92 806.437 1267.87 789.25 1267.87ZM812.167 1262.14 829.354 1262.14 829.354 1263.1 812.167 1263.1ZM812.167 1264.05 829.354 1264.05 829.354 1265.96 812.167 1265.96ZM812.167 1266.92 829.354 1266.92 829.354 1267.87 812.167 1267.87ZM835.083 1262.14 852.271 1262.14 852.271 1263.1 835.083 1263.1ZM835.083 1264.05 852.271 1264.05 852.271 1265.96 835.083 1265.96ZM835.083 1266.92 852.271 1266.92 852.271 1267.87 835.083 1267.87ZM858 1262.14 875.188 1262.14 875.188 1263.1 858 1263.1ZM858 1264.05 875.188 1264.05 875.188 1265.96 858 1265.96ZM858 1266.92 875.187 1266.92 875.187 1267.87 858 1267.87ZM880.917 1262.14 898.104 1262.14 898.104 1263.1 880.917 1263.1ZM880.917 1264.05 898.104 1264.05 898.104 1265.96 880.917 1265.96ZM880.917 1266.92 898.104 1266.92 898.104 1267.87 880.917 1267.87ZM903.833 1262.14 921.021 1262.15 921.021 1263.1 903.833 1263.1ZM903.833 1264.05 921.021 1264.06 921.021 1265.96 903.833 1265.96ZM903.833 1266.92 921.021 1266.92 921.021 1267.87 903.833 1267.87ZM926.75 1262.15 943.938 1262.15 943.938 1263.1 926.75 1263.1ZM926.75 1264.06 943.938 1264.06 943.938 1265.97 926.75 1265.96ZM926.75 1266.92 943.937 1266.92 943.937 1267.88 926.75 1267.87ZM949.667 1262.15 966.854 1262.15 966.854 1263.1 949.667 1263.1ZM949.667 1264.06 966.854 1264.06 966.854 1265.97 949.667 1265.97ZM949.667 1266.92 966.854 1266.92 966.854 1267.88 949.667 1267.88ZM972.583 1262.15 989.771 1262.15 989.771 1263.1 972.583 1263.1ZM972.583 1264.06 989.771 1264.06 989.771 1265.97 972.583 1265.97ZM972.583 1266.92 989.771 1266.92 989.771 1267.88 972.583 1267.88ZM995.5 1262.15 1012.69 1262.15 1012.69 1263.1 995.5 1263.1ZM995.5 1264.06 1012.69 1264.06 1012.69 1265.97 995.5 1265.97ZM995.5 1266.92 1012.69 1266.92 1012.69 1267.88 995.5 1267.88ZM1018.42 1262.15 1035.6 1262.15 1035.6 1263.1 1018.42 1263.1ZM1018.42 1264.06 1035.6 1264.06 1035.6 1265.97 1018.42 1265.97ZM1018.42 1266.92 1035.6 1266.92 1035.6 1267.88 1018.42 1267.88ZM1041.33 1262.15 1058.52 1262.15 1058.52 1263.1 1041.33 1263.1ZM1041.33 1264.06 1058.52 1264.06 1058.52 1265.97 1041.33 1265.97ZM1041.33 1266.92 1058.52 1266.92 1058.52 1267.88 1041.33 1267.88ZM1064.25 1262.15 1081.44 1262.15 1081.44 1263.1 1064.25 1263.1ZM1064.25 1264.06 1081.44 1264.06 1081.44 1265.97 1064.25 1265.97ZM1064.25 1266.92 1081.44 1266.92 1081.44 1267.88 1064.25 1267.88ZM1087.17 1262.15 1104.35 1262.15 1104.35 1263.11 1087.17 1263.11ZM1087.17 1264.06 1104.35 1264.06 1104.35 1265.97 1087.17 1265.97ZM1087.17 1266.92 1104.35 1266.93 1104.35 1267.88 1087.17 1267.88ZM1110.08 1262.15 1127.27 1262.15 1127.27 1263.11 1110.08 1263.11ZM1110.08 1264.06 1127.27 1264.06 1127.27 1265.97 1110.08 1265.97ZM1110.08 1266.93 1127.27 1266.93 1127.27 1267.88 1110.08 1267.88ZM1133 1262.15 1150.19 1262.15 1150.19 1263.11 1133 1263.11ZM1133 1264.06 1150.19 1264.06 1150.19 1265.97 1133 1265.97ZM1133 1266.93 1150.19 1266.93 1150.19 1267.88 1133 1267.88ZM1155.92 1262.15 1173.1 1262.15 1173.1 1263.11 1155.92 1263.11ZM1155.92 1264.06 1173.1 1264.06 1173.1 1265.97 1155.92 1265.97ZM1155.92 1266.93 1173.1 1266.93 1173.1 1267.88 1155.92 1267.88ZM1178.83 1262.15 1196.02 1262.15 1196.02 1263.11 1178.83 1263.11ZM1178.83 1264.06 1196.02 1264.06 1196.02 1265.97 1178.83 1265.97ZM1178.83 1266.93 1196.02 1266.93 1196.02 1267.88 1178.83 1267.88ZM1201.75 1262.15 1218.94 1262.15 1218.94 1263.11 1201.75 1263.11ZM1201.75 1264.06 1218.94 1264.06 1218.94 1265.97 1201.75 1265.97ZM1201.75 1266.93 1218.94 1266.93 1218.94 1267.88 1201.75 1267.88ZM1224.67 1262.15 1241.85 1262.15 1241.85 1263.11 1224.67 1263.11ZM1224.67 1264.06 1241.85 1264.06 1241.85 1265.97 1224.67 1265.97ZM1224.67 1266.93 1241.85 1266.93 1241.85 1267.88 1224.67 1267.88ZM1247.58 1262.15 1264.77 1262.16 1264.77 1263.11 1247.58 1263.11ZM1247.58 1264.06 1264.77 1264.07 1264.77 1265.97 1247.58 1265.97ZM1247.58 1266.93 1264.77 1266.93 1264.77 1267.88 1247.58 1267.88ZM1270.5 1262.16 1287.69 1262.16 1287.69 1263.11 1270.5 1263.11ZM1270.5 1264.07 1287.69 1264.07 1287.69 1265.98 1270.5 1265.97ZM1270.5 1266.93 1287.69 1266.93 1287.69 1267.89 1270.5 1267.88ZM1293.42 1262.16 1310.6 1262.16 1310.6 1263.11 1293.42 1263.11ZM1293.42 1264.07 1310.6 1264.07 1310.6 1265.98 1293.42 1265.98ZM1293.42 1266.93 1310.6 1266.93 1310.6 1267.89 1293.42 1267.89ZM1316.33 1262.16 1333.52 1262.16 1333.52 1263.11 1316.33 1263.11ZM1316.33 1264.07 1333.52 1264.07 1333.52 1265.98 1316.33 1265.98ZM1316.33 1266.93 1333.52 1266.93 1333.52 1267.89 1316.33 1267.89ZM1339.25 1262.16 1356.44 1262.16 1356.44 1263.11 1339.25 1263.11ZM1339.25 1264.07 1356.44 1264.07 1356.44 1265.98 1339.25 1265.98ZM1339.25 1266.93 1356.44 1266.93 1356.44 1267.89 1339.25 1267.89ZM1362.17 1262.16 1370.28 1262.16 1370.28 1263.11 1362.17 1263.11ZM1362.17 1264.07 1370.28 1264.07 1370.28 1265.98 1362.17 1265.98ZM1362.17 1266.93 1370.28 1266.93 1370.28 1267.89 1362.17 1267.89Z" fill="#FF0000"/><path d="M373.5 1201.08 384.755 1169.5C388.506 1180.03 396.5 1201.5 396.5 1201.5" stroke="#000000" stroke-width="4.58333" stroke-miterlimit="8" fill="none" fill-rule="evenodd"/><path d="M0 31.579 11.2544 0C15.0058 10.5264 22.9997 32 22.9997 32" stroke="#000000" stroke-width="4.58333" stroke-miterlimit="8" fill="none" fill-rule="evenodd" transform="matrix(1 0 0 -1 395.5 1230.5)"/><path d="M418.5 1199.08 429.754 1167.5C433.506 1178.03 441.5 1199.5 441.5 1199.5" stroke="#000000" stroke-width="4.58333" stroke-miterlimit="8" fill="none" fill-rule="evenodd"/><path d="M0 32.5659 11.2545 0C15.006 10.8553 23 33 23 33" stroke="#000000" stroke-width="4.58333" stroke-miterlimit="8" fill="none" fill-rule="evenodd" transform="matrix(1 0 0 -1 440.5 1229.5)"/><path d="M462.5 1198.07 473.754 1165.5C477.506 1176.36 485.5 1198.5 485.5 1198.5" stroke="#000000" stroke-width="4.58333" stroke-miterlimit="8" fill="none" fill-rule="evenodd"/><path d="M0 31.579 11.7439 0C15.6585 10.5264 24.0001 32 24.0001 32" stroke="#000000" stroke-width="4.58333" stroke-miterlimit="8" fill="none" fill-rule="evenodd" transform="matrix(1 0 0 -1 484.5 1227.5)"/><path d="M507.5 1196.08 518.754 1164.5C522.506 1175.03 530.5 1196.5 530.5 1196.5" stroke="#000000" stroke-width="4.58333" stroke-miterlimit="8" fill="none" fill-rule="evenodd"/><path d="M0 32.5659 11.2545 0C15.006 10.8553 23 33 23 33" stroke="#000000" stroke-width="4.58333" stroke-miterlimit="8" fill="none" fill-rule="evenodd" transform="matrix(1 0 0 -1 529.5 1226.5)"/><path d="M0 0 29.5964 0.000360892" stroke="#000000" stroke-width="2.29167" stroke-miterlimit="8" fill="none" fill-rule="evenodd" transform="matrix(-1 0 0 1 372.596 1199)"/><path d="M552 1193 568.708 1193" stroke="#000000" stroke-width="2.29167" stroke-miterlimit="8" fill="none" fill-rule="evenodd"/><path d="M569 1180 569 1206.11" stroke="#000000" stroke-width="2.29167" stroke-miterlimit="8" fill="none" fill-rule="evenodd"/><rect x="596.5" y="1151.5" width="136" height="108" stroke="#000000" stroke-width="4.58333" stroke-miterlimit="8" fill="#FFFFFF"/><rect x="604.5" y="1158.5" width="165" height="89" stroke="#000000" stroke-width="3.4375" stroke-linejoin="round" stroke-miterlimit="10" stroke-opacity="0" fill="none"/><text font-family="Calibri,Calibri_MSFontService,sans-serif" font-weight="400" font-size="46" transform="matrix(1 0 0 1 637.367 1217)">$m$</text><path d="M1982.08 949.067 2110.62 907.127 2144.01 1009.48 2015.48 1051.42Z" stroke="#000000" stroke-width="4.58333" stroke-miterlimit="8" stroke-dasharray="13.75 4.58333" stroke-opacity="0.521569" fill="#FFFFFF" fill-rule="evenodd"/><path d="M1993.71 959.539 2150.39 908.418 2177.95 992.894 2021.28 1044.01Z" stroke="#000000" stroke-width="3.4375" stroke-linejoin="round" stroke-miterlimit="10" stroke-opacity="0" fill="none" fill-rule="evenodd"/><text font-family="Calibri,Calibri_MSFontService,sans-serif" font-weight="400" font-size="46" transform="matrix(0.950674 -0.310193 0.310193 0.950674 2043.54 1006)">$m$</text><path d="M0 0 1145.88 0.000360892" stroke="#000000" stroke-width="2.29167" stroke-miterlimit="8" fill="none" fill-rule="evenodd" transform="matrix(1 0 0 -1 1371 1265)"/><path d="M1.14584 3.1622 1.14619 232.465-1.14548 232.465-1.14583 3.16221ZM-17.1095 43.9972-8.56838e-09 0.00111193 17.1097 43.9972C17.339 44.587 17.0468 45.251 16.457 45.4804 15.8672 45.7098 15.2032 45.4176 14.9738 44.8278L-1.06792 3.5778 1.06793 3.5778-14.9737 44.8278C-15.203 45.4176-15.8671 45.7098-16.4569 45.4804-17.0467 45.2511-17.3389 44.587-17.1095 43.9972ZM17.1099 191.63 0.00036085 235.626-17.1093 191.63C-17.3387 191.04-17.0465 190.376-16.4567 190.147-15.8669 189.918-15.2028 190.21-14.9735 190.8L1.06828 232.05-1.06757 232.05 14.974 190.8C15.2034 190.21 15.8675 189.918 16.4573 190.147 17.0471 190.376 17.3392 191.04 17.1099 191.63Z" transform="matrix(-1 0 0 1 2073 1030)"/><rect x="2063.5" y="1104.5" width="165" height="88" stroke="#000000" stroke-width="3.4375" stroke-linejoin="round" stroke-miterlimit="10" stroke-opacity="0" fill="none"/><text font-family="Calibri,Calibri_MSFontService,sans-serif" font-weight="400" font-size="46" transform="matrix(1 0 0 1 2096.05 1163)">$H$</text><rect x="409.5" y="1089.5" width="165" height="89" stroke="#000000" stroke-width="3.4375" stroke-linejoin="round" stroke-miterlimit="10" stroke-opacity="0" fill="none"/><text font-family="Calibri,Calibri_MSFontService,sans-serif" font-weight="400" font-size="46" transform="matrix(1 0 0 1 442.488 1149)">$k$</text></g></svg>