<svg width="2025" height="1378" xmlns="http://www.w3.org/2000/svg" xmlns:xlink="http://www.w3.org/1999/xlink" overflow="hidden"><defs><clipPath id="clip0"><rect x="655" y="588" width="2025" height="1378"/></clipPath></defs><g clip-path="url(#clip0)" transform="translate(-655 -588)"><path d="M0 0 1978.52 0.000360892" stroke="#000000" stroke-width="2.29167" stroke-miterlimit="8" stroke-dasharray="9.16667 6.875" fill="none" fill-rule="evenodd" transform="matrix(-1 0 0 1 2649.52 1274)"/><path d="M896.5 1275C896.5 952.19 1158.19 690.5 1481 690.5 1803.81 690.5 2065.5 952.19 2065.5 1275 2065.5 1597.81 1803.81 1859.5 1481 1859.5 1158.19 1859.5 896.5 1597.81 896.5 1275Z" stroke="#000000" stroke-width="11.4583" stroke-miterlimit="8" fill="none" fill-rule="evenodd"/><path d="M1481 690 1481 1859.29" stroke="#000000" stroke-width="2.29167" stroke-miterlimit="8" stroke-dasharray="9.16667 6.875" fill="none" fill-rule="evenodd"/><path d="M1442.5 1859.5C1442.5 1837.96 1459.96 1820.5 1481.5 1820.5 1503.04 1820.5 1520.5 1837.96 1520.5 1859.5 1520.5 1881.04 1503.04 1898.5 1481.5 1898.5 1459.96 1898.5 1442.5 1881.04 1442.5 1859.5Z" stroke="#000000" stroke-width="4.58333" stroke-miterlimit="8" fill="#0070C0" fill-rule="evenodd"/><path d="M1480.41 1274.41 1067 861" stroke="#000000" stroke-width="2.29167" stroke-miterlimit="8" fill="none" fill-rule="evenodd"/><rect x="1486.5" y="589.5" width="201" height="89.0001" stroke="#000000" stroke-width="3.4375" stroke-linejoin="round" stroke-miterlimit="10" stroke-opacity="0" fill="none"/><text font-family="Calibri,Calibri_MSFontService,sans-serif" font-weight="400" font-size="46" transform="matrix(1 0 0 1 1518.7 648)">$m$</text><rect x="1518.5" y="1866.5" width="201" height="89" stroke="#000000" stroke-width="3.4375" stroke-linejoin="round" stroke-miterlimit="10" stroke-opacity="0" fill="none"/><text font-family="Calibri,Calibri_MSFontService,sans-serif" font-weight="400" font-size="46" transform="matrix(1 0 0 1 1550.93 1926)">$3m$</text><path d="M2033.78 985.65 2084.91 969.549C2091.18 986.28 2105.03 1020.93 2105.03 1020.93" stroke="#000000" stroke-width="4.58333" stroke-miterlimit="8" fill="none" fill-rule="evenodd"/><path d="M0 36.8745 38.9066 0C51.8753 12.2916 79.5104 37.3661 79.5104 37.3661" stroke="#000000" stroke-width="4.58333" stroke-miterlimit="8" fill="none" fill-rule="evenodd" transform="matrix(0.898907 0.438138 0.438138 -0.898907 2087.3 1049.75)"/><path d="M2173.06 1051.49 2224.19 1035.39C2230.46 1052.12 2244.32 1086.77 2244.32 1086.77" stroke="#000000" stroke-width="4.58333" stroke-miterlimit="8" fill="none" fill-rule="evenodd"/><path d="M0 36.8745 38.9066 0C51.8753 12.2916 79.5104 37.3661 79.5104 37.3661" stroke="#000000" stroke-width="4.58333" stroke-miterlimit="8" fill="none" fill-rule="evenodd" transform="matrix(0.898907 0.438138 0.438138 -0.898907 2226.58 1115.59)"/><path d="M2312.34 1117.33 2363.47 1101.23C2369.74 1117.96 2383.6 1152.6 2383.6 1152.6" stroke="#000000" stroke-width="4.58333" stroke-miterlimit="8" fill="none" fill-rule="evenodd"/><path d="M0 36.8745 38.9066 0C51.8753 12.2916 79.5104 37.3661 79.5104 37.3661" stroke="#000000" stroke-width="4.58333" stroke-miterlimit="8" fill="none" fill-rule="evenodd" transform="matrix(0.898907 0.438138 0.438138 -0.898907 2365.86 1181.43)"/><path d="M2451.63 1183.17 2502.75 1167.06C2509.03 1183.8 2522.88 1218.44 2522.88 1218.44" stroke="#000000" stroke-width="4.58333" stroke-miterlimit="8" fill="none" fill-rule="evenodd"/><path d="M0 36.8745 38.9066 0C51.8753 12.2916 79.5104 37.3661 79.5104 37.3661" stroke="#000000" stroke-width="4.58333" stroke-miterlimit="8" fill="none" fill-rule="evenodd" transform="matrix(0.898907 0.438138 0.438138 -0.898907 2505.15 1247.27)"/><path d="M2592.99 1248.52 2644.79 1273.76" stroke="#000000" stroke-width="2.29167" stroke-miterlimit="8" fill="none" fill-rule="evenodd"/><path d="M1477.05 721.462 1528.18 705.362C1534.45 722.093 1548.31 756.741 1548.31 756.741" stroke="#000000" stroke-width="4.58333" stroke-miterlimit="8" fill="none" fill-rule="evenodd"/><path d="M0 36.8745 38.9066 0C51.8753 12.2916 79.5104 37.3661 79.5104 37.3661" stroke="#000000" stroke-width="4.58333" stroke-miterlimit="8" fill="none" fill-rule="evenodd" transform="matrix(0.898907 0.438138 0.438138 -0.898907 1530.57 785.565)"/><path d="M1616.33 787.301 1667.46 771.2C1673.74 787.931 1687.59 822.579 1687.59 822.579" stroke="#000000" stroke-width="4.58333" stroke-miterlimit="8" fill="none" fill-rule="evenodd"/><path d="M0 36.8745 38.9066 0C51.8753 12.2916 79.5104 37.3661 79.5104 37.3661" stroke="#000000" stroke-width="4.58333" stroke-miterlimit="8" fill="none" fill-rule="evenodd" transform="matrix(0.898907 0.438138 0.438138 -0.898907 1669.86 851.403)"/><path d="M1755.62 853.139 1806.75 837.039C1813.02 853.77 1826.87 888.417 1826.87 888.417" stroke="#000000" stroke-width="4.58333" stroke-miterlimit="8" fill="none" fill-rule="evenodd"/><path d="M0 36.8745 38.9066 0C51.8753 12.2916 79.5104 37.3661 79.5104 37.3661" stroke="#000000" stroke-width="4.58333" stroke-miterlimit="8" fill="none" fill-rule="evenodd" transform="matrix(0.898907 0.438138 0.438138 -0.898907 1809.14 917.241)"/><path d="M1894.9 918.978 1946.03 902.877C1952.3 919.608 1966.16 954.256 1966.16 954.256" stroke="#000000" stroke-width="4.58333" stroke-miterlimit="8" fill="none" fill-rule="evenodd"/><path d="M0 36.8745 38.9066 0C51.8753 12.2916 79.5104 37.3661 79.5104 37.3661" stroke="#000000" stroke-width="4.58333" stroke-miterlimit="8" fill="none" fill-rule="evenodd" transform="matrix(0.898907 0.438138 0.438138 -0.898907 1948.42 983.08)"/><path d="M1442.5 690.5C1442.5 668.961 1459.96 651.5 1481.5 651.5 1503.04 651.5 1520.5 668.961 1520.5 690.5 1520.5 712.039 1503.04 729.5 1481.5 729.5 1459.96 729.5 1442.5 712.039 1442.5 690.5Z" stroke="#000000" stroke-width="4.58333" stroke-miterlimit="8" fill="#0070C0" fill-rule="evenodd"/><rect x="1234.5" y="980.5" width="201" height="89" stroke="#000000" stroke-width="3.4375" stroke-linejoin="round" stroke-miterlimit="10" stroke-opacity="0" fill="none"/><text font-family="Calibri,Calibri_MSFontService,sans-serif" font-weight="400" font-size="46" transform="matrix(1 0 0 1 1266.89 1039)">$R$</text><path d="M883.5 1274.5C883.5 1267.32 889.32 1261.5 896.5 1261.5 903.68 1261.5 909.5 1267.32 909.5 1274.5 909.5 1281.68 903.68 1287.5 896.5 1287.5 889.32 1287.5 883.5 1281.68 883.5 1274.5Z" stroke="#000000" stroke-width="4.58333" stroke-miterlimit="8" fill="#FF0000" fill-rule="evenodd"/><path d="M2054.5 1274.5C2054.5 1267.32 2060.32 1261.5 2067.5 1261.5 2074.68 1261.5 2080.5 1267.32 2080.5 1274.5 2080.5 1281.68 2074.68 1287.5 2067.5 1287.5 2060.32 1287.5 2054.5 1281.68 2054.5 1274.5Z" stroke="#000000" stroke-width="4.58333" stroke-miterlimit="8" fill="#FF0000" fill-rule="evenodd"/><rect x="779.5" y="1198.5" width="201" height="88.9996" stroke="#000000" stroke-width="3.4375" stroke-linejoin="round" stroke-miterlimit="10" stroke-opacity="0" fill="none"/><text font-family="Calibri,Calibri_MSFontService,sans-serif" font-weight="400" font-size="46" transform="matrix(1 0 0 1 812.304 1258)">$A$</text><rect x="2052.5" y="1198.5" width="201" height="88.9996" stroke="#000000" stroke-width="3.4375" stroke-linejoin="round" stroke-miterlimit="10" stroke-opacity="0" fill="none"/><text font-family="Calibri,Calibri_MSFontService,sans-serif" font-weight="400" font-size="46" transform="matrix(1 0 0 1 2085.34 1258)">$B$</text><path d="M1479.37 1337.85 2647.78 1337.85 2647.78 1340.15 1479.37 1340.15ZM1520.05 1362.92 1477 1339 1520.05 1315.08C1520.61 1314.77 1521.3 1314.97 1521.61 1315.53 1521.92 1316.08 1521.72 1316.78 1521.17 1317.08L1479.92 1340 1479.92 1338 1521.17 1360.91C1521.72 1361.22 1521.92 1361.92 1521.61 1362.47 1521.3 1363.03 1520.61 1363.23 1520.05 1362.92ZM2607.09 1315.08 2650.14 1339 2607.09 1362.92C2606.54 1363.23 2605.84 1363.03 2605.53 1362.47 2605.22 1361.92 2605.42 1361.22 2605.98 1360.92L2647.23 1338 2647.23 1340 2605.98 1317.09C2605.42 1316.78 2605.22 1316.08 2605.53 1315.53 2605.84 1314.97 2606.54 1314.77 2607.09 1315.08Z"/><rect x="2126.5" y="1365.5" width="201" height="88" stroke="#000000" stroke-width="3.4375" stroke-linejoin="round" stroke-miterlimit="10" stroke-opacity="0" fill="none"/><text font-family="Calibri,Calibri_MSFontService,sans-serif" font-weight="400" font-size="46" transform="matrix(1 0 0 1 2159.1 1424)">$2R$</text><path d="M703.864 871 703.865 992.573 698.136 992.573 698.135 871ZM719.712 952.361 701 1000.48 682.289 952.361C681.715 950.887 682.446 949.227 683.92 948.653 685.395 948.08 687.055 948.81 687.628 950.285L703.67 991.535 698.33 991.535 714.372 950.285C714.945 948.81 716.606 948.08 718.08 948.653 719.555 949.227 720.285 950.887 719.712 952.361Z"/><rect x="701.5" y="880.5" width="201" height="144" stroke="#000000" stroke-width="3.4375" stroke-linejoin="round" stroke-miterlimit="10" stroke-opacity="0" fill="none"/><text font-family="Calibri,Calibri_MSFontService,sans-serif" font-weight="400" font-size="46" transform="matrix(1 0 0 1 733.976 939)">$<tspan font-size="46" x="23.4896" y="0">\</tspan><tspan font-size="46" x="41.25" y="0">vec</tspan><tspan font-size="46" x="104.271" y="0">{</tspan><tspan font-size="46" x="0" y="55">g}$</tspan></text><rect x="2019.5" y="854.5" width="345" height="89.0001" stroke="#000000" stroke-width="3.4375" stroke-linejoin="round" stroke-miterlimit="10" stroke-opacity="0" fill="none"/><text font-family="Calibri,Calibri_MSFontService,sans-serif" font-weight="400" font-size="46" transform="matrix(1 0 0 1 2051.94 914)">$k, <tspan font-size="46" x="65.8855" y="0">\</tspan><tspan font-size="46" x="83.646" y="0">ell_0=0$</tspan></text></g></svg>