<svg width="343" height="304" xmlns="http://www.w3.org/2000/svg" xmlns:xlink="http://www.w3.org/1999/xlink" overflow="hidden"><defs><clipPath id="clip0"><rect x="422" y="133" width="343" height="304"/></clipPath><clipPath id="clip1"><path d="M708.732 279.326 550.986 160.456 571.268 133.541 729.014 252.411Z" fill-rule="evenodd" clip-rule="evenodd"/></clipPath><clipPath id="clip2"><path d="M708.732 279.326 550.986 160.456 571.268 133.541 729.014 252.411Z" fill-rule="evenodd" clip-rule="evenodd"/></clipPath><clipPath id="clip3"><path d="M1298.33 846.679 186.42 8.79651 529.14-446.008 1641.05 391.875Z" fill-rule="evenodd" clip-rule="evenodd"/></clipPath><clipPath id="clip4"><path d="M1298.33 846.679 186.42 8.79657 529.14-446.008 1641.05 391.875Z"/></clipPath><clipPath id="clip5"><path d="M1298.33 846.679 186.42 8.79657 529.14-446.008 1641.05 391.875Z"/></clipPath><clipPath id="clip6"><path d="M1298.33 846.679 186.42 8.79657 529.14-446.008 1641.05 391.875Z"/></clipPath><clipPath id="clip7"><path d="M1305.14 837.635 193.236-0.247803 290.599-129.453 1402.51 708.429Z"/></clipPath><clipPath id="clip8"><path d="M583.229 410.166 702.099 252.419 729.014 272.702 610.144 430.448Z" fill-rule="evenodd" clip-rule="evenodd"/></clipPath><clipPath id="clip9"><path d="M583.229 410.166 702.099 252.419 729.014 272.701 610.144 430.448Z" fill-rule="evenodd" clip-rule="evenodd"/></clipPath><clipPath id="clip10"><path d="M15.8759 999.762 853.758-112.146 1308.56 230.574 470.68 1342.48Z" fill-rule="evenodd" clip-rule="evenodd"/></clipPath><clipPath id="clip11"><path d="M15.8759 999.762 853.758-112.146 1308.56 230.574 470.68 1342.48Z"/></clipPath><clipPath id="clip12"><path d="M15.8759 999.762 853.758-112.146 1308.56 230.574 470.68 1342.48Z"/></clipPath><clipPath id="clip13"><path d="M15.8759 999.762 853.758-112.146 1308.56 230.574 470.68 1342.48Z"/></clipPath><clipPath id="clip14"><path d="M24.9203 1006.58 862.803-105.33 992.008-7.96741 154.125 1103.94Z"/></clipPath><clipPath id="clip15"><path d="M430.229 299.166 549.099 141.419 576.014 161.702 457.144 319.448Z" fill-rule="evenodd" clip-rule="evenodd"/></clipPath><clipPath id="clip16"><path d="M430.229 299.166 549.099 141.419 576.014 161.701 457.144 319.448Z" fill-rule="evenodd" clip-rule="evenodd"/></clipPath><clipPath id="clip17"><path d="M-137.124 888.762 700.758-223.146 1155.56 119.574 317.68 1231.48Z" fill-rule="evenodd" clip-rule="evenodd"/></clipPath><clipPath id="clip18"><path d="M-137.124 888.762 700.758-223.146 1155.56 119.574 317.68 1231.48Z"/></clipPath><clipPath id="clip19"><path d="M-137.124 888.762 700.758-223.146 1155.56 119.574 317.68 1231.48Z"/></clipPath><clipPath id="clip20"><path d="M-137.124 888.762 700.758-223.146 1155.56 119.574 317.68 1231.48Z"/></clipPath><clipPath id="clip21"><path d="M-128.08 895.577 709.803-216.33 839.008-118.967 1.1254 992.94Z"/></clipPath><clipPath id="clip22"><path d="M587.975 432.991 430.228 314.12 450.511 287.205 608.257 406.076Z" fill-rule="evenodd" clip-rule="evenodd"/></clipPath><clipPath id="clip23"><path d="M587.975 432.991 430.228 314.12 450.511 287.205 608.257 406.075Z" fill-rule="evenodd" clip-rule="evenodd"/></clipPath><clipPath id="clip24"><path d="M1177.57 1000.34 65.6631 162.461 408.383-292.343 1520.29 545.539Z" fill-rule="evenodd" clip-rule="evenodd"/></clipPath><clipPath id="clip25"><path d="M1177.57 1000.34 65.6632 162.461 408.383-292.343 1520.29 545.539Z"/></clipPath><clipPath id="clip26"><path d="M1177.57 1000.34 65.6632 162.461 408.383-292.343 1520.29 545.539Z"/></clipPath><clipPath id="clip27"><path d="M1177.57 1000.34 65.6632 162.461 408.383-292.343 1520.29 545.539Z"/></clipPath><clipPath id="clip28"><path d="M1184.39 991.299 72.4786 153.417 169.842 24.2115 1281.75 862.094Z"/></clipPath></defs><g clip-path="url(#clip0)" transform="translate(-422 -133)"><g clip-path="url(#clip1)"><g clip-path="url(#clip2)"><g clip-path="url(#clip3)"><g clip-path="url(#clip4)"><path d="M0 0 440.05 0 440.05 569.477 0 569.477Z" stroke="#000000" stroke-width="0.539268" fill="none" transform="matrix(-2.52677 -1.90406 0.601815 -0.798635 1298.33 846.679)"/><path d="M0 0 440.05 0 440.05 569.477 0 569.477Z" stroke="#000000" stroke-width="0.539268" fill="none" transform="matrix(-2.52677 -1.90406 0.601815 -0.798635 1298.33 846.679)"/><path d="M0 0 440.05 0 440.05 569.477 0 569.477Z" stroke="#000000" stroke-width="0.539268" fill="none" transform="matrix(-2.52677 -1.90406 0.601815 -0.798635 1298.33 846.679)"/><path d="M0 0 440.05 0 440.05 569.477 0 569.477Z" stroke="#000000" stroke-width="0.539268" fill="none" transform="matrix(-2.52677 -1.90406 0.601815 -0.798635 1298.33 846.679)"/></g><g clip-path="url(#clip5)"><path d="M0 0 440.05 0 440.05 569.477 0 569.477Z" stroke="#000000" stroke-width="0.539268" fill="none" transform="matrix(-2.52677 -1.90406 0.601815 -0.798635 1298.33 846.679)"/></g><g clip-path="url(#clip6)"><path d="M0 11.3248 440.05 11.3248 440.05 173.108 0 173.108Z" stroke="#000000" stroke-width="0.539268" fill="none" transform="matrix(-2.52677 -1.90406 0.601815 -0.798635 1298.33 846.679)"/></g><g clip-path="url(#clip7)"><path d="M45.7685 99.5398 222.29 99.5398" stroke="#000000" stroke-width="0.539268" fill="none" transform="matrix(-2.52677 -1.90406 0.601815 -0.798635 1305.14 837.635)"/><path d="M45.7685 58.5116 45.7685 99.5398" stroke="#000000" stroke-width="0.539268" fill="none" transform="matrix(-2.52677 -1.90406 0.601815 -0.798635 1305.14 837.635)"/><path d="M222.29 58.5116 222.29 99.5398" stroke="#000000" stroke-width="0.539268" fill="none" transform="matrix(-2.52677 -1.90406 0.601815 -0.798635 1305.14 837.635)"/><path d="M256.626 102.215 268.015 102.215 270.545 91.429 275.608 113 280.667 91.429 285.731 113 290.794 91.429 295.853 113 300.917 91.429 305.98 113 308.51 102.215 319.899 102.215" stroke="#000000" stroke-width="0.539268" fill="none" transform="matrix(-2.52677 -1.90406 0.601815 -0.798635 1305.14 837.635)"/><path d="M160.812 80.1042 171.878 80.1042 174.338 69.3187 179.256 90.8898 184.174 69.3187 189.092 90.8898 194.01 69.3187 198.929 90.8898 203.847 69.3187 208.765 90.8898 211.224 80.1042 222.29 80.1042" stroke="#000000" stroke-width="0.539268" fill="none" transform="matrix(-2.52677 -1.90406 0.601815 -0.798635 1305.14 837.635)"/><path d="M109.651 58.5116 160.451 58.5116 160.451 99.5398 109.651 99.5398Z" stroke="#000000" stroke-width="0.539268" fill="none" transform="matrix(-2.52677 -1.90406 0.601815 -0.798635 1305.14 837.635)"/><path d="M134.027 99.5398 134.027 110.374" stroke="#000000" stroke-width="0.539268" fill="none" transform="matrix(-2.52677 -1.90406 0.601815 -0.798635 1305.14 837.635)"/><path d="M134.027 104.954 157.215 105.278" stroke="#000000" stroke-width="0.539268" fill="none" transform="matrix(-2.52677 -1.90406 0.601815 -0.798635 1305.14 837.635)"/><path d="M5.89482-1.77438C3.74831-0.753258 1.78337-0.161797 0 0 1.78337 0.161797 3.74831 0.753258 5.89482 1.77438" stroke="#000000" stroke-width="0.539315" fill="none" transform="matrix(2.5179 1.91486 -0.63698 0.771905 968.533 452.138)"/></g></g></g></g><g clip-path="url(#clip8)"><g clip-path="url(#clip9)"><g clip-path="url(#clip10)"><g clip-path="url(#clip11)"><path d="M0 0 440.05 0 440.05 569.477 0 569.477Z" stroke="#000000" stroke-width="0.539268" fill="none" transform="matrix(1.90406 -2.52677 0.798635 0.601815 15.8759 999.762)"/><path d="M0 0 440.05 0 440.05 569.477 0 569.477Z" stroke="#000000" stroke-width="0.539268" fill="none" transform="matrix(1.90406 -2.52677 0.798635 0.601815 15.8759 999.762)"/><path d="M0 0 440.05 0 440.05 569.477 0 569.477Z" stroke="#000000" stroke-width="0.539268" fill="none" transform="matrix(1.90406 -2.52677 0.798635 0.601815 15.8759 999.762)"/><path d="M0 0 440.05 0 440.05 569.477 0 569.477Z" stroke="#000000" stroke-width="0.539268" fill="none" transform="matrix(1.90406 -2.52677 0.798635 0.601815 15.8759 999.762)"/></g><g clip-path="url(#clip12)"><path d="M0 0 440.05 0 440.05 569.477 0 569.477Z" stroke="#000000" stroke-width="0.539268" fill="none" transform="matrix(1.90406 -2.52677 0.798635 0.601815 15.8759 999.762)"/></g><g clip-path="url(#clip13)"><path d="M0 11.3248 440.05 11.3248 440.05 173.108 0 173.108Z" stroke="#000000" stroke-width="0.539268" fill="none" transform="matrix(1.90406 -2.52677 0.798635 0.601815 15.8759 999.762)"/></g><g clip-path="url(#clip14)"><path d="M45.7685 99.5398 222.29 99.5398" stroke="#000000" stroke-width="0.539268" fill="none" transform="matrix(1.90406 -2.52677 0.798635 0.601815 24.9203 1006.58)"/><path d="M45.7685 58.5116 45.7685 99.5398" stroke="#000000" stroke-width="0.539268" fill="none" transform="matrix(1.90406 -2.52677 0.798635 0.601815 24.9203 1006.58)"/><path d="M222.29 58.5116 222.29 99.5398" stroke="#000000" stroke-width="0.539268" fill="none" transform="matrix(1.90406 -2.52677 0.798635 0.601815 24.9203 1006.58)"/><path d="M256.626 102.215 268.015 102.215 270.545 91.429 275.608 113 280.667 91.429 285.731 113 290.794 91.429 295.853 113 300.917 91.429 305.98 113 308.51 102.215 319.899 102.215" stroke="#000000" stroke-width="0.539268" fill="none" transform="matrix(1.90406 -2.52677 0.798635 0.601815 24.9203 1006.58)"/><path d="M160.812 80.1042 171.878 80.1042 174.338 69.3187 179.256 90.8898 184.174 69.3187 189.092 90.8898 194.01 69.3187 198.929 90.8898 203.847 69.3187 208.765 90.8898 211.224 80.1042 222.29 80.1042" stroke="#000000" stroke-width="0.539268" fill="none" transform="matrix(1.90406 -2.52677 0.798635 0.601815 24.9203 1006.58)"/><path d="M109.651 58.5116 160.451 58.5116 160.451 99.5398 109.651 99.5398Z" stroke="#000000" stroke-width="0.539268" fill="none" transform="matrix(1.90406 -2.52677 0.798635 0.601815 24.9203 1006.58)"/><path d="M134.027 99.5398 134.027 110.374" stroke="#000000" stroke-width="0.539268" fill="none" transform="matrix(1.90406 -2.52677 0.798635 0.601815 24.9203 1006.58)"/><path d="M134.027 104.954 157.215 105.278" stroke="#000000" stroke-width="0.539268" fill="none" transform="matrix(1.90406 -2.52677 0.798635 0.601815 24.9203 1006.58)"/><path d="M5.89482-1.77438C3.74831-0.753258 1.78337-0.161797 0 0 1.78337 0.161797 3.74831 0.753258 5.89482 1.77438" stroke="#000000" stroke-width="0.539315" fill="none" transform="matrix(-1.91486 2.5179 -0.771905 -0.63698 410.416 669.966)"/></g></g></g></g><g clip-path="url(#clip15)"><g clip-path="url(#clip16)"><g clip-path="url(#clip17)"><g clip-path="url(#clip18)"><path d="M0 0 440.05 0 440.05 569.477 0 569.477Z" stroke="#000000" stroke-width="0.539268" fill="none" transform="matrix(1.90406 -2.52677 0.798635 0.601815 -137.124 888.762)"/><path d="M0 0 440.05 0 440.05 569.477 0 569.477Z" stroke="#000000" stroke-width="0.539268" fill="none" transform="matrix(1.90406 -2.52677 0.798635 0.601815 -137.124 888.762)"/><path d="M0 0 440.05 0 440.05 569.477 0 569.477Z" stroke="#000000" stroke-width="0.539268" fill="none" transform="matrix(1.90406 -2.52677 0.798635 0.601815 -137.124 888.762)"/><path d="M0 0 440.05 0 440.05 569.477 0 569.477Z" stroke="#000000" stroke-width="0.539268" fill="none" transform="matrix(1.90406 -2.52677 0.798635 0.601815 -137.124 888.762)"/></g><g clip-path="url(#clip19)"><path d="M0 0 440.05 0 440.05 569.477 0 569.477Z" stroke="#000000" stroke-width="0.539268" fill="none" transform="matrix(1.90406 -2.52677 0.798635 0.601815 -137.124 888.762)"/></g><g clip-path="url(#clip20)"><path d="M0 11.3248 440.05 11.3248 440.05 173.108 0 173.108Z" stroke="#000000" stroke-width="0.539268" fill="none" transform="matrix(1.90406 -2.52677 0.798635 0.601815 -137.124 888.762)"/></g><g clip-path="url(#clip21)"><path d="M45.7685 99.5398 222.29 99.5398" stroke="#000000" stroke-width="0.539268" fill="none" transform="matrix(1.90406 -2.52677 0.798635 0.601815 -128.08 895.577)"/><path d="M45.7685 58.5116 45.7685 99.5398" stroke="#000000" stroke-width="0.539268" fill="none" transform="matrix(1.90406 -2.52677 0.798635 0.601815 -128.08 895.577)"/><path d="M222.29 58.5116 222.29 99.5398" stroke="#000000" stroke-width="0.539268" fill="none" transform="matrix(1.90406 -2.52677 0.798635 0.601815 -128.08 895.577)"/><path d="M256.626 102.215 268.015 102.215 270.545 91.429 275.608 113 280.667 91.429 285.731 113 290.794 91.429 295.853 113 300.917 91.429 305.98 113 308.51 102.215 319.899 102.215" stroke="#000000" stroke-width="0.539268" fill="none" transform="matrix(1.90406 -2.52677 0.798635 0.601815 -128.08 895.577)"/><path d="M160.812 80.1042 171.878 80.1042 174.338 69.3187 179.256 90.8898 184.174 69.3187 189.092 90.8898 194.01 69.3187 198.929 90.8898 203.847 69.3187 208.765 90.8898 211.224 80.1042 222.29 80.1042" stroke="#000000" stroke-width="0.539268" fill="none" transform="matrix(1.90406 -2.52677 0.798635 0.601815 -128.08 895.577)"/><path d="M109.651 58.5116 160.451 58.5116 160.451 99.5398 109.651 99.5398Z" stroke="#000000" stroke-width="0.539268" fill="none" transform="matrix(1.90406 -2.52677 0.798635 0.601815 -128.08 895.577)"/><path d="M134.027 99.5398 134.027 110.374" stroke="#000000" stroke-width="0.539268" fill="none" transform="matrix(1.90406 -2.52677 0.798635 0.601815 -128.08 895.577)"/><path d="M134.027 104.954 157.215 105.278" stroke="#000000" stroke-width="0.539268" fill="none" transform="matrix(1.90406 -2.52677 0.798635 0.601815 -128.08 895.577)"/><path d="M5.89482-1.77438C3.74831-0.753258 1.78337-0.161797 0 0 1.78337 0.161797 3.74831 0.753258 5.89482 1.77438" stroke="#000000" stroke-width="0.539315" fill="none" transform="matrix(-1.91486 2.5179 -0.771905 -0.63698 257.416 558.966)"/></g></g></g></g><g clip-path="url(#clip22)"><g clip-path="url(#clip23)"><g clip-path="url(#clip24)"><g clip-path="url(#clip25)"><path d="M0 0 440.05 0 440.05 569.477 0 569.477Z" stroke="#000000" stroke-width="0.539268" fill="none" transform="matrix(-2.52677 -1.90406 0.601815 -0.798635 1177.57 1000.34)"/><path d="M0 0 440.05 0 440.05 569.477 0 569.477Z" stroke="#000000" stroke-width="0.539268" fill="none" transform="matrix(-2.52677 -1.90406 0.601815 -0.798635 1177.57 1000.34)"/><path d="M0 0 440.05 0 440.05 569.477 0 569.477Z" stroke="#000000" stroke-width="0.539268" fill="none" transform="matrix(-2.52677 -1.90406 0.601815 -0.798635 1177.57 1000.34)"/><path d="M0 0 440.05 0 440.05 569.477 0 569.477Z" stroke="#000000" stroke-width="0.539268" fill="none" transform="matrix(-2.52677 -1.90406 0.601815 -0.798635 1177.57 1000.34)"/></g><g clip-path="url(#clip26)"><path d="M0 0 440.05 0 440.05 569.477 0 569.477Z" stroke="#000000" stroke-width="0.539268" fill="none" transform="matrix(-2.52677 -1.90406 0.601815 -0.798635 1177.57 1000.34)"/></g><g clip-path="url(#clip27)"><path d="M0 11.3248 440.05 11.3248 440.05 173.108 0 173.108Z" stroke="#000000" stroke-width="0.539268" fill="none" transform="matrix(-2.52677 -1.90406 0.601815 -0.798635 1177.57 1000.34)"/></g><g clip-path="url(#clip28)"><path d="M45.7685 99.5398 222.29 99.5398" stroke="#000000" stroke-width="0.539268" fill="none" transform="matrix(-2.52677 -1.90406 0.601815 -0.798635 1184.39 991.299)"/><path d="M45.7685 58.5116 45.7685 99.5398" stroke="#000000" stroke-width="0.539268" fill="none" transform="matrix(-2.52677 -1.90406 0.601815 -0.798635 1184.39 991.299)"/><path d="M222.29 58.5116 222.29 99.5398" stroke="#000000" stroke-width="0.539268" fill="none" transform="matrix(-2.52677 -1.90406 0.601815 -0.798635 1184.39 991.299)"/><path d="M256.626 102.215 268.015 102.215 270.545 91.429 275.608 113 280.667 91.429 285.731 113 290.794 91.429 295.853 113 300.917 91.429 305.98 113 308.51 102.215 319.899 102.215" stroke="#000000" stroke-width="0.539268" fill="none" transform="matrix(-2.52677 -1.90406 0.601815 -0.798635 1184.39 991.299)"/><path d="M160.812 80.1042 171.878 80.1042 174.338 69.3187 179.256 90.8898 184.174 69.3187 189.092 90.8898 194.01 69.3187 198.929 90.8898 203.847 69.3187 208.765 90.8898 211.224 80.1042 222.29 80.1042" stroke="#000000" stroke-width="0.539268" fill="none" transform="matrix(-2.52677 -1.90406 0.601815 -0.798635 1184.39 991.299)"/><path d="M109.651 58.5116 160.451 58.5116 160.451 99.5398 109.651 99.5398Z" stroke="#000000" stroke-width="0.539268" fill="none" transform="matrix(-2.52677 -1.90406 0.601815 -0.798635 1184.39 991.299)"/><path d="M134.027 99.5398 134.027 110.374" stroke="#000000" stroke-width="0.539268" fill="none" transform="matrix(-2.52677 -1.90406 0.601815 -0.798635 1184.39 991.299)"/><path d="M134.027 104.954 157.215 105.278" stroke="#000000" stroke-width="0.539268" fill="none" transform="matrix(-2.52677 -1.90406 0.601815 -0.798635 1184.39 991.299)"/><path d="M5.89482-1.77438C3.74831-0.753258 1.78337-0.161797 0 0 1.78337 0.161797 3.74831 0.753258 5.89482 1.77438" stroke="#000000" stroke-width="0.539315" fill="none" transform="matrix(2.5179 1.91486 -0.63698 0.771905 847.776 605.803)"/></g></g></g></g><path d="M540.5 157.5C540.5 147.007 549.007 138.5 559.5 138.5 569.993 138.5 578.5 147.007 578.5 157.5 578.5 167.993 569.993 176.5 559.5 176.5 549.007 176.5 540.5 167.993 540.5 157.5Z" stroke="#000000" stroke-width="1.33333" stroke-miterlimit="8" fill="#262626" fill-rule="evenodd"/><path d="M691.5 264.5C691.5 254.007 700.007 245.5 710.5 245.5 720.993 245.5 729.5 254.007 729.5 264.5 729.5 274.993 720.993 283.5 710.5 283.5 700.007 283.5 691.5 274.993 691.5 264.5Z" stroke="#000000" stroke-width="1.33333" stroke-miterlimit="8" fill="#262626" fill-rule="evenodd"/><path d="M578.5 417.5C578.5 407.007 586.783 398.5 597 398.5 607.217 398.5 615.5 407.007 615.5 417.5 615.5 427.993 607.217 436.5 597 436.5 586.783 436.5 578.5 427.993 578.5 417.5Z" stroke="#000000" stroke-width="1.33333" stroke-miterlimit="8" fill="#262626" fill-rule="evenodd"/><path d="M423.5 306.5C423.5 296.007 432.007 287.5 442.5 287.5 452.993 287.5 461.5 296.007 461.5 306.5 461.5 316.993 452.993 325.5 442.5 325.5 432.007 325.5 423.5 316.993 423.5 306.5Z" stroke="#000000" stroke-width="1.33333" stroke-miterlimit="8" fill="#262626" fill-rule="evenodd"/><path d="M546.274 334.686 541.588 331.205 537.348 327.36 533.522 323.206 530.244 318.688 527.393 313.954 525.056 308.992 523.193 303.853 521.854 298.575 520.989 293.119 520.703 287.654 520.909 282.189 521.646 276.673 522.93 271.285 524.754 265.936 527.174 260.754 530.141 255.702 533.632 251.001 537.477 246.761 541.632 242.935 546.149 239.657 550.883 236.806 555.845 234.469 560.984 232.607 566.302 231.219 571.72 230.402 577.184 230.116 582.649 230.322 588.164 231.059 593.552 232.343 598.902 234.167 604.083 236.587 609.134 239.553 613.875 242.996 618.118 246.844 621.902 251.045 625.221 255.514 628.032 260.298 630.369 265.258 632.231 270.397 633.619 275.715 634.436 281.133 634.721 286.597 634.516 292.062 633.779 297.577 632.495 302.965 630.671 308.315 628.251 313.496 625.281 318.553 619.737 325.628 613.206 331.728 605.772 336.75 598.248 340.288 597.964 339.684 605.465 336.158 605.42 336.183 612.811 331.19 612.77 331.223 619.263 325.159 619.228 325.197 624.743 318.159 624.718 318.196 627.668 313.172 627.653 313.2 630.059 308.049 630.045 308.082 631.859 302.765 631.85 302.795 633.127 297.439 633.12 297.472 633.853 291.989 633.85 292.021 634.055 286.587 634.055 286.616 633.771 281.184 633.774 281.216 632.962 275.832 632.969 275.867 631.59 270.58 631.599 270.609 629.747 265.5 629.759 265.528 627.436 260.596 627.45 260.623 624.655 255.867 624.675 255.897 621.376 251.455 621.396 251.479 617.634 247.302 617.658 247.326 613.44 243.502 613.468 243.525 608.756 240.102 608.783 240.12 603.759 237.17 603.787 237.184 598.636 234.779 598.67 234.792 593.352 232.979 593.382 232.988 588.026 231.711 588.059 231.717 582.576 230.985 582.608 230.987 577.174 230.783 577.204 230.783 571.771 231.067 571.803 231.063 566.419 231.875 566.454 231.868 561.167 233.248 561.196 233.239 556.087 235.09 556.115 235.078 551.183 237.402 551.213 237.386 546.506 240.221 546.529 240.205 542.039 243.463 542.069 243.439 537.94 247.241 537.961 247.22 534.137 251.437 534.158 251.412 530.687 256.085 530.707 256.055 527.757 261.079 527.771 261.051 525.366 266.201 525.379 266.168 523.566 271.485 523.575 271.455 522.298 276.811 522.304 276.778 521.572 282.261 521.574 282.23 521.37 287.664 521.37 287.634 521.654 293.067 521.65 293.032 522.51 298.456 522.504 298.426 523.835 303.673 523.826 303.641 525.677 308.751 525.665 308.722 527.989 313.655 527.973 313.625 530.808 318.332 530.792 318.308 534.05 322.798 534.026 322.768 537.828 326.897 537.807 326.876 542.024 330.7 541.999 330.68 546.672 334.151ZM611.779 341.246 597.485 340.278 605.859 328.652C605.966 328.503 606.174 328.469 606.324 328.577 606.473 328.684 606.507 328.893 606.4 329.042L598.376 340.181 598.128 339.653 611.824 340.581C612.008 340.593 612.147 340.752 612.135 340.936 612.122 341.12 611.963 341.259 611.779 341.246Z"/><rect x="697.5" y="214.5" width="66" height="38" stroke="#000000" stroke-linejoin="round" stroke-miterlimit="10" stroke-opacity="0" fill="none"/><text font-family="Calibri,Calibri_MSFontService,sans-serif" font-weight="400" font-size="24" transform="translate(706.371 240)">$m$</text><rect x="430.5" y="192.5" width="78" height="38" stroke="#000000" stroke-linejoin="round" stroke-miterlimit="10" stroke-opacity="0" fill="none"/><text font-family="Calibri,Calibri_MSFontService,sans-serif" font-weight="400" font-size="24" transform="translate(439.828 218)">$k, L$</text><rect x="576.5" y="295.5" width="146" height="39" stroke="#000000" stroke-linejoin="round" stroke-miterlimit="10" stroke-opacity="0" fill="none"/><text font-family="Calibri,Calibri_MSFontService,sans-serif" font-weight="400" font-size="24" transform="translate(585.614 322)">$<tspan font-size="24" x="12.1667" y="0">\</tspan><tspan font-size="24" x="21.5" y="0">omega$</tspan></text></g></svg>