<svg width="459" height="406" xmlns="http://www.w3.org/2000/svg" xmlns:xlink="http://www.w3.org/1999/xlink" overflow="hidden"><defs><clipPath id="clip0"><rect x="279" y="219" width="459" height="406"/></clipPath></defs><g clip-path="url(#clip0)" transform="translate(-279 -219)"><path d="M329.5 417.5C329.5 323.612 405.836 247.5 500 247.5 594.165 247.5 670.5 323.612 670.5 417.5 670.5 511.388 594.165 587.5 500 587.5 405.836 587.5 329.5 511.388 329.5 417.5Z" stroke="#595959" stroke-width="1.33333" stroke-miterlimit="8" stroke-dasharray="5.33333 4" stroke-opacity="0.419608" fill="none" fill-rule="evenodd"/><path d="M621.5 318.5C621.5 308.007 630.007 299.5 640.5 299.5 650.993 299.5 659.5 308.007 659.5 318.5 659.5 328.993 650.993 337.5 640.5 337.5 630.007 337.5 621.5 328.993 621.5 318.5Z" stroke="#000000" stroke-width="1.33333" stroke-miterlimit="8" fill="#404040" fill-rule="evenodd"/><path d="M471.5 417C471.5 401.26 484.26 388.5 500 388.5 515.74 388.5 528.5 401.26 528.5 417 528.5 432.74 515.74 445.5 500 445.5 484.26 445.5 471.5 432.74 471.5 417Z" stroke="#000000" stroke-width="1.33333" stroke-miterlimit="8" fill="#FFD966" fill-rule="evenodd"/><path d="M499.862 416.94 639.244 506.959 638.521 508.079 499.138 418.06ZM633.006 495.094 640.035 508.264 625.14 507.274C624.773 507.25 624.495 506.932 624.519 506.565 624.544 506.197 624.861 505.919 625.229 505.944L638.926 506.854 638.294 507.833 631.83 495.722C631.657 495.397 631.78 494.994 632.104 494.82 632.429 494.647 632.833 494.77 633.006 495.094Z"/><rect x="640.5" y="268.5" width="66" height="39" stroke="#000000" stroke-linejoin="round" stroke-miterlimit="10" stroke-opacity="0" fill="none"/><text font-family="Calibri,Calibri_MSFontService,sans-serif" font-weight="400" font-size="24" transform="translate(649.6 295)">$m$</text><rect x="551.5" y="427.5" width="70" height="39" stroke="#000000" stroke-linejoin="round" stroke-miterlimit="10" stroke-opacity="0" fill="none"/><text font-family="Calibri,Calibri_MSFontService,sans-serif" font-weight="400" font-size="24" transform="translate(561.067 454)">$<tspan font-size="24" x="12.1666" y="0">R</tspan>$</text><rect x="478.5" y="355.5" width="259" height="39" stroke="#000000" stroke-linejoin="round" stroke-miterlimit="10" stroke-opacity="0" fill="none"/><text font-family="Calibri,Calibri_MSFontService,sans-serif" font-weight="400" font-size="24" transform="translate(488.001 382)">$M$</text><path d="M312.5 388.5C312.5 378.007 320.783 369.5 331 369.5 341.217 369.5 349.5 378.007 349.5 388.5 349.5 398.993 341.217 407.5 331 407.5 320.783 407.5 312.5 398.993 312.5 388.5Z" stroke="#000000" stroke-width="1.33333" stroke-miterlimit="8" fill="#404040" fill-rule="evenodd"/><path d="M560.5 565.5C560.5 555.007 568.783 546.5 579 546.5 589.217 546.5 597.5 555.007 597.5 565.5 597.5 575.993 589.217 584.5 579 584.5 568.783 584.5 560.5 575.993 560.5 565.5Z" stroke="#000000" stroke-width="1.33333" stroke-miterlimit="8" fill="#404040" fill-rule="evenodd"/><rect x="579.5" y="576.5" width="69" height="39" stroke="#000000" stroke-linejoin="round" stroke-miterlimit="10" stroke-opacity="0" fill="none"/><text font-family="Calibri,Calibri_MSFontService,sans-serif" font-weight="400" font-size="24" transform="translate(588.183 603)">$m$</text><rect x="285.5" y="340.5" width="258" height="39" stroke="#000000" stroke-linejoin="round" stroke-miterlimit="10" stroke-opacity="0" fill="none"/><text font-family="Calibri,Calibri_MSFontService,sans-serif" font-weight="400" font-size="24" transform="translate(294.235 367)">$m$</text><path d="M506.173 228.339 509.205 228.417 518.909 229.168 528.552 230.421 538.068 232.174 547.459 234.365 556.788 237.057 565.992 240.25 575 243.878 574.75 244.497 565.75 240.872 565.766 240.877 556.578 237.69 556.595 237.695 547.283 235.008 547.299 235.012 537.924 232.825 537.94 232.828 528.44 231.078 528.457 231.081 518.832 229.831 518.849 229.832 509.162 229.082 509.179 229.083 506.156 229.005ZM507.394 232.705 499.5 228.5 507.601 224.708Z"/><path d="M402.889 579.425 400.266 577.903 392.11 572.59 384.304 566.897 376.74 560.765 369.549 554.339 362.654 547.502 356.163 540.317 349.999 532.814 350.514 532.391 356.674 539.888 356.663 539.876 363.142 547.049 363.129 547.035 370.013 553.859 370 553.848 377.178 560.263 377.166 560.252 384.718 566.374 384.704 566.363 392.496 572.046 392.482 572.036 400.623 577.34 400.608 577.331 403.224 578.849ZM403.911 575.008 408.822 582.484 399.895 581.927Z"/><path d="M688.661 424.173 688.583 427.205 687.832 436.909 686.579 446.552 684.826 456.068 682.635 465.459 679.943 474.788 676.75 483.992 673.122 493 672.503 492.75 676.128 483.75 676.123 483.766 679.31 474.578 679.305 474.595 681.992 465.283 681.988 465.299 684.175 455.924 684.172 455.94 685.922 446.44 685.919 446.457 687.169 436.832 687.168 436.849 687.918 427.162 687.917 427.179 687.995 424.156ZM684.295 425.394 688.5 417.5 692.292 425.601Z"/></g></svg>