<svg width="447" height="290" xmlns="http://www.w3.org/2000/svg" xmlns:xlink="http://www.w3.org/1999/xlink" overflow="hidden"><defs><clipPath id="clip0"><rect x="276" y="124" width="447" height="290"/></clipPath><clipPath id="clip1"><path d="M593.823 388.326 436.076 269.456 456.359 242.541 614.105 361.411Z" fill-rule="evenodd" clip-rule="evenodd"/></clipPath><clipPath id="clip2"><path d="M593.823 388.326 436.076 269.456 456.358 242.541 614.105 361.411Z" fill-rule="evenodd" clip-rule="evenodd"/></clipPath><clipPath id="clip3"><path d="M1183.42 955.679 71.511 117.797 414.231-337.008 1526.14 500.875Z" fill-rule="evenodd" clip-rule="evenodd"/></clipPath><clipPath id="clip4"><path d="M1183.42 955.679 71.5111 117.797 414.231-337.008 1526.14 500.875Z"/></clipPath><clipPath id="clip5"><path d="M1183.42 955.679 71.5111 117.797 414.231-337.008 1526.14 500.875Z"/></clipPath><clipPath id="clip6"><path d="M1183.42 955.679 71.5111 117.797 414.231-337.008 1526.14 500.875Z"/></clipPath><clipPath id="clip7"><path d="M1190.23 946.635 78.3265 108.752 175.69-20.4529 1287.6 817.429Z"/></clipPath></defs><g clip-path="url(#clip0)" transform="translate(-276 -124)"><path d="M277.5 379.5C277.5 373.977 352.716 369.5 445.5 369.5 538.284 369.5 613.5 373.977 613.5 379.5 613.5 385.023 538.284 389.5 445.5 389.5 352.716 389.5 277.5 385.023 277.5 379.5Z" stroke="#595959" stroke-width="0.666667" stroke-miterlimit="8" stroke-dasharray="2.66667 2" stroke-opacity="0.501961" fill="none" fill-rule="evenodd"/><path d="M439.5 266.5 633.439 413.536" stroke="#000000" stroke-width="0.666667" stroke-miterlimit="8" fill="none" fill-rule="evenodd"/><path d="M452.5 247.5 646.439 394.536" stroke="#000000" stroke-width="0.666667" stroke-miterlimit="8" fill="none" fill-rule="evenodd"/><path d="M0 0 0.000104987 112.073" stroke="#000000" stroke-width="0.666667" stroke-miterlimit="8" fill="none" fill-rule="evenodd" transform="matrix(1 0 0 -1 452.5 247.573)"/><path d="M0 0 0.000104987 131.303" stroke="#000000" stroke-width="0.666667" stroke-miterlimit="8" fill="none" fill-rule="evenodd" transform="matrix(1 0 0 -1 439.5 266.803)"/><path d="M435.808 144.87 424.5 144.87 424.5 125.5 466.006 125.511 466.5 145.5 454.945 144.87" stroke="#000000" stroke-width="1.33333" stroke-miterlimit="8" fill="none" fill-rule="evenodd"/><path d="M445.5 125.5 445.5 406.836" stroke="#7F7F7F" stroke-width="0.666667" stroke-miterlimit="8" stroke-dasharray="2.66667 2" stroke-opacity="0.501961" fill="none" fill-rule="evenodd"/><g clip-path="url(#clip1)"><g clip-path="url(#clip2)"><g clip-path="url(#clip3)"><g clip-path="url(#clip4)"><path d="M0 0 440.05 0 440.05 569.477 0 569.477Z" stroke="#000000" stroke-width="0.539268" fill="none" transform="matrix(-2.52677 -1.90406 0.601815 -0.798635 1183.42 955.679)"/><path d="M0 0 440.05 0 440.05 569.477 0 569.477Z" stroke="#000000" stroke-width="0.539268" fill="none" transform="matrix(-2.52677 -1.90406 0.601815 -0.798635 1183.42 955.679)"/><path d="M0 0 440.05 0 440.05 569.477 0 569.477Z" stroke="#000000" stroke-width="0.539268" fill="none" transform="matrix(-2.52677 -1.90406 0.601815 -0.798635 1183.42 955.679)"/><path d="M0 0 440.05 0 440.05 569.477 0 569.477Z" stroke="#000000" stroke-width="0.539268" fill="none" transform="matrix(-2.52677 -1.90406 0.601815 -0.798635 1183.42 955.679)"/></g><g clip-path="url(#clip5)"><path d="M0 0 440.05 0 440.05 569.477 0 569.477Z" stroke="#000000" stroke-width="0.539268" fill="none" transform="matrix(-2.52677 -1.90406 0.601815 -0.798635 1183.42 955.679)"/></g><g clip-path="url(#clip6)"><path d="M0 11.3248 440.05 11.3248 440.05 173.108 0 173.108Z" stroke="#000000" stroke-width="0.539268" fill="none" transform="matrix(-2.52677 -1.90406 0.601815 -0.798635 1183.42 955.679)"/></g><g clip-path="url(#clip7)"><path d="M45.7685 99.5398 222.29 99.5398" stroke="#000000" stroke-width="0.539268" fill="none" transform="matrix(-2.52677 -1.90406 0.601815 -0.798635 1190.23 946.635)"/><path d="M45.7685 58.5116 45.7685 99.5398" stroke="#000000" stroke-width="0.539268" fill="none" transform="matrix(-2.52677 -1.90406 0.601815 -0.798635 1190.23 946.635)"/><path d="M222.29 58.5116 222.29 99.5398" stroke="#000000" stroke-width="0.539268" fill="none" transform="matrix(-2.52677 -1.90406 0.601815 -0.798635 1190.23 946.635)"/><path d="M256.626 102.215 268.015 102.215 270.545 91.429 275.608 113 280.667 91.429 285.731 113 290.794 91.429 295.853 113 300.917 91.429 305.98 113 308.51 102.215 319.899 102.215" stroke="#000000" stroke-width="0.539268" fill="none" transform="matrix(-2.52677 -1.90406 0.601815 -0.798635 1190.23 946.635)"/><path d="M160.812 80.1042 171.878 80.1042 174.338 69.3187 179.256 90.8898 184.174 69.3187 189.092 90.8898 194.01 69.3187 198.929 90.8898 203.847 69.3187 208.765 90.8898 211.224 80.1042 222.29 80.1042" stroke="#000000" stroke-width="0.539268" fill="none" transform="matrix(-2.52677 -1.90406 0.601815 -0.798635 1190.23 946.635)"/><path d="M109.651 58.5116 160.451 58.5116 160.451 99.5398 109.651 99.5398Z" stroke="#000000" stroke-width="0.539268" fill="none" transform="matrix(-2.52677 -1.90406 0.601815 -0.798635 1190.23 946.635)"/><path d="M134.027 99.5398 134.027 110.374" stroke="#000000" stroke-width="0.539268" fill="none" transform="matrix(-2.52677 -1.90406 0.601815 -0.798635 1190.23 946.635)"/><path d="M134.027 104.954 157.215 105.278" stroke="#000000" stroke-width="0.539268" fill="none" transform="matrix(-2.52677 -1.90406 0.601815 -0.798635 1190.23 946.635)"/><path d="M5.89482-1.77438C3.74831-0.753258 1.78337-0.161797 0 0 1.78337 0.161797 3.74831 0.753258 5.89482 1.77438" stroke="#000000" stroke-width="0.539315" fill="none" transform="matrix(2.5179 1.91486 -0.63698 0.771905 853.623 561.138)"/></g></g></g></g><path d="M595.5 378.5C595.5 372.425 600.425 367.5 606.5 367.5 612.575 367.5 617.5 372.425 617.5 378.5 617.5 384.575 612.575 389.5 606.5 389.5 600.425 389.5 595.5 384.575 595.5 378.5Z" stroke="#000000" stroke-width="1.33333" stroke-miterlimit="8" fill="#3B3838" fill-rule="evenodd"/><path d="M465.831 169.714 469.392 170.025 473.12 170.594 475.836 171.176 477.591 171.98 478.374 173.286 476.943 174.41 474.664 175.148 471.225 175.785 466.939 176.289 461.982 176.665 456.404 176.979 450.385 177.167 444.242 177.167 431.844 176.854 426.259 176.477 421.605 176.037 417.941 175.468 415.226 174.887 413.472 174.083 412.688 172.777 414.119 171.652 416.401 170.914 420.342 170.215 425.439 169.649 431.589 169.209 438.476 168.959 438.524 170.291 431.649 170.541 431.673 170.54 425.548 170.978 425.574 170.975 420.511 171.538 420.554 171.531 416.679 172.219 416.768 172.197 414.643 172.884 414.849 172.774 413.974 173.462 414.134 172.595 414.509 173.22 414.215 172.956 415.715 173.644 415.577 173.598 418.202 174.161 418.165 174.154 421.79 174.716 421.75 174.711 426.375 175.149 426.357 175.147 431.92 175.522 431.892 175.521 444.267 175.834 444.25 175.833 450.375 175.833 450.354 175.834 456.354 175.646 456.338 175.647 461.9 175.334 461.887 175.335 466.825 174.96 466.797 174.963 471.047 174.463 471.004 174.47 474.379 173.845 474.295 173.866 476.42 173.178 476.213 173.288 477.088 172.601 476.928 173.468 476.553 172.843 476.847 173.106 475.347 172.419 475.485 172.464 472.86 171.902 472.9 171.909 469.212 171.347 469.254 171.352 465.715 171.042ZM466.801 174.467 459.125 169.875 467.404 166.49Z"/><rect x="477.5" y="151.5" width="126" height="39" stroke="#000000" stroke-linejoin="round" stroke-miterlimit="10" stroke-opacity="0" fill="none"/><text font-family="Calibri,Calibri_MSFontService,sans-serif" font-weight="400" font-size="24" transform="translate(486.284 178)">$<tspan font-size="24" x="12.1667" y="0">\</tspan><tspan font-size="24" x="21.5" y="0">omega$</tspan></text><rect x="402.5" y="234.5" width="60" height="39" stroke="#000000" stroke-linejoin="round" stroke-miterlimit="10" stroke-opacity="0" fill="none"/><text font-family="Calibri,Calibri_MSFontService,sans-serif" font-weight="400" font-size="24" transform="translate(411.275 261)">$Q$</text><path d="M0 2.5C-6.36567e-16 1.11929 2.23858 -3.18283e-16 5 -6.36567e-16 7.76142-1.27313e-15 10 1.11929 10 2.5 10 3.88071 7.76142 5 5 5 2.23858 5-3.18283e-15 3.88071 0 2.5Z" fill="#4472C4" fill-rule="evenodd" fill-opacity="0" transform="matrix(1 0 0 -1 440.5 381.5)"/><path d="M1.46447 0.732234 8.53553 4.26777M8.53553 0.732234 1.46447 4.26777" stroke="#000000" stroke-width="0.666667" stroke-miterlimit="8" stroke-opacity="0.501961" fill="none" fill-rule="evenodd" transform="matrix(1 0 0 -1 440.5 381.5)"/><path d="M0 2.5C-6.36567e-16 1.11929 2.23858 -3.18283e-16 5 -6.36567e-16 7.76142-1.27313e-15 10 1.11929 10 2.5 10 3.88071 7.76142 5 5 5 2.23858 5-3.18283e-15 3.88071 0 2.5Z" stroke="#000000" stroke-width="0.666667" stroke-miterlimit="8" stroke-opacity="0.501961" fill="none" fill-rule="evenodd" transform="matrix(1 0 0 -1 440.5 381.5)"/><path d="M481.162 298.371C482.691 304.181 475.384 311.176 464.84 313.995 456.937 316.108 449.146 315.32 445.242 312.012" stroke="#000000" stroke-width="0.666667" stroke-miterlimit="8" fill="none" fill-rule="evenodd"/><rect x="441.5" y="279.5" width="117" height="39" stroke="#000000" stroke-linejoin="round" stroke-miterlimit="10" stroke-opacity="0" fill="none"/><text font-family="Calibri,Calibri_MSFontService,sans-serif" font-weight="400" font-size="24" transform="translate(450.717 306)">$<tspan font-size="24" x="12.1667" y="0">\</tspan><tspan font-size="24" x="21.5" y="0">beta$</tspan></text><path d="M346.167 186.5 346.167 223.487 344.833 223.487 344.833 186.5ZM350.669 218.592 345.5 224.499 340.332 218.592C340.089 218.315 340.117 217.894 340.394 217.652 340.672 217.409 341.093 217.437 341.335 217.714L346.002 223.048 344.998 223.048 349.665 217.714C349.908 217.437 350.329 217.409 350.606 217.652 350.883 217.894 350.911 218.315 350.669 218.592Z"/><rect x="302.5" y="185.5" width="148" height="39" stroke="#000000" stroke-linejoin="round" stroke-miterlimit="10" stroke-opacity="0" fill="none"/><text font-family="Calibri,Calibri_MSFontService,sans-serif" font-weight="400" font-size="24" transform="translate(311.525 212)">$<tspan font-size="24" x="12.1667" y="0">\</tspan><tspan font-size="24" x="21.5" y="0">vec</tspan><tspan font-size="24" x="54.2667" y="0">{g}$</tspan></text><rect x="604.5" y="342.5" width="117" height="39" stroke="#000000" stroke-linejoin="round" stroke-miterlimit="10" stroke-opacity="0" fill="none"/><text font-family="Calibri,Calibri_MSFontService,sans-serif" font-weight="400" font-size="24" transform="translate(613.681 369)">$m$</text><rect x="518.5" y="275.5" width="117" height="39" stroke="#000000" stroke-linejoin="round" stroke-miterlimit="10" stroke-opacity="0" fill="none"/><text font-family="Calibri,Calibri_MSFontService,sans-serif" font-weight="400" font-size="24" transform="translate(527.466 302)">$k, L$</text></g></svg>