<svg width="569" height="583" xmlns="http://www.w3.org/2000/svg" xmlns:xlink="http://www.w3.org/1999/xlink" overflow="hidden"><defs><clipPath id="clip0"><rect x="215" y="119" width="569" height="583"/></clipPath><clipPath id="clip1"><path d="M575.743 250.375 619.463 171.502 648.003 187.322 604.283 266.195Z" fill-rule="evenodd" clip-rule="evenodd"/></clipPath><clipPath id="clip2"><path d="M575.743 250.375 619.463 171.502 648.003 187.322 604.283 266.195Z" fill-rule="evenodd" clip-rule="evenodd"/></clipPath><clipPath id="clip3"><path d="M312.712 528.61 620.882-27.342 1103.15 239.982 794.977 795.934Z" fill-rule="evenodd" clip-rule="evenodd"/></clipPath><clipPath id="clip4"><path d="M312.712 528.61 620.882-27.342 1103.15 239.982 794.977 795.934Z"/></clipPath><clipPath id="clip5"><path d="M312.712 528.61 620.882-27.342 1103.15 239.982 794.977 795.934Z"/></clipPath><clipPath id="clip6"><path d="M312.712 528.61 620.882-27.342 1103.15 239.982 794.977 795.934Z"/></clipPath><clipPath id="clip7"><path d="M322.303 533.927 630.472-22.0259 767.479 53.9179 459.309 609.87Z"/></clipPath></defs><g clip-path="url(#clip0)" transform="translate(-215 -119)"><g clip-path="url(#clip1)"><g clip-path="url(#clip2)"><g clip-path="url(#clip3)"><g clip-path="url(#clip4)"><path d="M0 0 426.081 0 426.081 551.399 0 551.399Z" stroke="#000000" stroke-width="0.522149" fill="none" transform="matrix(0.723265 -1.3048 0.87462 0.48481 312.712 528.61)"/><path d="M0 0 426.081 0 426.081 551.399 0 551.399Z" stroke="#000000" stroke-width="0.522149" fill="none" transform="matrix(0.723265 -1.3048 0.87462 0.48481 312.712 528.61)"/><path d="M0 0 426.081 0 426.081 551.399 0 551.399Z" stroke="#000000" stroke-width="0.522149" fill="none" transform="matrix(0.723265 -1.3048 0.87462 0.48481 312.712 528.61)"/><path d="M0 0 426.081 0 426.081 551.399 0 551.399Z" stroke="#000000" stroke-width="0.522149" fill="none" transform="matrix(0.723265 -1.3048 0.87462 0.48481 312.712 528.61)"/></g><g clip-path="url(#clip5)"><path d="M0 0 426.081 0 426.081 551.399 0 551.399Z" stroke="#000000" stroke-width="0.522149" fill="none" transform="matrix(0.723265 -1.3048 0.87462 0.48481 312.712 528.61)"/></g><g clip-path="url(#clip6)"><path d="M0 10.9653 426.081 10.9653 426.081 167.613 0 167.613Z" stroke="#000000" stroke-width="0.522149" fill="none" transform="matrix(0.723265 -1.3048 0.87462 0.48481 312.712 528.61)"/></g><g clip-path="url(#clip7)"><path d="M44.3156 96.38 215.234 96.38" stroke="#000000" stroke-width="0.522149" fill="none" transform="matrix(0.723265 -1.3048 0.87462 0.48481 322.303 533.927)"/><path d="M44.3156 56.6542 44.3156 96.38" stroke="#000000" stroke-width="0.522149" fill="none" transform="matrix(0.723265 -1.3048 0.87462 0.48481 322.303 533.927)"/><path d="M215.234 56.6542 215.234 96.38" stroke="#000000" stroke-width="0.522149" fill="none" transform="matrix(0.723265 -1.3048 0.87462 0.48481 322.303 533.927)"/><path d="M248.48 98.9699 259.508 98.9699 261.956 88.5267 266.86 109.413 271.757 88.5267 276.66 109.413 281.563 88.5267 286.461 109.413 291.364 88.5267 296.267 109.413 298.716 98.9699 309.744 98.9699" stroke="#000000" stroke-width="0.522149" fill="none" transform="matrix(0.723265 -1.3048 0.87462 0.48481 322.303 533.927)"/><path d="M155.708 77.5614 166.422 77.5614 168.803 67.1182 173.565 88.0046 178.328 67.1182 183.09 88.0046 187.852 67.1182 192.614 88.0046 197.376 67.1182 202.138 88.0046 204.519 77.5614 215.234 77.5614" stroke="#000000" stroke-width="0.522149" fill="none" transform="matrix(0.723265 -1.3048 0.87462 0.48481 322.303 533.927)"/><path d="M106.17 56.6542 155.358 56.6542 155.358 96.38 106.17 96.38Z" stroke="#000000" stroke-width="0.522149" fill="none" transform="matrix(0.723265 -1.3048 0.87462 0.48481 322.303 533.927)"/><path d="M129.772 96.38 129.772 106.87" stroke="#000000" stroke-width="0.522149" fill="none" transform="matrix(0.723265 -1.3048 0.87462 0.48481 322.303 533.927)"/><path d="M129.772 101.622 152.225 101.936" stroke="#000000" stroke-width="0.522149" fill="none" transform="matrix(0.723265 -1.3048 0.87462 0.48481 322.303 533.927)"/><path d="M5.7075-1.71799C3.6292-0.729322 1.7267-0.156656 0 0 1.7267 0.156656 3.6292 0.729322 5.7075 1.71799" stroke="#000000" stroke-width="0.522177" fill="none" transform="matrix(-0.735366 1.29784 -0.86439 -0.502953 522.327 383.365)"/></g></g></g></g><path d="M216.5 417C216.5 260.427 343.427 133.5 500 133.5 656.573 133.5 783.5 260.427 783.5 417 783.5 573.573 656.573 700.5 500 700.5 343.427 700.5 216.5 573.573 216.5 417Z" stroke="#000000" stroke-width="1.33333" stroke-miterlimit="8" fill="none" fill-rule="evenodd"/><path d="M329.5 417.5C329.5 323.612 405.836 247.5 500 247.5 594.165 247.5 670.5 323.612 670.5 417.5 670.5 511.388 594.165 587.5 500 587.5 405.836 587.5 329.5 511.388 329.5 417.5Z" stroke="#000000" stroke-width="1.33333" stroke-miterlimit="8" fill="none" fill-rule="evenodd"/><path d="M621.5 171.5C621.5 161.007 630.007 152.5 640.5 152.5 650.993 152.5 659.5 161.007 659.5 171.5 659.5 181.993 650.993 190.5 640.5 190.5 630.007 190.5 621.5 181.993 621.5 171.5Z" stroke="#000000" stroke-width="1.33333" stroke-miterlimit="8" fill="#404040" fill-rule="evenodd"/><path d="M565.5 270C565.5 259.783 574.007 251.5 584.5 251.5 594.993 251.5 603.5 259.783 603.5 270 603.5 280.217 594.993 288.5 584.5 288.5 574.007 288.5 565.5 280.217 565.5 270Z" stroke="#000000" stroke-width="1.33333" stroke-miterlimit="8" fill="#404040" fill-rule="evenodd"/><path d="M471.5 417C471.5 401.26 484.26 388.5 500 388.5 515.74 388.5 528.5 401.26 528.5 417 528.5 432.74 515.74 445.5 500 445.5 484.26 445.5 471.5 432.74 471.5 417Z" stroke="#000000" stroke-width="1.33333" stroke-miterlimit="8" fill="#FFD966" fill-rule="evenodd"/><path d="M499.862 416.94 639.244 506.959 638.521 508.079 499.138 418.06ZM633.006 495.094 640.035 508.264 625.14 507.274C624.773 507.25 624.495 506.932 624.519 506.565 624.544 506.197 624.861 505.919 625.229 505.944L638.926 506.854 638.294 507.833 631.83 495.722C631.657 495.397 631.78 494.994 632.104 494.82 632.429 494.647 632.833 494.77 633.006 495.094Z"/><path d="M500.102 417.212 621.145 670.326 619.943 670.901 498.899 417.788ZM622.048 656.956 621.138 671.855 608.968 663.211C608.668 662.998 608.597 662.581 608.81 662.281 609.024 661.981 609.44 661.911 609.74 662.124L620.931 670.073 619.88 670.576 620.717 656.874C620.74 656.507 621.056 656.227 621.423 656.25 621.791 656.272 622.07 656.588 622.048 656.956Z"/><rect x="546.5" y="283.5" width="131" height="39" stroke="#000000" stroke-linejoin="round" stroke-miterlimit="10" stroke-opacity="0" fill="none"/><text font-family="Calibri,Calibri_MSFontService,sans-serif" font-weight="400" font-size="24" transform="translate(555.6 310)">$m_1$</text><rect x="640.5" y="122.5" width="89" height="39" stroke="#000000" stroke-linejoin="round" stroke-miterlimit="10" stroke-opacity="0" fill="none"/><text font-family="Calibri,Calibri_MSFontService,sans-serif" font-weight="400" font-size="24" transform="translate(649.6 149)">$m_2$</text><rect x="549.5" y="423.5" width="119" height="39" stroke="#000000" stroke-linejoin="round" stroke-miterlimit="10" stroke-opacity="0" fill="none"/><text font-family="Calibri,Calibri_MSFontService,sans-serif" font-weight="400" font-size="24" transform="translate(558.137 450)">$r_1$</text><rect x="498.5" y="509.5" width="123" height="39" stroke="#000000" stroke-linejoin="round" stroke-miterlimit="10" stroke-opacity="0" fill="none"/><text font-family="Calibri,Calibri_MSFontService,sans-serif" font-weight="400" font-size="24" transform="translate(507.695 536)">$r_2$</text><rect x="478.5" y="355.5" width="259" height="39" stroke="#000000" stroke-linejoin="round" stroke-miterlimit="10" stroke-opacity="0" fill="none"/><text font-family="Calibri,Calibri_MSFontService,sans-serif" font-weight="400" font-size="24" transform="translate(488.001 382)">$M$</text><rect x="616.5" y="209.5" width="89" height="39" stroke="#000000" stroke-linejoin="round" stroke-miterlimit="10" stroke-opacity="0" fill="none"/><text font-family="Calibri,Calibri_MSFontService,sans-serif" font-weight="400" font-size="24" transform="translate(625.813 236)">$k$</text></g></svg>