<svg width="2510" height="1509" xmlns="http://www.w3.org/2000/svg" xmlns:xlink="http://www.w3.org/1999/xlink" overflow="hidden"><defs><clipPath id="clip0"><rect x="890" y="374" width="2510" height="1509"/></clipPath></defs><g clip-path="url(#clip0)" transform="translate(-890 -374)"><rect x="1203.5" y="1057.5" width="2194" height="823" stroke="#000000" stroke-width="4.58333" stroke-miterlimit="8" fill="#D9D9D9"/><rect x="2513.5" y="637.5" width="727" height="413" stroke="#000000" stroke-width="6.875" stroke-miterlimit="8" fill="none"/><rect x="2702.5" y="377.5" width="350" height="260" stroke="#000000" stroke-width="6.875" stroke-miterlimit="8" fill="none"/><path d="M2513 843.333 1123 840" stroke="#000000" stroke-width="2.29167" stroke-miterlimit="8" fill="none" fill-rule="evenodd"/><path d="M1034.5 925C1034.5 878.332 1072.33 840.5 1119 840.5 1165.67 840.5 1203.5 878.332 1203.5 925 1203.5 971.668 1165.67 1009.5 1119 1009.5 1072.33 1009.5 1034.5 971.668 1034.5 925Z" stroke="#000000" stroke-width="4.58333" stroke-miterlimit="8" fill="#7F7F7F" fill-rule="evenodd"/><path d="M1034 924 1034 1467.88" stroke="#000000" stroke-width="2.29167" stroke-miterlimit="8" fill="none" fill-rule="evenodd"/><rect x="893.5" y="1472.5" width="280" height="300" stroke="#000000" stroke-width="6.875" stroke-miterlimit="8" fill="none"/><path d="M1203.45 1174.01 1119 924" stroke="#000000" stroke-width="2.29167" stroke-miterlimit="8" fill="none" fill-rule="evenodd"/><path d="M1287.9 1056.88 1119 928" stroke="#000000" stroke-width="2.29167" stroke-miterlimit="8" fill="none" fill-rule="evenodd"/><path d="M1106.5 926.5C1106.5 919.32 1112.32 913.5 1119.5 913.5 1126.68 913.5 1132.5 919.32 1132.5 926.5 1132.5 933.68 1126.68 939.5 1119.5 939.5 1112.32 939.5 1106.5 933.68 1106.5 926.5Z" stroke="#000000" stroke-width="4.58333" stroke-miterlimit="8" fill-rule="evenodd"/><rect x="2780" y="442" width="315" height="133" fill="#FFFFFF" fill-opacity="0.0196078"/><text font-family="Calibri,Calibri_MSFontService,sans-serif" font-weight="400" font-size="83" transform="matrix(1 0 0 1 2813 536)">$m_1$</text><rect x="2780" y="777" width="315" height="133" fill="#FFFFFF" fill-opacity="0.0196078"/><text font-family="Calibri,Calibri_MSFontService,sans-serif" font-weight="400" font-size="83" transform="matrix(1 0 0 1 2813 870)">$m_2$</text><rect x="932" y="1555" width="315" height="133" fill="#FFFFFF" fill-opacity="0.0196078"/><text font-family="Calibri,Calibri_MSFontService,sans-serif" font-weight="400" font-size="83" transform="matrix(1 0 0 1 965.385 1649)">$m_3$</text><rect x="2049" y="899" width="418" height="134" fill="#FFFFFF" fill-opacity="0.0196078"/><text font-family="Calibri,Calibri_MSFontService,sans-serif" font-weight="400" font-size="83" transform="matrix(1 0 0 1 2082.31 993)">$<tspan font-size="83" x="41.823" y="0">\</tspan><tspan font-size="83" x="73.9063" y="0">mu_c</tspan><tspan font-size="83" x="259.531" y="0">$</tspan></text><rect x="2330" y="433" width="418" height="134" fill="#FFFFFF" fill-opacity="0.0196078"/><text font-family="Calibri,Calibri_MSFontService,sans-serif" font-weight="400" font-size="83" transform="matrix(1 0 0 1 2363.49 527)">$<tspan font-size="83" x="41.823" y="0">\</tspan><tspan font-size="83" x="73.9063" y="0">mu_e</tspan><tspan font-size="83" x="265.833" y="0">$</tspan></text><path d="M2539.05 505.855 2551.28 506.357 2563.19 507.869 2574.66 510.264 2585.69 513.604 2596.22 517.702 2606.12 522.685 2615.33 528.299 2623.92 534.677 2631.62 541.687 2638.57 549.271 2644.58 557.431 2649.64 566.036 2653.7 575.093 2656.68 584.597 2658.51 594.421 2659 602.164 2656.71 602.308 2656.23 594.634 2656.25 594.773 2654.44 585.086 2654.47 585.218 2651.53 575.843 2651.58 575.968 2647.58 567.031 2647.64 567.143 2642.64 558.643 2642.7 558.742 2636.76 550.68 2636.84 550.774 2629.97 543.274 2630.04 543.348 2622.42 536.41 2622.5 536.482 2614 530.17 2614.09 530.228 2604.97 524.666 2605.05 524.711 2595.23 519.774 2595.33 519.818 2584.9 515.755 2584.98 515.784 2574.04 512.472 2574.14 512.497 2562.77 510.122 2562.86 510.137 2551.04 508.637 2551.14 508.645 2538.95 508.145ZM2673.17 574.297 2658 604.505 2639.17 576.435C2638.82 575.909 2638.96 575.198 2639.48 574.845 2640.01 574.493 2640.72 574.633 2641.07 575.158L2658.81 601.598 2656.83 601.722 2671.12 573.269C2671.4 572.704 2672.09 572.475 2672.66 572.759 2673.22 573.043 2673.45 573.732 2673.17 574.297Z" fill="#FF0000"/><path d="M2260.05 959.855 2269.91 960.295 2279.58 961.559 2288.87 963.707 2297.77 966.55 2306.25 970.153 2314.28 974.453 2321.74 979.385 2328.63 984.889 2334.9 990.965 2340.53 997.551 2345.42 1004.65 2349.47 1012.13 2352.77 1019.99 2355.18 1028.24 2356.64 1036.74 2357.01 1043.17 2354.72 1043.3 2354.36 1036.94 2354.37 1037.07 2352.93 1028.69 2352.96 1028.82 2350.59 1020.7 2350.63 1020.82 2347.38 1013.07 2347.43 1013.17 2343.43 1005.8 2343.49 1005.9 2338.68 998.899 2338.75 998.995 2333.19 992.495 2333.26 992.573 2327.08 986.573 2327.16 986.646 2320.35 981.208 2320.43 981.268 2313.06 976.393 2313.15 976.448 2305.21 972.198 2305.3 972.242 2296.93 968.68 2297.03 968.717 2288.21 965.904 2288.3 965.929 2279.12 963.804 2279.23 963.824 2269.66 962.574 2269.76 962.582 2259.95 962.145ZM2371.31 1015.37 2356 1045.51 2337.31 1017.34C2336.96 1016.82 2337.1 1016.11 2337.63 1015.76 2338.16 1015.41 2338.87 1015.55 2339.22 1016.08L2356.82 1042.6 2354.85 1042.72 2369.27 1014.33C2369.56 1013.77 2370.25 1013.54 2370.81 1013.83 2371.37 1014.12 2371.6 1014.81 2371.31 1015.37Z" fill="#FF0000"/></g></svg>