<svg width="713" height="183" xmlns="http://www.w3.org/2000/svg" xmlns:xlink="http://www.w3.org/1999/xlink" overflow="hidden"><defs><clipPath id="clip0"><rect x="491" y="103" width="713" height="183"/></clipPath></defs><g clip-path="url(#clip0)" transform="translate(-491 -103)"><path d="M0 0 145.146 51.9994" stroke="#000000" stroke-width="0.666667" stroke-miterlimit="8" stroke-dasharray="5.33333 2" stroke-opacity="0.501961" fill="none" fill-rule="evenodd" transform="matrix(1 0 0 -1 1010.5 181.499)"/><path d="M1010.5 181.5 1158.35 259.903" stroke="#000000" stroke-width="0.666667" stroke-miterlimit="8" stroke-dasharray="5.33333 2" stroke-opacity="0.501961" fill="none" fill-rule="evenodd"/><path d="M631.5 181.5 812.344 181.5" stroke="#000000" stroke-width="0.666667" stroke-miterlimit="8" stroke-dasharray="5.33333 2" stroke-opacity="0.501961" fill="none" fill-rule="evenodd"/><path d="M517.5 181.5 640.198 181.5" stroke="#000000" stroke-width="0.666667" stroke-miterlimit="8" fill="none" fill-rule="evenodd"/><path d="M493.5 182C493.5 168.469 504.469 157.5 518 157.5 531.531 157.5 542.5 168.469 542.5 182 542.5 195.531 531.531 206.5 518 206.5 504.469 206.5 493.5 195.531 493.5 182Z" stroke="#000000" stroke-width="1.33333" stroke-miterlimit="8" fill="#262626" fill-rule="evenodd"/><path d="M619.5 203.5C619.5 189.693 630.469 178.5 644 178.5 657.531 178.5 668.5 189.693 668.5 203.5 668.5 217.307 657.531 228.5 644 228.5 630.469 228.5 619.5 217.307 619.5 203.5Z" stroke="#000000" stroke-width="1.33333" stroke-miterlimit="8" fill="#595959" fill-rule="evenodd"/><path d="M998.5 181.5 1179.34 181.5" stroke="#000000" stroke-width="0.666667" stroke-miterlimit="8" stroke-dasharray="5.33333 2" stroke-opacity="0.501961" fill="none" fill-rule="evenodd"/><path d="M884.5 181.5 1007.2 181.5" stroke="#000000" stroke-width="0.666667" stroke-miterlimit="8" fill="none" fill-rule="evenodd"/><path d="M1131.5 130C1131.5 116.469 1142.47 105.5 1156 105.5 1169.53 105.5 1180.5 116.469 1180.5 130 1180.5 143.531 1169.53 154.5 1156 154.5 1142.47 154.5 1131.5 143.531 1131.5 130Z" stroke="#000000" stroke-width="1.33333" stroke-miterlimit="8" fill="#262626" fill-rule="evenodd"/><path d="M1136.5 260C1136.5 246.469 1147.47 235.5 1161 235.5 1174.53 235.5 1185.5 246.469 1185.5 260 1185.5 273.531 1174.53 284.5 1161 284.5 1147.47 284.5 1136.5 273.531 1136.5 260Z" stroke="#000000" stroke-width="1.33333" stroke-miterlimit="8" fill="#595959" fill-rule="evenodd"/><rect x="1094.5" y="146.5" width="108" height="39" stroke="#000000" stroke-linejoin="round" stroke-miterlimit="10" stroke-opacity="0" fill="none"/><text font-family="Calibri,Calibri_MSFontService,sans-serif" font-weight="400" font-size="24" transform="translate(1103.39 173)">$<tspan font-size="24" x="12.1667" y="0">\</tspan><tspan font-size="24" x="21.5" y="0">theta$</tspan></text><rect x="1097.5" y="183.5" width="93" height="39" stroke="#000000" stroke-linejoin="round" stroke-miterlimit="10" stroke-opacity="0" fill="none"/><text font-family="Calibri,Calibri_MSFontService,sans-serif" font-weight="400" font-size="24" transform="translate(1106.55 210)">$<tspan font-size="24" x="12.1666" y="0">\</tspan><tspan font-size="24" x="21.5" y="0">phi$</tspan></text><path d="M1142.49 181.366C1150.34 198.103 1144.29 223.563 1128.97 238.232 1127.6 239.545 1126.18 240.744 1124.72 241.821" stroke="#000000" stroke-width="0.666667" stroke-miterlimit="8" fill="none" fill-rule="evenodd"/><path d="M1125.49 140.267C1135.23 151.818 1140.05 168.247 1137.76 182.126" stroke="#000000" stroke-width="0.666667" stroke-miterlimit="8" fill="none" fill-rule="evenodd"/><path d="M783.407 157.118 788.976 155.491 794.87 154.049 807.58 151.857 820.979 150.542 834.752 150.167 848.525 150.73 861.799 152.17 874.26 154.487 880.03 155.992 885.424 157.686 889.697 159.384 889.451 160.004 885.189 158.31 885.213 158.318 879.838 156.631 879.853 156.635 874.103 155.135 874.127 155.14 861.689 152.828 861.714 152.831 848.464 151.394 848.486 151.396 834.736 150.833 834.759 150.833 821.009 151.208 821.033 151.207 807.658 152.519 807.682 152.516 794.994 154.704 795.017 154.699 789.142 156.136 789.156 156.133 783.594 157.758ZM884.126 152.197 890.189 159.938 880.466 161.405C880.284 161.433 880.114 161.308 880.087 161.126 880.059 160.944 880.185 160.774 880.367 160.746L889.524 159.364 889.312 159.899 883.601 152.608C883.487 152.463 883.513 152.253 883.658 152.14 883.803 152.026 884.012 152.052 884.126 152.197Z"/><rect x="805.5" y="115.5" width="136" height="39" stroke="#000000" stroke-linejoin="round" stroke-miterlimit="10" stroke-opacity="0" fill="none"/><text font-family="Calibri,Calibri_MSFontService,sans-serif" font-weight="400" font-size="24" transform="translate(814.256 142)">$<tspan font-size="24" x="12.1666" y="0">\</tspan><tspan font-size="24" x="21.5" y="0">Delta t$</tspan></text></g></svg>