<svg width="527" height="195" xmlns="http://www.w3.org/2000/svg" xmlns:xlink="http://www.w3.org/1999/xlink" overflow="hidden"><defs><clipPath id="clip0"><rect x="246" y="378" width="527" height="195"/></clipPath><clipPath id="clip1"><rect x="257" y="441" width="159" height="59"/></clipPath><clipPath id="clip2"><rect x="257" y="441" width="159" height="59"/></clipPath><clipPath id="clip3"><rect x="246" y="410" width="228" height="403"/></clipPath><clipPath id="clip4"><rect x="246" y="410" width="228" height="403"/></clipPath><clipPath id="clip5"><rect x="246" y="410" width="228" height="403"/></clipPath><clipPath id="clip6"><rect x="246" y="410" width="228" height="403"/></clipPath><clipPath id="clip7"><rect x="246" y="410" width="228" height="403"/></clipPath><clipPath id="clip8"><rect x="246" y="418" width="228" height="115"/></clipPath></defs><g clip-path="url(#clip0)" transform="translate(-246 -378)"><path d="M513.5 416.5 513.5 502.318" stroke="#767171" stroke-width="0.666667" stroke-miterlimit="8" stroke-dasharray="5.33333 2" fill="none" fill-rule="evenodd"/><g clip-path="url(#clip1)"><g clip-path="url(#clip2)"><g clip-path="url(#clip3)"><g clip-path="url(#clip4)"><path d="M0 0 227.26 0 227.26 294.101 0 294.101Z" fill="#FFFFFF" transform="matrix(1 0 0 1.3648 246.014 410.848)"/><path d="M0 0 227.26 0 227.26 294.101 0 294.101Z" fill="#FFFFFF" transform="matrix(1 0 0 1.3648 246.014 410.848)"/><path d="M0 0 227.26 0 227.26 294.101 0 294.101Z" fill="#FFFFFF" transform="matrix(1 0 0 1.3648 246.014 410.848)"/><path d="M0 0 227.26 0 227.26 294.101 0 294.101Z" fill="#FFFFFF" transform="matrix(1 0 0 1.3648 246.014 410.848)"/></g><g clip-path="url(#clip5)"><path d="M0 0 227.26 0 227.26 294.101 0 294.101Z" fill="#FFFFFF" transform="matrix(1 0 0 1.3648 246.014 410.848)"/></g><g clip-path="url(#clip6)"><text font-family="Arial,Arial_MSFontService,sans-serif" font-weight="400" font-size="15" transform="matrix(0.278505 0 0 0.380102 246.014 417)"> <tspan font-size="15" x="0" y="320.966"> </tspan></text></g><g clip-path="url(#clip7)"><path d="M0 5.8486 227.26 5.8486 227.26 89.4 0 89.4Z" fill="#FFFFFF" transform="matrix(1 0 0 1.3648 246.014 410.848)"/></g><g clip-path="url(#clip8)"><path d="M11.4187 37.8126 39.9543 37.8126 46.293 17.2673 58.9761 58.3578 71.6592 17.2673 84.3395 58.3578 97.0226 17.2673 109.703 58.3578 122.386 17.2673 135.069 58.3578 141.408 37.8126 169.943 37.8126" stroke="#000000" stroke-width="1.07198" fill="none" transform="matrix(1 0 0 1.3648 246.014 418.83)"/></g></g></g></g><path d="M257.5 380.5 257.5 503.167" stroke="#000000" stroke-width="1.33333" stroke-miterlimit="8" fill="none" fill-rule="evenodd"/><path d="M0 0 504 0.848399" stroke="#000000" stroke-width="1.33333" stroke-miterlimit="8" fill="none" fill-rule="evenodd" transform="matrix(1 0 0 -1 257.5 503.348)"/><rect x="416.5" y="443.5" width="97" height="59" stroke="#000000" stroke-width="1.33333" stroke-miterlimit="8" fill="none"/><path d="M671.5 416.5 671.5 526.5" stroke="#767171" stroke-width="0.666667" stroke-miterlimit="8" stroke-dasharray="5.33333 2" fill="none" fill-rule="evenodd"/><path d="M1.02559-0.5 412.969-0.499895 412.969 0.500105 1.02559 0.5ZM12.7872 7.10375 0.000437069 1.54911e-08 12.7872-7.10374C13.0286-7.23785 13.333-7.15088 13.4671-6.90948 13.6012-6.66809 13.5142-6.36369 13.2728-6.22958L1.27282 0.437079 1.27282-0.437078 13.2728 6.22959C13.5142 6.3637 13.6012 6.6681 13.4671 6.90949 13.333 7.15088 13.0286 7.23786 12.7872 7.10375ZM401.213-7.10364 414 0.000104919 401.213 7.10385C400.971 7.23795 400.667 7.15098 400.533 6.90959 400.399 6.6682 400.486 6.3638 400.727 6.22969L412.727-0.436974 412.727 0.437183 400.727-6.22949C400.486-6.36359 400.399-6.66799 400.533-6.90939 400.667-7.15078 400.971-7.23775 401.213-7.10364Z" transform="matrix(-1 0 0 1 671.5 526.5)"/><rect x="437.5" y="524.5" width="76" height="39" stroke="#000000" stroke-linejoin="round" stroke-miterlimit="10" stroke-opacity="0" fill="none"/><text font-family="Calibri,Calibri_MSFontService,sans-serif" font-weight="400" font-size="24" transform="translate(446.267 551)">$l_0$</text><rect x="316.5" y="403.5" width="77" height="39" stroke="#000000" stroke-linejoin="round" stroke-miterlimit="10" stroke-opacity="0" fill="none"/><text font-family="Calibri,Calibri_MSFontService,sans-serif" font-weight="400" font-size="24" transform="translate(325.6 430)">$k$</text><path d="M2.2243e-07-0.333333 156.673-0.333229 156.673 0.333438-2.2243e-07 0.333333ZM148.841-4.95449 157.335 0.000104866 148.841 4.95469C148.682 5.04745 148.478 4.99374 148.385 4.83472 148.293 4.67571 148.346 4.4716 148.505 4.37884L156.505-0.287822 156.505 0.288031 148.505-4.37864C148.346-4.4714 148.293-4.67551 148.385-4.83452 148.478-4.99354 148.682-5.04725 148.841-4.95449Z" fill="#000000" fill-opacity="0.811765" transform="matrix(-1 0 0 1 670.833 416.5)"/><rect x="568.5" y="381.5" width="132" height="39" stroke="#000000" stroke-linejoin="round" stroke-miterlimit="10" stroke-opacity="0" fill="none"/><text font-family="Calibri,Calibri_MSFontService,sans-serif" font-weight="400" font-size="24" transform="translate(577.267 408)">$<tspan font-size="24" x="12.1667" y="0">\</tspan><tspan font-size="24" x="21.5" y="0">delta_0$</tspan></text><path d="M709.384 497.732 709.909 494.649 711.082 491.011 714.647 484.291 717.05 481.312 719.823 478.596 722.94 476.216 726.324 474.208 726.664 474.781 723.297 476.78 723.329 476.758 720.244 479.113 720.275 479.086 717.531 481.774 717.557 481.745 715.186 484.684 715.221 484.631 711.685 491.298 711.708 491.244 710.551 494.831 710.563 494.785 710.041 497.844ZM715.913 490.9 709.601 498.44 706.145 489.234C706.08 489.062 706.167 488.87 706.34 488.805 706.512 488.74 706.704 488.828 706.769 489L710.025 497.671 709.457 497.574 715.402 490.472C715.52 490.331 715.73 490.312 715.872 490.43 716.013 490.549 716.031 490.759 715.913 490.9Z"/><rect x="723.5" y="442.5" width="45" height="97" stroke="#000000" stroke-linejoin="round" stroke-miterlimit="10" stroke-opacity="0" fill="none"/><text font-family="Calibri,Calibri_MSFontService,sans-serif" font-weight="400" font-size="24" transform="translate(732.6 469)">$<tspan font-size="24" x="12.1667" y="0">\</tspan><tspan font-size="24" x="0" y="29">m</tspan><tspan font-size="24" x="0" y="58">u$</tspan></text></g></svg>