<svg width="295" height="381" xmlns="http://www.w3.org/2000/svg" xmlns:xlink="http://www.w3.org/1999/xlink" overflow="hidden"><defs><clipPath id="clip0"><rect x="753" y="175" width="295" height="381"/></clipPath><clipPath id="clip1"><rect x="890" y="285" width="28" height="159"/></clipPath><clipPath id="clip2"><rect x="890" y="285" width="28" height="159"/></clipPath><clipPath id="clip3"><rect x="747" y="275" width="184" height="226"/></clipPath><clipPath id="clip4"><rect x="747" y="275" width="184" height="226"/></clipPath><clipPath id="clip5"><rect x="747" y="275" width="184" height="226"/></clipPath><clipPath id="clip6"><rect x="747" y="275" width="184" height="226"/></clipPath><clipPath id="clip7"><rect x="747" y="275" width="184" height="226"/></clipPath><clipPath id="clip8"><rect x="874" y="275" width="54" height="226"/></clipPath></defs><g clip-path="url(#clip0)" transform="translate(-753 -175)"><g clip-path="url(#clip1)"><g clip-path="url(#clip2)"><g clip-path="url(#clip3)"><g clip-path="url(#clip4)"><path d="M0 0 141.939 0 141.939 183.686 0 183.686Z" fill="#FFFFFF" transform="matrix(9.74229e-17 1.59104 -1 6.12323e-17 930.799 275.083)"/><path d="M0 0 141.939 0 141.939 183.686 0 183.686Z" fill="#FFFFFF" transform="matrix(9.74229e-17 1.59104 -1 6.12323e-17 930.799 275.083)"/><path d="M0 0 141.939 0 141.939 183.686 0 183.686Z" fill="#FFFFFF" transform="matrix(9.74229e-17 1.59104 -1 6.12323e-17 930.799 275.083)"/><path d="M0 0 141.939 0 141.939 183.686 0 183.686Z" fill="#FFFFFF" transform="matrix(9.74229e-17 1.59104 -1 6.12323e-17 930.799 275.083)"/></g><g clip-path="url(#clip5)"><path d="M0 0 141.939 0 141.939 183.686 0 183.686Z" fill="#FFFFFF" transform="matrix(9.74229e-17 1.59104 -1 6.12323e-17 930.799 275.083)"/></g><g clip-path="url(#clip6)"><text font-family="Arial,Arial_MSFontService,sans-serif" font-weight="400" font-size="15" transform="matrix(1.69462e-17 0.276753 -0.173945 1.06511e-17 928.015 275)"> <tspan font-size="15" x="-1.23539e-14" y="321"> </tspan></text></g><g clip-path="url(#clip7)"><path d="M0 3.65285 141.939 3.65285 141.939 55.8364 0 55.8364Z" fill="#FFFFFF" transform="matrix(9.74229e-17 1.59104 -1 6.12323e-17 930.799 275.083)"/></g><g clip-path="url(#clip8)"><path d="M7.13175 23.6165 24.9542 23.6165 28.9131 10.7846 36.8346 36.4484 44.7561 10.7846 52.6758 36.4484 60.5972 10.7846 68.517 36.4484 76.4384 10.7846 84.3599 36.4484 88.3189 23.6165 106.141 23.6165" stroke="#000000" stroke-width="1.13009" fill="none" transform="matrix(9.74229e-17 1.59104 -1 6.12323e-17 927.146 275.083)"/></g></g></g></g><rect x="832.5" y="177.5" width="143" height="109" stroke="#000000" stroke-width="2.66667" stroke-miterlimit="8" fill="none"/><rect x="832.5" y="444.5" width="143" height="109" stroke="#000000" stroke-width="2.66667" stroke-miterlimit="8" fill="none"/><path d="M903.5 553.5 1046.12 553.5" stroke="#000000" stroke-width="2.66667" stroke-miterlimit="8" fill="none" fill-rule="evenodd"/><path d="M754.5 553.5 903.885 553.5" stroke="#000000" stroke-width="2.66667" stroke-miterlimit="8" fill="none" fill-rule="evenodd"/><rect x="881.5" y="213.5" width="80" height="39" stroke="#000000" stroke-linejoin="round" stroke-miterlimit="10" stroke-opacity="0" fill="none"/><text font-family="Calibri,Calibri_MSFontService,sans-serif" font-weight="400" font-size="24" transform="translate(890.6 240)">$m$</text><rect x="881.5" y="480.5" width="80" height="39" stroke="#000000" stroke-linejoin="round" stroke-miterlimit="10" stroke-opacity="0" fill="none"/><text font-family="Calibri,Calibri_MSFontService,sans-serif" font-weight="400" font-size="24" transform="translate(890.6 507)">$m$</text><rect x="921.5" y="346.5" width="80" height="38" stroke="#000000" stroke-linejoin="round" stroke-miterlimit="10" stroke-opacity="0" fill="none"/><text font-family="Calibri,Calibri_MSFontService,sans-serif" font-weight="400" font-size="24" transform="translate(930.6 372)">$k$</text></g></svg>