<svg width="604" height="651" xmlns="http://www.w3.org/2000/svg" xmlns:xlink="http://www.w3.org/1999/xlink" overflow="hidden"><defs><clipPath id="clip0"><rect x="567" y="44" width="604" height="651"/></clipPath><clipPath id="clip1"><rect x="769" y="45" width="55" height="362"/></clipPath><clipPath id="clip2"><rect x="769" y="45" width="55" height="362"/></clipPath><clipPath id="clip3"><rect x="483" y="21" width="368" height="517"/></clipPath><clipPath id="clip4"><rect x="483" y="21" width="368" height="517"/></clipPath><clipPath id="clip5"><rect x="483" y="21" width="368" height="517"/></clipPath><clipPath id="clip6"><rect x="483" y="21" width="368" height="517"/></clipPath><clipPath id="clip7"><rect x="483" y="21" width="368" height="517"/></clipPath><clipPath id="clip8"><rect x="738" y="21" width="106" height="517"/></clipPath></defs><g clip-path="url(#clip0)" transform="translate(-567 -44)"><g clip-path="url(#clip1)"><g clip-path="url(#clip2)"><g clip-path="url(#clip3)"><g clip-path="url(#clip4)"><path d="M0 0 283.878 0 283.878 367.372 0 367.372Z" fill="#FFFFFF" transform="matrix(1.11296e-16 1.81761 -1 6.12323e-17 850.597 21.0575)"/><path d="M0 0 283.878 0 283.878 367.372 0 367.372Z" fill="#FFFFFF" transform="matrix(1.11296e-16 1.81761 -1 6.12323e-17 850.597 21.0575)"/><path d="M0 0 283.878 0 283.878 367.372 0 367.372Z" fill="#FFFFFF" transform="matrix(1.11296e-16 1.81761 -1 6.12323e-17 850.597 21.0575)"/><path d="M0 0 283.878 0 283.878 367.372 0 367.372Z" fill="#FFFFFF" transform="matrix(1.11296e-16 1.81761 -1 6.12323e-17 850.597 21.0575)"/></g><g clip-path="url(#clip5)"><path d="M0 0 283.878 0 283.878 367.372 0 367.372Z" fill="#FFFFFF" transform="matrix(1.11296e-16 1.81761 -1 6.12323e-17 850.597 21.0575)"/></g><g clip-path="url(#clip6)"><text font-family="Arial,Arial_MSFontService,sans-serif" font-weight="400" font-size="15" transform="matrix(3.87189e-17 0.632328 -0.34789 2.13021e-17 845.031 21)"> <tspan font-size="15" x="-1.0814e-14" y="321"> </tspan></text></g><g clip-path="url(#clip7)"><path d="M0 7.30569 283.878 7.30569 283.878 111.673 0 111.673Z" fill="#FFFFFF" transform="matrix(1.11296e-16 1.81761 -1 6.12323e-17 850.597 21.0575)"/></g><g clip-path="url(#clip8)"><path d="M14.2635 47.233 49.9083 47.233 57.8263 21.5692 73.6692 72.8969 89.5121 21.5692 105.352 72.8969 121.194 21.5692 137.034 72.8969 152.877 21.5692 168.72 72.8969 176.638 47.233 212.283 47.233" stroke="#000000" stroke-width="1.33905" fill="none" transform="matrix(1.11296e-16 1.81761 -1 6.12323e-17 843.291 21.0575)"/></g></g></g></g><rect x="757" y="405" width="78" height="75" stroke="#000000" stroke-width="2" stroke-miterlimit="8" fill="none"/><rect x="1083" y="619" width="78" height="74" stroke="#000000" stroke-width="2" stroke-miterlimit="8" fill="none"/><path d="M567 480 1047.67 482.667" stroke="#000000" stroke-width="1.66667" stroke-miterlimit="8" fill="none" fill-rule="evenodd"/><path d="M0 0 0.000104987 156" stroke="#000000" stroke-width="1.66667" stroke-miterlimit="8" fill="none" fill-rule="evenodd" transform="matrix(1 0 0 -1 1122 619)"/><path d="M835 443 1098.33 443" stroke="#000000" stroke-width="1.66667" stroke-miterlimit="8" fill="none" fill-rule="evenodd"/><path d="M1074.5 463.5C1074.5 452.454 1085.25 443.5 1098.5 443.5 1111.75 443.5 1122.5 452.454 1122.5 463.5 1122.5 474.546 1111.75 483.5 1098.5 483.5 1085.25 483.5 1074.5 474.546 1074.5 463.5Z" stroke="#000000" stroke-width="1.33333" stroke-miterlimit="8" fill="#7F7F7F" fill-rule="evenodd"/><path d="M1048 483 1048 569.667" stroke="#000000" stroke-width="1.66667" stroke-miterlimit="8" fill="none" fill-rule="evenodd"/><path d="M796 46 1074.08 46.0001" stroke="#000000" stroke-width="1.66667" stroke-miterlimit="8" fill="none" fill-rule="evenodd"/><path d="M567 46 795.591 46.0001" stroke="#000000" stroke-width="1.66667" stroke-miterlimit="8" fill="none" fill-rule="evenodd"/><path d="M0 0 49.9999 20" stroke="#000000" stroke-width="1.66667" stroke-miterlimit="8" fill="none" fill-rule="evenodd" transform="matrix(1 0 0 -1 1048 483)"/><rect x="773.5" y="425.5" width="69" height="38" stroke="#000000" stroke-linejoin="round" stroke-miterlimit="10" stroke-opacity="0" fill="none"/><text font-family="Calibri,Calibri_MSFontService,sans-serif" font-weight="400" font-size="24" transform="translate(782.767 451)">$m$</text><rect x="1101.5" y="637.5" width="69" height="38" stroke="#000000" stroke-linejoin="round" stroke-miterlimit="10" stroke-opacity="0" fill="none"/><text font-family="Calibri,Calibri_MSFontService,sans-serif" font-weight="400" font-size="24" transform="translate(1110.77 663)">$m$</text><rect x="835.5" y="245.5" width="86" height="68" stroke="#000000" stroke-linejoin="round" stroke-miterlimit="10" stroke-opacity="0" fill="none"/><text font-family="Calibri,Calibri_MSFontService,sans-serif" font-weight="400" font-size="24" transform="translate(844.115 272)">$k, <tspan font-size="24" x="0" y="29">l_0$</tspan></text><path d="M1048.83 144 1048.83 202.283 1047.17 202.283 1047.17 144ZM1055.4 190.688 1048 203.999 1040.6 190.688C1040.38 190.286 1040.53 189.778 1040.93 189.555 1041.33 189.331 1041.84 189.476 1042.06 189.879L1048.73 201.879 1047.27 201.879 1053.94 189.879C1054.16 189.476 1054.67 189.331 1055.07 189.555 1055.47 189.778 1055.62 190.286 1055.4 190.688Z"/><rect x="1048.5" y="155.5" width="77" height="68" stroke="#000000" stroke-linejoin="round" stroke-miterlimit="10" stroke-opacity="0" fill="none"/><text font-family="Calibri,Calibri_MSFontService,sans-serif" font-weight="400" font-size="24" transform="translate(1057.6 182)">$<tspan font-size="24" x="12.1667" y="0">\</tspan><tspan font-size="24" x="21.5" y="0">vec</tspan><tspan font-size="24" x="0" y="29">{g}$</tspan></text></g></svg>