<?xml version="1.0" encoding="utf-8" standalone="no"?>
<!DOCTYPE svg PUBLIC "-//W3C//DTD SVG 1.1//EN"
  "http://www.w3.org/Graphics/SVG/1.1/DTD/svg11.dtd">
<svg height="360pt" version="1.1" viewBox="0 0 864 360" width="864pt" xmlns="http://www.w3.org/2000/svg" xmlns:xlink="http://www.w3.org/1999/xlink">
 <metadata>
  <rdf:RDF xmlns:cc="http://creativecommons.org/ns#" xmlns:dc="http://purl.org/dc/elements/1.1/" xmlns:rdf="http://www.w3.org/1999/02/22-rdf-syntax-ns#">
   <cc:Work>
    <dc:type rdf:resource="http://purl.org/dc/dcmitype/StillImage"/>
    <dc:date>2022-03-23T02:08:31.497479</dc:date>
    <dc:format>image/svg+xml</dc:format>
    <dc:creator>
     <cc:Agent>
      <dc:title>Matplotlib v3.4.2, https://matplotlib.org/</dc:title>
     </cc:Agent>
    </dc:creator>
   </cc:Work>
  </rdf:RDF>
 </metadata>
 <defs>
  <style type="text/css">*{stroke-linecap:butt;stroke-linejoin:round;}</style>
 </defs>
 <g id="figure_1">
  <g id="patch_1">
   <path d="M 0 360 
L 864 360 
L 864 0 
L 0 0 
z
" style="fill:#ffffff;"/>
  </g>
  <g id="axes_1">
   <g id="patch_2">
    <path d="M 108 320.4 
L 777.6 320.4 
L 777.6 43.2 
L 108 43.2 
z
" style="fill:#ffffff;"/>
   </g>
   <g id="matplotlib.axis_1"/>
   <g id="matplotlib.axis_2"/>
   <g id="LineCollection_1">
    <path clip-path="url(#p1cf140bd9b)" d="M 108 63.733333 
L 433.048544 63.733333 
" style="fill:none;stroke:#000000;stroke-dasharray:5.55,2.4;stroke-dashoffset:0;stroke-opacity:0.5;stroke-width:1.5;"/>
   </g>
   <g id="line2d_1">
    <path clip-path="url(#p1cf140bd9b)" d="M 108 63.733333 
L 114.566637 63.759521 
L 121.133274 63.838085 
L 127.699912 63.969024 
L 134.266549 64.152338 
L 140.833186 64.388028 
L 147.399823 64.676094 
L 153.966461 65.016536 
L 160.533098 65.409353 
L 167.099735 65.854545 
L 173.666372 66.352114 
L 180.23301 66.902058 
L 186.799647 67.504377 
L 193.366284 68.159072 
L 199.932921 68.866143 
L 206.499559 69.625589 
L 213.066196 70.437411 
L 219.632833 71.301609 
L 226.19947 72.218182 
L 232.766108 73.187131 
L 239.332745 74.208455 
L 245.899382 75.282155 
L 252.466019 76.40823 
L 259.032657 77.586682 
L 265.599294 78.817508 
L 272.165931 80.100711 
L 278.732568 81.436289 
L 285.299206 82.824242 
L 291.865843 84.264572 
L 298.43248 85.757276 
L 304.999117 87.302357 
L 311.565755 88.899813 
L 318.132392 90.549645 
L 324.699029 92.251852 
L 331.265666 94.006435 
L 337.832304 95.813393 
L 344.398941 97.672727 
L 350.965578 99.584437 
L 357.532215 101.548522 
L 364.098853 103.564983 
L 370.66549 105.63382 
L 377.232127 107.755032 
L 383.798764 109.92862 
L 390.365402 112.154583 
L 396.932039 114.432922 
L 403.498676 116.763636 
L 410.065313 119.146727 
L 416.631951 121.582192 
L 423.198588 124.070034 
L 429.765225 126.610251 
L 436.331862 129.202843 
L 442.8985 131.847811 
L 449.465137 134.545155 
L 456.031774 137.294875 
L 462.598411 140.09697 
L 469.165049 142.95144 
L 475.731686 145.858287 
L 482.298323 148.817508 
L 488.86496 151.829106 
L 495.431598 154.893079 
L 501.998235 158.009428 
L 508.564872 161.178152 
L 515.131509 164.399252 
L 521.698147 167.672727 
L 528.264784 170.998578 
L 534.831421 174.376805 
L 541.398058 177.807407 
L 547.964695 181.290385 
L 554.531333 184.825739 
L 561.09797 188.413468 
L 567.664607 192.053573 
L 574.231244 195.746053 
L 580.797882 199.490909 
L 587.364519 203.288141 
L 593.931156 207.137748 
L 600.497793 211.039731 
L 607.064431 214.994089 
L 613.631068 219.000823 
L 620.197705 223.059933 
L 626.764342 227.171418 
L 633.33098 231.335279 
L 639.897617 235.551515 
L 646.464254 239.820127 
L 653.030891 244.141115 
L 659.597529 248.514478 
L 666.164166 252.940217 
L 672.730803 257.418331 
L 679.29744 261.948822 
L 685.864078 266.531687 
L 692.430715 271.166929 
L 698.997352 275.854545 
L 705.563989 280.594538 
L 712.130627 285.386906 
L 718.697264 290.23165 
L 725.263901 295.128769 
L 731.830538 300.078264 
L 738.397176 305.080135 
L 744.963813 310.134381 
L 751.53045 315.241003 
L 758.097087 320.4 
" style="fill:none;stroke:#ff0000;stroke-linecap:square;stroke-width:1.5;"/>
   </g>
   <g id="line2d_2">
    <path clip-path="url(#p1cf140bd9b)" d="M 108 320.4 
L 114.566637 310.134381 
L 121.133274 300.078264 
L 127.699912 290.23165 
L 134.266549 280.594538 
L 140.833186 271.166929 
L 147.399823 261.948822 
L 153.966461 252.940217 
L 160.533098 244.141115 
L 167.099735 235.551515 
L 173.666372 227.171418 
L 180.23301 219.000823 
L 186.799647 211.039731 
L 193.366284 203.288141 
L 199.932921 195.746053 
L 206.499559 188.413468 
L 213.066196 181.290385 
L 219.632833 174.376805 
L 226.19947 167.672727 
L 232.766108 161.178152 
L 239.332745 154.893079 
L 245.899382 148.817508 
L 252.466019 142.95144 
L 259.032657 137.294875 
L 265.599294 131.847811 
L 272.165931 126.610251 
L 278.732568 121.582192 
L 285.299206 116.763636 
L 291.865843 112.154583 
L 298.43248 107.755032 
L 304.999117 103.564983 
L 311.565755 99.584437 
L 318.132392 95.813393 
L 324.699029 92.251852 
L 331.265666 88.899813 
L 337.832304 85.757276 
L 344.398941 82.824242 
L 350.965578 80.100711 
L 357.532215 77.586682 
L 364.098853 75.282155 
L 370.66549 73.187131 
L 377.232127 71.301609 
L 383.798764 69.625589 
L 390.365402 68.159072 
L 396.932039 66.902058 
L 403.498676 65.854545 
L 410.065313 65.016536 
L 416.631951 64.388028 
L 423.198588 63.969024 
L 429.765225 63.759521 
L 436.331862 63.759521 
L 442.8985 63.969024 
L 449.465137 64.388028 
L 456.031774 65.016536 
L 462.598411 65.854545 
L 469.165049 66.902058 
L 475.731686 68.159072 
L 482.298323 69.625589 
L 488.86496 71.301609 
L 495.431598 73.187131 
L 501.998235 75.282155 
L 508.564872 77.586682 
L 515.131509 80.100711 
L 521.698147 82.824242 
L 528.264784 85.757276 
L 534.831421 88.899813 
L 541.398058 92.251852 
L 547.964695 95.813393 
L 554.531333 99.584437 
L 561.09797 103.564983 
L 567.664607 107.755032 
L 574.231244 112.154583 
L 580.797882 116.763636 
L 587.364519 121.582192 
L 593.931156 126.610251 
L 600.497793 131.847811 
L 607.064431 137.294875 
L 613.631068 142.95144 
L 620.197705 148.817508 
L 626.764342 154.893079 
L 633.33098 161.178152 
L 639.897617 167.672727 
L 646.464254 174.376805 
L 653.030891 181.290385 
L 659.597529 188.413468 
L 666.164166 195.746053 
L 672.730803 203.288141 
L 679.29744 211.039731 
L 685.864078 219.000823 
L 692.430715 227.171418 
L 698.997352 235.551515 
L 705.563989 244.141115 
L 712.130627 252.940217 
L 718.697264 261.948822 
L 725.263901 271.166929 
L 731.830538 280.594538 
L 738.397176 290.23165 
L 744.963813 300.078264 
L 751.53045 310.134381 
L 758.097087 320.4 
" style="fill:none;stroke:#0000ff;stroke-linecap:square;stroke-width:1.5;"/>
   </g>
   <g id="patch_3">
    <path d="M 108 320.4 
L 108 43.2 
" style="fill:none;stroke:#000000;stroke-linecap:square;stroke-linejoin:miter;stroke-width:0.8;"/>
   </g>
   <g id="patch_4">
    <path d="M 777.6 320.4 
L 777.6 43.2 
" style="fill:none;stroke:#000000;stroke-linecap:square;stroke-linejoin:miter;stroke-width:0.8;"/>
   </g>
   <g id="patch_5">
    <path d="M 108 320.4 
L 777.6 320.4 
" style="fill:none;stroke:#000000;stroke-linecap:square;stroke-linejoin:miter;stroke-width:0.8;"/>
   </g>
   <g id="patch_6">
    <path d="M 108 43.2 
L 777.6 43.2 
" style="fill:none;stroke:#000000;stroke-linecap:square;stroke-linejoin:miter;stroke-width:0.8;"/>
   </g>
   <g id="text_1">
    <!-- L -->
    <g transform="translate(751.596117 347.093333)scale(0.3 -0.3)">
     <defs>
      <path d="M 628 4666 
L 1259 4666 
L 1259 531 
L 3531 531 
L 3531 0 
L 628 0 
L 628 4666 
z
" id="DejaVuSans-4c" transform="scale(0.015625)"/>
     </defs>
     <use xlink:href="#DejaVuSans-4c"/>
    </g>
   </g>
   <g id="text_2">
    <!-- 0 -->
    <g transform="translate(94.998058 347.093333)scale(0.3 -0.3)">
     <defs>
      <path d="M 2034 4250 
Q 1547 4250 1301 3770 
Q 1056 3291 1056 2328 
Q 1056 1369 1301 889 
Q 1547 409 2034 409 
Q 2525 409 2770 889 
Q 3016 1369 3016 2328 
Q 3016 3291 2770 3770 
Q 2525 4250 2034 4250 
z
M 2034 4750 
Q 2819 4750 3233 4129 
Q 3647 3509 3647 2328 
Q 3647 1150 3233 529 
Q 2819 -91 2034 -91 
Q 1250 -91 836 529 
Q 422 1150 422 2328 
Q 422 3509 836 4129 
Q 1250 4750 2034 4750 
z
" id="DejaVuSans-30" transform="scale(0.015625)"/>
     </defs>
     <use xlink:href="#DejaVuSans-30"/>
    </g>
   </g>
   <g id="text_3">
    <!-- h -->
    <g transform="translate(88.497087 74)scale(0.3 -0.3)">
     <defs>
      <path d="M 3513 2113 
L 3513 0 
L 2938 0 
L 2938 2094 
Q 2938 2591 2744 2837 
Q 2550 3084 2163 3084 
Q 1697 3084 1428 2787 
Q 1159 2491 1159 1978 
L 1159 0 
L 581 0 
L 581 4863 
L 1159 4863 
L 1159 2956 
Q 1366 3272 1645 3428 
Q 1925 3584 2291 3584 
Q 2894 3584 3203 3211 
Q 3513 2838 3513 2113 
z
" id="DejaVuSans-68" transform="scale(0.015625)"/>
     </defs>
     <use xlink:href="#DejaVuSans-68"/>
    </g>
   </g>
   <g id="legend_1">
    <g id="patch_7">
     <path d="M 685.878125 117.9125 
L 763.6 117.9125 
Q 767.6 117.9125 767.6 113.9125 
L 767.6 57.2 
Q 767.6 53.2 763.6 53.2 
L 685.878125 53.2 
Q 681.878125 53.2 681.878125 57.2 
L 681.878125 113.9125 
Q 681.878125 117.9125 685.878125 117.9125 
z
" style="fill:#ffffff;opacity:0.8;stroke:#cccccc;stroke-linejoin:miter;"/>
    </g>
    <g id="line2d_3">
     <path d="M 689.878125 69.396875 
L 729.878125 69.396875 
" style="fill:none;stroke:#ff0000;stroke-linecap:square;stroke-width:1.5;"/>
    </g>
    <g id="line2d_4"/>
    <g id="text_4">
     <!-- A -->
     <g transform="translate(745.878125 76.396875)scale(0.2 -0.2)">
      <defs>
       <path d="M 2188 4044 
L 1331 1722 
L 3047 1722 
L 2188 4044 
z
M 1831 4666 
L 2547 4666 
L 4325 0 
L 3669 0 
L 3244 1197 
L 1141 1197 
L 716 0 
L 50 0 
L 1831 4666 
z
" id="DejaVuSans-41" transform="scale(0.015625)"/>
      </defs>
      <use xlink:href="#DejaVuSans-41"/>
     </g>
    </g>
    <g id="line2d_5">
     <path d="M 689.878125 98.753125 
L 729.878125 98.753125 
" style="fill:none;stroke:#0000ff;stroke-linecap:square;stroke-width:1.5;"/>
    </g>
    <g id="line2d_6"/>
    <g id="text_5">
     <!-- B -->
     <g transform="translate(745.878125 105.753125)scale(0.2 -0.2)">
      <defs>
       <path d="M 1259 2228 
L 1259 519 
L 2272 519 
Q 2781 519 3026 730 
Q 3272 941 3272 1375 
Q 3272 1813 3026 2020 
Q 2781 2228 2272 2228 
L 1259 2228 
z
M 1259 4147 
L 1259 2741 
L 2194 2741 
Q 2656 2741 2882 2914 
Q 3109 3088 3109 3444 
Q 3109 3797 2882 3972 
Q 2656 4147 2194 4147 
L 1259 4147 
z
M 628 4666 
L 2241 4666 
Q 2963 4666 3353 4366 
Q 3744 4066 3744 3513 
Q 3744 3084 3544 2831 
Q 3344 2578 2956 2516 
Q 3422 2416 3680 2098 
Q 3938 1781 3938 1306 
Q 3938 681 3513 340 
Q 3088 0 2303 0 
L 628 0 
L 628 4666 
z
" id="DejaVuSans-42" transform="scale(0.015625)"/>
      </defs>
      <use xlink:href="#DejaVuSans-42"/>
     </g>
    </g>
   </g>
  </g>
 </g>
 <defs>
  <clipPath id="p1cf140bd9b">
   <rect height="277.2" width="669.6" x="108" y="43.2"/>
  </clipPath>
 </defs>
</svg>
