<svg width="2705" height="1072" xmlns="http://www.w3.org/2000/svg" xmlns:xlink="http://www.w3.org/1999/xlink" overflow="hidden"><defs><clipPath id="clip0"><rect x="808" y="422" width="2705" height="1072"/></clipPath></defs><g clip-path="url(#clip0)" transform="translate(-808 -422)"><path d="M0 0 1.51358 134.133" stroke="#000000" stroke-width="10.3125" stroke-miterlimit="8" fill="none" fill-rule="evenodd" transform="matrix(1 0 0 -1 1206 1403.13)"/><path d="M810.5 1238C810.5 1146.6 1414.92 1072.5 2160.5 1072.5 2906.08 1072.5 3510.5 1146.6 3510.5 1238 3510.5 1329.4 2906.08 1403.5 2160.5 1403.5 1414.92 1403.5 810.5 1329.4 810.5 1238Z" stroke="#000000" stroke-width="4.58333" stroke-miterlimit="8" fill="#D0CECE" fill-rule="evenodd"/><path d="M989.5 1225C989.5 1200.42 1087.1 1180.5 1207.5 1180.5 1327.9 1180.5 1425.5 1200.42 1425.5 1225 1425.5 1249.58 1327.9 1269.5 1207.5 1269.5 1087.1 1269.5 989.5 1249.58 989.5 1225Z" stroke="#000000" stroke-width="4.58333" stroke-miterlimit="8" fill="#FFFFFF" fill-rule="evenodd"/><path d="M0 0 0.000360892 810.619" stroke="#000000" stroke-width="10.3125" stroke-miterlimit="8" fill="none" fill-rule="evenodd" transform="matrix(1 0 0 -1 2143 1237.62)"/><path d="M1142.5 1447.5C1142.5 1423.2 1170.93 1403.5 1206 1403.5 1241.07 1403.5 1269.5 1423.2 1269.5 1447.5 1269.5 1471.8 1241.07 1491.5 1206 1491.5 1170.93 1491.5 1142.5 1471.8 1142.5 1447.5Z" stroke="#000000" stroke-width="4.58333" stroke-miterlimit="8" fill="#262626" fill-rule="evenodd"/><path d="M5.15625-5.96743e-06 5.1566 301.213-5.1559 301.213-5.15625 5.96743e-06ZM30.2889 257.311 0.000360183 311.83-30.2883 257.311C-31.6713 254.821-30.7744 251.682-28.2851 250.299-25.7957 248.916-22.6566 249.813-21.2736 252.303L4.50772 298.709-4.50703 298.709 21.2742 252.303C22.6571 249.813 25.7963 248.916 28.2856 250.299 30.775 251.682 31.6719 254.821 30.2889 257.311Z" transform="matrix(1 0 0 -1 1207 1268.83)"/><rect x="1118.5" y="823.5" width="361" height="134" stroke="#000000" stroke-width="3.4375" stroke-linejoin="round" stroke-miterlimit="10" stroke-opacity="0" fill="none"/><text font-family="Calibri,Calibri_MSFontService,sans-serif" font-weight="400" font-size="83" transform="matrix(1 0 0 1 1151.39 917)">$v_0$</text><path d="M3072.08 543.5 3072.08 757.392 3062.92 757.392 3062.92 543.5ZM3094.42 718.368 3067.5 766.829 3040.58 718.368C3039.35 716.155 3040.15 713.365 3042.36 712.135 3044.57 710.906 3047.36 711.703 3048.59 713.916L3071.51 755.166 3063.49 755.166 3086.41 713.916C3087.64 711.703 3090.43 710.906 3092.64 712.135 3094.86 713.365 3095.65 716.155 3094.42 718.368Z"/><rect x="3067.5" y="573.5" width="220" height="133" stroke="#000000" stroke-width="3.4375" stroke-linejoin="round" stroke-miterlimit="10" stroke-opacity="0" fill="none"/><text font-family="Calibri,Calibri_MSFontService,sans-serif" font-weight="400" font-size="83" transform="matrix(1 0 0 1 3099.67 667)">$g$</text><path d="M0 0 937.018 0.000360892" stroke="#000000" stroke-width="8.02083" stroke-miterlimit="8" stroke-dasharray="32.0833 24.0625" fill="none" fill-rule="evenodd" transform="matrix(-1 0 0 1 2143.02 1238)"/><rect x="1659.5" y="1253.5" width="407" height="134" stroke="#000000" stroke-width="3.4375" stroke-linejoin="round" stroke-miterlimit="10" stroke-opacity="0" fill="none"/><text font-family="Calibri,Calibri_MSFontService,sans-serif" font-weight="400" font-size="83" transform="matrix(1 0 0 1 1692.27 1347)">$R$</text><path d="M2228.69 589.415 2235.37 589.627 2248.76 590.128 2261.72 590.691 2274.31 591.317 2286.46 592.006 2298.22 592.757 2309.5 593.509 2320.35 594.387 2330.74 595.264 2340.65 596.204 2350.05 597.144 2358.97 598.149 2367.4 599.219 2375.26 600.35 2382.62 601.483 2389.43 602.682 2395.68 603.88 2401.39 605.086 2406.57 606.364 2411.15 607.655 2415.14 609.029 2418.62 610.433 2421.54 611.928 2423.98 613.662 2425.84 615.712 2427.07 618.406 2426.8 621.396 2425.43 623.898 2423.28 625.87 2420.69 627.5 2417.5 629.094 2413.55 630.565 2409.01 631.992 2403.89 633.337 2398.17 634.672 2391.9 635.938 2385.09 637.2 2377.71 638.398 2369.77 639.532 2361.36 640.599 2352.5 641.667 2343.15 642.609 2333.39 643.547 2323.23 644.488 2312.64 645.302 2301.67 646.117 2278.75 647.495 2254.52 648.685 2229.3 649.623 2203.2 650.312 2176.42 650.812 2149 651 2121.27 650.875 2065.48 649.874 2051.69 649.436 2038.3 648.935 2025.34 648.371 2012.75 647.745 2000.61 647.056 1988.84 646.306 1977.57 645.554 1966.72 644.739 1956.31 643.798 1946.42 642.859 1937.01 641.918 1928.09 640.913 1919.66 639.844 1911.81 638.713 1904.46 637.582 1897.63 636.444 1891.37 635.179 1885.67 633.976 1880.5 632.699 1875.91 631.407 1871.92 630.034 1868.44 628.63 1865.53 627.134 1863.08 625.4 1861.22 623.351 1859.99 620.657 1860.27 617.667 1861.63 615.165 1863.78 613.193 1866.38 611.563 1869.56 609.968 1873.51 608.497 1876.81 607.463 1880.49 606.365 1888.83 604.39 1898.46 602.491 1909.43 600.726 1921.55 599.029 1934.86 597.397 1949.29 595.891 1964.72 594.512 1981.13 593.259 1998.42 592.131 2016.51 591.13 2035.42 590.253 2054.95 589.502 2075.16 588.939 2095.88 588.438 2117.15 588.188 2117.23 595.062 2095.98 595.312 2096.02 595.312 2075.33 595.812 2075.35 595.811 2055.16 596.374 2055.19 596.373 2035.69 597.123 2035.72 597.121 2016.85 597.996 2016.88 597.995 1998.82 598.995 1998.85 598.993 1981.6 600.118 1981.64 600.115 1965.26 601.365 1965.31 601.361 1949.93 602.736 1949.98 602.732 1935.61 604.232 1935.67 604.225 1922.42 605.85 1922.48 605.842 1910.41 607.529 1910.48 607.519 1899.61 609.269 1899.73 609.248 1890.23 611.123 1890.35 611.095 1882.17 613.033 1882.36 612.982 1878.79 614.044 1878.84 614.03 1875.65 615.03 1875.83 614.971 1872.14 616.346 1872.47 616.2 1869.6 617.637 1869.89 617.473 1867.7 618.848 1868.2 618.472 1866.7 619.847 1867.39 618.959 1866.64 620.334 1867.05 618.999 1866.92 620.374 1866.63 618.64 1867.25 620.015 1866.67 619.125 1867.92 620.5 1867.36 620.009 1869.3 621.384 1868.88 621.128 1871.44 622.441 1871.16 622.313 1874.41 623.625 1874.24 623.562 1878.06 624.875 1877.87 624.816 1882.31 626.066 1882.2 626.038 1887.26 627.288 1887.15 627.262 1892.77 628.449 1892.74 628.443 1898.93 629.693 1898.82 629.672 1905.57 630.797 1905.52 630.79 1912.84 631.915 1912.8 631.91 1920.61 633.035 1920.56 633.027 1928.93 634.09 1928.88 634.084 1937.76 635.084 1937.72 635.08 1947.09 636.017 1947.07 636.016 1956.95 636.953 1956.93 636.952 1967.31 637.889 1967.26 637.885 1978.07 638.697 1978.04 638.695 1989.28 639.445 2001.03 640.195 2001.01 640.193 2013.13 640.881 2013.11 640.879 2025.67 641.504 2025.65 641.503 2038.59 642.066 2038.57 642.065 2051.94 642.565 2051.92 642.564 2065.67 643.002 2065.62 643.001 2121.37 644.001 2121.33 644 2149.02 644.125 2148.98 644.125 2176.35 643.938 2176.31 643.938 2203.06 643.438 2203.03 643.439 2229.1 642.751 2229.06 642.753 2254.25 641.815 2254.21 641.817 2278.39 640.629 2278.36 640.631 2301.23 639.256 2301.18 639.26 2312.11 638.448 2322.67 637.635 2322.62 637.64 2332.75 636.702 2332.73 636.703 2342.48 635.766 2342.47 635.767 2351.78 634.83 2351.71 634.837 2360.53 633.775 2360.5 633.777 2368.88 632.715 2368.83 632.722 2376.7 631.597 2376.64 631.607 2383.95 630.42 2383.87 630.433 2390.62 629.183 2390.57 629.193 2396.76 627.943 2396.66 627.965 2402.28 626.653 2402.19 626.675 2407.19 625.363 2407.03 625.408 2411.41 624.033 2411.24 624.092 2414.92 622.717 2414.59 622.863 2417.46 621.426 2417.17 621.59 2419.36 620.215 2418.86 620.591 2420.36 619.216 2419.67 620.104 2420.42 618.729 2420.01 620.064 2420.14 618.689 2420.43 620.423 2419.81 619.048 2420.39 619.938 2419.14 618.562 2419.7 619.053 2417.76 617.678 2418.18 617.935 2415.62 616.622 2415.9 616.75 2412.65 615.438 2412.82 615.5 2409.01 614.188 2409.19 614.246 2404.76 612.996 2404.86 613.025 2399.8 611.775 2399.92 611.801 2394.29 610.613 2394.35 610.626 2388.16 609.439 2388.22 609.448 2381.47 608.261 2381.54 608.273 2374.23 607.148 2374.26 607.153 2366.45 606.028 2366.5 606.035 2358.13 604.973 2358.18 604.979 2349.3 603.979 2349.35 603.983 2339.97 603.046 2339.99 603.047 2330.11 602.11 2330.15 602.113 2319.77 601.238 2319.79 601.239 2308.97 600.364 2309.02 600.367 2297.78 599.618 2286.03 598.868 2286.06 598.87 2273.93 598.182 2273.95 598.183 2261.39 597.558 2261.41 597.559 2248.48 596.997 2248.5 596.998 2235.12 596.498 2235.14 596.498 2228.47 596.286ZM2267.31 620.018 2221.5 592.625 2268.96 568.201C2270.65 567.332 2272.72 567.996 2273.59 569.684 2274.46 571.372 2273.8 573.445 2272.11 574.314L2230.15 595.907 2230.34 589.9 2270.84 614.117C2272.47 615.091 2273 617.202 2272.03 618.831 2271.05 620.461 2268.94 620.992 2267.31 620.018Z"/><rect x="2200.5" y="451.5" width="406" height="133" stroke="#000000" stroke-width="3.4375" stroke-linejoin="round" stroke-miterlimit="10" stroke-opacity="0" fill="none"/><text font-family="Calibri,Calibri_MSFontService,sans-serif" font-weight="400" font-size="83" transform="matrix(1 0 0 1 2233 544)">$<tspan font-size="83" x="41.823" y="0">\</tspan><tspan font-size="83" x="73.9063" y="0">alpha</tspan><tspan font-size="83" x="258.959" y="0">$</tspan></text></g></svg>