<svg width="1056" height="1069" xmlns="http://www.w3.org/2000/svg" xmlns:xlink="http://www.w3.org/1999/xlink" overflow="hidden"><defs><clipPath id="clip0"><rect x="1685" y="440" width="1056" height="1069"/></clipPath></defs><g clip-path="url(#clip0)" transform="translate(-1685 -440)"><path d="M1993.93 996.682 2048.58 929.249 2113.3 981.7 2058.65 1049.13Z" fill="#FFFFFF" fill-rule="evenodd" fill-opacity="0.0117647"/><text font-family="Arial,Arial_MSFontService,sans-serif" font-weight="400" font-size="41" transform="matrix(0.629633 -0.776892 0.776892 0.629633 2058.59 1007)">1</text><rect x="1851" y="1259" width="220" height="88.9996" fill="#FFFFFF" fill-opacity="0.0117647"/><text font-family="Arial,Arial_MSFontService,sans-serif" font-weight="400" font-size="46" transform="matrix(1 0 0 1 1883.69 1321)">$<tspan font-size="46" x="25.2084" y="0">\</tspan><tspan font-size="46" x="37.8125" y="0">beta$</tspan></text><path d="M0 0 917.583 327.25" stroke="#000000" stroke-width="2.29167" stroke-miterlimit="8" fill="none" fill-rule="evenodd" transform="matrix(1 0 0 -1 1762 1418.25)"/><path d="M2507.95 1121.91 2532.37 1113.02 2541.26 1137.44 2516.84 1146.33Z" stroke="#AFABAB" stroke-width="2.29167" stroke-miterlimit="8" fill="none" fill-rule="evenodd"/><path d="M0 0 597.667 764.5" stroke="#000000" stroke-width="2.29167" stroke-miterlimit="8" fill="none" fill-rule="evenodd" transform="matrix(1 0 0 -1 1762 1417.5)"/><path d="M2360 653 2536.95 1124.83" stroke="#AFABAB" stroke-width="2.29167" stroke-miterlimit="8" stroke-dasharray="18.3333 6.875" fill="none" fill-rule="evenodd"/><path d="M1909.01 1230.66C1975.17 1236.27 2025 1276.37 2025 1324" stroke="#000000" stroke-width="2.29167" stroke-miterlimit="8" fill="none" fill-rule="evenodd"/><path d="M2048.78 1314.44C2071.23 1345.86 2076.46 1385.34 2062.66 1419.23" stroke="#000000" stroke-width="2.29167" stroke-miterlimit="8" fill="none" fill-rule="evenodd"/><path d="M2360 653 2360 1417.5" stroke="#FF0000" stroke-width="2.29167" stroke-miterlimit="8" stroke-dasharray="18.3333 6.875" fill="none" fill-rule="evenodd"/><path d="M2541 1140 2543.51 1417.77" stroke="#AFABAB" stroke-width="2.29167" stroke-miterlimit="8" stroke-dasharray="18.3333 6.875" fill="none" fill-rule="evenodd"/><rect x="1925" y="1332" width="248" height="89" fill="#FFFFFF" fill-opacity="0.0117647"/><text font-family="Arial,Arial_MSFontService,sans-serif" font-weight="400" font-size="46" transform="matrix(1 0 0 1 1957.73 1393)">$<tspan font-size="46" x="25.2083" y="0">\</tspan><tspan font-size="46" x="37.8125" y="0">alpha</tspan><tspan font-size="46" x="148.958" y="0">$</tspan></text><path d="M1767.17 443.508C2302.55 445.799 2735.82 879.571 2737.49 1414.95L1763 1418Z" stroke="#000000" stroke-width="4.58333" stroke-miterlimit="8" fill="none" fill-rule="evenodd"/><rect x="1685" y="1403" width="248" height="88" fill="#FFFFFF" fill-opacity="0.0117647"/><text font-family="Arial,Arial_MSFontService,sans-serif" font-weight="400" font-size="46" transform="matrix(1 0 0 1 1718.47 1464)">$O$</text><rect x="2291" y="1410" width="162" height="89" fill="#FFFFFF" fill-opacity="0.0117647"/><text font-family="Arial,Arial_MSFontService,sans-serif" font-weight="400" font-size="46" transform="matrix(1 0 0 1 2324.01 1471)">$A$</text><rect x="2481" y="1410" width="162" height="89" fill="#FFFFFF" fill-opacity="0.0117647"/><text font-family="Arial,Arial_MSFontService,sans-serif" font-weight="400" font-size="46" transform="matrix(1 0 0 1 2514.38 1471)">$B$</text><rect x="2262" y="1140" width="144" height="89" fill="#FFFFFF" fill-opacity="0.0117647"/><text font-family="Arial,Arial_MSFontService,sans-serif" font-weight="400" font-size="46" transform="matrix(1 0 0 1 2294.61 1201)">$C<tspan font-size="46" x="0" y="55">$</tspan></text><rect x="2520" y="1116" width="145" height="88" fill="#FFFFFF" fill-opacity="0.0117647"/><text font-family="Arial,Arial_MSFontService,sans-serif" font-weight="400" font-size="46" transform="matrix(1 0 0 1 2553.31 1177)">$D<tspan font-size="46" x="0" y="55">$</tspan></text><rect x="2320" y="584" width="144" height="88" fill="#FFFFFF" fill-opacity="0.0117647"/><text font-family="Arial,Arial_MSFontService,sans-serif" font-weight="400" font-size="46" transform="matrix(1 0 0 1 2353.15 645)">$E<tspan font-size="46" x="0" y="55">$</tspan></text><path d="M0 0 0.000360892 492.239" stroke="#AFABAB" stroke-width="2.29167" stroke-miterlimit="8" stroke-dasharray="18.3333 6.875" fill="none" fill-rule="evenodd" transform="matrix(-1 0 0 1 2543 653)"/><path d="M2362 653 2543.98 653" stroke="#AFABAB" stroke-width="2.29167" stroke-miterlimit="8" stroke-dasharray="18.3333 6.875" fill="none" fill-rule="evenodd"/><rect x="2487" y="585" width="144" height="89.0001" fill="#FFFFFF" fill-opacity="0.0117647"/><text font-family="Arial,Arial_MSFontService,sans-serif" font-weight="400" font-size="46" transform="matrix(1 0 0 1 2519.56 647)">$F<tspan font-size="46" x="0" y="55">$</tspan></text></g></svg>