<svg width="3698" height="1128" xmlns="http://www.w3.org/2000/svg" xmlns:xlink="http://www.w3.org/1999/xlink" overflow="hidden"><defs><clipPath id="clip0"><rect x="3" y="331" width="3698" height="1128"/></clipPath><clipPath id="clip1"><rect x="33" y="798" width="355" height="355"/></clipPath><clipPath id="clip2"><rect x="33" y="798" width="355" height="355"/></clipPath><clipPath id="clip3"><rect x="33" y="798" width="355" height="355"/></clipPath></defs><g clip-path="url(#clip0)" transform="translate(-3 -331)"><g clip-path="url(#clip1)"><g clip-path="url(#clip2)"><g clip-path="url(#clip3)"><path d="M128.038 1022.28C139.464 1022.28 148.75 1031.58 148.75 1043 148.75 1054.41 139.463 1063.71 128.038 1063.71 116.619 1063.71 107.325 1054.41 107.325 1043 107.325 1031.58 116.619 1022.28 128.038 1022.28Z" fill="#FFFFFF"/><path d="M291.962 1022.28C303.381 1022.28 312.675 1031.58 312.675 1043 312.675 1054.41 303.38 1063.71 291.962 1063.71 280.536 1063.71 271.25 1054.41 271.25 1043 271.25 1031.58 280.537 1022.28 291.962 1022.28Z" fill="#FFFFFF"/><path d="M177.07 880.759 177.07 938.19 69.6805 938.19 114.94 890.106C119.211 885.564 130.328 880.759 136.564 880.759L177.07 880.759Z" fill="#FFFFFF"/><path d="M265.081 888.23 288.309 938.189 177.07 938.189 177.07 880.759 253.308 880.759C257.014 880.759 263.507 884.878 265.081 888.23Z" fill="#C5E2E2"/><path d="M349.047 960.785C349.047 957.214 349.627 953.788 350.696 950.571 350.696 950.564 324.282 941.759 324.282 941.759 318.384 939.801 311.402 933.586 308.751 927.968L285.522 878.604C280.235 867.359 265.736 858.162 253.308 858.162L136.564 858.162C124.136 858.162 107.001 865.566 98.4824 874.62L46.3918 929.964C42.1362 934.491 38.6488 943.273 38.6488 949.487L38.6488 1020.4C38.6488 1032.83 48.8166 1043 61.2446 1043L77.1975 1043C77.1975 1014.92 99.9593 992.155 128.038 992.155 156.117 992.155 178.878 1014.92 178.878 1043L241.122 1043C241.122 1014.92 263.884 992.155 291.963 992.155 320.042 992.155 342.803 1014.92 342.803 1043 342.803 1043 350.847 1043 361.67 1043 372.494 1043 381.351 1032.83 381.351 1020.4L381.351 993.089C363.508 993.089 349.047 978.628 349.047 960.785ZM69.6805 938.19 114.94 890.106C119.211 885.564 130.328 880.759 136.564 880.759L253.309 880.759C257.015 880.759 263.507 884.879 265.082 888.23L288.31 938.189 69.6805 938.189Z" fill="#ED6951"/><path d="M128.038 992.155C156.117 992.155 178.878 1014.92 178.878 1043 178.878 1071.07 156.117 1093.84 128.038 1093.84 99.9593 1093.84 77.1975 1071.07 77.1975 1043 77.1975 1014.92 99.9586 992.155 128.038 992.155ZM148.75 1043C148.75 1031.58 139.463 1022.28 128.038 1022.28 116.619 1022.28 107.325 1031.58 107.325 1043 107.325 1054.41 116.62 1063.71 128.038 1063.71 139.463 1063.71 148.75 1054.41 148.75 1043Z" fill="#AECE71"/><path d="M291.962 992.155C320.041 992.155 342.803 1014.92 342.803 1043 342.803 1071.07 320.041 1093.84 291.962 1093.84 263.883 1093.84 241.122 1071.07 241.122 1043 241.122 1014.92 263.883 992.155 291.962 992.155ZM312.675 1043C312.675 1031.58 303.381 1022.28 291.963 1022.28 280.537 1022.28 271.25 1031.58 271.25 1043 271.25 1054.41 280.537 1063.71 291.963 1063.71 303.381 1063.71 312.675 1054.41 312.675 1043Z" fill="#AECE71"/><path d="M350.704 950.572C367.56 956.191 381.351 975.322 381.351 993.089 363.508 993.089 349.047 978.628 349.047 960.785 349.047 957.215 349.627 953.788 350.704 950.572Z" fill="#EEC278"/><path d="M128.041 1069.36C142.577 1069.36 154.403 1057.53 154.403 1043 154.403 1028.46 142.577 1016.63 128.041 1016.63 113.505 1016.63 101.679 1028.46 101.679 1043 101.679 1057.53 113.505 1069.36 128.041 1069.36ZM128.041 1027.93C136.347 1027.93 143.104 1034.69 143.104 1043 143.104 1051.3 136.347 1058.06 128.041 1058.06 119.735 1058.06 112.977 1051.3 112.977 1043 112.977 1034.69 119.733 1027.93 128.041 1027.93Z" fill="#700019"/><path d="M291.959 1016.64C277.423 1016.64 265.597 1028.46 265.597 1043 265.597 1057.53 277.423 1069.36 291.959 1069.36 306.495 1069.36 318.321 1057.53 318.321 1043 318.321 1028.46 306.495 1016.64 291.959 1016.64ZM291.959 1058.06C283.654 1058.06 276.896 1051.3 276.896 1043 276.896 1034.69 283.654 1027.93 291.959 1027.93 300.265 1027.93 307.023 1034.69 307.023 1043 307.023 1051.3 300.267 1058.06 291.959 1058.06Z" fill="#700019"/><path d="M136.564 886.407 154.474 886.407C157.594 886.407 160.123 883.878 160.123 880.758 160.123 877.638 157.594 875.109 154.474 875.109L136.564 875.109C128.713 875.109 116.204 880.514 110.822 886.232L65.5639 934.319C64.0193 935.961 63.5989 938.362 64.4922 940.431 65.3862 942.5 67.4244 943.839 69.6777 943.839L288.307 943.839C290.237 943.839 292.032 942.855 293.07 941.228 294.107 939.602 294.243 937.558 293.43 935.808L270.191 885.823C267.694 880.516 259.174 875.109 253.308 875.109L177.07 875.109C173.949 875.109 171.421 877.638 171.421 880.758L171.42 932.542 82.7529 932.542 119.049 893.975C122.245 890.579 131.903 886.407 136.564 886.407ZM182.719 886.407 253.292 886.407C254.952 886.484 259.199 889.179 259.958 890.611L279.452 932.542 182.718 932.542 182.719 886.407Z" fill="#700019"/><path d="M387 993.091C387 973.032 371.518 951.553 352.49 945.21 352.477 945.205 326.069 936.403 326.069 936.403 321.66 934.934 315.844 929.766 313.865 925.562L290.637 876.202C284.386 862.918 267.99 852.513 253.308 852.513L136.564 852.513C122.525 852.513 103.99 860.521 94.3685 870.744L42.2794 926.09C37.0758 931.619 33 941.896 33 949.488L33 1020.4C33 1035.98 45.67 1048.65 61.2446 1048.65L71.8342 1048.65C74.6773 1077.15 98.7984 1099.49 128.041 1099.49 157.283 1099.49 181.403 1077.15 184.247 1048.65L218.524 1048.65C221.645 1048.65 224.173 1046.12 224.173 1043 224.173 1039.88 221.645 1037.35 218.524 1037.35L184.247 1037.35C181.404 1008.84 157.283 986.507 128.041 986.507 98.7984 986.507 74.678 1008.84 71.8342 1037.35L61.2446 1037.35C51.9003 1037.35 44.2976 1029.75 44.2976 1020.4L44.2976 949.488C44.2976 944.748 47.2568 937.286 50.5057 933.834L102.596 878.487C110.083 870.531 125.639 863.811 136.564 863.811L253.308 863.811C263.614 863.811 276.026 871.688 280.414 881.012L303.642 930.373C306.972 937.449 315.077 944.649 322.495 947.122L343.96 954.277C343.589 956.417 343.397 958.592 343.397 960.786 343.397 979.794 357.444 995.581 375.702 998.318L375.702 1020.4C375.702 1029.75 369.408 1037.35 361.67 1037.35L348.166 1037.35C345.323 1008.84 321.202 986.508 291.959 986.508 260.811 986.508 235.47 1011.85 235.47 1043 235.47 1074.15 260.811 1099.49 291.959 1099.49 321.201 1099.49 345.322 1077.15 348.166 1048.65L361.67 1048.65C375.637 1048.65 387 1035.98 387 1020.4L387 993.091 387 993.091ZM128.041 997.805C152.959 997.805 173.232 1018.08 173.232 1043 173.232 1067.92 152.96 1088.19 128.041 1088.19 103.122 1088.19 82.849 1067.92 82.849 1043 82.849 1018.08 103.122 997.805 128.041 997.805ZM291.959 1088.19C267.041 1088.19 246.768 1067.92 246.768 1043 246.768 1018.08 267.04 997.805 291.959 997.805 316.878 997.805 337.151 1018.08 337.151 1043 337.151 1067.92 316.878 1088.19 291.959 1088.19ZM354.694 960.786C354.694 960.055 354.725 959.329 354.782 958.606 364.694 964.351 372.698 975.455 375.016 986.675 363.367 983.825 354.694 973.301 354.694 960.786Z" fill="#700019"/></g></g></g><path d="M33 1095 3670.8 1095" stroke="#000000" stroke-width="13.75" stroke-miterlimit="8" fill="none" fill-rule="evenodd"/><path d="M0 0 0.000360892 408.268" stroke="#000000" stroke-width="3.4375" stroke-miterlimit="8" stroke-dasharray="27.5 10.3125" stroke-opacity="0.501961" fill="none" fill-rule="evenodd" transform="matrix(1 0 0 -1 2764.5 1095.77)"/><path d="M53.9998 687C53.9998 661.318 179.792 640.499 334.964 640.499L1128.04 640.499C1283.21 640.499 1409 619.679 1409 593.997 1409 619.679 1534.79 640.499 1689.96 640.499L2483.04 640.499C2638.21 640.499 2764 661.318 2764 687" stroke="#000000" stroke-width="2.29167" stroke-miterlimit="8" stroke-opacity="0.501961" fill="none" fill-rule="evenodd"/><path d="M2764 687C2764 661.319 2865.52 640.5 2990.75 640.5L2990.75 640.5C3115.98 640.5 3217.5 619.682 3217.5 594 3217.5 619.682 3319.02 640.5 3444.25 640.5L3444.25 640.5C3569.48 640.5 3671 661.319 3671 687" stroke="#000000" stroke-width="2.29167" stroke-miterlimit="8" stroke-opacity="0.501961" fill="none" fill-rule="evenodd"/><rect x="1057.5" y="340.5" width="599" height="133" stroke="#000000" stroke-width="3.4375" stroke-linejoin="round" stroke-miterlimit="10" stroke-opacity="0" fill="none"/><text font-family="Calibri,Calibri_MSFontService,sans-serif" font-weight="400" font-size="83" transform="matrix(1 0 0 1 1093.82 433)">aceleración cte.</text><rect x="1160.5" y="460.5" width="599" height="134" stroke="#000000" stroke-width="3.4375" stroke-linejoin="round" stroke-miterlimit="10" stroke-opacity="0" fill="none"/><text font-family="Calibri,Calibri_MSFontService,sans-serif" font-weight="400" font-size="83" transform="matrix(1 0 0 1 1356.17 554)">$a_0$</text><rect x="2882.5" y="437.5" width="531" height="133" stroke="#000000" stroke-width="3.4375" stroke-linejoin="round" stroke-miterlimit="10" stroke-opacity="0" fill="none"/><text font-family="Calibri,Calibri_MSFontService,sans-serif" font-weight="400" font-size="83" transform="matrix(1 0 0 1 2915.75 530)">velocidad cte.</text><path d="M2.33714-1.14583 3635.46-1.14547 3635.46 1.14619 2.33714 1.14583ZM43.054 23.9183 0.00100126-4.73822e-08 43.054-23.9183C43.6071-24.2256 44.3047-24.0263 44.6121-23.4731 44.9194-22.9199 44.7201-22.2224 44.1669-21.915L2.91688 1.00164 2.91688-1.00164 44.1669 21.915C44.7201 22.2224 44.9194 22.9199 44.6121 23.4731 44.3047 24.0263 43.6071 24.2256 43.054 23.9183ZM3594.74-23.9179 3637.79 0.000360859 3594.74 23.9187C3594.19 24.226 3593.49 24.0267 3593.18 23.4735 3592.87 22.9203 3593.07 22.2227 3593.63 21.9154L3634.88-1.00128 3634.88 1.002 3593.63-21.9147C3593.07-22.222 3592.87-22.9196 3593.18-23.4728 3593.49-24.026 3594.19-24.2253 3594.74-23.9179Z" fill="#000000" fill-opacity="0.501961" transform="matrix(-1 0 0 1 3670.79 1276)"/><rect x="1601.5" y="1293.5" width="599" height="134" stroke="#000000" stroke-width="3.4375" stroke-linejoin="round" stroke-miterlimit="10" stroke-opacity="0" fill="none"/><text font-family="Calibri,Calibri_MSFontService,sans-serif" font-weight="400" font-size="83" transform="matrix(1 0 0 1 1841.01 1387)">$L$</text><rect x="2491.5" y="1103.5" width="599" height="133" stroke="#000000" stroke-width="3.4375" stroke-linejoin="round" stroke-miterlimit="10" stroke-opacity="0" fill="none"/><text font-family="Calibri,Calibri_MSFontService,sans-serif" font-weight="400" font-size="83" transform="matrix(1 0 0 1 2673.25 1197)">$3L/4$</text><rect x="54.5002" y="721.5" width="599" height="133" stroke="#000000" stroke-width="3.4375" stroke-linejoin="round" stroke-miterlimit="10" stroke-opacity="0" fill="none"/><text font-family="Calibri,Calibri_MSFontService,sans-serif" font-weight="400" font-size="83" transform="matrix(1 0 0 1 147.203 814)">$<tspan font-size="83" x="41.8229" y="0">\</tspan><tspan font-size="83" x="73.9063" y="0">textbf</tspan><tspan font-size="83" x="271.86" y="0">{A}$</tspan></text></g></svg>