<svg width="1515" height="714" xmlns="http://www.w3.org/2000/svg" xmlns:xlink="http://www.w3.org/1999/xlink" overflow="hidden"><defs><clipPath id="clip0"><rect x="329" y="663" width="1515" height="714"/></clipPath></defs><g clip-path="url(#clip0)" transform="translate(-329 -663)"><path d="M372.5 1326.5 1841.5 690.5 1841.5 1326.5Z" stroke="#000000" stroke-width="4.58333" stroke-miterlimit="8" fill="#FFFFFF" fill-rule="evenodd"/><path d="M1158.57 835.202 1310.11 771.689 1363.1 898.124 1211.56 961.637Z" stroke="#000000" stroke-width="4.58333" stroke-miterlimit="8" fill="#D0CECE" fill-rule="evenodd"/><rect x="537.5" y="1212.5" width="387" height="133" stroke="#000000" stroke-width="3.4375" stroke-linejoin="round" stroke-miterlimit="10" stroke-opacity="0" fill="none"/><text font-family="Calibri,Calibri_MSFontService,sans-serif" font-weight="400" font-size="83" transform="matrix(1 0 0 1 570.11 1305)">$<tspan font-size="83" x="41.8229" y="0">\</tspan><tspan font-size="83" x="73.9063" y="0">alpha</tspan><tspan font-size="83" x="258.958" y="0">$</tspan></text><path d="M673.824 1192.68C715.397 1220.2 741 1271.02 741 1326" stroke="#000000" stroke-width="2.29167" stroke-miterlimit="8" fill="none" fill-rule="evenodd"/><rect x="1125.5" y="671.5" width="387" height="134" stroke="#000000" stroke-width="3.4375" stroke-linejoin="round" stroke-miterlimit="10" stroke-opacity="0" fill="none"/><text font-family="Calibri,Calibri_MSFontService,sans-serif" font-weight="400" font-size="83" transform="matrix(1 0 0 1 1157.87 765)">$M$</text><path d="M840.531 981.855 852.001 982.168 863.312 983.111 874.373 984.619 885.185 986.693 895.684 989.334 905.873 992.479 915.624 996.19 925.002 1000.34 933.878 1005.07 942.317 1010.17 950.198 1015.78 957.448 1021.77 964.139 1028.14 970.139 1034.96 975.513 1042.11 978.868 1047.65 976.908 1048.84 973.582 1043.34 973.647 1043.44 968.334 1036.38 968.39 1036.44 962.452 1029.69 962.522 1029.77 955.897 1023.45 955.958 1023.51 948.77 1017.57 948.835 1017.62 941.023 1012.06 941.095 1012.11 932.72 1007.04 932.774 1007.07 923.962 1002.39 924.036 1002.42 914.723 998.298 914.78 998.321 905.092 994.633 905.162 994.657 895.037 991.532 895.095 991.549 884.658 988.924 884.722 988.938 873.972 986.875 874.033 986.885 863.033 985.385 863.092 985.392 851.842 984.454 851.906 984.458 840.469 984.146ZM978.523 1016.4 979.065 1050.19 949.379 1034.03C948.823 1033.73 948.618 1033.03 948.921 1032.47 949.223 1031.92 949.919 1031.71 950.475 1032.02L978.436 1047.24 976.742 1048.26 976.231 1016.43C976.221 1015.8 976.726 1015.28 977.359 1015.27 977.991 1015.26 978.513 1015.76 978.523 1016.4Z" fill="#FF0000"/><rect x="695.5" y="903.5" width="387" height="133" stroke="#000000" stroke-width="3.4375" stroke-linejoin="round" stroke-miterlimit="10" stroke-opacity="0" fill="none"/><text font-family="Calibri,Calibri_MSFontService,sans-serif" font-weight="400" font-size="83" transform="matrix(1 0 0 1 727.527 996)">$<tspan font-size="83" x="41.8229" y="0">\</tspan><tspan font-size="83" x="73.9063" y="0">mu$</tspan></text><path d="M375.938 820.5 375.938 1001.17 369.063 1001.17 369.063 820.5ZM398.422 961.587 372.5 1008.25 346.579 961.587C345.657 959.928 346.255 957.835 347.914 956.913 349.574 955.991 351.667 956.589 352.589 958.248L375.505 999.498 369.496 999.498 392.412 958.248C393.334 956.589 395.427 955.991 397.086 956.913 398.746 957.835 399.344 959.927 398.422 961.587Z"/><rect x="365.5" y="832.5" width="387" height="133" stroke="#000000" stroke-width="3.4375" stroke-linejoin="round" stroke-miterlimit="10" stroke-opacity="0" fill="none"/><text font-family="Calibri,Calibri_MSFontService,sans-serif" font-weight="400" font-size="83" transform="matrix(1 0 0 1 398.224 926)">$g$</text></g></svg>