<svg width="1332" height="709" xmlns="http://www.w3.org/2000/svg" xmlns:xlink="http://www.w3.org/1999/xlink" xml:space="preserve" overflow="hidden"><g transform="translate(-2236 -490)"><path d="M2284.5 1177.5 3021.5 638.5 3021.5 1177.5Z" stroke="#000000" stroke-width="6.875" stroke-miterlimit="8" fill="none" fill-rule="evenodd"/><path d="M2968.5 615.5C2968.5 593.961 2985.96 576.5 3007.5 576.5 3029.04 576.5 3046.5 593.961 3046.5 615.5 3046.5 637.039 3029.04 654.5 3007.5 654.5 2985.96 654.5 2968.5 637.039 2968.5 615.5Z" stroke="#000000" stroke-width="6.875" stroke-miterlimit="8" fill="#D1D1D1" fill-rule="evenodd"/><path d="M2994.5 615.5C2994.5 608.32 3000.32 602.5 3007.5 602.5 3014.68 602.5 3020.5 608.32 3020.5 615.5 3020.5 622.68 3014.68 628.5 3007.5 628.5 3000.32 628.5 2994.5 622.68 2994.5 615.5Z" stroke="#000000" stroke-width="6.875" stroke-miterlimit="8" fill="#3A3A3A" fill-rule="evenodd"/><path d="M2976.5 666.5 3007.5 621.5 3038.5 666.5Z" stroke="#000000" stroke-width="6.875" stroke-miterlimit="8" fill-rule="evenodd"/><path d="M2236.5 1180.5 3558.79 1180.5" stroke="#000000" stroke-width="17.1875" stroke-miterlimit="8" fill="none" fill-rule="evenodd"/><path d="M3556.5 490.5 3556.5 1190.15" stroke="#000000" stroke-width="17.1875" stroke-miterlimit="8" fill="none" fill-rule="evenodd"/><path d="M0 0 428.74 0.000360892" stroke="#000000" stroke-width="6.875" stroke-miterlimit="8" fill="none" fill-rule="evenodd" transform="matrix(0.809017 -0.587785 -0.587785 -0.809017 2642.88 830.683)"/><path d="M3007.5 576.5 3556.81 576.5" stroke="#000000" stroke-width="6.875" stroke-miterlimit="8" fill="none" fill-rule="evenodd"/><path d="M2493.99 872.034 2609.86 787.846 2679.57 883.79 2563.7 967.978Z" stroke="#000000" stroke-width="6.875" stroke-miterlimit="8" fill="none" fill-rule="evenodd"/><path d="M2560.97 877.441C2562.35 876.441 2563.76 876.104 2565.22 876.432 2566.68 876.759 2567.94 877.655 2569 879.12 2569.87 880.322 2570.55 881.783 2571.03 883.504L2571.52 883.349C2571.36 878.893 2571.74 875.216 2572.67 872.318 2573.61 869.419 2575.09 867.231 2577.12 865.754 2579.22 864.229 2581.25 863.666 2583.21 864.063 2585.17 864.46 2586.96 865.785 2588.6 868.036L2588.93 868.495C2589.04 868.648 2589.15 868.82 2589.26 869.011 2589.2 864.978 2589.63 861.633 2590.56 858.974 2591.48 856.316 2592.95 854.256 2594.96 852.795 2596.97 851.334 2598.94 850.786 2600.88 851.15 2602.81 851.515 2604.54 852.746 2606.07 854.845 2607.07 856.222 2608.17 858.408 2609.38 861.404L2613.49 871.543C2614.63 874.354 2615.56 876.252 2616.27 877.235 2616.91 878.11 2617.51 878.64 2618.08 878.827 2618.65 879.014 2619.24 878.886 2619.85 878.441 2620.51 877.964 2621.01 877.188 2621.37 876.113 2621.72 875.038 2622.03 873.253 2622.29 870.761L2625.49 871.239C2625.06 874.594 2624.48 877.249 2623.77 879.206 2623.05 881.162 2621.8 882.791 2620 884.093 2618.58 885.126 2617.08 885.443 2615.49 885.046 2613.89 884.649 2612.53 883.664 2611.38 882.09 2610.35 880.669 2609.2 878.32 2607.92 875.041L2605.24 868.321C2604.27 865.885 2603.51 864.116 2602.96 863.013 2602.41 861.911 2601.91 861.053 2601.47 860.441 2600.37 858.933 2599.33 858.028 2598.34 857.727 2597.35 857.425 2596.29 857.687 2595.16 858.513 2594.24 859.18 2593.5 860.239 2592.96 861.69 2592.41 863.141 2592.08 865.014 2591.98 867.309 2591.88 869.604 2591.97 871.723 2592.26 873.665 2592.56 875.607 2593.22 877.753 2594.26 880.103L2601.69 896.599 2596.02 900.72 2587.68 881.325C2586.67 878.958 2585.89 877.229 2585.34 876.138 2584.8 875.046 2584.28 874.15 2583.77 873.451 2582.62 871.877 2581.53 870.959 2580.49 870.697 2579.45 870.436 2578.34 870.734 2577.16 871.591 2576.33 872.195 2575.63 873.226 2575.07 874.685 2574.51 876.143 2574.18 878.069 2574.08 880.462 2573.98 882.854 2574.1 884.996 2574.44 886.887 2574.78 888.779 2575.45 890.896 2576.45 893.241L2583.65 909.701 2577.98 913.822 2567.67 889.557C2566.62 887.109 2565.69 885.317 2564.86 884.18 2564.23 883.306 2563.62 882.775 2563.05 882.588 2562.48 882.401 2561.89 882.53 2561.28 882.975 2560.6 883.467 2560.09 884.266 2559.74 885.371 2559.39 886.476 2559.09 888.238 2558.85 890.655L2555.64 890.177C2556.11 886.768 2556.69 884.095 2557.41 882.158 2558.12 880.221 2559.31 878.648 2560.97 877.441Z" fill-rule="evenodd"/><text fill="#000000" fill-opacity="0" font-family="Arial,Arial_MSFontService,sans-serif" font-size="62.7806" x="2555.64" y="905.974">𝑚</text><path d="M2939.05 1092.94 2953.52 1092.94 2958.14 1132.25 2981.77 1092.94 2994.53 1092.94 2994.09 1094.93C2993.06 1095.14 2992.32 1095.39 2991.88 1095.66 2991.43 1095.93 2991.03 1096.33 2990.66 1096.87 2990.3 1097.41 2989.93 1098.26 2989.57 1099.4 2989.2 1100.55 2988.74 1102.42 2988.17 1105.02L2981.24 1136.47C2980.89 1138.06 2980.66 1139.32 2980.55 1140.26 2980.44 1141.19 2980.39 1142.03 2980.39 1142.79 2980.39 1144 2980.69 1144.86 2981.3 1145.36 2981.91 1145.86 2982.93 1146.17 2984.36 1146.27L2983.92 1148.26 2967.7 1148.26 2968.15 1146.27C2969.18 1146.11 2969.95 1145.85 2970.46 1145.48 2970.97 1145.12 2971.41 1144.61 2971.76 1143.96 2972.11 1143.32 2972.43 1142.53 2972.73 1141.59 2973.03 1140.66 2973.47 1138.86 2974.07 1136.18L2979.46 1111.74C2980.21 1108.37 2981.08 1105 2982.05 1101.65L2981.48 1101.65C2980.65 1103.25 2978.76 1106.49 2975.81 1111.38L2957.37 1141.82 2952.95 1141.82 2949.59 1115.76C2949.1 1112.08 2948.56 1107.14 2947.97 1100.92L2947.16 1100.92C2946.24 1106.98 2945.21 1112.58 2944.08 1117.74L2939.94 1136.47C2939.38 1139.03 2939.09 1141.14 2939.09 1142.79 2939.09 1144 2939.4 1144.86 2940 1145.36 2940.61 1145.86 2941.63 1146.17 2943.06 1146.27L2942.62 1148.26 2928.43 1148.26 2928.88 1146.27C2929.91 1146.11 2930.68 1145.85 2931.19 1145.48 2931.7 1145.12 2932.14 1144.61 2932.49 1143.96 2932.84 1143.32 2933.16 1142.53 2933.46 1141.59 2933.76 1140.66 2934.2 1138.86 2934.8 1136.18L2941.69 1104.98C2941.96 1103.81 2942.17 1102.71 2942.33 1101.65 2942.5 1100.6 2942.58 1099.53 2942.58 1098.45 2942.58 1097.18 2942.26 1096.3 2941.63 1095.8 2940.99 1095.3 2939.98 1095.01 2938.61 1094.93Z" fill-rule="evenodd"/><text fill="#000000" fill-opacity="0" font-family="Arial,Arial_MSFontService,sans-serif" font-size="55.3198" x="2928.43" y="1141.34">𝑀</text><path d="M2395.79 1137.96C2394.52 1143.82 2393.89 1148.75 2393.89 1152.75 2393.89 1155.78 2394.35 1158 2395.26 1159.42 2396.18 1160.84 2397.67 1161.55 2399.72 1161.55 2402.75 1161.55 2405.62 1159.51 2408.33 1155.45 2411.05 1151.38 2413.35 1145.55 2415.24 1137.96ZM2412.41 1110.65C2409.25 1110.65 2406.32 1112.64 2403.63 1116.64 2400.95 1120.64 2398.66 1126.37 2396.76 1133.83L2416.18 1133.83C2417.45 1128.13 2418.08 1123.22 2418.08 1119.12 2418.08 1116.28 2417.62 1114.16 2416.7 1112.75 2415.79 1111.35 2414.35 1110.65 2412.41 1110.65ZM2412.89 1107.36C2420.73 1107.36 2424.65 1112.33 2424.65 1122.28 2424.65 1125.09 2424.33 1128.44 2423.69 1132.35 2423.06 1136.25 2422.05 1140.23 2420.68 1144.28 2419.3 1148.34 2417.55 1151.92 2415.45 1155.04 2413.34 1158.16 2410.91 1160.58 2408.15 1162.28 2405.4 1163.98 2402.42 1164.83 2399.24 1164.83 2395.21 1164.83 2392.21 1163.6 2390.24 1161.14 2388.27 1158.68 2387.28 1155 2387.28 1150.08 2387.28 1147.4 2387.58 1144.11 2388.17 1140.19 2388.77 1136.27 2389.75 1132.27 2391.11 1128.17 2392.48 1124.08 2394.23 1120.45 2396.38 1117.27 2398.53 1114.1 2401 1111.65 2403.8 1109.94 2406.59 1108.22 2409.62 1107.36 2412.89 1107.36Z" fill-rule="evenodd"/><text fill="#000000" fill-opacity="0" font-family="Arial,Arial_MSFontService,sans-serif" font-size="57.4678" x="2387.28" y="1157.65">𝜃</text><path d="M2418.5 1076.93C2442.82 1101.91 2456.5 1135.97 2456.5 1171.5" stroke="#000000" stroke-width="6.875" stroke-miterlimit="8" fill="none" fill-rule="evenodd"/></g></svg>