<svg width="990" height="527" xmlns="http://www.w3.org/2000/svg" xmlns:xlink="http://www.w3.org/1999/xlink" overflow="hidden"><defs><clipPath id="clip0"><rect x="179" y="25" width="990" height="527"/></clipPath></defs><g clip-path="url(#clip0)" transform="translate(-179 -25)"><path d="M446.138 208.5 1168.5 208.5 1168.5 551.5 181.5 551.5 446.138 208.5Z" stroke="#000000" stroke-width="1.33333" stroke-miterlimit="8" fill="#E7E6E6" fill-rule="evenodd"/><path d="M445.551 207.408 424 179" stroke="#000000" stroke-width="2" stroke-miterlimit="8" fill="none" fill-rule="evenodd"/><path d="M403.5 180C403.5 168.678 413.35 159.5 425.5 159.5 437.65 159.5 447.5 168.678 447.5 180 447.5 191.322 437.65 200.5 425.5 200.5 413.35 200.5 403.5 191.322 403.5 180Z" stroke="#000000" stroke-width="1.33333" stroke-miterlimit="8" fill="#E7E6E6" fill-rule="evenodd"/><path d="M425.5 159.5 682.643 159.5" stroke="#000000" stroke-width="1.33333" stroke-miterlimit="8" fill="none" fill-rule="evenodd"/><rect x="682" y="94" width="188" height="114" stroke="#000000" stroke-width="2" stroke-miterlimit="8" fill="none"/><text font-family="Calibri,Calibri_MSFontService,sans-serif" font-weight="400" font-size="24" transform="translate(742.003 158)">$m_2$</text><rect x="732" y="26" width="87" height="68" stroke="#000000" stroke-width="2" stroke-miterlimit="8" fill="none"/><text font-family="Calibri,Calibri_MSFontService,sans-serif" font-weight="400" font-size="24" transform="translate(742.003 68)">$m_1$</text><path d="M0 0 116.17 147.771" stroke="#000000" stroke-width="1.33333" stroke-miterlimit="8" fill="none" fill-rule="evenodd" transform="matrix(-1 0 0 1 409.67 165.5)"/><path d="M198.724 363.449 259.185 286.374 337.03 347.44 276.569 424.514Z" stroke="#000000" stroke-width="2" stroke-miterlimit="8" fill="none" fill-rule="evenodd"/><rect x="227.5" y="336.5" width="124" height="39" stroke="#FFFFFF" stroke-linejoin="round" stroke-miterlimit="10" stroke-opacity="0.0117647" fill="none"/><text font-family="Calibri,Calibri_MSFontService,sans-serif" font-weight="400" font-size="24" transform="translate(236.791 363)">$m_3$</text><rect x="217.5" y="503.5" width="115" height="39" stroke="#FFFFFF" stroke-linejoin="round" stroke-miterlimit="10" stroke-opacity="0" fill="none"/><text font-family="Calibri,Calibri_MSFontService,sans-serif" font-weight="400" font-size="24" transform="translate(226.393 530)">$<tspan font-size="24" x="12.1667" y="0">\</tspan><tspan font-size="24" x="21.5" y="0">alpha</tspan><tspan font-size="24" x="75.3333" y="0">$</tspan></text><path d="M250.763 460.311C290.667 478.975 312.712 516.242 304.202 550.651" stroke="#000000" stroke-width="0.666667" stroke-miterlimit="8" fill="none" fill-rule="evenodd"/><path d="M200.167 111 200.167 179 197.833 179 197.833 111ZM205.667 177.667 199 191 192.333 177.667Z"/><rect x="199.5" y="130.5" width="124" height="39" stroke="#FFFFFF" stroke-linejoin="round" stroke-miterlimit="10" stroke-opacity="0" fill="none"/><text font-family="Calibri,Calibri_MSFontService,sans-serif" font-weight="400" font-size="24" transform="translate(208.324 157)">$<tspan font-size="24" x="12.1667" y="0">\</tspan><tspan font-size="24" x="21.5" y="0">vec</tspan><tspan font-size="24" x="54.2667" y="0">{g}</tspan><tspan font-size="24" x="80.6" y="0">$</tspan></text></g></svg>