<svg width="428" height="244" xmlns="http://www.w3.org/2000/svg" xmlns:xlink="http://www.w3.org/1999/xlink" overflow="hidden"><defs><clipPath id="clip0"><rect x="109" y="330" width="428" height="244"/></clipPath></defs><g clip-path="url(#clip0)" transform="translate(-109 -330)"><path d="M110.5 556.5 110.5 399.5 491.5 556.5Z" stroke="#000000" stroke-width="1.33333" stroke-miterlimit="8" fill="#D0CECE" fill-rule="evenodd"/><path d="M139.371 381.245 164.605 391.72 154.618 415.78 129.384 405.306Z" stroke="#000000" stroke-width="3" stroke-miterlimit="8" fill="none" fill-rule="evenodd"/><path d="M230.797 442.962C254.158 451.263 255.448 457.445 279.199 463.301 302.951 469.157 305.923 479.442 322.507 481.498 339.091 483.554 360.161 504.192 378.552 505.048 396.942 505.905 411.223 519.697 426.954 525.387 442.686 531.077 455.16 541.682 485.547 550.007 485.091 551.989 482.962 554.589 482.933 556.227 465.327 554.127 458.435 540.831 431.983 534.818 405.531 528.805 396.799 515.457 375.938 511.268 355.078 507.079 345.743 493.778 332.631 493.07 319.518 492.362 307.144 481.534 281.681 471.661 256.218 461.788 250.821 452.067 228.183 449.181 228.338 447.066 229.99 445.903 230.797 442.962Z" fill="#262626" fill-rule="evenodd"/><path d="M230.797 442.962C246.152 443.501 263.02 457.131 279.199 463.301 295.378 469.47 314.24 485.053 330.149 484.71 346.059 484.367 371.909 504.997 383.647 507.189 395.385 509.381 412.101 525.381 437.144 529.669 462.188 533.956 473.048 547.032 485.547 550.007 485.151 552.184 483.147 554.574 482.933 556.227 466.505 550.414 441.998 536.226 426.888 532.677 411.779 529.128 388.086 516.034 370.843 509.127 353.601 502.219 340.875 494.156 319.893 487.718 298.912 481.28 273.711 466.499 228.183 449.181 228.571 446.335 230.255 444.642 230.797 442.962Z" stroke="#000000" stroke-width="0" stroke-miterlimit="8" fill="none" fill-rule="evenodd"/><path d="M0 0 23.7477 65.4137" stroke="#000000" stroke-width="0.666667" stroke-miterlimit="8" stroke-dasharray="5.33333 2" stroke-opacity="0.74902" fill="none" fill-rule="evenodd" transform="matrix(1 0 0 -1 155.5 416.914)"/><path d="M179.025 351.424 251.831 382.42 251.309 383.646 178.502 352.651ZM186.667 363.282 177.501 351.5 192.346 349.941C192.713 349.903 193.041 350.169 193.079 350.535 193.118 350.901 192.852 351.229 192.486 351.267L178.833 352.701 179.29 351.629 187.72 362.463C187.946 362.754 187.893 363.172 187.603 363.398 187.312 363.625 186.893 363.572 186.667 363.282ZM243.666 371.789 252.833 383.571 237.987 385.13C237.621 385.168 237.293 384.902 237.255 384.536 237.216 384.17 237.482 383.842 237.848 383.804L251.5 382.37 251.044 383.442 242.614 372.608C242.388 372.317 242.44 371.899 242.731 371.672 243.022 371.446 243.44 371.499 243.666 371.789Z"/><path d="M413.833 399.5 413.833 441.309 411.167 441.309 411.167 399.5ZM418.319 433.981 412.5 443.956 406.682 433.981C406.311 433.345 406.526 432.529 407.162 432.158 407.798 431.787 408.614 432.002 408.985 432.638L413.652 440.638 411.348 440.638 416.015 432.638C416.386 432.001 417.203 431.787 417.839 432.158 418.475 432.529 418.69 433.345 418.319 433.981Z"/><path d="M0 0 23.7477 65.4137" stroke="#000000" stroke-width="0.666667" stroke-miterlimit="8" stroke-dasharray="5.33333 2" stroke-opacity="0.74902" fill="none" fill-rule="evenodd" transform="matrix(1 0 0 -1 229.5 448.914)"/><path d="M0 0 23.7477 65.4137" stroke="#000000" stroke-width="0.666667" stroke-miterlimit="8" stroke-dasharray="5.33333 2" stroke-opacity="0.74902" fill="none" fill-rule="evenodd" transform="matrix(1 0 0 -1 229.5 448.914)"/><path d="M254.025 383.424 326.831 414.42 326.309 415.646 253.502 384.651ZM261.667 395.282 252.501 383.5 267.346 381.941C267.713 381.903 268.041 382.169 268.079 382.535 268.118 382.901 267.852 383.229 267.486 383.267L253.833 384.701 254.29 383.629 262.72 394.463C262.946 394.754 262.893 395.172 262.603 395.398 262.312 395.625 261.893 395.572 261.667 395.282ZM318.666 403.789 327.833 415.571 312.987 417.13C312.621 417.168 312.293 416.902 312.255 416.536 312.216 416.17 312.482 415.842 312.848 415.804L326.5 414.37 326.044 415.442 317.614 404.608C317.388 404.317 317.44 403.899 317.731 403.672 318.022 403.446 318.44 403.499 318.666 403.789Z"/><path d="M0 0 23.7477 65.4137" stroke="#000000" stroke-width="0.666667" stroke-miterlimit="8" stroke-dasharray="5.33333 2" stroke-opacity="0.74902" fill="none" fill-rule="evenodd" transform="matrix(1 0 0 -1 303.5 480.914)"/><text font-family="Calibri,Calibri_MSFontService,sans-serif" font-weight="400" font-size="24" transform="translate(208.507 359)">$D$</text><rect x="420.5" y="400.5" width="116" height="39" stroke="#FFFFFF" stroke-width="0.0666667" stroke-linejoin="round" stroke-miterlimit="10" fill="none"/><text font-family="Calibri,Calibri_MSFontService,sans-serif" font-weight="400" font-size="24" transform="translate(429.255 427)">$<tspan font-size="24" x="12.1667" y="0">\</tspan><tspan font-size="24" x="21.5" y="0">vec</tspan><tspan font-size="24" x="54.2667" y="0">{g}$</tspan></text><path d="M403.115 556.244C400.749 544.342 405.309 532.132 414.942 524.577" stroke="#000000" stroke-width="0.666667" stroke-miterlimit="8" fill="none" fill-rule="evenodd"/><text font-family="Calibri,Calibri_MSFontService,sans-serif" font-weight="400" font-size="11" transform="translate(421.633 551)">$<tspan font-size="11" x="5.33334" y="0">\</tspan><tspan font-size="11" x="9.5" y="0">the</tspan><tspan font-size="11" x="0" y="13">ta$</tspan></text><rect x="269.5" y="360.5" width="58" height="39" stroke="#FFFFFF" stroke-width="0.333333" stroke-linejoin="round" stroke-miterlimit="10" fill="none"/><text font-family="Calibri,Calibri_MSFontService,sans-serif" font-weight="400" font-size="24" transform="translate(278.372 387)">$D$</text></g></svg>